<svg width="300" height="300" viewBox="0 0 300 300" fill="none" xmlns="http://www.w3.org/2000/svg">
<path d="M269.94 239.094H250.068V239.244H269.94V239.094Z" fill="#EBEBEB"/>
<path d="M198.732 240.726H193.518V240.876H198.732V240.726Z" fill="#EBEBEB"/>
<path d="M249.468 233.526H237.954V233.676H249.468V233.526Z" fill="#EBEBEB"/>
<path d="M57.3901 234.534H31.4761V234.684H57.3901V234.534Z" fill="#EBEBEB"/>
<path d="M66.5338 234.534H62.7358V234.684H66.5338V234.534Z" fill="#EBEBEB"/>
<path d="M135.09 237.066H78.8818V237.216H135.09V237.066Z" fill="#EBEBEB"/>
<path d="M142.2 202.68H26.3458C25.4382 202.678 24.5683 202.317 23.9271 201.674C23.2859 201.032 22.9258 200.162 22.9258 199.254V36.396C22.9337 35.4936 23.2973 34.6308 23.9376 33.9949C24.578 33.3591 25.4434 33.0015 26.3458 33H142.2C143.108 33 143.98 33.361 144.622 34.0035C145.265 34.646 145.626 35.5174 145.626 36.426V199.254C145.626 200.163 145.265 201.034 144.622 201.677C143.98 202.319 143.108 202.68 142.2 202.68ZM26.3458 33.12C25.478 33.1216 24.6463 33.4674 24.0332 34.0816C23.4201 34.6958 23.0758 35.5282 23.0758 36.396V199.254C23.0758 200.122 23.4201 200.954 24.0332 201.568C24.6463 202.183 25.478 202.528 26.3458 202.53H142.2C143.068 202.528 143.9 202.183 144.515 201.569C145.129 200.955 145.474 200.122 145.476 199.254V36.396C145.474 35.5276 145.129 34.6953 144.515 34.0813C143.9 33.4672 143.068 33.1216 142.2 33.12H26.3458Z" fill="#EBEBEB"/>
<path d="M271.986 202.68H156.126C155.218 202.678 154.348 202.317 153.705 201.675C153.063 201.033 152.702 200.162 152.7 199.254V36.396C152.71 35.4931 153.075 34.6302 153.716 33.9946C154.357 33.3589 155.223 33.0015 156.126 33H271.986C272.888 33.0031 273.751 33.3613 274.39 33.997C275.03 34.6327 275.392 35.4947 275.4 36.396V199.254C275.4 200.161 275.041 201.03 274.401 201.672C273.761 202.314 272.893 202.677 271.986 202.68ZM156.126 33.12C155.258 33.1216 154.425 33.4672 153.811 34.0813C153.197 34.6953 152.852 35.5276 152.85 36.396V199.254C152.852 200.122 153.197 200.955 153.811 201.569C154.425 202.183 155.258 202.528 156.126 202.53H271.986C272.855 202.528 273.687 202.183 274.301 201.569C274.915 200.955 275.261 200.122 275.262 199.254V36.396C275.261 35.5276 274.915 34.6953 274.301 34.0813C273.687 33.4672 272.855 33.1216 271.986 33.12H156.126Z" fill="#EBEBEB"/>
<path d="M300 229.44H0V229.59H300V229.44Z" fill="#EBEBEB"/>
<path d="M273.396 42.822H230.646V187.848H273.396V42.822Z" fill="#FAFAFA"/>
<path d="M274.482 94.158H221.034V186.582H274.482V94.158Z" fill="#E0E0E0"/>
<path d="M231.3 81.2461V104.424H235.518H260.004H264.222V81.2461H231.3Z" fill="#E0E0E0"/>
<path d="M231.3 97.584H224.46V104.424H231.3V97.584Z" fill="#FAFAFA"/>
<path d="M244.554 97.584H237.714V104.424H244.554V97.584Z" fill="#FAFAFA"/>
<path d="M257.808 97.584H250.968V104.424H257.808V97.584Z" fill="#FAFAFA"/>
<path d="M271.068 97.584H264.222V104.424H271.068V97.584Z" fill="#F0F0F0"/>
<path d="M231.3 110.016H224.46V116.862H231.3V110.016Z" fill="#F0F0F0"/>
<path d="M244.554 110.016H237.714V116.862H244.554V110.016Z" fill="#F0F0F0"/>
<path d="M257.808 110.016H250.968V116.862H257.808V110.016Z" fill="#FAFAFA"/>
<path d="M271.068 110.016H264.222V116.862H271.068V110.016Z" fill="#FAFAFA"/>
<path d="M231.3 122.448H224.46V129.288H231.3V122.448Z" fill="#F0F0F0"/>
<path d="M244.554 122.448H237.714V129.288H244.554V122.448Z" fill="#FAFAFA"/>
<path d="M257.808 122.448H250.968V129.288H257.808V122.448Z" fill="#FAFAFA"/>
<path d="M244.554 86.832H237.714V93.672H244.554V86.832Z" fill="#FAFAFA"/>
<path d="M257.808 86.832H250.968V93.672H257.808V86.832Z" fill="#F0F0F0"/>
<path d="M271.068 122.448H264.222V129.288H271.068V122.448Z" fill="#F0F0F0"/>
<path d="M231.3 134.88H224.46V141.72H231.3V134.88Z" fill="#FAFAFA"/>
<path d="M244.554 134.88H237.714V141.72H244.554V134.88Z" fill="#F0F0F0"/>
<path d="M257.808 134.88H250.968V141.72H257.808V134.88Z" fill="#F0F0F0"/>
<path d="M271.068 134.88H264.222V141.72H271.068V134.88Z" fill="#FAFAFA"/>
<path d="M231.3 147.318H224.46V154.164H231.3V147.318Z" fill="#F0F0F0"/>
<path d="M244.554 147.318H237.714V154.164H244.554V147.318Z" fill="#FAFAFA"/>
<path d="M257.808 147.318H250.968V154.164H257.808V147.318Z" fill="#FAFAFA"/>
<path d="M271.068 147.318H264.222V154.164H271.068V147.318Z" fill="#F0F0F0"/>
<path d="M231.3 159.75H224.46V166.59H231.3V159.75Z" fill="#F0F0F0"/>
<path d="M244.554 159.75H237.714V166.59H244.554V159.75Z" fill="#FAFAFA"/>
<path d="M257.808 159.75H250.968V166.59H257.808V159.75Z" fill="#F0F0F0"/>
<path d="M271.068 159.75H264.222V166.59H271.068V159.75Z" fill="#FAFAFA"/>
<path d="M231.3 172.182H224.46V179.028H231.3V172.182Z" fill="#FAFAFA"/>
<path d="M244.554 172.182H237.714V179.028H244.554V172.182Z" fill="#FAFAFA"/>
<path d="M257.808 172.182H250.968V179.028H257.808V172.182Z" fill="#F0F0F0"/>
<path d="M271.068 172.182H264.222V179.028H271.068V172.182Z" fill="#F0F0F0"/>
<path opacity="0.1" d="M273.312 42.822H230.562V187.848H273.312V42.822Z" fill="white"/>
<g opacity="0.3">
<path d="M269.13 42.822H255.498L240.588 187.848H254.214L269.13 42.822Z" fill="white"/>
</g>
<path d="M273.756 40.9861H230.286V44.6641H273.756V40.9861Z" fill="#E0E0E0"/>
<path d="M273.756 186.582H230.286V190.26H273.756V186.582Z" fill="#EBEBEB"/>
<path d="M275.442 193.398H228.318V37.3979H275.442V193.398ZM231.912 189.798H271.854V40.9979H231.912V189.798Z" fill="#EBEBEB"/>
<path d="M226.764 42.822H184.014V187.848H226.764V42.822Z" fill="#FAFAFA"/>
<path d="M223.53 142.224H186.972V187.086H223.53V142.224Z" fill="#E6E6E6"/>
<path d="M220.35 147.198H211.842H209.502H207.162V151.878H209.502H211.842H220.35V147.198Z" fill="#E6E6E6"/>
<path d="M220.35 156.264H211.842H209.502H207.162V160.944H209.502H211.842H220.35V156.264Z" fill="#FAFAFA"/>
<path d="M220.35 165.33H211.842H209.502H207.162V170.01H209.502H211.842H220.35V165.33Z" fill="#E6E6E6"/>
<path d="M220.35 174.396H211.842H208.23H207.162V179.076H208.23H211.842H220.35V174.396Z" fill="#FAFAFA"/>
<path d="M203.34 147.198H194.838H192.498H190.158V151.878H192.498H194.838H203.34V147.198Z" fill="#FAFAFA"/>
<path d="M203.34 156.264H194.838H191.538H190.158V160.944H191.538H194.838H203.34V156.264Z" fill="#FAFAFA"/>
<path d="M203.34 165.33H194.838H192.498H190.158V170.01H192.498H194.838H203.34V165.33Z" fill="#E6E6E6"/>
<path d="M203.34 174.396H194.838H192.498H190.158V179.076H192.498H194.838H203.34V174.396Z" fill="#FAFAFA"/>
<path opacity="0.1" d="M226.626 42.822H183.876V187.848H226.626V42.822Z" fill="white"/>
<g opacity="0.3">
<path d="M222.498 42.822H208.872L193.956 187.848H207.588L222.498 42.822Z" fill="white"/>
</g>
<path d="M227.124 40.9861H183.654V44.6641H227.124V40.9861Z" fill="#E0E0E0"/>
<path d="M227.124 186.582H183.654V190.26H227.124V186.582Z" fill="#EBEBEB"/>
<path d="M228.816 193.398H181.692V37.3979H228.816V193.398ZM185.28 189.798H225.222V40.9979H185.28V189.798Z" fill="#EBEBEB"/>
<path d="M114.75 42.822H72V187.848H114.75V42.822Z" fill="#FAFAFA"/>
<path opacity="0.1" d="M114.666 42.822H71.916V187.848H114.666V42.822Z" fill="white"/>
<g opacity="0.3">
<path d="M110.49 42.822H96.8582L81.9482 187.848H95.5742L110.49 42.822Z" fill="white"/>
</g>
<path d="M115.116 40.9861H71.646V44.6641H115.116V40.9861Z" fill="#E0E0E0"/>
<path d="M115.116 186.582H71.646V190.26H115.116V186.582Z" fill="#EBEBEB"/>
<path d="M116.802 193.398H69.6782V37.3979H116.802V193.398ZM73.2722 189.798H113.208V40.9979H73.2722V189.798Z" fill="#EBEBEB"/>
<path d="M68.1841 42.822H25.4341V187.848H68.1841V42.822Z" fill="#FAFAFA"/>
<path d="M61.7399 104.238H28.6499V132.006H61.7399V104.238Z" fill="#E6E6E6"/>
<path d="M35.0041 107.7H30.7681V111.936H35.0041V107.7Z" fill="#FAFAFA"/>
<path d="M43.2121 107.7H38.9761V111.936H43.2121V107.7Z" fill="#FAFAFA"/>
<path d="M51.4201 107.7H47.1841V111.936H51.4201V107.7Z" fill="#FAFAFA"/>
<path d="M59.6222 107.7H55.3862V111.936H59.6222V107.7Z" fill="#FAFAFA"/>
<path d="M35.0041 115.398H30.7681V119.634H35.0041V115.398Z" fill="#FAFAFA"/>
<path d="M43.2121 115.398H38.9761V119.634H43.2121V115.398Z" fill="#FAFAFA"/>
<path d="M51.4201 115.398H47.1841V119.634H51.4201V115.398Z" fill="#FAFAFA"/>
<path d="M59.6222 115.398H55.3862V119.634H59.6222V115.398Z" fill="#E6E6E6"/>
<path d="M35.0041 123.09H30.7681V127.326H35.0041V123.09Z" fill="#E6E6E6"/>
<path d="M43.2121 123.09H38.9761V127.326H43.2121V123.09Z" fill="#E6E6E6"/>
<path d="M51.4201 123.09H47.1841V127.326H51.4201V123.09Z" fill="#FAFAFA"/>
<path d="M59.6222 123.09H55.3862V127.326H59.6222V123.09Z" fill="#E6E6E6"/>
<path d="M61.7399 131.658H28.6499V159.426H61.7399V131.658Z" fill="#E6E6E6"/>
<path d="M35.0041 135.114H30.7681V139.35H35.0041V135.114Z" fill="#FAFAFA"/>
<path d="M43.2121 135.114H38.9761V139.35H43.2121V135.114Z" fill="#FAFAFA"/>
<path d="M51.4201 135.114H47.1841V139.35H51.4201V135.114Z" fill="#FAFAFA"/>
<path d="M59.6222 135.114H55.3862V139.35H59.6222V135.114Z" fill="#FAFAFA"/>
<path d="M35.0041 142.812H30.7681V147.048H35.0041V142.812Z" fill="#FAFAFA"/>
<path d="M43.2121 142.812H38.9761V147.048H43.2121V142.812Z" fill="#FAFAFA"/>
<path d="M51.4201 142.812H47.1841V147.048H51.4201V142.812Z" fill="#FAFAFA"/>
<path d="M59.6222 142.812H55.3862V147.048H59.6222V142.812Z" fill="#E6E6E6"/>
<path d="M35.0041 150.51H30.7681V154.746H35.0041V150.51Z" fill="#E6E6E6"/>
<path d="M43.2121 150.51H38.9761V154.746H43.2121V150.51Z" fill="#E6E6E6"/>
<path d="M51.4201 150.51H47.1841V154.746H51.4201V150.51Z" fill="#FAFAFA"/>
<path d="M59.6222 150.51H55.3862V154.746H59.6222V150.51Z" fill="#E6E6E6"/>
<path d="M61.7399 159.072H28.6499V186.84H61.7399V159.072Z" fill="#E6E6E6"/>
<path d="M35.0041 162.534H30.7681V166.77H35.0041V162.534Z" fill="#FAFAFA"/>
<path d="M43.2121 162.534H38.9761V166.77H43.2121V162.534Z" fill="#FAFAFA"/>
<path d="M51.4201 162.534H47.1841V166.77H51.4201V162.534Z" fill="#FAFAFA"/>
<path d="M59.6222 162.534H55.3862V166.77H59.6222V162.534Z" fill="#FAFAFA"/>
<path d="M35.0041 170.232H30.7681V174.468H35.0041V170.232Z" fill="#FAFAFA"/>
<path d="M43.2121 170.232H38.9761V174.468H43.2121V170.232Z" fill="#FAFAFA"/>
<path d="M51.4201 170.232H47.1841V174.468H51.4201V170.232Z" fill="#FAFAFA"/>
<path d="M59.6222 170.232H55.3862V174.468H59.6222V170.232Z" fill="#E6E6E6"/>
<path d="M35.0041 177.93H30.7681V182.166H35.0041V177.93Z" fill="#E6E6E6"/>
<path d="M43.2121 177.93H38.9761V182.166H43.2121V177.93Z" fill="#E6E6E6"/>
<path d="M51.4201 177.93H47.1841V182.166H51.4201V177.93Z" fill="#FAFAFA"/>
<path d="M59.6222 177.93H55.3862V182.166H59.6222V177.93Z" fill="#E6E6E6"/>
<path opacity="0.1" d="M67.6201 42.822H24.8701V187.848H67.6201V42.822Z" fill="white"/>
<g opacity="0.3">
<path d="M63.9178 42.822H50.2918L35.3818 187.848H49.0078L63.9178 42.822Z" fill="white"/>
</g>
<path d="M68.5501 40.9861H25.0801V44.6641H68.5501V40.9861Z" fill="#E0E0E0"/>
<path d="M68.5501 186.582H25.0801V190.26H68.5501V186.582Z" fill="#EBEBEB"/>
<path d="M70.2358 193.398H23.1118V37.3979H70.2358V193.398ZM26.7058 189.798H66.6418V40.9979H26.7058V189.798Z" fill="#EBEBEB"/>
<path d="M146.112 212.766L145.632 212.826C145.602 212.58 142.686 188.172 148.704 168.228C154.704 148.428 150.564 135.768 150.504 135.648L150.966 135.492C151.008 135.618 155.166 148.398 149.166 168.366C143.178 188.214 146.082 212.526 146.112 212.766Z" fill="#E0E0E0"/>
<path d="M151.38 138.366C150.332 137.118 148.91 136.24 147.324 135.864L147.438 135.39C149.125 135.791 150.638 136.725 151.752 138.054L151.38 138.366Z" fill="#E0E0E0"/>
<path d="M153.438 140.385L152.054 141.167L152.293 141.591L153.677 140.808L153.438 140.385Z" fill="#E0E0E0"/>
<path d="M150.858 151.638C149.651 148.887 147.415 146.716 144.63 145.59L144.81 145.146C147.712 146.317 150.041 148.576 151.302 151.44L150.858 151.638Z" fill="#E0E0E0"/>
<path d="M149.562 166.884H149.076C149.06 165.903 148.827 164.937 148.393 164.056C147.959 163.175 147.336 162.401 146.568 161.79L146.868 161.412C147.693 162.069 148.362 162.9 148.828 163.846C149.294 164.792 149.544 165.83 149.562 166.884Z" fill="#E0E0E0"/>
<path d="M148.482 170.784L148.026 170.61C148.275 169.991 148.648 169.43 149.123 168.962C149.598 168.493 150.164 168.127 150.786 167.886L150.954 168.342C150.396 168.557 149.888 168.885 149.463 169.305C149.038 169.725 148.704 170.229 148.482 170.784Z" fill="#E0E0E0"/>
<path d="M145.338 195.522L144.966 195.216C145.566 194.502 146.004 191.796 146.244 190.344C146.298 189.996 146.346 189.702 146.388 189.486L146.862 189.576C146.826 189.786 146.778 190.08 146.718 190.422C146.364 192.6 145.962 194.772 145.338 195.522Z" fill="#E0E0E0"/>
<path d="M145.062 203.292C144.724 202.341 144.096 201.521 143.265 200.948C142.435 200.375 141.445 200.078 140.436 200.1V199.614C141.551 199.587 142.647 199.914 143.565 200.548C144.483 201.182 145.177 202.09 145.548 203.142L145.062 203.292Z" fill="#E0E0E0"/>
<path d="M148.765 208.367L145.351 212.188L145.713 212.512L149.128 208.691L148.765 208.367Z" fill="#E0E0E0"/>
<path d="M151.2 183.45C151.974 185.952 146.58 190.722 146.58 190.722C146.58 190.722 139.434 189.828 138.66 187.32C137.886 184.812 139.698 180.72 143.16 179.652C146.622 178.584 150.402 180.948 151.2 183.45Z" fill="#F0F0F0"/>
<path d="M157.164 153.066C156.48 155.724 151.368 157.614 151.368 157.614C151.368 157.614 147.804 153.492 148.488 150.834C149.172 148.176 151.998 145.242 154.392 145.86C156.786 146.478 157.848 150.408 157.164 153.066Z" fill="#EBEBEB"/>
<path d="M136.662 192.798C139.866 194.052 141.834 199.722 141.834 199.722C141.834 199.722 136.548 202.572 133.338 201.324C130.128 200.076 126.738 196.524 127.65 194.202C128.562 191.88 133.452 191.55 136.662 192.798Z" fill="#F5F5F5"/>
<path d="M143.694 161.58C144.341 162.125 145.084 162.547 145.884 162.822C146.287 162.951 146.718 162.968 147.13 162.87C147.543 162.773 147.921 162.566 148.224 162.27C148.914 161.478 148.728 160.254 148.296 159.3C147.438 157.41 144.276 154.206 141.846 155.1C138.342 156.45 142.128 160.422 143.694 161.58Z" fill="#E6E6E6"/>
<path d="M150.87 166.398C150.408 166.968 149.922 167.682 150.174 168.372C150.317 168.665 150.553 168.902 150.845 169.045C151.137 169.188 151.469 169.23 151.788 169.164C152.422 169.016 153.015 168.727 153.522 168.318C154.758 167.454 157.296 165.654 155.676 163.968C154.056 162.282 151.836 165.192 150.87 166.398Z" fill="#EBEBEB"/>
<path d="M140.514 142.398C140.247 142.413 139.992 142.511 139.784 142.679C139.576 142.847 139.426 143.076 139.356 143.334C139.254 143.934 139.764 144.486 140.256 144.864C141.486 145.812 145.176 148.368 146.004 145.902C146.784 143.574 142.146 142.2 140.514 142.398Z" fill="#E0E0E0"/>
<path d="M147.324 134.286C146.562 134.358 145.8 134.082 145.038 134.13C144.276 134.178 143.424 134.79 143.598 135.54C143.772 136.29 144.612 136.458 145.314 136.506C146.52 136.578 147.73 136.493 148.914 136.254C149.194 136.229 149.453 136.098 149.64 135.888C149.952 135.432 149.46 134.82 148.932 134.688C148.388 134.618 147.853 134.491 147.336 134.31L147.324 134.286Z" fill="#E6E6E6"/>
<path d="M154.8 139.53C155.568 139.53 156.306 139.224 157.074 139.224C157.842 139.224 158.724 139.776 158.604 140.532C158.484 141.288 157.65 141.522 156.948 141.612C155.753 141.771 154.543 141.771 153.348 141.612C153.065 141.606 152.795 141.492 152.592 141.294C152.256 140.856 152.706 140.22 153.192 140.022C153.732 139.918 154.259 139.755 154.764 139.536L154.8 139.53Z" fill="#F0F0F0"/>
<path d="M154.014 195.906C154.188 195.725 154.419 195.611 154.668 195.582C154.831 195.601 154.984 195.673 155.101 195.789C155.219 195.904 155.294 196.055 155.316 196.218C155.351 196.545 155.31 196.876 155.196 197.184C154.674 198.918 148.854 211.488 147.51 209.232C146.718 207.894 148.668 203.478 149.244 202.224C150.352 199.794 151.98 197.637 154.014 195.906Z" fill="#F0F0F0"/>
<path d="M150.534 134.76C150.91 133.696 151.552 132.745 152.4 132C153.318 131.334 154.8 131.286 155.46 132.204C156.21 133.23 155.46 134.79 154.314 135.336C153.168 135.882 151.83 135.714 150.57 135.54C150.57 135.354 150.57 135.168 150.54 134.982L150.534 134.76Z" fill="#E6E6E6"/>
<path d="M154.602 229.53C148.367 230.592 141.997 230.592 135.762 229.53L128.436 207.93H161.934L154.602 229.53Z" fill="#F0F0F0"/>
<path d="M150.354 67.7881C157.223 67.7881 162.792 62.2194 162.792 55.3501C162.792 48.4808 157.223 42.9121 150.354 42.9121C143.485 42.9121 137.916 48.4808 137.916 55.3501C137.916 62.2194 143.485 67.7881 150.354 67.7881Z" fill="#E0E0E0"/>
<path d="M161.801 56.8274C162.902 50.0468 158.297 43.6578 151.516 42.5572C144.736 41.4565 138.347 46.061 137.246 52.8416C136.146 59.6222 140.75 66.0111 147.531 67.1118C154.311 68.2124 160.7 63.6079 161.801 56.8274Z" fill="#EBEBEB"/>
<path opacity="0.8" d="M159.498 54.912C159.498 56.8866 158.912 58.8169 157.815 60.4588C156.718 62.1007 155.159 63.3803 153.334 64.136C151.51 64.8917 149.503 65.0894 147.566 64.7041C145.629 64.3189 143.85 63.368 142.454 61.9717C141.058 60.5754 140.107 58.7965 139.722 56.8598C139.336 54.9231 139.534 52.9156 140.29 51.0913C141.045 49.2669 142.325 47.7076 143.967 46.6106C145.609 45.5135 147.539 44.928 149.514 44.928C152.162 44.928 154.701 45.9799 156.574 47.8522C158.446 49.7246 159.498 52.2641 159.498 54.912Z" fill="white"/>
<path d="M148.974 55.854C148.785 55.6635 148.68 55.406 148.68 55.1379C148.681 54.8697 148.788 54.6126 148.977 54.423C149.167 54.2333 149.424 54.1265 149.692 54.126C149.96 54.1254 150.218 54.2311 150.408 54.42C150.503 54.514 150.578 54.6258 150.63 54.749C150.681 54.8722 150.708 55.0043 150.708 55.1379C150.708 55.2714 150.682 55.4036 150.631 55.527C150.58 55.6504 150.506 55.7626 150.411 55.857C150.317 55.9514 150.205 56.0262 150.081 56.0772C149.958 56.1282 149.826 56.1543 149.692 56.154C149.559 56.1537 149.426 56.127 149.303 56.0756C149.18 56.0241 149.068 55.9488 148.974 55.854Z" fill="#E0E0E0"/>
<path d="M149.514 54.7921L155.406 54.6121L155.424 55.2241L150.084 55.3861L149.508 64.6741L148.902 64.6381L149.514 54.7921Z" fill="#E0E0E0"/>
<path d="M150 256.206C214.249 256.206 266.334 253.165 266.334 249.414C266.334 245.663 214.249 242.622 150 242.622C85.7505 242.622 33.666 245.663 33.666 249.414C33.666 253.165 85.7505 256.206 150 256.206Z" fill="#F5F5F5"/>
<path d="M258.21 217.746L261.258 169.23C261.526 164.963 260.917 160.687 259.468 156.664C258.02 152.642 255.762 148.959 252.835 145.843C249.909 142.726 246.374 140.243 242.451 138.545C238.527 136.847 234.297 135.972 230.022 135.972C222.027 135.973 214.337 139.033 208.527 144.525C202.718 150.016 199.23 157.523 198.78 165.504L195.6 222.168H253.5C254.7 222.167 255.854 221.71 256.729 220.888C257.604 220.067 258.133 218.943 258.21 217.746Z" fill="#407BFF"/>
<path opacity="0.1" d="M258.318 216L261.258 169.242C261.526 164.975 260.917 160.699 259.468 156.676C258.02 152.654 255.762 148.971 252.835 145.855C249.909 142.738 246.374 140.255 242.451 138.557C238.527 136.859 234.297 135.984 230.022 135.984C222.027 135.985 214.337 139.045 208.527 144.537C202.718 150.028 199.23 157.534 198.78 165.516L195.6 222.168H251.754C253.425 222.162 255.033 221.523 256.251 220.378C257.47 219.233 258.208 217.668 258.318 216Z" fill="black"/>
<path d="M248.814 222.168L252.138 169.23C252.405 164.963 251.795 160.687 250.347 156.665C248.898 152.643 246.64 148.961 243.714 145.845C240.787 142.728 237.253 140.245 233.33 138.547C229.406 136.849 225.177 135.973 220.902 135.972C212.907 135.972 205.216 139.031 199.406 144.523C193.596 150.015 190.109 157.522 189.66 165.504L186.462 222.168H248.814Z" fill="#407BFF"/>
<path d="M249.81 231.282H250.608C250.823 231.27 251.027 231.182 251.183 231.034C251.339 230.885 251.437 230.686 251.46 230.472L252.66 222.174H247.8L249 230.472C249.022 230.679 249.114 230.872 249.262 231.02C249.409 231.167 249.603 231.26 249.81 231.282Z" fill="#407BFF"/>
<path opacity="0.7" d="M249.81 231.282H250.608C250.823 231.27 251.027 231.182 251.183 231.034C251.339 230.885 251.437 230.686 251.46 230.472L252.66 222.174H247.8L249 230.472C249.022 230.679 249.114 230.872 249.262 231.02C249.409 231.167 249.603 231.26 249.81 231.282Z" fill="white"/>
<path d="M171.42 231.282H172.14C172.344 231.261 172.534 231.168 172.676 231.019C172.818 230.871 172.902 230.677 172.914 230.472L174 222.174H169.584L170.658 230.472C170.669 230.675 170.752 230.868 170.891 231.016C171.031 231.164 171.218 231.258 171.42 231.282Z" fill="#407BFF"/>
<path opacity="0.5" d="M171.42 231.282H172.14C172.344 231.261 172.534 231.168 172.676 231.019C172.818 230.871 172.902 230.677 172.914 230.472L174 222.174H169.584L170.658 230.472C170.669 230.675 170.752 230.868 170.891 231.016C171.031 231.164 171.218 231.258 171.42 231.282Z" fill="white"/>
<path d="M193.986 231.282H194.712C194.916 231.261 195.106 231.168 195.248 231.019C195.39 230.871 195.474 230.677 195.486 230.472L196.554 222.174H192.144L193.2 230.472C193.212 230.679 193.298 230.874 193.443 231.023C193.587 231.172 193.78 231.263 193.986 231.282Z" fill="#407BFF"/>
<path opacity="0.7" d="M193.986 231.282H194.712C194.916 231.261 195.106 231.168 195.248 231.019C195.39 230.871 195.474 230.677 195.486 230.472L196.554 222.174H192.144L193.2 230.472C193.212 230.679 193.298 230.874 193.443 231.023C193.587 231.172 193.78 231.263 193.986 231.282Z" fill="white"/>
<path d="M225.51 231.282H226.308C226.523 231.269 226.727 231.181 226.884 231.033C227.041 230.885 227.141 230.686 227.166 230.472L228.366 222.174H223.5L224.7 230.472C224.721 230.679 224.813 230.873 224.961 231.021C225.108 231.169 225.302 231.261 225.51 231.282Z" fill="#407BFF"/>
<path opacity="0.5" d="M225.51 231.282H226.308C226.523 231.269 226.727 231.181 226.884 231.033C227.041 230.885 227.141 230.686 227.166 230.472L228.366 222.174H223.5L224.7 230.472C224.721 230.679 224.813 230.873 224.961 231.021C225.108 231.169 225.302 231.261 225.51 231.282Z" fill="white"/>
<path d="M199.092 202.2H177.756L176.346 181.632L176.04 177.216L175.902 175.182C175.863 174.648 175.793 174.117 175.692 173.592C175.692 173.478 175.644 173.352 175.62 173.238C175.607 173.152 175.585 173.067 175.554 172.986C174.979 170.89 173.859 168.983 172.308 167.46C170.518 165.692 168.152 164.627 165.642 164.46H185.712C185.928 164.46 186.15 164.46 186.372 164.46C189.093 164.472 191.701 165.549 193.638 167.46C195.19 168.983 196.312 170.889 196.89 172.986C196.921 173.067 196.943 173.152 196.956 173.238C197.097 173.878 197.191 174.528 197.238 175.182L197.376 177.216L199.092 202.2Z" fill="#407BFF"/>
<path opacity="0.1" d="M199.092 202.2H177.756L176.346 181.632L176.04 177.216L175.902 175.182C175.863 174.648 175.793 174.117 175.692 173.592C175.692 173.478 175.644 173.352 175.62 173.238C175.607 173.152 175.585 173.067 175.554 172.986C174.979 170.89 173.859 168.983 172.308 167.46C170.518 165.692 168.152 164.627 165.642 164.46H185.712C185.928 164.46 186.15 164.46 186.372 164.46C189.093 164.472 191.701 165.549 193.638 167.46C195.19 168.983 196.312 170.889 196.89 172.986C196.921 173.067 196.943 173.152 196.956 173.238C197.097 173.878 197.191 174.528 197.238 175.182L197.376 177.216L199.092 202.2Z" fill="black"/>
<g opacity="0.1">
<path d="M216 191.22H224.568C226.656 191.22 228.342 192.54 228.342 194.166V199.23C228.342 200.862 226.656 202.176 224.568 202.176H216V191.22Z" fill="black"/>
</g>
<path d="M181.014 202.176H218.754C220.55 202.176 222.006 200.72 222.006 198.924V194.466C222.006 192.67 220.55 191.214 218.754 191.214H181.014C179.218 191.214 177.762 192.67 177.762 194.466V198.924C177.762 200.72 179.218 202.176 181.014 202.176Z" fill="#407BFF"/>
<path d="M270 176.562C270.005 179.431 268.995 182.209 267.149 184.405C265.304 186.601 262.741 188.073 259.914 188.562L257.724 217.8C257.532 220.284 255.726 222.186 253.566 222.186H230.034C232.194 222.186 233.994 220.284 234.186 217.8L235.386 202.2L236.4 188.544C238.249 188.226 239.999 187.483 241.512 186.373C243.025 185.263 244.26 183.817 245.118 182.148C245.236 181.936 245.342 181.718 245.436 181.494C246.129 179.942 246.485 178.261 246.48 176.562C246.478 175.73 246.394 174.9 246.228 174.084C246.162 173.76 246.078 173.436 245.988 173.118C245.56 171.689 244.877 170.349 243.972 169.164C242.836 167.685 241.376 166.487 239.705 165.661C238.033 164.835 236.194 164.404 234.33 164.4H257.862C259.748 164.393 261.608 164.833 263.292 165.684C264.937 166.503 266.374 167.687 267.492 169.146C269.125 171.273 270.007 173.881 270 176.562Z" fill="#407BFF"/>
<path opacity="0.1" d="M270 176.562C270.005 179.431 268.995 182.209 267.149 184.405C265.304 186.601 262.741 188.073 259.914 188.562L257.724 217.8C257.532 220.284 255.726 222.186 253.566 222.186H230.034C232.194 222.186 233.994 220.284 234.186 217.8L235.386 202.2L236.4 188.544C238.249 188.226 239.999 187.483 241.512 186.373C243.025 185.263 244.26 183.817 245.118 182.148C245.236 181.936 245.342 181.718 245.436 181.494C246.129 179.942 246.485 178.261 246.48 176.562C246.478 175.73 246.394 174.9 246.228 174.084C246.162 173.76 246.078 173.436 245.988 173.118C245.56 171.689 244.877 170.349 243.972 169.164C242.836 167.685 241.376 166.487 239.705 165.661C238.033 164.835 236.194 164.404 234.33 164.4H257.862C259.748 164.393 261.608 164.833 263.292 165.684C264.937 166.503 266.374 167.687 267.492 169.146C269.125 171.273 270.007 173.881 270 176.562Z" fill="black"/>
<path d="M246.486 176.568C246.486 182.568 242.532 187.566 237.342 188.568L235.338 217.8C235.164 220.284 233.538 222.192 231.57 222.192H168.726C166.77 222.192 165.126 220.284 164.958 217.8L162.948 188.514C157.86 187.446 154.014 182.514 154.014 176.586C154.002 174.097 154.708 171.657 156.048 169.56C157.061 167.96 158.457 166.639 160.11 165.714C161.614 164.868 163.31 164.424 165.036 164.424C167.758 164.44 170.366 165.516 172.308 167.424C173.859 168.945 174.979 170.849 175.554 172.944C175.585 173.029 175.607 173.118 175.62 173.208C175.762 173.846 175.856 174.494 175.902 175.146L176.046 177.18L177.756 202.2H222.54L224.394 175.2C224.658 171.384 226.518 168.204 229.098 166.698C230.728 165.393 232.72 164.62 234.804 164.484C235.023 164.462 235.243 164.452 235.464 164.454C237.139 164.444 238.79 164.857 240.264 165.654C240.31 165.674 240.354 165.698 240.396 165.726C241.917 166.571 243.223 167.755 244.212 169.188C245.701 171.36 246.494 173.934 246.486 176.568Z" fill="#407BFF"/>
<path opacity="0.1" d="M221.502 222.174H168.702C166.746 222.174 165.102 220.266 164.934 217.782L162.924 188.496C157.836 187.428 153.99 182.496 153.99 176.568C153.978 174.079 154.684 171.64 156.024 169.542C157.037 167.943 158.433 166.621 160.086 165.696C161.59 164.85 163.286 164.406 165.012 164.406C167.734 164.422 170.342 165.498 172.284 167.406C173.835 168.927 174.955 170.831 175.53 172.926C175.561 173.011 175.583 173.1 175.596 173.19C175.738 173.828 175.832 174.476 175.878 175.128L176.022 177.162L177.756 202.2H222.54L221.502 222.174Z" fill="white"/>
<path d="M214.656 139.032C213.612 139.632 212.658 140.13 211.656 140.64C210.654 141.15 209.67 141.618 208.656 142.086C206.64 143.004 204.6 143.886 202.5 144.648C200.383 145.435 198.228 146.116 196.044 146.688C193.771 147.299 191.451 147.714 189.108 147.93L188.61 147.978H188.376C186.258 147.732 184.38 147.378 182.496 146.958C180.612 146.538 178.746 146.124 176.898 145.65C175.05 145.176 173.214 144.69 171.378 144.162C169.542 143.634 167.724 143.088 165.906 142.47L166.74 138.306C170.514 138.546 174.282 138.906 178.014 139.296L183.588 139.854C185.424 140.034 187.302 140.19 188.946 140.25H188.22C190.103 139.914 191.959 139.445 193.776 138.846C195.654 138.246 197.532 137.562 199.41 136.758C201.288 135.954 203.148 135.126 204.996 134.244C205.944 133.812 206.862 133.356 207.762 132.906C208.662 132.456 209.622 131.976 210.444 131.55L214.656 139.032Z" fill="#263238"/>
<path opacity="0.1" d="M214.656 139.032C213.612 139.632 212.658 140.13 211.656 140.64C210.654 141.15 209.67 141.618 208.656 142.086C206.64 143.004 204.6 143.886 202.5 144.648C200.383 145.435 198.228 146.116 196.044 146.688C193.771 147.299 191.451 147.714 189.108 147.93L188.61 147.978H188.376C186.258 147.732 184.38 147.378 182.496 146.958C180.612 146.538 178.746 146.124 176.898 145.65C175.05 145.176 173.214 144.69 171.378 144.162C169.542 143.634 167.724 143.088 165.906 142.47L166.74 138.306C170.514 138.546 174.282 138.906 178.014 139.296L183.588 139.854C185.424 140.034 187.302 140.19 188.946 140.25H188.22C190.103 139.914 191.959 139.445 193.776 138.846C195.654 138.246 197.532 137.562 199.41 136.758C201.288 135.954 203.148 135.126 204.996 134.244C205.944 133.812 206.862 133.356 207.762 132.906C208.662 132.456 209.622 131.976 210.444 131.55L214.656 139.032Z" fill="black"/>
<path d="M165.978 136.02C165.091 135.398 164.111 134.92 163.074 134.604L161.52 140.67L166.176 142.626L166.704 141.978C167.062 141.545 167.328 141.044 167.486 140.505C167.644 139.966 167.69 139.4 167.622 138.843C167.554 138.285 167.374 137.747 167.091 137.262C166.808 136.777 166.429 136.354 165.978 136.02Z" fill="#AE7461"/>
<path d="M161.52 140.67L163.074 134.604L158.73 132.234L157.422 136.506L161.52 140.67Z" fill="#AE7461"/>
<path opacity="0.2" d="M200.046 145.2H200.214H200.286C202.578 144.954 209.316 143.82 214.188 139.014C213.462 137.61 212.466 136.524 211.248 136.278C207.888 135.642 203.772 138.048 200.046 145.2Z" fill="black"/>
<path d="M204 176.562C209.748 161.04 205.968 146.766 206.688 138.864C206.865 136.916 207.672 135.079 208.986 133.63C210.3 132.182 212.05 131.201 213.972 130.836C217.896 130.08 222.75 129.228 227.376 128.604C228.669 128.425 229.985 128.529 231.234 128.907C232.483 129.285 233.635 129.928 234.612 130.793C235.589 131.659 236.367 132.725 236.893 133.919C237.419 135.113 237.681 136.407 237.66 137.712C237.258 161.112 229.758 176.562 229.758 176.562L217.638 176.508L204 176.562Z" fill="#407BFF"/>
<path opacity="0.8" d="M204 176.562C209.748 161.04 205.968 146.766 206.688 138.864C206.865 136.916 207.672 135.079 208.986 133.63C210.3 132.182 212.05 131.201 213.972 130.836C217.896 130.08 222.75 129.228 227.376 128.604C228.669 128.425 229.985 128.529 231.234 128.907C232.483 129.285 233.635 129.928 234.612 130.793C235.589 131.659 236.367 132.725 236.893 133.919C237.419 135.113 237.681 136.407 237.66 137.712C237.258 161.112 229.758 176.562 229.758 176.562L217.638 176.508L204 176.562Z" fill="white"/>
<path d="M158.016 229.524L156.48 239.622H161.358L164.562 229.524H158.016Z" fill="#AE7461"/>
<path d="M155.856 237.372L162.378 237.216C162.429 237.21 162.48 237.215 162.529 237.23C162.578 237.246 162.624 237.271 162.662 237.305C162.7 237.339 162.731 237.381 162.753 237.427C162.774 237.474 162.785 237.524 162.786 237.576V242.376C162.757 242.642 162.631 242.888 162.434 243.068C162.236 243.248 161.979 243.35 161.712 243.354C159.444 243.354 158.364 243.27 155.496 243.354C152.442 243.344 149.392 243.144 146.364 242.754C144.042 242.358 144.672 240.18 145.722 240.144C150.462 239.97 153.114 238.98 154.818 237.744C155.115 237.511 155.479 237.381 155.856 237.372Z" fill="#263238"/>
<path opacity="0.2" d="M157.398 233.574L158.016 229.524H164.562L162.99 234.576L157.398 233.574Z" fill="black"/>
<path d="M201 172.926C201 172.926 161.31 173.322 160.692 185.892C159.816 203.964 156.762 231.492 156.762 231.492L164.244 233.55C164.244 233.55 174.924 206.232 175.338 192.114C186.504 189.894 215.202 192.114 218.574 184.782C220.222 181.05 220.666 176.898 219.846 172.902L201 172.926Z" fill="#407BFF"/>
<path opacity="0.6" d="M201 172.926C201 172.926 161.31 173.322 160.692 185.892C159.816 203.964 156.762 231.492 156.762 231.492L164.244 233.55C164.244 233.55 174.924 206.232 175.338 192.114C186.504 189.894 215.202 192.114 218.574 184.782C220.222 181.05 220.666 176.898 219.846 172.902L201 172.926Z" fill="black"/>
<path d="M192.936 233.43L195.582 240.282H200.934L199.092 233.076L192.936 233.43Z" fill="#AE7461"/>
<path opacity="0.2" d="M199.59 235.02L198.552 229.746L191.79 230.586L193.524 235.17L199.59 235.02Z" fill="black"/>
<path d="M194.13 238.014H200.964C201.074 238.006 201.184 238.041 201.268 238.113C201.352 238.185 201.405 238.287 201.414 238.398L201.744 243.516C201.738 243.793 201.623 244.056 201.424 244.249C201.226 244.442 200.959 244.55 200.682 244.548C198.282 244.506 197.166 244.374 194.16 244.374C192.318 244.374 188.586 244.554 186.036 244.554C183.486 244.554 183.558 242.154 184.632 241.968C189.492 240.996 191.37 239.658 193.08 238.368C193.384 238.142 193.751 238.019 194.13 238.014Z" fill="#263238"/>
<path d="M211.674 172.926C211.674 172.926 175.674 175.368 176.562 187.926C177.528 201.678 191.946 233.568 191.946 233.568H199.2C199.2 233.568 194.4 204.636 192.192 190.62C202.344 190.62 225.87 192.15 229.254 184.8C230.895 181.066 231.336 176.915 230.514 172.92L211.674 172.926Z" fill="#407BFF"/>
<path opacity="0.5" d="M211.674 172.926C211.674 172.926 175.674 175.368 176.562 187.926C177.528 201.678 191.946 233.568 191.946 233.568H199.2C199.2 233.568 194.4 204.636 192.192 190.62C202.344 190.62 225.87 192.15 229.254 184.8C230.895 181.066 231.336 176.915 230.514 172.92L211.674 172.926Z" fill="black"/>
<path d="M217.128 122.052C217.956 125.256 218.214 129.252 213.738 130.902C212.496 132.882 211.89 134.97 216.672 134.226C220.478 133.734 223.942 131.775 226.326 128.766C223.464 126.258 223.986 118.566 224.712 114.228L217.128 122.052Z" fill="#AE7461"/>
<path d="M216.6 127.884C212.49 128.586 209.112 131.766 207.3 135.516C205.488 139.266 205.05 143.538 205.086 147.708C205.122 151.878 205.596 156.03 205.482 160.194C205.356 164.994 204.198 168.396 202.542 172.92C202.542 173.994 204.168 174.6 205.542 174.882C208.41 168.624 210.294 162.636 210.096 155.76C209.946 150.768 209.88 145.08 210.696 140.16C211.512 135.24 217.398 128.814 217.116 127.926L216.6 127.884Z" fill="#263238"/>
<path opacity="0.3" d="M220.62 124.404C220.189 124.724 219.698 124.953 219.177 125.079C218.655 125.205 218.113 125.224 217.584 125.136C217.594 124.356 217.538 123.578 217.416 122.808L222.384 118.728C222.493 119.258 222.563 119.795 222.594 120.336C222.648 121.127 222.494 121.919 222.148 122.632C221.801 123.346 221.275 123.956 220.62 124.404Z" fill="black"/>
<path d="M213.192 103.104C207.942 106.074 207.888 114.468 209.508 119.304C209.916 120.573 210.666 121.705 211.675 122.577C212.683 123.448 213.912 124.026 215.227 124.246C216.542 124.467 217.892 124.322 219.13 123.827C220.367 123.332 221.445 122.506 222.246 121.44C224.814 118.194 224.442 114.918 224.316 109.278C224.19 103.638 218.448 100.14 213.192 103.104Z" fill="#AE7461"/>
<path opacity="0.2" d="M214.884 118.2C213.192 118.926 211.338 119.868 209.628 119.664C210.088 120.88 210.866 121.95 211.88 122.763C212.895 123.576 214.109 124.102 215.396 124.286C216.683 124.47 217.996 124.305 219.198 123.808C220.399 123.312 221.446 122.502 222.228 121.464C224.346 118.8 225 117 224.4 112.152C221.112 116.004 218.502 116.64 214.884 118.2Z" fill="black"/>
<path d="M219.96 105C219.415 105.886 219.172 106.925 219.268 107.96C219.364 108.996 219.795 109.972 220.494 110.742C220.968 111.24 221.55 111.624 222.006 112.134C222.717 112.934 223.087 113.981 223.038 115.05C223.144 114.362 223.487 113.732 224.007 113.269C224.527 112.806 225.192 112.539 225.888 112.512C225.176 114.716 224.464 116.916 223.752 119.112C225.161 118.455 226.379 117.448 227.29 116.188C228.202 114.928 228.776 113.456 228.96 111.912C229.416 107.652 224.16 98.5259 219.96 105Z" fill="#263238"/>
<path d="M207.708 105.294C207.306 105.74 207.02 106.278 206.874 106.86C206.804 107.148 206.823 107.451 206.931 107.728C207.038 108.005 207.227 108.242 207.474 108.408C207.928 108.591 208.431 108.616 208.902 108.48L213.702 107.646C216.45 107.166 219.198 106.692 221.91 106.038C223.11 105.75 224.496 105.288 224.976 104.136C226.53 100.386 219.894 99.8999 217.674 100.002C213.894 100.2 210.072 102.372 207.708 105.294Z" fill="#263238"/>
<path d="M225.168 111.552C223.596 111.906 222.924 114.168 222.966 115.62C222.966 117.27 224.166 118.344 225.558 117.348C226.591 116.579 227.295 115.447 227.526 114.18C227.808 112.626 226.746 111.198 225.168 111.552Z" fill="#AE7461"/>
<path d="M214.062 117.282C213.824 117.441 213.553 117.545 213.27 117.587C212.987 117.63 212.698 117.61 212.424 117.528C213.024 116.172 212.952 116.478 213.138 114.174L214.062 117.282Z" fill="#85594B"/>
<path d="M216.828 109.8C216.378 109.296 215.148 109.104 214.482 109.2C214.414 109.209 214.346 109.191 214.291 109.151C214.237 109.11 214.2 109.051 214.188 108.984C214.179 108.912 214.197 108.839 214.239 108.78C214.282 108.721 214.345 108.68 214.416 108.666C215.256 108.54 216.654 108.792 217.224 109.422C217.273 109.472 217.301 109.54 217.301 109.611C217.301 109.681 217.273 109.749 217.224 109.8C217.19 109.835 217.149 109.861 217.104 109.878C217.055 109.893 217.003 109.893 216.954 109.88C216.905 109.866 216.861 109.838 216.828 109.8Z" fill="#263238"/>
<path d="M209.064 110.922C209.007 110.883 208.968 110.824 208.955 110.756C208.941 110.689 208.955 110.62 208.992 110.562C209.202 110.183 209.497 109.859 209.854 109.614C210.211 109.369 210.621 109.211 211.05 109.152C211.082 109.151 211.115 109.157 211.146 109.169C211.176 109.181 211.204 109.199 211.227 109.222C211.251 109.245 211.27 109.272 211.282 109.302C211.295 109.333 211.302 109.365 211.302 109.398C211.305 109.471 211.28 109.542 211.232 109.597C211.184 109.652 211.116 109.686 211.044 109.692C210.705 109.746 210.384 109.876 210.103 110.073C209.823 110.269 209.59 110.527 209.424 110.826C209.402 110.865 209.371 110.898 209.333 110.922C209.295 110.946 209.252 110.961 209.208 110.964C209.156 110.968 209.105 110.953 209.064 110.922Z" fill="#263238"/>
<path d="M213.6 119.724C214.177 120.458 214.708 121.228 215.19 122.028L215.562 121.872C217.254 121.14 217.734 120.12 217.758 119.214C217.737 118.493 217.515 117.793 217.116 117.192C216.516 118.23 214.998 119.058 214.17 119.46C213.816 119.634 213.6 119.724 213.6 119.724Z" fill="#2E353A"/>
<path d="M214.158 119.46L214.404 119.796C214.471 119.886 214.567 119.951 214.676 119.98C214.785 120.01 214.9 120.002 215.004 119.958C216.252 119.358 217.08 118.758 217.404 118.08C217.433 118.016 217.449 117.946 217.449 117.876C217.449 117.805 217.433 117.736 217.404 117.672C217.324 117.505 217.231 117.345 217.128 117.192C216.498 118.23 214.986 119.058 214.158 119.46Z" fill="white"/>
<path d="M215.55 121.872C217.242 121.14 217.722 120.12 217.746 119.214C217.103 119.51 216.532 119.942 216.072 120.48C215.755 120.877 215.572 121.364 215.55 121.872Z" fill="#DE5753"/>
<path d="M210.99 112.8C210.696 112.854 210.534 113.274 210.618 113.724C210.702 114.174 211.02 114.498 211.314 114.438C211.608 114.378 211.77 113.97 211.686 113.52C211.602 113.07 211.284 112.8 210.99 112.8Z" fill="#263238"/>
<path d="M216.138 111.972C215.844 112.026 215.682 112.44 215.766 112.896C215.85 113.352 216.168 113.67 216.462 113.61C216.756 113.55 216.918 113.136 216.834 112.686C216.75 112.236 216.432 111.918 216.138 111.972Z" fill="#263238"/>
<path opacity="0.9" d="M208.722 115.236L212.508 114.384L212.574 115.992L209.052 116.832L208.722 115.236Z" fill="white"/>
<g opacity="0.8">
<path opacity="0.9" d="M213.66 114.132L214.11 115.608L218.97 114.564L218.682 112.86L213.66 114.132Z" fill="white"/>
</g>
<path d="M212.532 114.978L212.508 114.384L213.66 114.132L213.828 114.69L212.532 114.978Z" fill="#263238"/>
<path d="M211.152 175.872C211.152 175.872 217.986 178.518 219.552 179.034C221.352 179.739 223.247 180.173 225.174 180.324C226.151 180.39 227.131 180.246 228.049 179.904C228.966 179.562 229.801 179.028 230.496 178.338C232.128 176.598 232.638 173.958 233.064 171.48C234.312 164.204 235.564 156.928 236.82 149.652C237.42 146.052 238.998 140.652 238.866 138.618C238.62 134.838 236.214 130.374 230.088 127.92C227.688 126.966 225.354 127.32 223.35 129.72C222.15 131.148 218.658 134.592 217.8 140.658C217.116 145.518 216.048 151.812 216.114 156.75C216.192 163.242 213.6 171.426 211.152 175.872Z" fill="#263238"/>
<path d="M238.53 136.62C239.226 142.944 235.728 158.886 235.056 159.846C232.188 169.092 224.31 164.106 223.17 163.68C221.184 162.948 219.162 161.514 217.272 160.56C213.606 158.76 210.132 157.272 206.724 155.01L208.644 151.218C212.382 152.49 222.96 155.226 224.706 155.652C225.462 155.85 228.408 157.392 228.378 155.358C228.792 154.68 229.368 141.474 230.634 136.806C230.778 136.282 231.029 135.794 231.372 135.372L231.486 135.228C231.948 134.649 232.56 134.208 233.256 133.953C233.951 133.698 234.704 133.639 235.431 133.783C236.158 133.926 236.831 134.267 237.378 134.767C237.924 135.268 238.323 135.908 238.53 136.62Z" fill="#263238"/>
<path opacity="0.1" d="M238.53 136.62C239.226 142.944 235.728 158.886 235.056 159.846C232.188 169.092 224.31 164.106 223.17 163.68C221.184 162.948 219.162 161.514 217.272 160.56C213.606 158.76 210.132 157.272 206.724 155.01L208.644 151.218C212.382 152.49 222.96 155.226 224.706 155.652C225.462 155.85 228.408 157.392 228.378 155.358C228.792 154.68 229.368 141.474 230.634 136.806C230.778 136.282 231.029 135.794 231.372 135.372L231.486 135.228C231.948 134.649 232.56 134.208 233.256 133.953C233.951 133.698 234.704 133.639 235.431 133.783C236.158 133.926 236.831 134.267 237.378 134.767C237.924 135.268 238.323 135.908 238.53 136.62Z" fill="white"/>
<path d="M207.144 160.5H189.384L187.356 137.328H205.116L207.144 160.5Z" fill="#263238"/>
<path opacity="0.5" d="M207.144 160.5H189.384L187.356 137.328H205.116L207.144 160.5Z" fill="white"/>
<path d="M206.514 160.386H188.754L186.726 137.214H204.486L206.514 160.386Z" fill="#407BFF"/>
<path opacity="0.8" d="M206.514 160.386H188.754L186.726 137.214H204.486L206.514 160.386Z" fill="white"/>
<path d="M199.47 138.66H192L191.748 135.762H199.212L199.47 138.66Z" fill="#407BFF"/>
<path d="M191.748 135.762L192.48 135.51H200.214L200.322 136.74L199.746 137.406L199.71 138.414L199.47 138.66L199.212 135.762H191.748Z" fill="#407BFF"/>
<path opacity="0.5" d="M191.748 135.762L192.48 135.51H200.214L200.322 136.74L199.746 137.406L199.71 138.414L199.47 138.66L199.212 135.762H191.748Z" fill="black"/>
<path d="M210.06 152.472L210.462 154.638C209.502 157.14 204 156.48 204 156.48V150.078L208.854 151.206C209.155 151.279 209.429 151.438 209.642 151.662C209.856 151.887 210.001 152.168 210.06 152.472Z" fill="#AE7461"/>
<path d="M203.988 150.078L204.012 156.492L199.14 156.612L198.024 150.972L203.988 150.078Z" fill="#AE7461"/>
<path d="M222.54 202.2L224.394 175.2C224.658 171.384 226.518 168.204 229.098 166.698C230.728 165.393 232.72 164.62 234.804 164.484C235.023 164.462 235.244 164.452 235.464 164.454C237.139 164.445 238.79 164.857 240.264 165.654C240.31 165.674 240.354 165.698 240.396 165.726C241.917 166.571 243.223 167.756 244.212 169.188C245.708 171.366 246.503 173.949 246.492 176.592C246.492 182.592 242.538 187.59 237.348 188.592L235.338 217.8C235.164 220.284 233.538 222.192 231.57 222.192H221.502L222.54 202.2Z" fill="#407BFF"/>
<path opacity="0.1" d="M222.54 202.2L224.394 175.2C224.658 171.384 226.518 168.204 229.098 166.698C230.728 165.393 232.72 164.62 234.804 164.484C235.023 164.462 235.244 164.452 235.464 164.454C237.139 164.445 238.79 164.857 240.264 165.654C240.31 165.674 240.354 165.698 240.396 165.726C241.917 166.571 243.223 167.756 244.212 169.188C245.708 171.366 246.503 173.949 246.492 176.592C246.492 182.592 242.538 187.59 237.348 188.592L235.338 217.8C235.164 220.284 233.538 222.192 231.57 222.192H221.502L222.54 202.2Z" fill="white"/>
<path d="M130.98 76.5599V101.646C130.98 102.282 130.727 102.893 130.277 103.343C129.827 103.793 129.216 104.046 128.58 104.046H102.888L93.7079 111.144C93.4475 111.341 93.1373 111.461 92.8122 111.491C92.4872 111.52 92.1603 111.459 91.8684 111.313C91.5765 111.167 91.3311 110.942 91.16 110.664C90.9889 110.387 90.8988 110.066 90.8999 109.74V104.046H89.4659C88.8294 104.046 88.2189 103.793 87.7689 103.343C87.3188 102.893 87.0659 102.282 87.0659 101.646V76.5539C87.0675 76.2414 87.131 75.9324 87.2527 75.6446C87.3745 75.3568 87.5521 75.096 87.7753 74.8773C87.9984 74.6585 88.2628 74.4862 88.553 74.3703C88.8432 74.2544 89.1535 74.1972 89.4659 74.2019H128.622C129.247 74.2019 129.847 74.4504 130.289 74.8926C130.731 75.3348 130.98 75.9346 130.98 76.5599Z" stroke="#407BFF" stroke-miterlimit="10"/>
<path d="M106.92 70.668H102.018V71.268H106.92V70.668Z" fill="#407BFF"/>
<path d="M83.9999 77.7361H83.3999V74.7781C83.4015 73.6859 83.8365 72.639 84.6093 71.8673C85.3822 71.0956 86.4297 70.6621 87.5219 70.6621H98.4599V71.2621H87.5099C86.5773 71.2637 85.6833 71.6344 85.0233 72.2933C84.3633 72.9522 83.9911 73.8455 83.9879 74.7781L83.9999 77.7361Z" fill="#407BFF"/>
<path d="M118.662 92.58C118.401 92.5816 118.143 92.5291 117.903 92.426C117.664 92.3229 117.448 92.1713 117.27 91.9808C117.092 91.7903 116.955 91.5651 116.869 91.3192C116.782 91.0733 116.747 90.8121 116.766 90.552C117.408 83.238 123.204 82.566 123.93 74.25C124.14 71.85 123.264 70.95 121.59 70.95C119.916 70.95 118.884 71.856 118.674 74.25L118.554 75.618C118.5 76.2361 118.216 76.8114 117.758 77.2302C117.3 77.649 116.702 77.8809 116.082 77.88C115.738 77.8797 115.399 77.808 115.085 77.6694C114.77 77.5309 114.488 77.3285 114.257 77.0752C114.025 76.8219 113.848 76.5231 113.738 76.1979C113.627 75.8727 113.586 75.5281 113.616 75.186L113.67 74.586C114.138 69.234 117.036 66.186 122.154 66.186C127.272 66.186 129.63 69.246 129.162 74.586C128.4 83.256 122.07 84.6 121.53 90.714C121.533 90.744 121.533 90.7741 121.53 90.804C121.502 91.289 121.291 91.7453 120.939 92.0798C120.586 92.4143 120.12 92.6018 119.634 92.604L118.662 92.58ZM121.26 97.668C121.206 98.2972 120.917 98.8832 120.452 99.3098C119.986 99.7365 119.377 99.9729 118.746 99.972C118.396 99.9726 118.05 99.9002 117.729 99.7595C117.409 99.6189 117.121 99.413 116.885 99.1551C116.648 98.8971 116.468 98.5927 116.356 98.2613C116.243 97.9298 116.201 97.5786 116.232 97.23C116.286 96.5998 116.575 96.013 117.042 95.5862C117.509 95.1594 118.119 94.9237 118.752 94.926C119.101 94.9272 119.446 95.0008 119.766 95.1422C120.085 95.2835 120.371 95.4895 120.607 95.7472C120.843 96.0048 121.022 96.3086 121.135 96.6392C121.247 96.9698 121.29 97.3201 121.26 97.668Z" fill="#407BFF"/>
<path d="M111.9 86.7062H98.0999C97.7816 86.7062 97.4764 86.5797 97.2514 86.3547C97.0263 86.1296 96.8999 85.8244 96.8999 85.5062C96.8999 85.1879 97.0263 84.8827 97.2514 84.6576C97.4764 84.4326 97.7816 84.3062 98.0999 84.3062H111.9C112.218 84.3062 112.523 84.4326 112.748 84.6576C112.973 84.8827 113.1 85.1879 113.1 85.5062C113.1 85.8244 112.973 86.1296 112.748 86.3547C112.523 86.5797 112.218 86.7062 111.9 86.7062Z" fill="#407BFF"/>
<path d="M109.992 91.4581H98.1238C97.8056 91.4581 97.5004 91.3317 97.2753 91.1066C97.0503 90.8816 96.9238 90.5764 96.9238 90.2581C96.9238 89.9398 97.0503 89.6346 97.2753 89.4096C97.5004 89.1845 97.8056 89.0581 98.1238 89.0581H109.992C110.31 89.0581 110.615 89.1845 110.84 89.4096C111.065 89.6346 111.192 89.9398 111.192 90.2581C111.192 90.5764 111.065 90.8816 110.84 91.1066C110.615 91.3317 110.31 91.4581 109.992 91.4581Z" fill="#407BFF"/>
<path d="M108.084 96.204H98.1238C97.8056 96.204 97.5004 96.0775 97.2753 95.8525C97.0503 95.6274 96.9238 95.3222 96.9238 95.004C96.9238 94.6857 97.0503 94.3805 97.2753 94.1554C97.5004 93.9304 97.8056 93.804 98.1238 93.804H108.084C108.402 93.804 108.707 93.9304 108.932 94.1554C109.157 94.3805 109.284 94.6857 109.284 95.004C109.284 95.3222 109.157 95.6274 108.932 95.8525C108.707 96.0775 108.402 96.204 108.084 96.204Z" fill="#407BFF"/>
<path d="M79.8478 194.106H71.0818C68.9458 194.106 67.2178 195.456 67.2178 197.106V202.29C67.2178 203.958 68.9458 205.29 71.0818 205.29H79.8478V194.106Z" fill="#407BFF"/>
<path d="M39.1076 218.52L36.0596 170.004C35.7916 165.738 36.4005 161.462 37.8487 157.441C39.2969 153.419 41.5538 149.737 44.4801 146.621C47.4064 143.505 50.94 141.022 54.863 139.325C58.786 137.627 63.0152 136.752 67.2896 136.752C75.2848 136.752 82.9769 139.811 88.7876 145.303C94.5984 150.794 98.087 158.302 98.5376 166.284L101.73 222.948H43.7996C42.6018 222.943 41.4507 222.482 40.5795 221.66C39.7083 220.838 39.1822 219.715 39.1076 218.52Z" fill="#407BFF"/>
<path opacity="0.1" d="M38.9996 216.762L36.0596 170.004C35.7916 165.738 36.4005 161.462 37.8487 157.441C39.2969 153.419 41.5538 149.737 44.4801 146.621C47.4064 143.505 50.94 141.022 54.863 139.325C58.786 137.627 63.0152 136.752 67.2896 136.752C75.2848 136.752 82.9769 139.811 88.7876 145.303C94.5984 150.794 98.087 158.302 98.5376 166.284L101.73 222.948H45.5996C43.9186 222.951 42.2997 222.313 41.0732 221.163C39.8467 220.014 39.1051 218.44 38.9996 216.762Z" fill="black"/>
<path d="M48.5037 222.948L45.1797 170.004C44.9117 165.737 45.5207 161.461 46.9693 157.439C48.4179 153.417 50.6753 149.735 53.6023 146.619C56.5292 143.503 60.0635 141.02 63.9872 139.323C67.911 137.626 72.1408 136.751 76.4157 136.752C84.4099 136.753 92.1005 139.813 97.9099 145.305C103.719 150.796 107.207 158.303 107.658 166.284L110.856 222.948H48.5037Z" fill="#407BFF"/>
<path d="M47.5079 232.062H46.7099C46.4939 232.048 46.2898 231.959 46.133 231.809C45.9762 231.66 45.8767 231.461 45.8519 231.246L44.6519 222.948H49.5179L48.3179 231.246C48.297 231.454 48.2051 231.649 48.0576 231.798C47.9101 231.946 47.716 232.04 47.5079 232.062Z" fill="#407BFF"/>
<path opacity="0.7" d="M47.5079 232.062H46.7099C46.4939 232.048 46.2898 231.959 46.133 231.809C45.9762 231.66 45.8767 231.461 45.8519 231.246L44.6519 222.948H49.5179L48.3179 231.246C48.297 231.454 48.2051 231.649 48.0576 231.798C47.9101 231.946 47.716 232.04 47.5079 232.062Z" fill="white"/>
<path d="M125.898 232.062H125.172C124.967 232.04 124.777 231.945 124.635 231.796C124.493 231.646 124.409 231.452 124.398 231.246L123.33 222.948H127.74L126.672 231.246C126.66 231.452 126.576 231.646 126.434 231.796C126.292 231.945 126.102 232.04 125.898 232.062Z" fill="#407BFF"/>
<path opacity="0.5" d="M125.898 232.062H125.172C124.967 232.04 124.777 231.945 124.635 231.796C124.493 231.646 124.409 231.452 124.398 231.246L123.33 222.948H127.74L126.672 231.246C126.66 231.452 126.576 231.646 126.434 231.796C126.292 231.945 126.102 232.04 125.898 232.062Z" fill="white"/>
<path d="M103.332 232.062H102.6C102.395 232.04 102.205 231.945 102.063 231.796C101.922 231.646 101.838 231.452 101.826 231.246L100.752 222.948H105.168L104.1 231.246C104.087 231.45 104.004 231.644 103.863 231.793C103.723 231.942 103.535 232.037 103.332 232.062Z" fill="#407BFF"/>
<path opacity="0.7" d="M103.332 232.062H102.6C102.395 232.04 102.205 231.945 102.063 231.796C101.922 231.646 101.838 231.452 101.826 231.246L100.752 222.948H105.168L104.1 231.246C104.087 231.45 104.004 231.644 103.863 231.793C103.723 231.942 103.535 232.037 103.332 232.062Z" fill="white"/>
<path d="M71.8077 232.062H71.0097C70.7933 232.049 70.5885 231.96 70.4315 231.811C70.2745 231.661 70.1754 231.461 70.1517 231.246L68.9517 222.948H73.8177L72.6177 231.246C72.5968 231.454 72.5049 231.649 72.3574 231.798C72.2099 231.946 72.0158 232.04 71.8077 232.062Z" fill="#407BFF"/>
<path opacity="0.5" d="M71.8077 232.062H71.0097C70.7933 232.049 70.5885 231.96 70.4315 231.811C70.2745 231.661 70.1754 231.461 70.1517 231.246L68.9517 222.948H73.8177L72.6177 231.246C72.5968 231.454 72.5049 231.649 72.3574 231.798C72.2099 231.946 72.0158 232.04 71.8077 232.062Z" fill="white"/>
<path d="M98.2256 202.95H119.562L120.972 182.4L121.272 177.984L121.416 175.95C121.452 175.417 121.521 174.886 121.62 174.36C121.62 174.246 121.674 174.126 121.698 174.012C121.71 173.924 121.732 173.838 121.764 173.754C122.339 171.66 123.459 169.755 125.01 168.234C126.797 166.467 129.161 165.402 131.67 165.234H111.6C111.378 165.234 111.162 165.234 110.94 165.234C108.217 165.248 105.608 166.324 103.668 168.234C102.117 169.755 100.997 171.66 100.422 173.754C100.39 173.838 100.368 173.924 100.356 174.012C100.215 174.65 100.12 175.298 100.074 175.95L99.9356 177.984L98.2256 202.95Z" fill="#407BFF"/>
<path opacity="0.1" d="M98.2256 202.95H119.562L120.972 182.4L121.272 177.984L121.416 175.95C121.452 175.417 121.521 174.886 121.62 174.36C121.62 174.246 121.674 174.126 121.698 174.012C121.71 173.924 121.732 173.838 121.764 173.754C122.339 171.66 123.459 169.755 125.01 168.234C126.797 166.467 129.161 165.402 131.67 165.234H111.6C111.378 165.234 111.162 165.234 110.94 165.234C108.217 165.248 105.608 166.324 103.668 168.234C102.117 169.755 100.997 171.66 100.422 173.754C100.39 173.838 100.368 173.924 100.356 174.012C100.215 174.65 100.12 175.298 100.074 175.95L99.9356 177.984L98.2256 202.95Z" fill="black"/>
<g opacity="0.1">
<path d="M81.3176 192H72.7436C70.6616 192 68.9756 193.32 68.9756 194.946V200.016C68.9756 201.642 70.6616 202.962 72.7436 202.962H81.3176V192Z" fill="black"/>
</g>
<path d="M116.304 191.994H78.564C76.768 191.994 75.312 193.45 75.312 195.246V199.704C75.312 201.5 76.768 202.956 78.564 202.956H116.304C118.1 202.956 119.556 201.5 119.556 199.704V195.246C119.556 193.45 118.1 191.994 116.304 191.994Z" fill="#407BFF"/>
<path d="M27.2998 177.342C27.2947 180.211 28.3044 182.989 30.1502 185.185C31.996 187.381 34.559 188.854 37.3858 189.342L39.5998 218.556C39.7918 221.04 41.5918 222.948 43.7518 222.948H67.2898C65.1298 222.948 63.3298 221.04 63.1378 218.556L61.9378 202.956L60.9058 189.33C59.0591 189.007 57.3122 188.261 55.8019 187.15C54.2915 186.04 53.0587 184.595 52.1998 182.928C52.0858 182.712 51.9838 182.49 51.8878 182.268C51.1917 180.719 50.8338 179.04 50.8378 177.342C50.838 176.507 50.9245 175.675 51.0958 174.858C51.1618 174.534 51.2458 174.21 51.3298 173.898C51.7604 172.467 52.4453 171.126 53.3518 169.938C54.4732 168.483 55.9089 167.299 57.5518 166.476C59.2274 165.634 61.0764 165.194 62.9518 165.192H39.4558C38.2352 165.191 37.0214 165.376 35.8558 165.738C33.4554 166.479 31.3442 167.946 29.8138 169.938C28.1813 172.061 27.2973 174.664 27.2998 177.342Z" fill="#407BFF"/>
<path opacity="0.1" d="M27.2998 177.342C27.2947 180.211 28.3044 182.989 30.1502 185.185C31.996 187.381 34.559 188.854 37.3858 189.342L39.5998 218.556C39.7918 221.04 41.5918 222.948 43.7518 222.948H67.2898C65.1298 222.948 63.3298 221.04 63.1378 218.556L61.9378 202.956L60.9058 189.33C59.0591 189.007 57.3122 188.261 55.8019 187.15C54.2915 186.04 53.0587 184.595 52.1998 182.928C52.0858 182.712 51.9838 182.49 51.8878 182.268C51.1917 180.719 50.8338 179.04 50.8378 177.342C50.838 176.507 50.9245 175.675 51.0958 174.858C51.1618 174.534 51.2458 174.21 51.3298 173.898C51.7604 172.467 52.4453 171.126 53.3518 169.938C54.4732 168.483 55.9089 167.299 57.5518 166.476C59.2274 165.634 61.0764 165.194 62.9518 165.192H39.4558C38.2352 165.191 37.0214 165.376 35.8558 165.738C33.4554 166.479 31.3442 167.946 29.8138 169.938C28.1813 172.061 27.2973 174.664 27.2998 177.342Z" fill="black"/>
<path d="M50.8317 177.342C50.8317 183.342 54.7857 188.346 59.9757 189.342L61.9797 218.58C62.1537 221.07 63.7797 222.972 65.7477 222.972H128.592C130.548 222.972 132.192 221.07 132.36 218.58L134.37 189.3C139.452 188.232 143.298 183.3 143.298 177.366C143.312 174.878 142.607 172.438 141.27 170.34C140.253 168.741 138.855 167.419 137.202 166.494C135.698 165.654 134.004 165.212 132.282 165.21C129.559 165.222 126.949 166.299 125.01 168.21C123.458 169.731 122.336 171.635 121.758 173.73C121.731 173.814 121.711 173.901 121.698 173.988C121.554 174.626 121.46 175.274 121.416 175.926L121.272 177.96L119.562 202.944H74.7777L72.9237 175.944C72.6537 172.128 70.7997 168.948 68.2197 167.442C66.5865 166.142 64.5963 165.37 62.5137 165.228C62.2917 165.228 62.0757 165.228 61.8537 165.228C60.1784 165.219 58.5276 165.631 57.0537 166.428C57.0055 166.445 56.9593 166.467 56.9157 166.494C55.3978 167.344 54.0929 168.528 53.0997 169.956C51.609 172.129 50.8177 174.706 50.8317 177.342Z" fill="#407BFF"/>
<path opacity="0.1" d="M75.8098 222.948H128.61C130.566 222.948 132.21 221.046 132.378 218.556L134.388 189.276C139.47 188.208 143.316 183.276 143.316 177.342C143.33 174.854 142.626 172.414 141.288 170.316C140.271 168.717 138.874 167.395 137.22 166.47C135.716 165.63 134.022 165.188 132.3 165.186C129.577 165.198 126.967 166.275 125.028 168.186C123.476 169.707 122.354 171.611 121.776 173.706C121.75 173.79 121.729 173.877 121.716 173.964C121.572 174.602 121.478 175.25 121.434 175.902L121.29 177.936L119.58 202.92H74.7778L75.8098 222.948Z" fill="white"/>
<path d="M91.8779 233.274L96.9959 234.69L101.592 222.66L96.4739 221.244L91.8779 233.274Z" fill="#AE7461"/>
<path d="M99.2879 233.094C98.884 232.571 98.3004 232.216 97.6499 232.098L92.3999 231.072C92.2774 231.036 92.1458 231.05 92.0335 231.111C91.9213 231.172 91.8374 231.274 91.7999 231.396L90.1739 236.196C90.1274 236.326 90.1071 236.465 90.1142 236.603C90.1213 236.741 90.1557 236.877 90.2153 237.002C90.275 237.126 90.3588 237.238 90.4619 237.331C90.5649 237.423 90.6852 237.494 90.8159 237.54H90.8519C92.7959 238.308 94.1099 238.044 97.1459 238.632C99.0239 238.992 102.954 240.24 105.582 240.132C108.21 240.024 108.204 237.426 107.1 237.234C103.2 236.634 100.2 234.282 99.2879 233.094Z" fill="#263238"/>
<g opacity="0.2">
<path d="M101.592 222.666L99.222 228.87L94.104 227.442L96.468 221.244L101.592 222.666Z" fill="black"/>
</g>
<path d="M84.5098 177C84.5098 177 115.326 176.832 114.366 187.152C113.718 194.124 110.37 201.45 107.766 208.524C103.98 218.778 100.698 227.724 100.698 227.724L93.6778 225.294C93.6778 225.294 99.9838 195.642 104.232 192.606H78.1738C69.5518 192.606 65.8258 183.138 74.2198 172.098C79.3498 172.116 84.5098 177 84.5098 177Z" fill="#407BFF"/>
<path opacity="0.6" d="M84.5098 177C84.5098 177 115.326 176.832 114.366 187.152C114.84 193.566 100.692 227.712 100.692 227.712L93.6718 225.282C93.6718 225.282 99.9778 195.63 104.226 192.594H78.1738C69.5518 192.594 65.8258 183.126 74.2198 172.086C79.3498 172.116 84.5098 177 84.5098 177Z" fill="black"/>
<path d="M106.242 158.262C102.45 161.724 95.0039 153.528 93.8039 152.556C91.2359 150.456 83.6879 143.412 84.0839 140.964C85.2839 133.764 97.0919 143.964 100.506 150.996L106.242 158.262Z" fill="#263238"/>
<path d="M73.0557 136.596C71.1537 136.998 69.0957 136.314 67.7577 137.724C66.4197 139.134 65.8617 141.114 65.6697 143.046C65.5008 145.745 65.6417 148.455 66.0897 151.122C66.4897 154.374 66.9077 157.624 67.3437 160.872C67.6142 163.547 67.5112 166.247 67.0377 168.894C66.9878 169.175 67.0326 169.465 67.165 169.718C67.2975 169.971 67.5102 170.173 67.7697 170.292C67.7697 170.292 82.5237 170.796 86.8137 170.634C89.0937 170.55 87.5277 164.55 88.2297 161.034C88.3857 160.254 89.9097 157.05 90.1377 156.234C91.1937 152.364 90.4917 149.7 89.5377 145.812C88.8237 142.986 88.5297 138.912 87.0897 138.612C84.4977 138.078 78.3477 135.468 73.0557 136.596Z" fill="#407BFF"/>
<path opacity="0.8" d="M73.0557 136.596C71.1537 136.998 69.0957 136.314 67.7577 137.724C66.4197 139.134 65.8617 141.114 65.6697 143.046C65.5008 145.745 65.6417 148.455 66.0897 151.122C66.4897 154.374 66.9077 157.624 67.3437 160.872C67.6142 163.547 67.5112 166.247 67.0377 168.894C66.9878 169.175 67.0326 169.465 67.165 169.718C67.2975 169.971 67.5102 170.173 67.7697 170.292C67.7697 170.292 82.5237 170.796 86.8137 170.634C89.0937 170.55 87.5277 164.55 88.2297 161.034C88.3857 160.254 89.9097 157.05 90.1377 156.234C91.1937 152.364 90.4917 149.7 89.5377 145.812C88.8237 142.986 88.5297 138.912 87.0897 138.612C84.4977 138.078 78.3477 135.468 73.0557 136.596Z" fill="white"/>
<path d="M70.95 139.368C70.752 139.068 65.55 134.7 64.62 139.746C63.306 146.772 66.024 153.684 66.024 153.684C66.024 153.684 66.624 161.286 68.856 162.048C71.088 162.81 73.164 162.996 73.908 161.694C74.3892 160.679 74.6431 159.571 74.652 158.448C74.652 158.448 74.4 144.6 70.95 139.368Z" fill="#263238"/>
<path d="M74.5438 126.954C75.0778 130.188 75.5278 136.098 73.2178 138.18C73.2178 138.18 78.8638 141.138 82.5718 146.298C83.3951 145.684 84.004 144.825 84.312 143.845C84.62 142.865 84.6115 141.813 84.2878 140.838C84.1019 140.223 83.7934 139.652 83.381 139.159C82.9685 138.666 82.4606 138.262 81.8878 137.97C79.6978 136.77 79.9078 134.502 80.5078 132.378L74.5438 126.954Z" fill="#AE7461"/>
<path opacity="0.2" d="M75.2817 132.444L77.3877 133.254C78.2894 133.603 79.2542 133.758 80.2197 133.71C80.0695 134.37 80.0695 135.055 80.2197 135.714C79.4647 135.921 78.666 135.904 77.9204 135.665C77.1749 135.426 76.5146 134.977 76.0197 134.37C75.6794 133.768 75.4306 133.119 75.2817 132.444Z" fill="black"/>
<path d="M127.56 222.93H133.296L127.29 208.548L123.402 215.148L127.56 222.93Z" fill="#AE7461"/>
<path d="M132.822 221.568L126.096 220.038C125.98 220.009 125.858 220.024 125.754 220.081C125.65 220.138 125.57 220.232 125.532 220.344L123.654 225.516C123.616 225.646 123.605 225.783 123.62 225.918C123.635 226.053 123.677 226.183 123.743 226.302C123.808 226.421 123.897 226.525 124.003 226.61C124.109 226.694 124.231 226.757 124.362 226.794C126.72 227.286 127.878 227.394 130.836 228.072C132.636 228.486 137.268 229.698 139.782 230.268C142.296 230.838 142.956 228.378 141.954 227.91C137.466 225.834 135.036 223.848 133.734 222.156C133.506 221.861 133.184 221.653 132.822 221.568Z" fill="#263238"/>
<g opacity="0.2">
<path d="M127.29 208.548L129.846 214.674L124.686 217.554L123.402 215.154L127.29 208.548Z" fill="black"/>
</g>
<path d="M66.924 170.358L66.324 172.314C66.246 172.464 66.42 172.62 66.672 172.632L88.872 173.304C89.076 173.304 89.238 173.22 89.256 173.094L89.514 171.126C89.514 170.994 89.358 170.874 89.148 170.862L67.308 170.202C67.2358 170.191 67.162 170.199 67.0943 170.227C67.0267 170.254 66.9678 170.3 66.924 170.358Z" fill="#263238"/>
<path d="M94.6917 186.408C87.3897 189.522 79.4697 192.63 75.1617 192.63C66.5337 192.63 58.8717 186.402 67.0377 172.23C72.1737 172.23 81.0957 172.374 81.0957 172.374C81.0957 172.374 97.8957 167.574 110.124 168.99C113.021 169.328 115.737 170.576 117.881 172.554C120.025 174.532 121.488 177.139 122.058 180C125.154 195.6 129.924 212.472 129.924 212.472L123.786 216.672C123.786 216.672 114.216 196.554 108.708 180.6C105.792 181.518 100.434 183.96 94.6917 186.408Z" fill="#407BFF"/>
<path opacity="0.5" d="M122.058 180C121.49 177.137 120.029 174.527 117.884 172.547C115.74 170.566 113.023 169.317 110.124 168.978C97.9198 167.586 81.0958 172.362 81.0958 172.362C81.0958 172.362 72.1738 172.2 67.0378 172.218C58.7398 186.33 66.5338 192.618 75.1618 192.618C79.4698 192.618 87.3898 189.51 94.6918 186.396C100.434 183.948 105.792 181.506 108.708 180.57C114.216 196.542 123.786 216.666 123.786 216.666L129.924 212.466C129.924 212.466 125.154 195.6 122.058 180Z" fill="black"/>
<path d="M114.366 187.2C114.171 189.204 113.87 191.197 113.466 193.17C113.436 193.104 113.412 193.044 113.388 192.978C113.364 192.912 113.388 192.948 113.388 192.93C113.368 192.864 113.342 192.799 113.31 192.738C111.678 188.682 110.082 184.524 108.732 180.606H108.774C112.266 182.088 114.648 184.2 114.366 187.2Z" fill="#407BFF"/>
<path opacity="0.6" d="M114.366 187.2C114.171 189.204 113.87 191.197 113.466 193.17C113.436 193.104 113.412 193.044 113.388 192.978C113.364 192.912 113.388 192.948 113.388 192.93C113.368 192.864 113.342 192.799 113.31 192.738C111.678 188.682 110.082 184.524 108.732 180.606H108.774C112.266 182.088 114.648 184.2 114.366 187.2Z" fill="black"/>
<path d="M70.6077 123.846C72.4077 128.916 73.0677 131.1 76.4397 133.002C81.5217 135.87 87.3417 132.534 87.0897 127.002C86.8617 122.052 83.9517 114.588 78.3117 113.988C77.0674 113.848 75.808 114.029 74.6533 114.513C73.4986 114.997 72.487 115.769 71.7148 116.755C70.9427 117.74 70.4355 118.907 70.2417 120.144C70.0479 121.381 70.1739 122.647 70.6077 123.822V123.846Z" fill="#AE7461"/>
<path d="M79.7216 123.186C79.8476 123.624 80.1657 123.882 80.4417 123.786C80.7177 123.69 80.8256 123.306 80.7176 122.88C80.6096 122.454 80.2797 122.184 79.9977 122.28C79.7157 122.376 79.6016 122.766 79.7216 123.186Z" fill="#263238"/>
<path d="M84.4317 121.698C84.5577 122.142 84.8757 122.4 85.1517 122.298C85.4277 122.196 85.5357 121.818 85.4277 121.392C85.3197 120.966 84.9837 120.696 84.7137 120.792C84.4437 120.888 84.3117 121.284 84.4317 121.698Z" fill="#263238"/>
<path d="M84.5996 120.858L85.5236 120.258C85.5236 120.258 85.2296 121.2 84.5996 120.858Z" fill="#263238"/>
<path d="M82.7456 122.658C83.3948 123.51 84.1579 124.269 85.0136 124.914C84.8418 125.126 84.6253 125.298 84.3795 125.418C84.1338 125.537 83.8648 125.6 83.5916 125.604L82.7456 122.658Z" fill="#B55B52"/>
<path d="M67.2958 127.2C67.6644 128.113 67.9437 129.059 68.1298 130.026C68.1809 130.998 67.8682 131.955 67.2525 132.709C66.6369 133.463 65.7626 133.961 64.7998 134.106C65.6382 134.329 66.5281 134.256 67.3187 133.899C68.1092 133.541 68.7519 132.921 69.1378 132.144C68.6791 133.365 67.7713 134.366 66.5998 134.94C67.4371 134.949 68.2652 134.765 69.0197 134.402C69.7742 134.039 70.4347 133.506 70.9498 132.846C70.6678 133.578 70.3498 134.304 70.0978 135.036C71.5225 134.173 72.6924 132.947 73.4878 131.484C73.8058 130.884 74.0458 130.104 73.6258 129.576C73.2058 129.048 72.5398 129.084 71.9278 129.072C71.3158 129.06 70.5778 128.916 70.3558 128.346C70.1338 127.776 70.5418 127.206 70.9858 126.816C71.4298 126.426 71.9638 126.066 72.1258 125.496C72.2026 125.083 72.1737 124.658 72.0418 124.26C71.7658 123.156 71.4938 122.05 71.2258 120.942C71.153 120.551 71.0129 120.175 70.8118 119.832C69.6118 118.032 68.2738 120.672 67.8118 121.566C66.947 123.315 66.7631 125.323 67.2958 127.2Z" fill="#263238"/>
<path d="M70.2538 128.814C70.9334 129.697 71.9337 130.277 73.0378 130.428C74.5078 130.608 75.0238 129.228 74.4358 127.974C73.9018 126.822 72.4978 125.352 71.1118 125.742C69.7258 126.132 69.4258 127.71 70.2538 128.814Z" fill="#AE7461"/>
<path d="M79.7998 119.562C79.79 119.618 79.7636 119.67 79.724 119.71C79.6844 119.751 79.6334 119.779 79.5778 119.79C78.3778 120.018 77.6818 121.464 77.6818 121.476C77.6516 121.542 77.5971 121.593 77.5298 121.618C77.4626 121.644 77.3879 121.643 77.3217 121.614C77.2578 121.584 77.2082 121.53 77.1835 121.464C77.1588 121.398 77.1611 121.325 77.1897 121.26C77.2437 121.206 77.9878 119.544 79.4758 119.256C79.5455 119.245 79.6167 119.262 79.6748 119.302C79.7328 119.342 79.7732 119.403 79.7877 119.472C79.8006 119.5 79.8048 119.532 79.7998 119.562Z" fill="#263238"/>
<path d="M83.0037 118.362C82.9636 118.356 82.9227 118.358 82.8834 118.368C82.8442 118.378 82.8075 118.397 82.7757 118.422C82.7097 118.494 82.4877 118.62 82.6137 118.686C83.3457 119.058 84.3597 119.67 85.1397 119.544C85.2717 119.544 85.5837 119.406 85.5177 119.31C85.4726 119.262 85.4158 119.226 85.3527 119.206C85.2896 119.186 85.2224 119.182 85.1577 119.196C84.5577 119.28 83.7117 118.698 83.1357 118.398C83.0934 118.38 83.049 118.368 83.0037 118.362Z" fill="#263238"/>
<path d="M79.8838 122.34L80.8138 121.74C80.8138 121.74 80.5198 122.694 79.8838 122.34Z" fill="#263238"/>
<path d="M79.7999 111.768C77.7539 111.396 77.4899 111.258 75.4139 111.39C73.317 111.456 71.2896 112.157 69.5999 113.4C68.0214 114.705 66.9078 116.486 66.4259 118.476C65.9542 120.459 65.9011 122.519 66.2699 124.524C66.3361 125.482 66.7501 126.382 67.4339 127.056C67.5035 125.978 67.6865 124.91 67.9799 123.87C68.2858 122.82 68.9158 121.894 69.7799 121.224C70.1612 121.018 70.4898 120.726 70.7399 120.372C70.8697 120.022 70.9426 119.653 70.9559 119.28C71.144 118.44 71.6463 117.704 72.3599 117.222C73.0686 116.752 73.8272 116.361 74.6219 116.058C77.1479 114.972 79.9019 114.348 82.2299 112.884C81.4682 112.415 80.6522 112.04 79.7999 111.768Z" fill="#263238"/>
<path d="M69.3296 119.796C69.8791 120.463 70.6311 120.933 71.4716 121.134C72.4676 121.362 74.9576 121.302 75.1076 121.044C75.2576 120.786 74.3696 117.99 73.3616 117.822C74.057 118.493 74.8875 119.009 75.7976 119.334C76.8274 119.54 77.8878 119.54 78.9176 119.334C79.4456 119.214 78.2636 117.03 77.4056 116.406C79.9916 116.946 82.7276 117.564 84.6056 119.406C86.4836 121.248 87.2936 124.164 87.1976 126.882C87.6377 126.528 87.9912 126.077 88.2314 125.566C88.4715 125.054 88.592 124.495 88.5836 123.93C89.0366 125.335 89.2026 126.818 89.0717 128.288C88.9408 129.759 88.5157 131.189 87.8216 132.492C90.5696 130.236 91.5956 126.294 90.8756 122.814C90.1556 119.334 87.8756 116.304 85.1096 114.078C82.7096 112.176 79.8536 110.754 76.8116 110.682C72.8216 110.562 65.4296 115.098 69.3296 119.796Z" fill="#263238"/>
<path d="M72.5637 135.84C72.5637 135.642 72.6117 135.378 72.6357 135.102C72.6881 134.468 72.5036 133.838 72.1178 133.332C71.7321 132.827 71.1727 132.483 70.5477 132.366C70.3621 132.333 70.1888 132.251 70.0454 132.129C69.902 132.006 69.7937 131.848 69.7317 131.67C69.2697 130.326 69.0897 129.918 68.6457 128.598C67.4457 128.304 65.9997 128.754 64.7457 128.886C64.398 130.392 64.3734 131.954 64.6737 133.47C64.7218 133.809 64.8538 134.131 65.0577 134.406C66.1964 135.339 67.4557 136.114 68.8017 136.71C69.8817 137.04 71.3997 135.942 72.5637 135.84Z" fill="#AE7461"/>
<path d="M68.9278 136.74C68.9278 136.74 65.6219 158.07 69.0299 161.34C71.0279 163.248 72.7559 162.192 73.8299 160.998C74.2235 160.553 74.5198 160.031 74.6996 159.464C74.8794 158.898 74.9387 158.301 74.8739 157.71L72.5518 135.858C72.5518 135.858 70.2718 134.508 68.9278 136.74Z" fill="#AE7461"/>
<path d="M104.448 156C105.805 154.815 106.779 153.253 107.244 151.512C107.35 150.898 107.39 150.275 107.364 149.652C107.334 145.788 106.242 138.702 106.242 138.702L103.104 137.664C103.104 137.664 102.126 143.064 101.904 146.016C101.862 146.616 101.796 147.282 101.724 148.008C101.586 149.328 101.418 150.78 101.268 151.986L104.448 156Z" fill="#AE7461"/>
<path d="M106.242 158.262C107.208 157.38 107.37 156.312 107.868 154.062C108.342 151.914 107.808 149.262 107.364 149.664C107.308 149.714 107.267 149.779 107.244 149.85C106.482 151.65 103.518 150.072 102.678 149.172C102.316 148.828 101.998 148.441 101.73 148.02C101.62 147.859 101.561 147.669 101.561 147.474C101.561 147.279 101.62 147.089 101.73 146.928C100.818 146.55 100.086 150.138 100.53 151.02L100.758 151.686C101.119 152.766 101.677 153.771 102.402 154.65L104.052 156.636L106.242 158.262Z" fill="#263238"/>
<path d="M103.02 138.114L102.648 132.63C103.618 133.092 104.621 133.483 105.648 133.8C107.172 134.322 109.248 133.404 108.768 134.4C108.003 135.882 107.149 137.317 106.212 138.696L103.02 138.114Z" fill="#AE7461"/>
<path d="M102.648 132.63L105 127.14L108.072 129.018C108.918 130.854 108.816 134.418 108.816 134.418C108.816 134.418 104.544 134.586 102.648 132.63Z" fill="#AE7461"/>
<path d="M82.3858 128.4C82.4638 128.79 82.7458 129.066 82.9858 129C83.2258 128.934 83.3758 128.586 83.2918 128.196C83.2078 127.806 82.9318 127.53 82.6918 127.596C82.4518 127.662 82.3018 128.034 82.3858 128.4Z" fill="#263238"/>
<path d="M74.778 202.95L72.924 175.95C72.654 172.134 70.8 168.954 68.22 167.448C66.5868 166.148 64.5966 165.376 62.514 165.234C62.292 165.234 62.076 165.234 61.854 165.234C60.1786 165.225 58.5279 165.637 57.054 166.434C57.0058 166.451 56.9595 166.473 56.916 166.5C55.3981 167.35 54.0932 168.534 53.1 169.962C51.6015 172.139 50.8058 174.723 50.82 177.366C50.82 183.366 54.774 188.37 59.964 189.366L61.968 218.604C62.142 221.094 63.768 222.996 65.736 222.996H75.798L74.778 202.95Z" fill="#407BFF"/>
<path opacity="0.1" d="M74.778 202.95L72.924 175.95C72.654 172.134 70.8 168.954 68.22 167.448C66.5868 166.148 64.5966 165.376 62.514 165.234C62.292 165.234 62.076 165.234 61.854 165.234C60.1786 165.225 58.5279 165.637 57.054 166.434C57.0058 166.451 56.9595 166.473 56.916 166.5C55.3981 167.35 54.0932 168.534 53.1 169.962C51.6015 172.139 50.8058 174.723 50.82 177.366C50.82 183.366 54.774 188.37 59.964 189.366L61.968 218.604C62.142 221.094 63.768 222.996 65.736 222.996H75.798L74.778 202.95Z" fill="white"/>
<path d="M146.496 252.282C157.61 252.282 166.62 249.977 166.62 247.134C166.62 244.291 157.61 241.986 146.496 241.986C135.382 241.986 126.372 244.291 126.372 247.134C126.372 249.977 135.382 252.282 146.496 252.282Z" fill="#263238"/>
<path opacity="0.3" d="M146.496 250.566C157.61 250.566 166.62 248.645 166.62 246.276C166.62 243.907 157.61 241.986 146.496 241.986C135.382 241.986 126.372 243.907 126.372 246.276C126.372 248.645 135.382 250.566 146.496 250.566Z" fill="white"/>
<path d="M148.158 246.27H144.834L140.994 204.858H151.998L148.158 246.27Z" fill="#263238"/>
<path d="M151.998 204.858C151.998 206.058 149.538 207.042 146.496 207.042C143.454 207.042 140.994 206.064 140.994 204.858C140.994 203.652 143.46 202.674 146.496 202.674C149.532 202.674 151.998 203.652 151.998 204.858Z" fill="#263238"/>
<path opacity="0.7" d="M151.998 204.858C151.998 206.058 149.538 207.042 146.496 207.042C143.454 207.042 140.994 206.064 140.994 204.858C140.994 203.652 143.46 202.674 146.496 202.674C149.532 202.674 151.998 203.652 151.998 204.858Z" fill="white"/>
<path opacity="0.7" d="M79.2002 205.506C79.2152 205.258 79.2798 205.016 79.3901 204.793C79.5003 204.57 79.6541 204.372 79.8422 204.21C84.4922 208.89 113.994 212.496 149.694 212.496C185.394 212.496 214.896 208.896 219.552 204.21C219.74 204.372 219.894 204.57 220.004 204.793C220.115 205.016 220.179 205.258 220.194 205.506C220.194 210.792 188.628 215.106 149.694 215.106C110.76 215.106 79.2002 210.792 79.2002 205.506Z" fill="white"/>
<path opacity="0.7" d="M79.8662 206.7C84.5162 202.02 114.018 198.42 149.718 198.42C185.418 198.42 214.92 202.02 219.576 206.7C214.92 211.38 185.418 214.986 149.718 214.986C114.018 214.986 84.5162 211.38 79.8662 206.7Z" fill="white"/>
<path opacity="0.7" d="M79.2002 205.32C79.2002 200.028 110.76 195.72 149.694 195.72C188.628 195.72 220.194 200.004 220.194 205.32C220.18 205.567 220.115 205.809 220.005 206.031C219.895 206.252 219.741 206.449 219.552 206.61C214.896 201.93 185.394 198.33 149.694 198.33C113.994 198.33 84.4922 201.93 79.8422 206.61C79.6537 206.449 79.4997 206.252 79.3894 206.031C79.279 205.809 79.2147 205.567 79.2002 205.32Z" fill="white"/>
<path d="M176.91 200.658L147.414 200.1C147.335 200.092 147.258 200.068 147.187 200.029C147.117 199.991 147.055 199.939 147.006 199.876C146.956 199.814 146.919 199.742 146.898 199.665C146.876 199.588 146.87 199.507 146.88 199.428C146.874 199.348 146.883 199.268 146.908 199.192C146.933 199.116 146.973 199.046 147.026 198.985C147.078 198.925 147.142 198.876 147.214 198.84C147.286 198.805 147.364 198.785 147.444 198.78L176.94 199.338C177.02 199.345 177.098 199.369 177.169 199.407C177.24 199.445 177.302 199.497 177.353 199.56C177.403 199.622 177.44 199.695 177.462 199.772C177.484 199.849 177.49 199.93 177.48 200.01C177.487 200.09 177.477 200.171 177.452 200.248C177.426 200.324 177.386 200.394 177.333 200.455C177.28 200.515 177.215 200.565 177.142 200.599C177.07 200.634 176.991 200.654 176.91 200.658Z" fill="#263238"/>
<path opacity="0.2" d="M176.91 200.658L147.414 200.1C147.335 200.092 147.258 200.068 147.187 200.029C147.117 199.991 147.055 199.939 147.006 199.876C146.956 199.814 146.919 199.742 146.898 199.665C146.876 199.588 146.87 199.507 146.88 199.428C146.874 199.348 146.883 199.268 146.908 199.192C146.933 199.116 146.973 199.046 147.026 198.985C147.078 198.925 147.142 198.876 147.214 198.84C147.286 198.805 147.364 198.785 147.444 198.78L176.94 199.338C177.02 199.345 177.098 199.369 177.169 199.407C177.24 199.445 177.302 199.497 177.353 199.56C177.403 199.622 177.44 199.695 177.462 199.772C177.484 199.849 177.49 199.93 177.48 200.01C177.487 200.09 177.477 200.171 177.452 200.248C177.426 200.324 177.386 200.394 177.333 200.455C177.28 200.515 177.215 200.565 177.142 200.599C177.07 200.634 176.991 200.654 176.91 200.658Z" fill="white"/>
<path d="M191.232 198.504L177.132 200.634C176.978 200.634 176.83 200.575 176.718 200.469C176.607 200.363 176.54 200.218 176.532 200.064C176.508 199.903 176.544 199.738 176.634 199.602C176.723 199.465 176.861 199.367 177.018 199.326L191.118 197.196C191.272 197.196 191.421 197.255 191.532 197.361C191.644 197.467 191.711 197.612 191.718 197.766C191.743 197.927 191.707 198.092 191.617 198.228C191.527 198.365 191.39 198.463 191.232 198.504Z" fill="#263238"/>
<path d="M191.106 197.196H161.298L147.444 198.78L176.136 199.32L191.106 197.196Z" fill="#263238"/>
<path opacity="0.6" d="M191.106 197.196H161.298L147.444 198.78L176.136 199.32L191.106 197.196Z" fill="white"/>
<path opacity="0.5" d="M191.232 198.504L177.132 200.634C176.978 200.634 176.83 200.575 176.718 200.469C176.607 200.363 176.54 200.218 176.532 200.064C176.508 199.903 176.544 199.738 176.634 199.602C176.723 199.465 176.861 199.367 177.018 199.326L191.118 197.196C191.272 197.196 191.421 197.255 191.532 197.361C191.644 197.467 191.711 197.612 191.718 197.766C191.743 197.927 191.707 198.092 191.617 198.228C191.527 198.365 191.39 198.463 191.232 198.504Z" fill="white"/>
<path d="M176.136 199.32L148.632 198.804C148.114 198.738 147.638 198.484 147.294 198.09C146.95 197.697 146.762 197.191 146.766 196.668L145.938 180.06C145.878 178.902 146.628 177.972 147.594 177.99L175.098 178.512C175.618 178.576 176.096 178.829 176.44 179.223C176.785 179.617 176.971 180.125 176.964 180.648L177.798 197.25C177.852 198.408 177.108 199.338 176.136 199.32Z" fill="#407BFF"/>
<path opacity="0.2" d="M176.136 199.32L148.632 198.804C148.114 198.738 147.638 198.484 147.294 198.09C146.95 197.697 146.762 197.191 146.766 196.668L145.938 180.06C145.878 178.902 146.628 177.972 147.594 177.99L175.098 178.512C175.618 178.576 176.096 178.829 176.44 179.223C176.785 179.617 176.971 180.125 176.964 180.648L177.798 197.25C177.852 198.408 177.108 199.338 176.136 199.32Z" fill="white"/>
<path d="M175.332 199.236L147.828 198.714C147.309 198.649 146.831 198.396 146.486 198.002C146.141 197.608 145.952 197.102 145.956 196.578L145.128 180C145.068 178.842 145.818 177.912 146.79 177.93L174.288 178.446C174.808 178.511 175.286 178.764 175.631 179.158C175.976 179.552 176.164 180.058 176.16 180.582L177 197.166C177.048 198.324 176.298 199.254 175.332 199.236Z" fill="#407BFF"/>
<path opacity="0.6" d="M175.332 199.236L147.828 198.714C147.309 198.649 146.831 198.396 146.486 198.002C146.141 197.608 145.952 197.102 145.956 196.578L145.128 180C145.068 178.842 145.818 177.912 146.79 177.93L174.288 178.446C174.808 178.511 175.286 178.764 175.631 179.158C175.976 179.552 176.164 180.058 176.16 180.582L177 197.166C177.048 198.324 176.298 199.254 175.332 199.236Z" fill="white"/>
<path d="M157.416 188.298C157.497 189.088 157.864 189.821 158.449 190.359C159.034 190.896 159.796 191.201 160.59 191.214C160.964 191.22 161.334 191.147 161.677 191C162.02 190.852 162.328 190.633 162.58 190.357C162.832 190.081 163.022 189.755 163.139 189.4C163.255 189.045 163.294 188.669 163.254 188.298C163.167 187.512 162.797 186.785 162.213 186.251C161.629 185.718 160.871 185.416 160.08 185.4C159.708 185.394 159.339 185.467 158.998 185.613C158.656 185.76 158.349 185.977 158.098 186.251C157.846 186.525 157.655 186.849 157.538 187.202C157.42 187.554 157.379 187.928 157.416 188.298Z" fill="white"/>
</svg>
