<svg width="73" height="72" viewBox="0 0 73 72" fill="none" xmlns="http://www.w3.org/2000/svg">
<g filter="url(#filter0_d_221_4808)">
<rect x="4.5" y="4" width="64" height="64" rx="32" fill="#EFF8FF"/>
<path d="M52.3334 30.1467V44.125C52.3334 46.5417 50.3751 48.5 47.9584 48.5H25.0417C23.8814 48.5 22.7686 48.0391 21.9482 47.2186C21.1277 46.3981 20.6667 45.2853 20.6667 44.125V30.1467L35.9984 38.58C36.3109 38.7517 36.6901 38.7517 37.0017 38.58L52.3334 30.1467ZM47.9584 23.5C49.1005 23.5001 50.1972 23.9468 51.0144 24.7446C51.8316 25.5425 52.3043 26.6283 52.3317 27.77L36.5001 36.4783L20.6684 27.7692L20.6701 27.6942C20.7168 26.566 21.1978 25.4997 22.0125 24.718C22.8273 23.9363 23.9127 23.4999 25.0417 23.5H47.9584Z" fill="url(#paint0_linear_221_4808)"/>
</g>
<defs>
<filter id="filter0_d_221_4808" x="0.5" y="0" width="72" height="72" filterUnits="userSpaceOnUse" color-interpolation-filters="sRGB">
<feFlood flood-opacity="0" result="BackgroundImageFix"/>
<feColorMatrix in="SourceAlpha" type="matrix" values="0 0 0 0 0 0 0 0 0 0 0 0 0 0 0 0 0 0 127 0" result="hardAlpha"/>
<feMorphology radius="4" operator="dilate" in="SourceAlpha" result="effect1_dropShadow_221_4808"/>
<feOffset/>
<feColorMatrix type="matrix" values="0 0 0 0 0.908333 0 0 0 0 0.949583 0 0 0 0 1 0 0 0 1 0"/>
<feBlend mode="normal" in2="BackgroundImageFix" result="effect1_dropShadow_221_4808"/>
<feBlend mode="normal" in="SourceGraphic" in2="effect1_dropShadow_221_4808" result="shape"/>
</filter>
<linearGradient id="paint0_linear_221_4808" x1="52.3334" y1="23.5" x2="19.7933" y2="24.6939" gradientUnits="userSpaceOnUse">
<stop stop-color="#154CB8"/>
<stop offset="1" stop-color="#003399"/>
</linearGradient>
</defs>
</svg>
