<svg width="61" height="53" viewBox="0 0 61 53" fill="none" xmlns="http://www.w3.org/2000/svg">
<g clip-path="url(#clip0_113_4819)">
<path fill-rule="evenodd" clip-rule="evenodd" d="M2.20013 22.361C2.20013 22.361 30.3718 29.7838 32.3088 0C32.3088 0 35.1854 9.62261 31.9 19.1363C31.7947 19.393 29.4768 24.981 25.7736 28.689C20.7911 33.3961 12.764 36.9539 0 37.5462C0 37.5462 6.00346 32.0679 2.20013 22.361ZM15.3683 4.35627C18.7826 4.35634 21.5503 7.12408 21.5503 10.5384C21.5503 13.9526 18.7826 16.7203 15.3683 16.7203C11.9541 16.7203 9.18633 13.9526 9.18633 10.5384C9.18633 7.12408 11.9541 4.35627 15.3683 4.35627Z" fill="#1771DF"/>
<path fill-rule="evenodd" clip-rule="evenodd" d="M31.8998 19.1363C31.3528 20.7205 30.6355 22.3018 29.7048 23.8351C36.0979 43.2111 58.2028 37.3911 58.2028 37.3911C54.3999 47.0981 60.4033 52.5762 60.4033 52.5762C34.381 51.3689 28.0334 37.841 27.0704 27.3657C26.663 27.8157 26.2308 28.2571 25.7734 28.6891C29.4767 24.9811 31.7946 19.393 31.8998 19.1364V19.1363ZM45.0351 19.3865C41.6207 19.3865 38.853 22.1542 38.853 25.5684C38.853 28.9827 41.6207 31.7505 45.0351 31.7505C48.4492 31.7505 51.2169 28.9827 51.2169 25.5684C51.2169 22.1542 48.4492 19.3865 45.0351 19.3865Z" fill="#003399"/>
</g>
<defs>
<clipPath id="clip0_113_4819">
<rect width="60.4035" height="52.5762" fill="white"/>
</clipPath>
</defs>
</svg>
