<svg width="343" height="100" viewBox="0 0 343 100" fill="none" xmlns="http://www.w3.org/2000/svg">
<g clip-path="url(#clip0_345_8967)">
<rect width="343" height="100" rx="12" fill="url(#paint0_linear_345_8967)"/>
<path d="M88 71.1841H8V71.2241H88V71.1841Z" fill="#EBEBEB"/>
<path d="M79.9839 73.7585H71.4927V73.7985H79.9839V73.7585Z" fill="#EBEBEB"/>
<path d="M60.9952 73.2576H51.6096V73.2976H60.9952V73.2576Z" fill="#EBEBEB"/>
<path d="M71.9024 73.0273H68.832V73.0673H71.9024V73.0273Z" fill="#EBEBEB"/>
<path d="M30.9856 72.5425H24.0752V72.5825H30.9856V72.5425Z" fill="#EBEBEB"/>
<path d="M23.184 72.5425H20.7136V72.5825H23.184V72.5425Z" fill="#EBEBEB"/>
<path d="M37.7072 73.2175H29.0352V73.2575H37.7072V73.2175Z" fill="#EBEBEB"/>
<path d="M45.9199 64.048H15.0255C14.7835 64.0476 14.5515 63.9512 14.3805 63.7799C14.2096 63.6086 14.1135 63.3765 14.1135 63.1344V19.7056C14.1156 19.465 14.2126 19.2349 14.3834 19.0654C14.5541 18.8958 14.7849 18.8005 15.0255 18.8H45.9199C46.1622 18.8 46.3946 18.8963 46.5659 19.0676C46.7373 19.239 46.8335 19.4713 46.8335 19.7136V63.1344C46.8335 63.3767 46.7373 63.6091 46.5659 63.7805C46.3946 63.9518 46.1622 64.048 45.9199 64.048ZM15.0255 18.832C14.7941 18.8325 14.5723 18.9247 14.4088 19.0885C14.2453 19.2523 14.1535 19.4742 14.1535 19.7056V63.1344C14.1535 63.3659 14.2453 63.5878 14.4088 63.7516C14.5723 63.9154 14.7941 64.0076 15.0255 64.008H45.9199C46.1515 64.0076 46.3735 63.9154 46.5372 63.7517C46.7009 63.588 46.7931 63.366 46.7935 63.1344V19.7056C46.7931 19.4741 46.7009 19.2521 46.5372 19.0884C46.3735 18.9246 46.1515 18.8325 45.9199 18.832H15.0255Z" fill="#EBEBEB"/>
<path d="M80.5296 64.048H49.6336C49.3914 64.0476 49.1593 63.9512 48.988 63.78C48.8168 63.6088 48.7204 63.3766 48.72 63.1344V19.7056C48.7225 19.4649 48.8198 19.2348 48.9908 19.0653C49.1618 18.8957 49.3928 18.8005 49.6336 18.8H80.5296C80.7699 18.8009 81.0003 18.8964 81.1707 19.0659C81.3411 19.2354 81.4379 19.4653 81.44 19.7056V63.1344C81.44 63.3762 81.3442 63.6081 81.1735 63.7793C81.0029 63.9506 80.7713 64.0472 80.5296 64.048ZM49.6336 18.832C49.402 18.8325 49.18 18.9246 49.0163 19.0884C48.8526 19.2521 48.7604 19.4741 48.76 19.7056V63.1344C48.7604 63.366 48.8526 63.588 49.0163 63.7517C49.18 63.9154 49.402 64.0076 49.6336 64.008H80.5296C80.7611 64.0076 80.9831 63.9154 81.1468 63.7517C81.3106 63.588 81.4027 63.366 81.4032 63.1344V19.7056C81.4027 19.4741 81.3106 19.2521 81.1468 19.0884C80.9831 18.9246 80.7611 18.8325 80.5296 18.832H49.6336Z" fill="#EBEBEB"/>
<path d="M50.6736 69.8306H52.3552V49.8258H50.6736V69.8306Z" fill="#F0F0F0"/>
<path d="M18.3583 71.1633H51.7087V69.8305H18.3583V71.1633Z" fill="#F0F0F0"/>
<path d="M50.6736 49.8257H17.7136V69.8305H50.6736V49.8257Z" fill="#F5F5F5"/>
<path d="M51.0705 49.8257H52.8081V48.5649H51.0705V49.8257Z" fill="#E0E0E0"/>
<path d="M51.0704 48.5649H17.2625V49.8257H51.0704V48.5649Z" fill="#EBEBEB"/>
<path d="M48.1056 51.3777H20.28C19.5925 51.3777 19.0352 51.935 19.0352 52.6225V57.0337C19.0352 57.7212 19.5925 58.2785 20.28 58.2785H48.1056C48.793 58.2785 49.3504 57.7212 49.3504 57.0337V52.6225C49.3504 51.935 48.793 51.3777 48.1056 51.3777Z" fill="white"/>
<path d="M48.1056 60.3394H20.28C19.5925 60.3394 19.0352 60.8967 19.0352 61.5842V65.9954C19.0352 66.6828 19.5925 67.2402 20.28 67.2402H48.1056C48.793 67.2402 49.3504 66.6828 49.3504 65.9954V61.5842C49.3504 60.8967 48.793 60.3394 48.1056 60.3394Z" fill="white"/>
<path d="M27.0288 52.1152H41.3584C41.5148 52.1152 41.6416 51.9884 41.6416 51.832V51.4528C41.6416 51.2964 41.5148 51.1696 41.3584 51.1696H27.0288C26.8724 51.1696 26.7456 51.2964 26.7456 51.4528V51.832C26.7456 51.9884 26.8724 52.1152 27.0288 52.1152Z" fill="#F5F5F5"/>
<path d="M27.0288 61.0769H41.3584C41.5148 61.0769 41.6416 60.9501 41.6416 60.7937V60.4145C41.6416 60.2581 41.5148 60.1313 41.3584 60.1313H27.0288C26.8724 60.1313 26.7456 60.2581 26.7456 60.4145V60.7937C26.7456 60.9501 26.8724 61.0769 27.0288 61.0769Z" fill="#F5F5F5"/>
<path d="M79.5505 56.3889H74.4785V57.3585H79.5505V56.3889Z" fill="#E6E6E6"/>
<path d="M70.5921 71.1841H71.5281V38.0001H70.5921V71.1841Z" fill="#E6E6E6"/>
<path d="M67.3504 57.3569H74.48V56.3873H67.3504V57.3569Z" fill="#F5F5F5"/>
<path d="M79.5505 65.3169H74.4785V66.2865H79.5505V65.3169Z" fill="#E6E6E6"/>
<path d="M67.3504 66.2864H74.48V65.3168H67.3504V66.2864Z" fill="#F5F5F5"/>
<path d="M79.5505 38.5312H74.4785V39.5008H79.5505V38.5312Z" fill="#E6E6E6"/>
<path d="M67.3504 39.5007H74.48V38.5311H67.3504V39.5007Z" fill="#F5F5F5"/>
<path d="M79.5505 47.4592H74.4785V48.4288H79.5505V47.4592Z" fill="#E6E6E6"/>
<path d="M67.3504 48.4304H74.48V47.4608H67.3504V48.4304Z" fill="#F5F5F5"/>
<path d="M77.7217 71.1841H78.6577V38.0001H77.7217V71.1841Z" fill="#E6E6E6"/>
<path d="M73.5425 71.1841H74.4785V38.0001H73.5425V71.1841Z" fill="#F5F5F5"/>
<path d="M67.3504 71.1841H68.2864V38.0001H67.3504V71.1841Z" fill="#F5F5F5"/>
<path d="M22.0625 45.7825L64.3345 45.7825V23.3393L22.0625 23.3393V45.7825Z" fill="#E0E0E0"/>
<path d="M20.9952 45.7825L63.7312 45.7825V23.3393L20.9952 23.3393V45.7825Z" fill="#F5F5F5"/>
<path d="M62.1985 44.0128V25.1072L22.5249 25.1072V44.0128H62.1985Z" fill="white"/>
<path d="M47.9999 78.4095C65.1331 78.4095 79.0223 77.5986 79.0223 76.5983C79.0223 75.598 65.1331 74.7871 47.9999 74.7871C30.8667 74.7871 16.9775 75.598 16.9775 76.5983C16.9775 77.5986 30.8667 78.4095 47.9999 78.4095Z" fill="#F5F5F5"/>
<path d="M70.0512 52.2753H25.6864C25.5452 52.2749 25.4099 52.2186 25.3101 52.1188C25.2103 52.019 25.154 51.8837 25.1536 51.7425C25.154 51.6013 25.2103 51.4661 25.3101 51.3662C25.4099 51.2664 25.5452 51.2101 25.6864 51.2097H70.0512C70.1923 51.2101 70.3276 51.2664 70.4274 51.3662C70.5273 51.4661 70.5835 51.6013 70.584 51.7425C70.5835 51.8837 70.5273 52.019 70.4274 52.1188C70.3276 52.2186 70.1923 52.2749 70.0512 52.2753Z" fill="#407BFF"/>
<path opacity="0.3" d="M70.0512 52.2753H59.6656C59.5244 52.2749 59.3892 52.2186 59.2893 52.1188C59.1895 52.019 59.1332 51.8837 59.1328 51.7425C59.1332 51.6013 59.1895 51.4661 59.2893 51.3662C59.3892 51.2664 59.5244 51.2101 59.6656 51.2097H70.0512C70.1924 51.2101 70.3277 51.2664 70.4275 51.3662C70.5273 51.4661 70.5836 51.6013 70.584 51.7425C70.5836 51.8837 70.5273 52.019 70.4275 52.1188C70.3277 52.2186 70.1924 52.2749 70.0512 52.2753Z" fill="#263238"/>
<path d="M68.9249 53.6113H34.8049V57.3249H68.9249V53.6113Z" fill="#263238"/>
<path opacity="0.1" d="M68.9249 53.6113H34.8049V57.3249H68.9249V53.6113Z" fill="white"/>
<path d="M68.4289 75.8594H69.4497L69.4081 52.2754H67.9937L68.4289 75.8594Z" fill="#263238"/>
<path opacity="0.1" d="M68.4289 75.8594H69.4497L69.4081 52.2754H67.9937L68.4289 75.8594Z" fill="white"/>
<path d="M59.0209 75.8594H57.9985L60.3089 52.2754H61.7233L59.0209 75.8594Z" fill="#263238"/>
<path opacity="0.2" d="M59.0209 75.8594H57.9985L60.3089 52.2754H61.7233L59.0209 75.8594Z" fill="white"/>
<path d="M34.4496 75.8594H35.4704L35.4288 52.2754H34.0144L34.4496 75.8594Z" fill="#263238"/>
<path opacity="0.1" d="M34.4496 75.8594H35.4704L35.4288 52.2754H34.0144L34.4496 75.8594Z" fill="white"/>
<path d="M25.0417 75.8594H24.0193L26.3297 52.2754H27.7441L25.0417 75.8594Z" fill="#263238"/>
<path opacity="0.2" d="M25.0417 75.8594H24.0193L26.3297 52.2754H27.7441L25.0417 75.8594Z" fill="white"/>
<path d="M53.7776 51.2098H51.4224L50.48 46.605H52.8352L53.7776 51.2098Z" fill="#263238"/>
<path d="M56.9026 50.2609H46.685C46.6055 50.2618 46.5267 50.2461 46.4536 50.215C46.3805 50.1838 46.3146 50.1379 46.2602 50.08C46.2057 50.0221 46.1639 49.9535 46.1373 49.8786C46.1107 49.8037 46.1 49.7241 46.1058 49.6449L46.4962 43.1761C46.5082 43.0103 46.5819 42.8551 46.7027 42.7411C46.8236 42.627 46.9828 42.5624 47.149 42.5601H57.3682C57.4476 42.5594 57.5262 42.5752 57.5992 42.6065C57.6722 42.6377 57.738 42.6836 57.7924 42.7415C57.8468 42.7993 57.8886 42.8678 57.9153 42.9426C57.942 43.0174 57.9529 43.0969 57.9474 43.1761L57.557 49.6449C57.5446 49.8108 57.4705 49.966 57.3494 50.08C57.2283 50.194 57.0689 50.2585 56.9026 50.2609Z" fill="#263238"/>
<path d="M56.7424 50.2609H46.5248C46.4453 50.2618 46.3666 50.2461 46.2934 50.215C46.2203 50.1838 46.1545 50.1379 46.1 50.08C46.0456 50.0221 46.0038 49.9535 45.9772 49.8786C45.9506 49.8037 45.9398 49.7241 45.9456 49.6449L46.336 43.1761C46.348 43.0103 46.4217 42.8551 46.5426 42.7411C46.6634 42.627 46.8226 42.5624 46.9888 42.5601H57.208C57.2874 42.5594 57.3661 42.5752 57.4391 42.6065C57.5121 42.6377 57.5778 42.6836 57.6322 42.7415C57.6866 42.7993 57.7285 42.8678 57.7551 42.9426C57.7818 43.0174 57.7927 43.0969 57.7872 43.1761L57.3968 49.6449C57.3844 49.8108 57.3104 49.966 57.1893 50.08C57.0681 50.194 56.9087 50.2585 56.7424 50.2609Z" fill="#407BFF"/>
<path d="M46.5232 49.9409C46.4877 49.9411 46.4525 49.9341 46.4198 49.9204C46.3871 49.9066 46.3575 49.8864 46.3328 49.8609C46.3087 49.8344 46.2902 49.8033 46.2784 49.7695C46.2666 49.7357 46.2617 49.6998 46.264 49.6641L46.6544 43.1953C46.6603 43.1099 46.6979 43.0298 46.7597 42.9706C46.8216 42.9115 46.9032 42.8775 46.9888 42.8753H57.208C57.2437 42.8747 57.2791 42.8816 57.312 42.8956C57.3449 42.9095 57.3745 42.9302 57.3989 42.9563C57.4233 42.9823 57.442 43.0132 57.4538 43.0469C57.4655 43.0807 57.4701 43.1165 57.4672 43.1521L57.0768 49.6209C57.0712 49.7064 57.0337 49.7867 56.9718 49.8459C56.9099 49.9052 56.8281 49.9391 56.7424 49.9409H46.5232Z" fill="white"/>
<path opacity="0.2" d="M51.0112 42.5601L51.6752 44.8337L53.6464 42.5601H51.0112Z" fill="black"/>
<path d="M35.1281 37.0402C35.1441 37.1634 35.2209 37.2562 35.3025 37.2498C35.3841 37.2434 35.4353 37.1378 35.4193 37.0146C35.4033 36.8914 35.3265 36.7986 35.2465 36.805C35.1665 36.8114 35.1137 36.9202 35.1281 37.0402Z" fill="#263238"/>
<path d="M35.2625 37.2241C35.4065 37.5435 35.5927 37.8422 35.8161 38.1121C35.6401 38.2897 35.3185 38.2177 35.3185 38.2177L35.2625 37.2241Z" fill="#A02724"/>
<path d="M34.72 36.5714C34.7079 36.5736 34.6954 36.5736 34.6832 36.5714C34.6655 36.5636 34.6514 36.5493 34.644 36.5314C34.6365 36.5135 34.6363 36.4935 34.6432 36.4754C34.6848 36.3688 34.7517 36.2739 34.8381 36.199C34.9245 36.124 35.0279 36.0711 35.1392 36.045C35.1486 36.0434 35.1582 36.0436 35.1674 36.0457C35.1767 36.0479 35.1854 36.0518 35.1931 36.0573C35.2009 36.0628 35.2074 36.0698 35.2125 36.0778C35.2175 36.0859 35.2209 36.0948 35.2224 36.1042C35.2257 36.1233 35.2213 36.1429 35.2102 36.1587C35.1992 36.1746 35.1823 36.1855 35.1632 36.189C35.076 36.2101 34.9953 36.2524 34.9283 36.3121C34.8614 36.3718 34.8101 36.4471 34.7792 36.5314C34.7734 36.5423 34.7649 36.5517 34.7546 36.5587C34.7443 36.5657 34.7324 36.57 34.72 36.5714Z" fill="#263238"/>
<path d="M31.5025 38.9712L32.4625 39.7072L33.7729 40.7104C33.7011 40.8611 33.6577 41.0239 33.6449 41.1904C33.5985 41.5584 33.5521 41.8304 34.3697 42.056C34.4566 42.0767 34.5356 42.122 34.5975 42.1864C34.6593 42.2508 34.7014 42.3316 34.7185 42.4192C34.7505 42.6368 34.6177 42.8992 33.8625 43.0288C33.1311 43.1381 32.3838 43.0108 31.7297 42.6656C31.4097 42.5056 31.4097 42.3136 31.5441 41.9888C31.9473 41.0656 31.7521 39.888 31.5025 38.9712Z" fill="#B55B52"/>
<path d="M30.4001 42.2801C30.5845 41.9254 30.7366 41.5548 30.8545 41.1729C30.8545 41.1729 33.2865 41.0401 34.0897 41.2801C34.8929 41.5201 35.3921 42.5601 35.3921 42.5601L30.4001 42.2801Z" fill="#407BFF"/>
<path d="M31.4177 44.0897C31.3585 44.2689 31.2929 44.4881 31.2305 44.6897L31.0497 45.3137C30.9377 45.7297 30.8289 46.1473 30.7441 46.5633C30.6538 46.9701 30.585 47.3813 30.5377 47.7953C30.4884 48.1756 30.4766 48.5599 30.5025 48.9425C30.512 49.1045 30.5366 49.2652 30.5761 49.4225C30.5857 49.4545 30.5937 49.4897 30.6049 49.5201L30.6369 49.6065C30.6293 49.591 30.6208 49.5761 30.6113 49.5617C30.595 49.5383 30.5774 49.5159 30.5585 49.4945C30.5379 49.4698 30.5143 49.4477 30.4881 49.4289C30.4561 49.4065 30.4513 49.4097 30.4577 49.4177C30.5046 49.4514 30.555 49.4798 30.6081 49.5025C30.6801 49.5345 30.7681 49.5665 30.8561 49.5969C31.0369 49.6577 31.2369 49.7137 31.4433 49.7681C32.2689 49.9761 33.1697 50.1377 34.0481 50.3249L34.0193 51.4337C33.5501 51.4963 33.0781 51.5353 32.6049 51.5505C32.1248 51.5679 31.6442 51.5599 31.1649 51.5265C30.9111 51.5095 30.6585 51.4785 30.4081 51.4337C30.2769 51.4097 30.1409 51.3825 29.9969 51.3425C29.8313 51.2998 29.6705 51.2402 29.5169 51.1649C29.4033 51.1102 29.2959 51.0431 29.1969 50.9649C29.1268 50.9091 29.062 50.847 29.0033 50.7793C28.9667 50.7359 28.9325 50.6905 28.9009 50.6433C28.8849 50.6161 28.8673 50.5889 28.8529 50.5617L28.8321 50.5233L28.7217 50.2977C28.6881 50.2225 28.6609 50.1489 28.6321 50.0737C28.5312 49.7936 28.4583 49.5042 28.4145 49.2097C28.2545 48.0977 28.3809 47.1057 28.5473 46.1409C28.6369 45.6609 28.7425 45.1809 28.8673 44.7249C28.9313 44.4929 28.9985 44.2609 29.0705 44.0321C29.1425 43.8033 29.2193 43.5825 29.3121 43.3313L31.4177 44.0897Z" fill="#B55B52"/>
<path d="M29.9377 42.0817C31.4497 41.6817 32.3473 42.9201 31.8353 44.9617C31.3233 47.0033 31.1521 47.0801 31.1521 47.0801L28.0337 46.5601C28.4177 44.5601 28.3873 42.4897 29.9377 42.0817Z" fill="#407BFF"/>
<path d="M34.8226 49.8816L34.5874 49.8608C33.9186 49.8608 33.8034 50.0432 33.3922 50.4256L33.2322 51.2672C34.3122 51.8192 34.8914 51.2128 34.893 51.2128H35.893L35.541 50.4128C35.4796 50.2682 35.3805 50.1427 35.2542 50.0493C35.1279 49.9559 34.9788 49.898 34.8226 49.8816Z" fill="#B55B52"/>
<path d="M31.0896 37.3794C31.3616 38.837 31.4464 39.7042 32.2816 40.3554C33.536 41.333 35.264 40.4034 35.4336 38.8866C35.5856 37.5218 35.1136 35.3666 33.6064 34.9842C33.2703 34.9012 32.9187 34.9042 32.584 34.9929C32.2493 35.0817 31.9424 35.2534 31.6916 35.4921C31.4408 35.7307 31.2542 36.0288 31.149 36.3586C31.0438 36.6885 31.0233 37.0396 31.0896 37.3794Z" fill="#B55B52"/>
<path d="M33.9778 37.8881C35.0178 37.8049 34.7138 36.7089 34.3922 36.4801C34.8802 36.2945 35.2162 35.5201 34.7474 34.9889C35.0226 34.2705 34.2354 33.4049 32.8546 33.5345C31.8466 33.6273 31.7346 34.1601 31.7346 34.1601C31.7346 34.1601 30.5266 34.0337 30.0242 35.0305C29.5954 35.8849 30.1154 36.3409 30.1154 36.3409C30.1154 36.3409 29.213 36.6033 29.4626 37.7809C29.7282 39.0513 30.7042 38.7569 30.7042 38.7569C30.7042 38.7569 30.485 39.9217 31.805 39.9377C32.9458 39.9521 32.9602 39.0977 32.9602 39.0977C32.9602 39.0977 34.4386 38.9601 33.9778 37.8881Z" fill="#263238"/>
<path d="M33.2032 37.9729C33.3198 38.2856 33.5477 38.5442 33.8432 38.6993C34.224 38.8945 34.5152 38.4897 34.448 38.0737C34.3872 37.7009 34.0624 37.2225 33.6608 37.2001C33.2592 37.1777 33.0608 37.5857 33.2032 37.9729Z" fill="#B55B52"/>
<path d="M48.7152 74.0273L50.1376 73.4497L49.1328 70.0337L47.7104 70.6097L48.7152 74.0273Z" fill="#B55B52"/>
<path opacity="0.2" d="M48.1984 72.2673L49.6352 71.7393L49.1328 70.0337L47.7104 70.6097L48.1984 72.2673Z" fill="black"/>
<path d="M50.0146 72.88L48.3874 73.4448C48.3737 73.449 48.361 73.4558 48.35 73.4649C48.339 73.4741 48.3299 73.4852 48.3232 73.4979C48.3165 73.5105 48.3124 73.5243 48.311 73.5385C48.3097 73.5528 48.3112 73.5671 48.3154 73.5808L48.6834 74.896C48.707 74.9637 48.7563 75.0194 48.8207 75.0511C48.885 75.0829 48.9592 75.0881 49.0274 75.0656C49.589 74.8576 49.8162 74.7456 50.5106 74.4448C51.1941 74.1588 51.8627 73.8384 52.5138 73.4848C53.0562 73.1648 52.7298 72.6192 52.4658 72.7088C51.8402 72.92 50.8146 73.0576 50.2946 72.8784C50.2037 72.8477 50.1051 72.8483 50.0146 72.88Z" fill="#263238"/>
<path d="M37.2913 54.3202C37.2913 54.3202 48.0417 55.2802 48.3201 58.373C48.8801 64.6658 49.7393 70.733 49.7393 70.733L47.5521 71.533C47.5521 71.533 44.8753 64.621 44.9105 59.693C41.8097 58.8178 33.6561 60.1026 32.3233 57.7106C31.1457 55.5986 32.1793 54.0818 32.1793 54.0818L37.2913 54.3202Z" fill="#263238"/>
<path d="M47.3889 72.0304L50.1121 71.1104L49.9937 69.8704L46.9233 70.8592L47.3889 72.0304Z" fill="#407BFF"/>
<path d="M50.6145 72.9458C50.4835 72.9878 50.3483 73.0152 50.2113 73.0274C50.2043 73.0283 50.1972 73.0271 50.191 73.024C50.1847 73.0208 50.1795 73.0159 50.1761 73.0098C50.1725 73.004 50.1707 72.9974 50.1707 72.9906C50.1707 72.9838 50.1725 72.9772 50.1761 72.9714C50.2113 72.9234 50.5249 72.501 50.7249 72.5074C50.7477 72.5088 50.77 72.5157 50.7895 72.5277C50.809 72.5397 50.8253 72.5564 50.8369 72.5762C50.8577 72.6044 50.8706 72.6377 50.8743 72.6726C50.8779 72.7074 50.8722 72.7427 50.8577 72.7746C50.8005 72.8597 50.7139 72.9206 50.6145 72.9458ZM50.2945 72.9458C50.5713 72.9074 50.7601 72.8338 50.8033 72.7426C50.8123 72.7217 50.8154 72.6987 50.8123 72.6761C50.8092 72.6536 50.8 72.6323 50.7857 72.6146C50.7807 72.6043 50.773 72.5956 50.7634 72.5894C50.7538 72.5832 50.7427 72.5797 50.7313 72.5794C50.6161 72.5746 50.4177 72.781 50.2865 72.9458H50.2945Z" fill="#407BFF"/>
<path d="M50.2194 73.0256C50.2136 73.0273 50.2075 73.0273 50.2018 73.0256C50.1959 73.0246 50.1903 73.0222 50.1856 73.0186C50.1809 73.0149 50.1771 73.0102 50.1746 73.0048C50.1746 72.9872 49.9906 72.5824 50.0866 72.3904C50.099 72.3659 50.1168 72.3444 50.1387 72.3278C50.1606 72.3112 50.186 72.2997 50.213 72.2944C50.2424 72.2845 50.2743 72.285 50.3034 72.2958C50.3325 72.3066 50.3571 72.327 50.373 72.3536C50.461 72.5008 50.3506 72.8768 50.237 73.0128C50.2325 73.0188 50.2264 73.0232 50.2194 73.0256ZM50.2194 72.3696C50.2057 72.3743 50.1932 72.3816 50.1825 72.3913C50.1718 72.4009 50.1631 72.4126 50.157 72.4256C50.0994 72.5392 50.1698 72.7824 50.2226 72.9184C50.3106 72.768 50.3746 72.488 50.317 72.392C50.3058 72.3744 50.2866 72.3536 50.2354 72.3648L50.2194 72.3696Z" fill="#407BFF"/>
<path d="M41.104 75.0434L42.624 74.9714L42.872 71.3826L41.352 71.4546L41.104 75.0434Z" fill="#B55B52"/>
<path d="M42.6593 74.7122L40.9377 74.6578C40.9234 74.6567 40.909 74.6584 40.8954 74.6629C40.8818 74.6674 40.8692 74.6745 40.8584 74.6839C40.8475 74.6933 40.8386 74.7047 40.8322 74.7175C40.8258 74.7303 40.8219 74.7443 40.8209 74.7586L40.6945 76.117C40.6932 76.1531 40.6991 76.189 40.7118 76.2228C40.7244 76.2566 40.7437 76.2875 40.7684 76.3139C40.7931 76.3402 40.8227 76.3614 40.8556 76.3762C40.8885 76.391 40.924 76.3992 40.9601 76.4002C41.5601 76.4082 41.8465 76.3826 42.6033 76.4002C43.0689 76.4146 43.9857 76.4834 44.6241 76.4002C45.2625 76.317 45.1649 75.6914 44.8865 75.6674C44.2289 75.6146 43.3473 75.1602 42.9265 74.8066C42.8509 74.7454 42.7566 74.7121 42.6593 74.7122Z" fill="#263238"/>
<path d="M43.2002 74.9954C43.0627 74.9875 42.9265 74.965 42.7938 74.9282C42.787 74.9267 42.7809 74.9232 42.7761 74.9181C42.7713 74.9131 42.7681 74.9068 42.7669 74.8999C42.7657 74.8931 42.7665 74.886 42.7693 74.8797C42.7721 74.8733 42.7768 74.8679 42.7826 74.8642C42.8322 74.8306 43.2754 74.5442 43.461 74.6274C43.482 74.6366 43.5004 74.6509 43.5144 74.6691C43.5284 74.6873 43.5375 74.7087 43.541 74.7314C43.5503 74.7651 43.5504 74.8006 43.5414 74.8343C43.5324 74.8681 43.5146 74.8988 43.4898 74.9234C43.406 74.9835 43.3024 75.0093 43.2002 74.9954ZM42.893 74.8786C43.165 74.9426 43.373 74.941 43.4418 74.8786C43.4576 74.8617 43.4685 74.841 43.4736 74.8185C43.4787 74.796 43.4776 74.7726 43.4706 74.7506C43.4691 74.7395 43.4648 74.729 43.4581 74.72C43.4514 74.711 43.4424 74.7039 43.4322 74.6994C43.3266 74.6514 43.0674 74.7714 42.8802 74.8786H42.893Z" fill="#407BFF"/>
<path d="M42.7954 74.9297C42.7896 74.9311 42.7836 74.9311 42.7778 74.9297C42.7726 74.9264 42.7684 74.9219 42.7653 74.9166C42.7622 74.9114 42.7605 74.9054 42.7602 74.8993C42.7602 74.8817 42.7394 74.4401 42.8978 74.2961C42.9185 74.2758 42.9441 74.2611 42.972 74.2532C43 74.2454 43.0295 74.2447 43.0578 74.2513C43.0884 74.253 43.1175 74.265 43.1405 74.2853C43.1634 74.3057 43.1788 74.3331 43.1842 74.3633C43.213 74.5313 42.9746 74.8433 42.8194 74.9297C42.8117 74.9328 42.8031 74.9328 42.7954 74.9297ZM43.0242 74.3201C43.0098 74.3191 42.9954 74.3212 42.9819 74.3262C42.9684 74.3311 42.9561 74.3389 42.9458 74.3489C42.8514 74.4337 42.8306 74.6865 42.8306 74.8289C42.9666 74.7201 43.1266 74.4817 43.1074 74.3713C43.1074 74.3505 43.0914 74.3265 43.0402 74.3185L43.0242 74.3201Z" fill="#407BFF"/>
<path opacity="0.2" d="M41.3522 71.4546L42.8738 71.3826L42.7298 73.4354L41.2146 73.4338L41.3522 71.4546Z" fill="black"/>
<path d="M33.72 54.1489C33.72 54.1489 45.304 55.9201 45.12 58.5873C44.7888 63.3873 43.1792 72.7681 43.1792 72.7681L40.8976 72.8001C40.8976 72.8001 40.3584 63.1777 41.2176 59.6705C38.368 59.6705 30.3296 59.5713 29.2336 58.1073C28.0208 56.4897 29.2672 53.9473 29.2672 53.9473L33.72 54.1489Z" fill="#263238"/>
<path d="M40.6289 72.9792L43.3905 72.936L43.5265 71.4768L40.4961 71.5952L40.6289 72.9792Z" fill="#407BFF"/>
<path d="M35.7602 41.9201C34.8274 41.7377 30.621 41.7905 30.621 41.7905C30.2005 41.779 29.791 41.9257 29.4734 42.2015C29.1559 42.4773 28.9533 42.8622 28.9058 43.2801C28.7586 44.5777 29.5826 47.4769 29.6114 48.9553C29.6466 50.7713 29.2994 51.5073 29.2642 53.9521L37.2914 54.3201C37.2914 49.4033 37.077 45.3329 36.8834 43.3809C36.8146 42.6945 36.693 42.1009 35.7602 41.9201Z" fill="#407BFF"/>
<path d="M35.7602 41.9201C34.8274 41.7377 30.621 41.7905 30.621 41.7905C30.2005 41.779 29.791 41.9257 29.4734 42.2015C29.1559 42.4773 28.9533 42.8622 28.9058 43.2801C28.7586 44.5777 29.5826 47.4769 29.6114 48.9553C29.6466 50.7713 29.2994 51.5073 29.2642 53.9521L37.2914 54.3201C37.2914 49.4033 37.077 45.3329 36.8834 43.3809C36.8146 42.6945 36.693 42.1009 35.7602 41.9201Z" fill="url(#paint1_linear_345_8967)"/>
<path d="M36.8593 43.469C37.1105 44.333 37.3633 45.221 37.6241 46.0882C37.8849 46.9554 38.1521 47.8274 38.4529 48.6482C38.5265 48.8578 38.6129 49.053 38.6833 49.2546L38.8065 49.5378L38.8225 49.573V49.5906V49.6002V49.589C38.7948 49.5396 38.7604 49.4944 38.7201 49.4546C38.6657 49.4018 38.6449 49.397 38.6401 49.397C38.6758 49.4292 38.717 49.4547 38.7617 49.4722C38.84 49.51 38.9207 49.5426 39.0033 49.5698C39.1841 49.6322 39.3873 49.6882 39.5937 49.7442C40.4305 49.957 41.3441 50.1202 42.2337 50.3106L42.2049 51.4194C41.7273 51.4838 41.2466 51.5228 40.7649 51.5362C40.2773 51.555 39.7891 51.5459 39.3025 51.509C39.0438 51.4905 38.7863 51.4574 38.5313 51.4098C38.3969 51.3842 38.2577 51.3522 38.1073 51.309C37.9289 51.259 37.7571 51.1881 37.5953 51.0978C37.4664 51.0238 37.348 50.9329 37.2433 50.8274C37.1634 50.745 37.0945 50.6524 37.0385 50.5522L36.9841 50.4514L36.8033 50.109C36.6977 49.885 36.5825 49.6594 36.4833 49.437C36.2865 48.9874 36.1137 48.5426 35.9409 48.0962C35.7681 47.6498 35.6209 47.2034 35.4721 46.7554C35.1761 45.8546 34.9089 44.9634 34.6721 44.0354L36.8593 43.469Z" fill="#B55B52"/>
<path d="M34.5793 42.5777C35.6769 41.4577 37.0801 42.0689 37.6833 44.0913C38.2865 46.1137 38.1777 46.2609 38.1777 46.2609L35.2289 47.4049C34.5329 45.4785 33.4561 43.7185 34.5793 42.5777Z" fill="#407BFF"/>
<path d="M43.0178 49.8816L42.7826 49.8608C42.1138 49.8608 42.0002 50.0432 41.589 50.4256L41.429 51.2672C42.509 51.8192 43.0882 51.2128 43.0882 51.2128H44.0898L43.7362 50.4128C43.675 50.268 43.5761 50.1423 43.4497 50.0489C43.3233 49.9554 43.1741 49.8977 43.0178 49.8816Z" fill="#B55B52"/>
<path d="M29.6161 60.2561H39.8689C40.0942 60.2561 40.2769 60.0734 40.2769 59.8481V59.1889C40.2769 58.9636 40.0942 58.7809 39.8689 58.7809H29.6161C29.3907 58.7809 29.2081 58.9636 29.2081 59.1889V59.8481C29.2081 60.0734 29.3907 60.2561 29.6161 60.2561Z" fill="#407BFF"/>
<path d="M29.6624 76.68H29.208L29.7312 60.2544H30.36L29.6624 76.68Z" fill="#407BFF"/>
<path opacity="0.4" d="M29.6624 76.68H29.208L29.7312 60.2544H30.36L29.6624 76.68Z" fill="white"/>
<path d="M33.8418 76.68H34.2962L33.7746 60.2544H33.1458L33.8418 76.68Z" fill="#407BFF"/>
<path opacity="0.4" d="M33.8418 76.68H34.2962L33.7746 60.2544H33.1458L33.8418 76.68Z" fill="white"/>
<path d="M35.6434 76.68H35.189L35.7122 60.2544H36.341L35.6434 76.68Z" fill="#407BFF"/>
<path opacity="0.4" d="M35.6434 76.68H35.189L35.7122 60.2544H36.341L35.6434 76.68Z" fill="white"/>
<path d="M39.8225 76.68H40.2769L39.7553 60.2544H39.1265L39.8225 76.68Z" fill="#407BFF"/>
<path opacity="0.4" d="M39.8225 76.68H40.2769L39.7553 60.2544H39.1265L39.8225 76.68Z" fill="white"/>
<g opacity="0.3">
<path d="M29.7314 60.2544H30.3602L30.3298 60.952H29.709L29.7314 60.2544Z" fill="#407BFF"/>
<path d="M33.7954 60.952H33.1746L33.1458 60.2544H33.773L33.7954 60.952Z" fill="#407BFF"/>
<path d="M36.3393 60.2544L36.3105 60.952H35.6897L35.7121 60.2544H36.3393Z" fill="#407BFF"/>
<path d="M39.7777 60.952H39.1553L39.1265 60.2544H39.7553L39.7777 60.952Z" fill="#407BFF"/>
</g>
<path d="M70.2401 40.1776H44.6129C44.4138 40.1797 44.2164 40.1405 44.0332 40.0624C43.8501 39.9843 43.6851 39.869 43.5487 39.7239C43.4123 39.5788 43.3075 39.407 43.2409 39.2194C43.1743 39.0317 43.1473 38.8323 43.1617 38.6336L44.1393 22.4144C44.1701 21.9989 44.3553 21.6099 44.6586 21.3241C44.9618 21.0384 45.3611 20.8765 45.7777 20.8704H71.3985C71.5976 20.8684 71.795 20.9076 71.9782 20.9857C72.1614 21.0638 72.3264 21.179 72.4628 21.3241C72.5992 21.4693 72.704 21.6411 72.7706 21.8287C72.8372 22.0164 72.8641 22.2158 72.8497 22.4144L71.8705 38.64C71.8387 39.0532 71.6541 39.4397 71.3526 39.7241C71.0511 40.0084 70.6545 40.1701 70.2401 40.1776Z" fill="#407BFF"/>
<path d="M48.0417 36.7488L50.4049 44.8336L57.4162 36.7488H48.0417Z" fill="#407BFF"/>
<path opacity="0.1" d="M68.9906 33.6512H54.629C54.5173 33.6524 54.4066 33.6304 54.3038 33.5866C54.2011 33.5428 54.1085 33.4782 54.032 33.3969C53.9555 33.3156 53.8967 33.2193 53.8592 33.114C53.8218 33.0088 53.8066 32.897 53.8146 32.7856L54.3634 23.6944C54.3805 23.4614 54.4843 23.2433 54.6543 23.0831C54.8243 22.9229 55.0482 22.8322 55.2818 22.8288H69.6434C69.7554 22.8264 69.8666 22.8476 69.97 22.8909C70.0733 22.9343 70.1663 22.9988 70.2431 23.0804C70.3199 23.162 70.3787 23.2588 70.4157 23.3646C70.4526 23.4704 70.467 23.5827 70.4578 23.6944L69.909 32.7856C69.8918 33.0186 69.788 33.2366 69.618 33.3969C69.448 33.5571 69.2241 33.6478 68.9906 33.6512Z" fill="white"/>
<path opacity="0.1" d="M61.3072 37.5728H46.944C46.8325 37.5737 46.7219 37.5516 46.6194 37.5077C46.5168 37.4639 46.4245 37.3992 46.3481 37.3179C46.2718 37.2366 46.2131 37.1404 46.1757 37.0353C46.1384 36.9301 46.1233 36.8184 46.1312 36.7072L46.68 27.616C46.6972 27.3833 46.8007 27.1654 46.9704 27.0053C47.1401 26.8451 47.3635 26.7542 47.5968 26.7504H61.96C62.0719 26.7482 62.183 26.7696 62.2861 26.813C62.3892 26.8564 62.4821 26.921 62.5587 27.0026C62.6353 27.0842 62.6939 27.1809 62.7308 27.2866C62.7677 27.3923 62.782 27.5045 62.7728 27.616L62.224 36.7072C62.2069 36.9399 62.1033 37.1578 61.9336 37.3179C61.764 37.4781 61.5405 37.569 61.3072 37.5728Z" fill="white"/>
<g opacity="0.5">
<path d="M46.7536 22.2818C46.7507 22.4046 46.7019 22.522 46.617 22.6108C46.532 22.6996 46.417 22.7534 46.2944 22.7618C46.2361 22.7589 46.1791 22.7438 46.127 22.7174C46.0749 22.691 46.029 22.654 45.9922 22.6088C45.9554 22.5635 45.9285 22.511 45.9133 22.4546C45.8981 22.3983 45.8949 22.3394 45.904 22.2818C45.9076 22.1591 45.9565 22.0422 46.0413 21.9535C46.1261 21.8649 46.2408 21.8108 46.3632 21.8018C46.4214 21.8046 46.4785 21.8198 46.5305 21.8461C46.5826 21.8725 46.6285 21.9095 46.6653 21.9548C46.7021 22 46.729 22.0525 46.7442 22.1089C46.7594 22.1652 46.7626 22.2241 46.7536 22.2818Z" fill="white"/>
<path d="M48.3198 22.2818C48.3166 22.4045 48.2677 22.5216 48.1829 22.6104C48.098 22.6991 47.9831 22.7531 47.8606 22.7618C47.8022 22.7591 47.745 22.7441 47.6928 22.7179C47.6405 22.6916 47.5944 22.6546 47.5574 22.6093C47.5204 22.564 47.4934 22.5114 47.4781 22.455C47.4628 22.3986 47.4596 22.3395 47.4686 22.2818C47.4723 22.1591 47.5212 22.0422 47.606 21.9535C47.6908 21.8649 47.8055 21.8108 47.9278 21.8018C47.9862 21.8047 48.0432 21.8198 48.0954 21.8461C48.1475 21.8725 48.1935 21.9095 48.2305 21.9547C48.2674 21.9999 48.2944 22.0524 48.3098 22.1087C48.3252 22.1651 48.3286 22.224 48.3198 22.2818Z" fill="white"/>
<path d="M49.8976 22.2818C49.8947 22.4046 49.846 22.522 49.761 22.6108C49.6761 22.6996 49.561 22.7534 49.4384 22.7618C49.3801 22.7589 49.3231 22.7438 49.271 22.7174C49.219 22.691 49.1731 22.654 49.1362 22.6088C49.0994 22.5635 49.0725 22.511 49.0573 22.4546C49.0421 22.3983 49.039 22.3394 49.048 22.2818C49.0516 22.1591 49.1006 22.0422 49.1854 21.9535C49.2702 21.8649 49.3849 21.8108 49.5072 21.8018C49.5655 21.8046 49.6225 21.8198 49.6746 21.8461C49.7266 21.8725 49.7725 21.9095 49.8094 21.9548C49.8462 22 49.8731 22.0525 49.8883 22.1089C49.9035 22.1652 49.9066 22.2241 49.8976 22.2818Z" fill="white"/>
</g>
<path opacity="0.3" d="M70.0417 40.0273H44.4209C44.2164 40.0289 44.0137 39.9882 43.8257 39.9077C43.6377 39.8272 43.4683 39.7088 43.3283 39.5597C43.1882 39.4106 43.0805 39.2342 43.0119 39.0416C42.9433 38.8489 42.9153 38.6441 42.9297 38.4401L43.9089 22.2209C43.9397 21.7951 44.129 21.3964 44.4394 21.1034C44.7499 20.8105 45.1589 20.6446 45.5857 20.6385H71.2001C71.4046 20.6369 71.6072 20.6776 71.7953 20.758C71.9833 20.8385 72.1527 20.957 72.2927 21.106C72.4327 21.2551 72.5404 21.4315 72.609 21.6242C72.6776 21.8169 72.7056 22.0217 72.6913 22.2257L71.7137 38.4449C71.6826 38.8697 71.4939 39.2675 71.1845 39.5603C70.8752 39.8531 70.4675 40.0196 70.0417 40.0273ZM45.5857 20.7201C45.1786 20.725 44.7883 20.8827 44.4919 21.1618C44.1956 21.441 44.0149 21.8212 43.9857 22.2273L43.0065 38.4465C42.9923 38.6397 43.0184 38.8338 43.0831 39.0164C43.1478 39.199 43.2496 39.3662 43.3823 39.5074C43.5149 39.6487 43.6754 39.7608 43.8537 39.8368C44.0319 39.9128 44.2239 39.9509 44.4177 39.9489H70.0417C70.4486 39.9435 70.8388 39.7858 71.135 39.5067C71.4313 39.2276 71.6121 38.8476 71.6417 38.4417L72.6193 22.2225C72.633 22.0287 72.6064 21.8341 72.541 21.6512C72.4757 21.4682 72.3731 21.3008 72.2397 21.1596C72.1062 21.0183 71.945 20.9063 71.766 20.8307C71.5871 20.755 71.3943 20.7174 71.2001 20.7201H45.5857Z" fill="#263238"/>
<path d="M56.168 30.5458C56.0592 30.7762 55.96 30.973 55.848 31.1858C55.736 31.3986 55.624 31.5906 55.5088 31.7906C55.2736 32.189 55.0288 32.5906 54.7664 32.965C54.6342 33.157 54.4987 33.3474 54.36 33.5362C54.2144 33.7218 54.0768 33.9106 53.9216 34.0914C53.6189 34.4661 53.2923 34.821 52.944 35.1538C52.856 35.2402 52.76 35.3138 52.6672 35.405C52.5752 35.4913 52.4779 35.572 52.376 35.6466L52.0688 35.8786L51.9744 35.9442C51.9327 35.9706 51.8894 35.9947 51.8448 36.0162C51.757 36.0583 51.6647 36.0905 51.5696 36.1122C51.3818 36.156 51.1866 36.1576 50.9982 36.1166C50.8097 36.0756 50.6327 35.9932 50.48 35.8754C50.4043 35.8156 50.3351 35.7481 50.2736 35.6738L50.2304 35.6162L50.2096 35.5874L50.2016 35.5746L50.1728 35.5234L50.0576 35.3154C50.0224 35.2482 49.9984 35.1842 49.9696 35.1186C49.8689 34.8771 49.7865 34.6284 49.7232 34.3746C49.6119 33.9119 49.5338 33.4419 49.4896 32.9682C49.4429 32.5068 49.4226 32.0431 49.4288 31.5794C49.4322 31.4478 49.4825 31.3218 49.5706 31.224C49.6588 31.1263 49.7789 31.0632 49.9094 31.0462C50.0399 31.0292 50.1722 31.0594 50.2824 31.1314C50.3926 31.2033 50.4735 31.3123 50.5104 31.4386V31.4578C50.7225 32.2732 50.9848 33.0748 51.296 33.8578C51.3673 34.0234 51.4501 34.1838 51.544 34.3378C51.5648 34.3698 51.5856 34.4082 51.6064 34.4354L51.6672 34.509L51.6816 34.5282L51.6736 34.5154L51.656 34.4914C51.631 34.4586 51.602 34.429 51.5696 34.4034C51.5058 34.3519 51.4316 34.3147 51.352 34.2946C51.2724 34.2777 51.1901 34.2777 51.1104 34.2946C51.0691 34.3033 51.0288 34.3167 50.9904 34.3346C50.9696 34.3346 50.952 34.3554 50.9328 34.365C50.9136 34.3746 50.8848 34.3986 50.9056 34.381L51.1056 34.1858C51.1728 34.125 51.2384 34.0514 51.304 33.981C51.3696 33.9106 51.4368 33.8418 51.5008 33.7666C52.0283 33.1339 52.5086 32.4633 52.9376 31.7602C53.1568 31.4034 53.3728 31.0402 53.5776 30.6722L53.8864 30.1186L54.1792 29.5778L54.1952 29.549C54.3341 29.3004 54.5636 29.1151 54.8359 29.0318C55.1082 28.9484 55.4021 28.9735 55.6563 29.1017C55.9105 29.23 56.1053 29.4515 56.2001 29.7199C56.2949 29.9884 56.2822 30.2832 56.1648 30.5426L56.168 30.5458Z" fill="#263238"/>
<path d="M49.5792 31.5089L48.8 31.0625L49.6384 30.2065C49.8842 30.3886 50.1119 30.5938 50.3184 30.8193C50.3671 30.8709 50.403 30.9332 50.4233 31.0012C50.4435 31.0692 50.4476 31.1409 50.4352 31.2107C50.4227 31.2806 50.3941 31.3465 50.3516 31.4033C50.3091 31.4601 50.2539 31.5061 50.1904 31.5377C50.0938 31.5826 49.9877 31.6034 49.8813 31.5983C49.7749 31.5933 49.6713 31.5627 49.5792 31.5089Z" fill="#AE7461"/>
<path d="M48.6225 30.1457L49.0465 29.8433C49.1016 29.8032 49.1703 29.7864 49.2377 29.7966C49.3051 29.8068 49.3657 29.8431 49.4065 29.8977L49.6385 30.2065L48.8001 31.0625L48.5361 30.4609C48.5121 30.4064 48.5076 30.3453 48.5234 30.2879C48.5391 30.2305 48.5741 30.1803 48.6225 30.1457Z" fill="#AE7461"/>
<path d="M54.4898 29.8289C54.5533 29.6199 54.6732 29.4323 54.8364 29.287C54.9995 29.1416 55.1996 29.044 55.4146 29.0049C55.7252 28.9363 56.04 28.8882 56.357 28.8609C57.3113 28.8237 58.267 28.8408 59.2194 28.9121C59.7186 28.9457 60.229 29.0161 60.6354 29.0833H60.6498C60.865 29.119 61.0573 29.2386 61.1844 29.4159C61.3116 29.5932 61.3633 29.8136 61.3281 30.0289C61.1281 31.1841 60.541 33.1937 60.477 35.0897C60.3922 37.5793 60.4306 39.0129 60.3874 39.6129L53.9794 39.4897C53.533 33.4049 54.0882 31.2065 54.4898 29.8289Z" fill="white"/>
<path d="M60.8208 28.9888H60.8C60.3712 28.9184 59.84 28.8432 59.3072 28.808L59.0224 28.792C58.7424 29.9504 57.0736 31.8992 56.568 34.8528C56.3728 32.384 56.2224 29.8032 56.5088 28.7968C56.0559 28.8106 55.6041 28.8485 55.1552 28.9104C54.9178 28.9641 54.6989 29.0797 54.5207 29.2456C54.3425 29.4114 54.2114 29.6215 54.1408 29.8544C53.7472 31.0128 52.9952 33.608 53.4576 39.9888H60.5792C60.6256 39.3488 60.4592 38.0048 60.7168 35.936C60.9648 33.9328 61.3216 31.2064 61.5312 29.9888C61.5688 29.7621 61.5152 29.5297 61.3821 29.3424C61.249 29.155 61.0473 29.0279 60.8208 28.9888Z" fill="#263238"/>
<path opacity="0.2" d="M56.416 39.6561C56.4052 39.6566 56.3947 39.6528 56.3866 39.6457C56.3786 39.6385 56.3736 39.6285 56.3728 39.6177C56.2224 37.8177 56.504 35.2337 56.5072 35.2065C56.5078 35.2011 56.5095 35.1958 56.5121 35.1909C56.5148 35.1861 56.5184 35.1819 56.5227 35.1784C56.527 35.175 56.532 35.1725 56.5373 35.171C56.5426 35.1695 56.5481 35.1691 56.5536 35.1697C56.5648 35.171 56.575 35.1765 56.5822 35.1851C56.5894 35.1938 56.5929 35.2049 56.592 35.2161C56.592 35.2417 56.3072 37.8193 56.4576 39.6097C56.4583 39.6153 56.4578 39.621 56.4562 39.6264C56.4546 39.6318 56.4519 39.6368 56.4483 39.6412C56.4447 39.6455 56.4403 39.6491 56.4353 39.6516C56.4303 39.6542 56.4248 39.6557 56.4192 39.6561H56.416Z" fill="white"/>
<path opacity="0.3" d="M60.5698 31.5216C60.3058 32.7184 60.4466 34.376 60.7298 35.888C60.9394 34.1904 61.2258 31.9872 61.4354 30.624C61.1426 30.4288 60.7794 30.5664 60.5698 31.5216Z" fill="black"/>
<path d="M56.4928 28.8528C57.3232 28.6704 57.4672 28.1584 57.408 27.592C57.3934 27.4505 57.3705 27.31 57.3392 27.1712L58.376 26.3232L59.1392 25.7024C58.9312 26.6208 58.7024 28.296 59.3296 28.9216C59.3296 28.9216 58.8176 29.7616 57.3936 29.6592C56.1904 29.5728 56.4928 28.8528 56.4928 28.8528Z" fill="#AE7461"/>
<path d="M57.7553 29.448L57.5249 29.6656L58.2609 29.9424L58.1649 29.6624L57.7553 29.448Z" fill="#E0E0E0"/>
<path d="M58.3186 30.3329C58.3186 30.3329 58.029 29.6017 57.7554 29.4465C58.2935 29.3182 58.7864 29.0455 59.181 28.6577L59.6178 28.8321C59.6178 28.8321 59.7554 29.6801 58.3186 30.3329Z" fill="#F5F5F5"/>
<path d="M57.3521 29.3904L57.5249 29.6656L56.7505 29.7328L56.9057 29.488L57.3521 29.3904Z" fill="#E0E0E0"/>
<path d="M56.3617 30.1265C56.6454 29.8243 56.9808 29.575 57.3521 29.3905C56.9313 29.2657 56.9057 28.6865 56.9057 28.6865L56.4977 28.7649C56.4977 28.7649 55.7489 29.4929 56.3617 30.1265Z" fill="#F5F5F5"/>
<path opacity="0.2" d="M57.3394 27.1696C57.3705 27.309 57.3934 27.45 57.4082 27.592C57.7954 27.5216 58.3138 27.112 58.3682 26.72C58.3865 26.5886 58.3903 26.4555 58.3794 26.3232L57.3394 27.1696Z" fill="black"/>
<path d="M56.08 22.9825C55.7088 23.4385 55.744 25.0881 56.5296 25.1073C57.3152 25.1265 56.7552 22.1505 56.08 22.9825Z" fill="#263238"/>
<path d="M59.4641 24.1825C59.3857 25.4321 59.4017 26.1665 58.7713 26.8129C57.8241 27.7841 56.2881 27.2257 55.9921 25.9825C55.7281 24.8625 55.9009 23.0081 57.1217 22.5009C57.3883 22.3868 57.6798 22.3434 57.9681 22.375C58.2563 22.4066 58.5315 22.512 58.7671 22.6812C59.0026 22.8503 59.1906 23.0773 59.3127 23.3403C59.4348 23.6033 59.4869 23.8934 59.4641 24.1825Z" fill="#AE7461"/>
<path d="M58.8496 23.1425C58.064 23.9217 59.0848 24.4929 58.6896 24.9121C59.4304 25.2993 59.1584 25.5841 59.1584 25.5841C59.0817 25.7971 59.0817 26.0302 59.1584 26.2433C59.9936 26.0289 61.544 23.2545 59.8512 22.8289C58.8384 23.2801 58.8496 23.1425 58.8496 23.1425Z" fill="#263238"/>
<path d="M59.1712 23.7024C58.4272 23.8176 57.4912 23.4624 56.9104 23.1616C56.3296 22.8608 56.2448 23.4288 56.4592 23.6016C56.0864 23.6144 55.6144 23.32 55.7312 22.6624C55.8384 22.0624 56.6241 21.4944 57.7425 22.0016C58.5345 22.36 59.5104 21.888 59.8912 22.3024C60.272 22.7168 59.6672 23.624 59.1712 23.7024Z" fill="#263238"/>
<path d="M59.6802 22.8881C60.1794 22.8225 60.2002 22.5073 60.061 21.9553C60.6002 22.7217 60.381 22.9569 60.061 23.1425C59.7042 23.0225 59.6802 22.8881 59.6802 22.8881Z" fill="#263238"/>
<path d="M59.8 25.1409C59.6893 25.3853 59.4962 25.583 59.2544 25.6993C58.9456 25.8385 58.7888 25.5537 58.872 25.2193C58.9472 24.9169 59.192 24.4817 59.512 24.4849C59.832 24.4881 59.9392 24.8321 59.8 25.1409Z" fill="#AE7461"/>
<path d="M57.5136 24.56C57.5136 24.6608 57.4592 24.744 57.3936 24.7456C57.328 24.7472 57.28 24.664 57.28 24.56C57.28 24.456 57.3344 24.376 57.4 24.376C57.4656 24.376 57.5136 24.4576 57.5136 24.56Z" fill="#263238"/>
<path d="M56.368 24.5696C56.368 24.672 56.3136 24.7536 56.2464 24.7552C56.1792 24.7568 56.1264 24.6736 56.128 24.5712C56.1296 24.4688 56.1808 24.3872 56.248 24.3872C56.3152 24.3872 56.368 24.4688 56.368 24.5696Z" fill="#263238"/>
<path d="M56.8001 24.605C56.6804 24.9166 56.5189 25.2105 56.3201 25.4786C56.389 25.527 56.4676 25.5599 56.5504 25.5751C56.6333 25.5903 56.7184 25.5874 56.8001 25.5666V24.605Z" fill="#7F3E3B"/>
<path d="M57.2034 25.8402C57.3195 25.8272 57.4317 25.7902 57.5328 25.7315C57.6339 25.6728 57.7217 25.5938 57.7906 25.4994C57.7948 25.4928 57.7963 25.4848 57.7946 25.4771C57.793 25.4695 57.7884 25.4628 57.7818 25.4586C57.7752 25.4543 57.7672 25.4529 57.7596 25.4545C57.7519 25.4562 57.7452 25.4608 57.741 25.4674C57.664 25.568 57.5646 25.6493 57.4508 25.7048C57.3369 25.7603 57.2117 25.7886 57.085 25.7874C57.0811 25.7874 57.0772 25.7882 57.0736 25.7897C57.07 25.7913 57.0667 25.7935 57.064 25.7964C57.0613 25.7992 57.0593 25.8026 57.0579 25.8063C57.0566 25.8099 57.056 25.8139 57.0562 25.8178C57.0562 25.8217 57.057 25.8256 57.0585 25.8292C57.0601 25.8328 57.0623 25.836 57.0652 25.8387C57.068 25.8414 57.0714 25.8435 57.0751 25.8449C57.0788 25.8462 57.0827 25.8468 57.0866 25.8466C57.1282 25.8402 57.1666 25.8402 57.2034 25.8402Z" fill="#263238"/>
<path d="M58.069 24.1552C58.0791 24.1547 58.0886 24.1507 58.0962 24.144C58.1026 24.1395 58.108 24.1336 58.112 24.1269C58.1161 24.1202 58.1187 24.1127 58.1198 24.1049C58.1208 24.0971 58.1203 24.0891 58.1181 24.0816C58.116 24.074 58.1124 24.0669 58.1074 24.0608C58.0525 23.9851 57.9803 23.9235 57.8968 23.8812C57.8133 23.8389 57.721 23.8171 57.6274 23.8176C57.6197 23.8182 57.6121 23.8204 57.6053 23.8239C57.5984 23.8275 57.5923 23.8324 57.5874 23.8384C57.5825 23.8444 57.5788 23.8513 57.5766 23.8587C57.5744 23.8661 57.5737 23.8739 57.5746 23.8816C57.5762 23.8976 57.5839 23.9124 57.5962 23.9228C57.6084 23.9332 57.6242 23.9385 57.6402 23.9376C57.7145 23.9369 57.7879 23.9543 57.8539 23.9884C57.92 24.0224 57.9768 24.072 58.0194 24.1328C58.0253 24.1403 58.0328 24.1462 58.0415 24.1501C58.0501 24.154 58.0595 24.1557 58.069 24.1552Z" fill="#263238"/>
<path d="M55.904 24.2049C55.9135 24.2036 55.9226 24.2 55.9304 24.1944C55.9382 24.1889 55.9445 24.1815 55.9488 24.1729C55.9794 24.1037 56.026 24.0427 56.0846 23.9948C56.1433 23.947 56.2124 23.9137 56.2864 23.8977C56.2943 23.897 56.3019 23.8946 56.3088 23.8907C56.3156 23.8868 56.3216 23.8816 56.3263 23.8752C56.331 23.8689 56.3342 23.8616 56.3359 23.8539C56.3376 23.8462 56.3376 23.8382 56.336 23.8305C56.3333 23.8151 56.3249 23.8013 56.3124 23.7918C56.3 23.7823 56.2844 23.7779 56.2688 23.7793C56.1756 23.7977 56.088 23.8381 56.0134 23.8971C55.9389 23.9561 55.8794 24.032 55.84 24.1185C55.8333 24.1328 55.8324 24.1491 55.8375 24.164C55.8425 24.1789 55.8532 24.1913 55.8672 24.1985C55.8787 24.2039 55.8914 24.2061 55.904 24.2049Z" fill="#263238"/>
<path d="M61.7217 29.712C61.9169 30.1232 62.0801 30.512 62.2401 30.912C62.4001 31.312 62.5425 31.72 62.6849 32.128C62.9643 32.9595 63.1898 33.8082 63.3601 34.6688C63.3969 34.8912 63.4385 35.1088 63.4657 35.3376L63.4865 35.5072L63.4977 35.592V35.6352V35.6944C63.5136 35.8598 63.5136 36.0265 63.4977 36.192C63.4607 36.5541 63.336 36.9017 63.1345 37.2048C62.9456 37.4824 62.6975 37.7146 62.4081 37.8848C62.167 38.0264 61.9074 38.1341 61.6369 38.2048C61.396 38.2707 61.1497 38.3146 60.9009 38.336C60.4317 38.3803 59.9587 38.3615 59.4945 38.28C59.3686 38.2588 59.2539 38.1946 59.1702 38.0983C59.0864 38.0019 59.0388 37.8794 59.0354 37.7518C59.0319 37.6242 59.073 37.4994 59.1515 37.3987C59.23 37.298 59.3411 37.2278 59.4657 37.2L59.5233 37.1872C59.6833 37.1504 59.8929 37.1056 60.0721 37.0576C60.2513 37.0096 60.4337 36.9536 60.6033 36.8976C60.8994 36.8027 61.174 36.6505 61.4113 36.4496C61.474 36.3914 61.5218 36.3189 61.5505 36.2384C61.5618 36.1819 61.5618 36.1237 61.5505 36.0672C61.5451 36.0241 61.5371 35.9813 61.5265 35.9392L61.4689 35.6784C61.4321 35.496 61.3793 35.3072 61.3313 35.1216C61.2321 34.7456 61.1201 34.3696 60.9921 33.992C60.8641 33.6144 60.7329 33.2384 60.5937 32.8624C60.4545 32.4864 60.3073 32.1104 60.1585 31.7424C60.0097 31.3744 59.8529 30.9872 59.7041 30.6368V30.6208C59.5844 30.3539 59.5757 30.0503 59.6798 29.777C59.7839 29.5036 59.9924 29.2828 60.2593 29.1632C60.5262 29.0435 60.8297 29.0348 61.1031 29.1389C61.3764 29.243 61.5972 29.4515 61.7169 29.7184L61.7217 29.712Z" fill="#263238"/>
<path d="M58.9888 37.6608L58.2832 38L59.5024 38.4336C59.5024 38.4336 60.3152 38.1744 59.9216 37.7232L59.7024 37.6544C59.3504 37.5392 59.1776 37.552 58.9888 37.6608Z" fill="#AE7461"/>
<path d="M58.3776 38.8608L58.9136 38.9632C58.9902 38.9773 59.0693 38.9671 59.1399 38.9341C59.2104 38.9012 59.2689 38.847 59.3072 38.7792L59.5024 38.4288L58.2832 38L58.1232 38.3344C58.0984 38.385 58.0854 38.4405 58.0852 38.4969C58.085 38.5532 58.0977 38.6088 58.1222 38.6596C58.1467 38.7103 58.1824 38.7548 58.2267 38.7896C58.271 38.8245 58.3226 38.8488 58.3776 38.8608Z" fill="#AE7461"/>
<path d="M10.0001 2.66675V13.3334M14.0001 4.00008L6.00008 12.0001M15.3334 8.00008H4.66675M14.0001 12.0001L6.00008 4.00008" stroke="#175CD3" stroke-width="1.5" stroke-linecap="round" stroke-linejoin="round"/>
<path d="M50.0001 91.6667V102.333M54.0001 93.0001L46.0001 101M55.3334 97.0001H44.6667M54.0001 101L46.0001 93.0001" stroke="#175CD3" stroke-width="1.5" stroke-linecap="round" stroke-linejoin="round"/>
<path d="M193 13.6667V24.3334M197 15.0001L189 23.0001M198.333 19.0001H187.667M197 23.0001L189 15.0001" stroke="#175CD3" stroke-width="1.5" stroke-linecap="round" stroke-linejoin="round"/>
<path d="M250 92.6667V103.333M254 94.0001L246 102M255.333 98.0001H244.667M254 102L246 94.0001" stroke="#175CD3" stroke-width="1.5" stroke-linecap="round" stroke-linejoin="round"/>
<path d="M281 74C281 78.4183 277.418 82 273 82C268.582 82 265 78.4183 265 74C265 69.5817 268.582 66 273 66C277.418 66 281 69.5817 281 74ZM267.576 74C267.576 76.9954 270.005 79.4236 273 79.4236C275.995 79.4236 278.424 76.9954 278.424 74C278.424 71.0046 275.995 68.5764 273 68.5764C270.005 68.5764 267.576 71.0046 267.576 74Z" fill="#175CD3"/>
<path d="M103.84 26.3V37.5H102V29.516L98.592 35.148H98.368L94.96 29.5V37.5H93.12V26.3H95.104L98.48 31.9L101.872 26.3H103.84ZM109.737 37.708C108.564 37.708 107.566 37.3027 106.745 36.492C105.924 35.6813 105.513 34.684 105.513 33.5C105.513 32.316 105.924 31.3187 106.745 30.508C107.566 29.6973 108.564 29.292 109.737 29.292C110.921 29.292 111.918 29.6973 112.729 30.508C113.55 31.3187 113.961 32.316 113.961 33.5C113.961 34.684 113.55 35.6813 112.729 36.492C111.918 37.3027 110.921 37.708 109.737 37.708ZM107.961 35.308C108.441 35.788 109.033 36.028 109.737 36.028C110.441 36.028 111.033 35.788 111.513 35.308C111.993 34.828 112.233 34.2253 112.233 33.5C112.233 32.7747 111.993 32.172 111.513 31.692C111.033 31.212 110.441 30.972 109.737 30.972C109.033 30.972 108.441 31.212 107.961 31.692C107.481 32.172 107.241 32.7747 107.241 33.5C107.241 34.2253 107.481 34.828 107.961 35.308ZM119.3 37.708C118.094 37.708 117.086 37.3027 116.276 36.492C115.476 35.6813 115.076 34.684 115.076 33.5C115.076 32.3053 115.476 31.308 116.276 30.508C117.086 29.6973 118.094 29.292 119.3 29.292C120.078 29.292 120.788 29.4787 121.428 29.852C122.068 30.2253 122.548 30.7267 122.868 31.356L121.38 32.22C121.198 31.836 120.921 31.5373 120.548 31.324C120.185 31.1 119.764 30.988 119.284 30.988C118.58 30.988 117.988 31.228 117.508 31.708C117.038 32.188 116.804 32.7853 116.804 33.5C116.804 34.2147 117.038 34.812 117.508 35.292C117.988 35.772 118.58 36.012 119.284 36.012C119.753 36.012 120.174 35.9 120.548 35.676C120.932 35.452 121.22 35.1533 121.412 34.78L122.9 35.628C122.558 36.268 122.068 36.7747 121.428 37.148C120.788 37.5213 120.078 37.708 119.3 37.708ZM131.221 37.5H129.157L125.877 33.804V37.5H124.149V26.3H125.877V33.036L128.981 29.5H131.093L127.573 33.42L131.221 37.5ZM138.015 27.98C137.802 28.1933 137.546 28.3 137.247 28.3C136.948 28.3 136.687 28.1933 136.463 27.98C136.25 27.756 136.143 27.4947 136.143 27.196C136.143 26.8973 136.25 26.6413 136.463 26.428C136.676 26.204 136.938 26.092 137.247 26.092C137.556 26.092 137.818 26.204 138.031 26.428C138.244 26.6413 138.351 26.8973 138.351 27.196C138.351 27.4947 138.239 27.756 138.015 27.98ZM136.383 37.5V29.5H138.111V37.5H136.383ZM144.325 29.292C145.243 29.292 145.984 29.5853 146.549 30.172C147.115 30.7587 147.397 31.564 147.397 32.588V37.5H145.669V32.764C145.669 32.1667 145.509 31.708 145.189 31.388C144.869 31.068 144.432 30.908 143.877 30.908C143.269 30.908 142.779 31.1 142.405 31.484C142.032 31.8573 141.845 32.4333 141.845 33.212V37.5H140.117V29.5H141.845V30.524C142.368 29.7027 143.195 29.292 144.325 29.292ZM153.722 31.164H151.738V35.004C151.738 35.3347 151.813 35.5747 151.962 35.724C152.111 35.8627 152.33 35.9427 152.618 35.964C152.917 35.9747 153.285 35.9693 153.722 35.948V37.5C152.399 37.66 151.45 37.548 150.874 37.164C150.298 36.7693 150.01 36.0493 150.01 35.004V31.164H148.538V29.5H150.01V27.772L151.738 27.26V29.5H153.722V31.164ZM156.321 34.236C156.449 34.844 156.742 35.3133 157.201 35.644C157.66 35.964 158.22 36.124 158.881 36.124C159.798 36.124 160.486 35.7933 160.945 35.132L162.369 35.964C161.58 37.1267 160.412 37.708 158.865 37.708C157.564 37.708 156.513 37.3133 155.713 36.524C154.913 35.724 154.513 34.716 154.513 33.5C154.513 32.3053 154.908 31.308 155.697 30.508C156.486 29.6973 157.5 29.292 158.737 29.292C159.91 29.292 160.87 29.7027 161.617 30.524C162.374 31.3453 162.753 32.3427 162.753 33.516C162.753 33.6973 162.732 33.9373 162.689 34.236H156.321ZM156.305 32.828H161.009C160.892 32.1773 160.62 31.6867 160.193 31.356C159.777 31.0253 159.286 30.86 158.721 30.86C158.081 30.86 157.548 31.036 157.121 31.388C156.694 31.74 156.422 32.22 156.305 32.828ZM166.002 30.844C166.439 29.852 167.26 29.356 168.466 29.356V31.228C167.804 31.1853 167.228 31.3453 166.738 31.708C166.247 32.06 166.002 32.6467 166.002 33.468V37.5H164.274V29.5H166.002V30.844ZM175.166 29.5H177.054L173.934 37.5H171.934L168.814 29.5H170.702L172.942 35.58L175.166 29.5ZM179.781 27.98C179.567 28.1933 179.311 28.3 179.013 28.3C178.714 28.3 178.453 28.1933 178.229 27.98C178.015 27.756 177.909 27.4947 177.909 27.196C177.909 26.8973 178.015 26.6413 178.229 26.428C178.442 26.204 178.703 26.092 179.013 26.092C179.322 26.092 179.583 26.204 179.797 26.428C180.01 26.6413 180.117 26.8973 180.117 27.196C180.117 27.4947 180.005 27.756 179.781 27.98ZM178.149 37.5V29.5H179.877V37.5H178.149ZM183.243 34.236C183.371 34.844 183.664 35.3133 184.123 35.644C184.582 35.964 185.142 36.124 185.803 36.124C186.72 36.124 187.408 35.7933 187.867 35.132L189.291 35.964C188.502 37.1267 187.334 37.708 185.787 37.708C184.486 37.708 183.435 37.3133 182.635 36.524C181.835 35.724 181.435 34.716 181.435 33.5C181.435 32.3053 181.83 31.308 182.619 30.508C183.408 29.6973 184.422 29.292 185.659 29.292C186.832 29.292 187.792 29.7027 188.539 30.524C189.296 31.3453 189.675 32.3427 189.675 33.516C189.675 33.6973 189.654 33.9373 189.611 34.236H183.243ZM183.227 32.828H187.931C187.814 32.1773 187.542 31.6867 187.115 31.356C186.699 31.0253 186.208 30.86 185.643 30.86C185.003 30.86 184.47 31.036 184.043 31.388C183.616 31.74 183.344 32.22 183.227 32.828ZM200.099 29.5H201.923L199.411 37.5H197.715L196.051 32.108L194.371 37.5H192.675L190.163 29.5H191.987L193.539 35.02L195.219 29.5H196.867L198.531 35.02L200.099 29.5ZM204.263 31.708C204.263 31.9747 204.407 32.188 204.695 32.348C204.994 32.4973 205.351 32.6307 205.767 32.748C206.194 32.8547 206.62 32.9827 207.047 33.132C207.474 33.2813 207.831 33.5373 208.119 33.9C208.418 34.252 208.567 34.7 208.567 35.244C208.567 36.012 208.268 36.6147 207.671 37.052C207.084 37.4893 206.343 37.708 205.447 37.708C204.658 37.708 203.98 37.5427 203.415 37.212C202.85 36.8813 202.439 36.4227 202.183 35.836L203.671 34.972C203.948 35.74 204.54 36.124 205.447 36.124C206.354 36.124 206.807 35.8253 206.807 35.228C206.807 34.972 206.658 34.764 206.359 34.604C206.071 34.444 205.714 34.3107 205.287 34.204C204.871 34.0867 204.45 33.9533 204.023 33.804C203.596 33.6547 203.234 33.4093 202.935 33.068C202.647 32.716 202.503 32.2733 202.503 31.74C202.503 31.004 202.78 30.412 203.335 29.964C203.9 29.516 204.599 29.292 205.431 29.292C206.092 29.292 206.679 29.4413 207.191 29.74C207.714 30.028 208.114 30.4333 208.391 30.956L206.935 31.772C206.658 31.164 206.156 30.86 205.431 30.86C205.1 30.86 204.823 30.9347 204.599 31.084C204.375 31.2227 204.263 31.4307 204.263 31.708Z" fill="white"/>
<path d="M98.86 58.5L96.662 54.748H94.352V58.5H93.05V48.7H96.97C97.81 48.7 98.5287 48.9987 99.126 49.596C99.7233 50.184 100.022 50.898 100.022 51.738C100.022 52.3727 99.8307 52.9513 99.448 53.474C99.0747 53.9967 98.5893 54.3653 97.992 54.58L100.302 58.5H98.86ZM94.352 49.918V53.572H96.97C97.4553 53.572 97.866 53.3947 98.202 53.04C98.5473 52.676 98.72 52.242 98.72 51.738C98.72 51.234 98.5473 50.8047 98.202 50.45C97.866 50.0953 97.4553 49.918 96.97 49.918H94.352ZM101.981 55.56C102.102 56.1853 102.387 56.6707 102.835 57.016C103.292 57.3613 103.852 57.534 104.515 57.534C105.439 57.534 106.111 57.1933 106.531 56.512L107.567 57.1C106.886 58.1547 105.859 58.682 104.487 58.682C103.376 58.682 102.471 58.3367 101.771 57.646C101.08 56.946 100.735 56.064 100.735 55C100.735 53.9453 101.076 53.068 101.757 52.368C102.438 51.668 103.32 51.318 104.403 51.318C105.43 51.318 106.265 51.682 106.909 52.41C107.562 53.1287 107.889 53.9967 107.889 55.014C107.889 55.1913 107.875 55.3733 107.847 55.56H101.981ZM104.403 52.466C103.75 52.466 103.208 52.6527 102.779 53.026C102.35 53.39 102.084 53.88 101.981 54.496H106.657C106.554 53.8333 106.293 53.3293 105.873 52.984C105.453 52.6387 104.963 52.466 104.403 52.466ZM115.072 51.5H116.29V58.5H115.072V57.296C114.465 58.22 113.583 58.682 112.426 58.682C111.446 58.682 110.61 58.3273 109.92 57.618C109.229 56.8993 108.884 56.0267 108.884 55C108.884 53.9733 109.229 53.1053 109.92 52.396C110.61 51.6773 111.446 51.318 112.426 51.318C113.583 51.318 114.465 51.78 115.072 52.704V51.5ZM112.58 57.506C113.289 57.506 113.882 57.268 114.358 56.792C114.834 56.3067 115.072 55.7093 115.072 55C115.072 54.2907 114.834 53.698 114.358 53.222C113.882 52.7367 113.289 52.494 112.58 52.494C111.88 52.494 111.292 52.7367 110.816 53.222C110.34 53.698 110.102 54.2907 110.102 55C110.102 55.7093 110.34 56.3067 110.816 56.792C111.292 57.268 111.88 57.506 112.58 57.506ZM123.931 48.7H125.149V58.5H123.931V57.296C123.324 58.22 122.442 58.682 121.285 58.682C120.305 58.682 119.47 58.3273 118.779 57.618C118.088 56.8993 117.743 56.0267 117.743 55C117.743 53.9733 118.088 53.1053 118.779 52.396C119.47 51.6773 120.305 51.318 121.285 51.318C122.442 51.318 123.324 51.78 123.931 52.704V48.7ZM121.439 57.506C122.148 57.506 122.741 57.268 123.217 56.792C123.693 56.3067 123.931 55.7093 123.931 55C123.931 54.2907 123.693 53.698 123.217 53.222C122.741 52.7367 122.148 52.494 121.439 52.494C120.739 52.494 120.151 52.7367 119.675 53.222C119.199 53.698 118.961 54.2907 118.961 55C118.961 55.7093 119.199 56.3067 119.675 56.792C120.151 57.268 120.739 57.506 121.439 57.506ZM131.88 51.5H133.182L130.326 58.934C130.028 59.7273 129.608 60.3293 129.066 60.74C128.534 61.16 127.918 61.3467 127.218 61.3V60.166C128.077 60.2313 128.707 59.7553 129.108 58.738L129.234 58.472L126.182 51.5H127.484L129.864 56.988L131.88 51.5ZM141.507 52.676H139.645V56.47C139.645 56.8153 139.711 57.0627 139.841 57.212C139.981 57.352 140.191 57.4267 140.471 57.436C140.751 57.436 141.097 57.4267 141.507 57.408V58.5C140.443 58.64 139.664 58.556 139.169 58.248C138.675 57.9307 138.427 57.338 138.427 56.47V52.676H137.041V51.5H138.427V49.904L139.645 49.54V51.5H141.507V52.676ZM148.502 57.618C147.783 58.3273 146.911 58.682 145.884 58.682C144.857 58.682 143.985 58.3273 143.266 57.618C142.557 56.9087 142.202 56.036 142.202 55C142.202 53.964 142.557 53.0913 143.266 52.382C143.985 51.6727 144.857 51.318 145.884 51.318C146.911 51.318 147.783 51.6727 148.502 52.382C149.221 53.0913 149.58 53.964 149.58 55C149.58 56.036 149.221 56.9087 148.502 57.618ZM145.884 57.492C146.584 57.492 147.172 57.254 147.648 56.778C148.124 56.302 148.362 55.7093 148.362 55C148.362 54.2907 148.124 53.698 147.648 53.222C147.172 52.746 146.584 52.508 145.884 52.508C145.193 52.508 144.61 52.746 144.134 53.222C143.658 53.698 143.42 54.2907 143.42 55C143.42 55.7093 143.658 56.302 144.134 56.778C144.61 57.254 145.193 57.492 145.884 57.492ZM154.516 58.5V48.28H155.734V58.5H154.516ZM163.388 51.5H164.606V58.5H163.388V57.296C162.781 58.22 161.899 58.682 160.742 58.682C159.762 58.682 158.927 58.3273 158.236 57.618C157.545 56.8993 157.2 56.0267 157.2 55C157.2 53.9733 157.545 53.1053 158.236 52.396C158.927 51.6773 159.762 51.318 160.742 51.318C161.899 51.318 162.781 51.78 163.388 52.704V51.5ZM160.896 57.506C161.605 57.506 162.198 57.268 162.674 56.792C163.15 56.3067 163.388 55.7093 163.388 55C163.388 54.2907 163.15 53.698 162.674 53.222C162.198 52.7367 161.605 52.494 160.896 52.494C160.196 52.494 159.608 52.7367 159.132 53.222C158.656 53.698 158.418 54.2907 158.418 55C158.418 55.7093 158.656 56.3067 159.132 56.792C159.608 57.268 160.196 57.506 160.896 57.506ZM169.937 51.318C170.759 51.318 171.417 51.5793 171.911 52.102C172.406 52.6153 172.653 53.3153 172.653 54.202V58.5H171.435V54.272C171.435 53.7027 171.281 53.264 170.973 52.956C170.665 52.6387 170.241 52.48 169.699 52.48C169.093 52.48 168.603 52.6713 168.229 53.054C167.856 53.4273 167.669 54.006 167.669 54.79V58.5H166.451V51.5H167.669V52.508C168.164 51.7147 168.92 51.318 169.937 51.318ZM180.15 48.7H181.368V58.5H180.15V57.296C179.543 58.22 178.661 58.682 177.504 58.682C176.524 58.682 175.688 58.3273 174.998 57.618C174.307 56.8993 173.962 56.0267 173.962 55C173.962 53.9733 174.307 53.1053 174.998 52.396C175.688 51.6773 176.524 51.318 177.504 51.318C178.661 51.318 179.543 51.78 180.15 52.704V48.7ZM177.658 57.506C178.367 57.506 178.96 57.268 179.436 56.792C179.912 56.3067 180.15 55.7093 180.15 55C180.15 54.2907 179.912 53.698 179.436 53.222C178.96 52.7367 178.367 52.494 177.658 52.494C176.958 52.494 176.37 52.7367 175.894 53.222C175.418 53.698 175.18 54.2907 175.18 55C175.18 55.7093 175.418 56.3067 175.894 56.792C176.37 57.268 176.958 57.506 177.658 57.506ZM190.521 52.676H188.659V56.47C188.659 56.8153 188.724 57.0627 188.855 57.212C188.995 57.352 189.205 57.4267 189.485 57.436C189.765 57.436 190.11 57.4267 190.521 57.408V58.5C189.457 58.64 188.678 58.556 188.183 58.248C187.688 57.9307 187.441 57.338 187.441 56.47V52.676H186.055V51.5H187.441V49.904L188.659 49.54V51.5H190.521V52.676ZM195.449 51.318C196.27 51.318 196.928 51.5793 197.423 52.102C197.918 52.6153 198.165 53.3153 198.165 54.202V58.5H196.947V54.272C196.947 53.7027 196.793 53.264 196.485 52.956C196.177 52.6387 195.752 52.48 195.211 52.48C194.604 52.48 194.114 52.6713 193.741 53.054C193.368 53.4273 193.181 54.006 193.181 54.79V58.5H191.963V48.7H193.181V52.508C193.676 51.7147 194.432 51.318 195.449 51.318ZM205.661 51.5H206.879V58.5H205.661V57.296C205.055 58.22 204.173 58.682 203.015 58.682C202.035 58.682 201.2 58.3273 200.509 57.618C199.819 56.8993 199.473 56.0267 199.473 55C199.473 53.9733 199.819 53.1053 200.509 52.396C201.2 51.6773 202.035 51.318 203.015 51.318C204.173 51.318 205.055 51.78 205.661 52.704V51.5ZM203.169 57.506C203.879 57.506 204.471 57.268 204.947 56.792C205.423 56.3067 205.661 55.7093 205.661 55C205.661 54.2907 205.423 53.698 204.947 53.222C204.471 52.7367 203.879 52.494 203.169 52.494C202.469 52.494 201.881 52.7367 201.405 53.222C200.929 53.698 200.691 54.2907 200.691 55C200.691 55.7093 200.929 56.3067 201.405 56.792C201.881 57.268 202.469 57.506 203.169 57.506ZM212.533 52.676H210.671V56.47C210.671 56.8153 210.736 57.0627 210.867 57.212C211.007 57.352 211.217 57.4267 211.497 57.436C211.777 57.436 212.122 57.4267 212.533 57.408V58.5C211.469 58.64 210.689 58.556 210.195 58.248C209.7 57.9307 209.453 57.338 209.453 56.47V52.676H208.067V51.5H209.453V49.904L210.671 49.54V51.5H212.533V52.676ZM218.44 50.226C218.206 50.226 218.01 50.1467 217.852 49.988C217.693 49.8293 217.614 49.638 217.614 49.414C217.614 49.19 217.693 48.9987 217.852 48.84C218.01 48.672 218.206 48.588 218.44 48.588C218.664 48.588 218.855 48.672 219.014 48.84C219.172 48.9987 219.252 49.19 219.252 49.414C219.252 49.638 219.172 49.8293 219.014 49.988C218.855 50.1467 218.664 50.226 218.44 50.226ZM217.824 58.92V51.5H219.042V58.92C219.042 59.8253 218.813 60.4927 218.356 60.922C217.898 61.3607 217.226 61.5473 216.34 61.482V60.306C216.853 60.3527 217.226 60.2687 217.46 60.054C217.702 59.8393 217.824 59.4613 217.824 58.92ZM226.801 57.618C226.082 58.3273 225.209 58.682 224.183 58.682C223.156 58.682 222.283 58.3273 221.565 57.618C220.855 56.9087 220.501 56.036 220.501 55C220.501 53.964 220.855 53.0913 221.565 52.382C222.283 51.6727 223.156 51.318 224.183 51.318C225.209 51.318 226.082 51.6727 226.801 52.382C227.519 53.0913 227.879 53.964 227.879 55C227.879 56.036 227.519 56.9087 226.801 57.618ZM224.183 57.492C224.883 57.492 225.471 57.254 225.947 56.778C226.423 56.302 226.661 55.7093 226.661 55C226.661 54.2907 226.423 53.698 225.947 53.222C225.471 52.746 224.883 52.508 224.183 52.508C223.492 52.508 222.909 52.746 222.433 53.222C221.957 53.698 221.719 54.2907 221.719 55C221.719 55.7093 221.957 56.302 222.433 56.778C222.909 57.254 223.492 57.492 224.183 57.492ZM233.179 51.318C234.159 51.318 234.994 51.6773 235.685 52.396C236.375 53.1053 236.721 53.9733 236.721 55C236.721 56.0267 236.375 56.8993 235.685 57.618C234.994 58.3273 234.159 58.682 233.179 58.682C232.021 58.682 231.139 58.22 230.533 57.296V58.5H229.315V48.7H230.533V52.704C231.139 51.78 232.021 51.318 233.179 51.318ZM233.025 57.506C233.725 57.506 234.313 57.268 234.789 56.792C235.265 56.3067 235.503 55.7093 235.503 55C235.503 54.2907 235.265 53.698 234.789 53.222C234.313 52.7367 233.725 52.494 233.025 52.494C232.315 52.494 231.723 52.7367 231.247 53.222C230.771 53.698 230.533 54.2907 230.533 55C230.533 55.7093 230.771 56.3067 231.247 56.792C231.723 57.268 232.315 57.506 233.025 57.506ZM239.122 55.63C239.122 55.2193 239.211 54.8367 239.388 54.482C239.565 54.1273 239.78 53.824 240.032 53.572C240.284 53.32 240.536 53.082 240.788 52.858C241.04 52.6247 241.255 52.3727 241.432 52.102C241.609 51.822 241.698 51.528 241.698 51.22C241.698 50.7533 241.535 50.3987 241.208 50.156C240.891 49.904 240.475 49.778 239.962 49.778C238.935 49.778 238.277 50.2307 237.988 51.136L236.882 50.52C237.115 49.8667 237.512 49.372 238.072 49.036C238.632 48.6907 239.267 48.518 239.976 48.518C240.807 48.518 241.516 48.7513 242.104 49.218C242.701 49.6847 243 50.3333 243 51.164C243 51.556 242.911 51.9247 242.734 52.27C242.557 52.6153 242.342 52.914 242.09 53.166C241.838 53.418 241.586 53.6653 241.334 53.908C241.082 54.1413 240.867 54.4073 240.69 54.706C240.513 54.9953 240.424 55.3033 240.424 55.63H239.122ZM239.766 58.654C239.514 58.654 239.299 58.5653 239.122 58.388C238.945 58.2107 238.856 57.996 238.856 57.744C238.856 57.492 238.945 57.2773 239.122 57.1C239.299 56.9227 239.514 56.834 239.766 56.834C240.027 56.834 240.242 56.9227 240.41 57.1C240.587 57.2773 240.676 57.492 240.676 57.744C240.676 57.996 240.587 58.2107 240.41 58.388C240.242 58.5653 240.027 58.654 239.766 58.654ZM253.949 53.418C254.397 53.6327 254.751 53.9407 255.013 54.342C255.283 54.7433 255.419 55.2053 255.419 55.728C255.419 56.512 255.143 57.17 254.593 57.702C254.042 58.234 253.37 58.5 252.577 58.5H248.349V48.7H252.269C253.034 48.7 253.683 48.9567 254.215 49.47C254.747 49.9833 255.013 50.618 255.013 51.374C255.013 52.242 254.658 52.9233 253.949 53.418ZM252.269 49.918H249.651V52.914H252.269C252.679 52.914 253.025 52.7693 253.305 52.48C253.585 52.1907 253.725 51.836 253.725 51.416C253.725 51.0053 253.58 50.6553 253.291 50.366C253.011 50.0673 252.67 49.918 252.269 49.918ZM252.577 57.282C253.015 57.282 253.384 57.128 253.683 56.82C253.981 56.512 254.131 56.134 254.131 55.686C254.131 55.2473 253.977 54.874 253.669 54.566C253.37 54.258 253.006 54.104 252.577 54.104H249.651V57.282H252.577ZM262.785 57.618C262.066 58.3273 261.194 58.682 260.167 58.682C259.14 58.682 258.268 58.3273 257.549 57.618C256.84 56.9087 256.485 56.036 256.485 55C256.485 53.964 256.84 53.0913 257.549 52.382C258.268 51.6727 259.14 51.318 260.167 51.318C261.194 51.318 262.066 51.6727 262.785 52.382C263.504 53.0913 263.863 53.964 263.863 55C263.863 56.036 263.504 56.9087 262.785 57.618ZM260.167 57.492C260.867 57.492 261.455 57.254 261.931 56.778C262.407 56.302 262.645 55.7093 262.645 55C262.645 54.2907 262.407 53.698 261.931 53.222C261.455 52.746 260.867 52.508 260.167 52.508C259.476 52.508 258.893 52.746 258.417 53.222C257.941 53.698 257.703 54.2907 257.703 55C257.703 55.7093 257.941 56.302 258.417 56.778C258.893 57.254 259.476 57.492 260.167 57.492ZM271.207 57.618C270.488 58.3273 269.616 58.682 268.589 58.682C267.562 58.682 266.69 58.3273 265.971 57.618C265.262 56.9087 264.907 56.036 264.907 55C264.907 53.964 265.262 53.0913 265.971 52.382C266.69 51.6727 267.562 51.318 268.589 51.318C269.616 51.318 270.488 51.6727 271.207 52.382C271.926 53.0913 272.285 53.964 272.285 55C272.285 56.036 271.926 56.9087 271.207 57.618ZM268.589 57.492C269.289 57.492 269.877 57.254 270.353 56.778C270.829 56.302 271.067 55.7093 271.067 55C271.067 54.2907 270.829 53.698 270.353 53.222C269.877 52.746 269.289 52.508 268.589 52.508C267.898 52.508 267.315 52.746 266.839 53.222C266.363 53.698 266.125 54.2907 266.125 55C266.125 55.7093 266.363 56.302 266.839 56.778C267.315 57.254 267.898 57.492 268.589 57.492ZM279.643 58.5H278.131L274.939 55.182V58.5H273.721V48.7H274.939V54.594L277.963 51.5H279.531L276.185 54.888L279.643 58.5ZM290.072 51.5H291.29V58.5H290.072V57.296C289.465 58.22 288.583 58.682 287.426 58.682C286.446 58.682 285.61 58.3273 284.92 57.618C284.229 56.8993 283.884 56.0267 283.884 55C283.884 53.9733 284.229 53.1053 284.92 52.396C285.61 51.6773 286.446 51.318 287.426 51.318C288.583 51.318 289.465 51.78 290.072 52.704V51.5ZM287.58 57.506C288.289 57.506 288.882 57.268 289.358 56.792C289.834 56.3067 290.072 55.7093 290.072 55C290.072 54.2907 289.834 53.698 289.358 53.222C288.882 52.7367 288.289 52.494 287.58 52.494C286.88 52.494 286.292 52.7367 285.816 53.222C285.34 53.698 285.102 54.2907 285.102 55C285.102 55.7093 285.34 56.3067 285.816 56.792C286.292 57.268 286.88 57.506 287.58 57.506ZM296.621 51.318C297.442 51.318 298.1 51.5793 298.595 52.102C299.09 52.6153 299.337 53.3153 299.337 54.202V58.5H298.119V54.272C298.119 53.7027 297.965 53.264 297.657 52.956C297.349 52.6387 296.924 52.48 296.383 52.48C295.776 52.48 295.286 52.6713 294.913 53.054C294.54 53.4273 294.353 54.006 294.353 54.79V58.5H293.135V51.5H294.353V52.508C294.848 51.7147 295.604 51.318 296.621 51.318ZM93.54 66.226C93.3067 66.226 93.1107 66.1467 92.952 65.988C92.7933 65.8293 92.714 65.638 92.714 65.414C92.714 65.19 92.7933 64.9987 92.952 64.84C93.1107 64.672 93.3067 64.588 93.54 64.588C93.764 64.588 93.9553 64.672 94.114 64.84C94.2727 64.9987 94.352 65.19 94.352 65.414C94.352 65.638 94.2727 65.8293 94.114 65.988C93.9553 66.1467 93.764 66.226 93.54 66.226ZM92.924 74.5V67.5H94.142V74.5H92.924ZM99.4862 67.318C100.308 67.318 100.966 67.5793 101.46 68.102C101.955 68.6153 102.202 69.3153 102.202 70.202V74.5H100.984V70.272C100.984 69.7027 100.83 69.264 100.522 68.956C100.214 68.6387 99.7895 68.48 99.2482 68.48C98.6415 68.48 98.1515 68.6713 97.7782 69.054C97.4048 69.4273 97.2182 70.006 97.2182 70.79V74.5H96.0002V67.5H97.2182V68.508C97.7128 67.7147 98.4688 67.318 99.4862 67.318ZM107.711 68.676H105.849V72.47C105.849 72.8153 105.914 73.0627 106.045 73.212C106.185 73.352 106.395 73.4267 106.675 73.436C106.955 73.436 107.3 73.4267 107.711 73.408V74.5C106.647 74.64 105.867 74.556 105.373 74.248C104.878 73.9307 104.631 73.338 104.631 72.47V68.676H103.245V67.5H104.631V65.904L105.849 65.54V67.5H107.711V68.676ZM109.651 71.56C109.772 72.1853 110.057 72.6707 110.505 73.016C110.962 73.3613 111.522 73.534 112.185 73.534C113.109 73.534 113.781 73.1933 114.201 72.512L115.237 73.1C114.556 74.1547 113.529 74.682 112.157 74.682C111.046 74.682 110.141 74.3367 109.441 73.646C108.75 72.946 108.405 72.064 108.405 71C108.405 69.9453 108.746 69.068 109.427 68.368C110.108 67.668 110.99 67.318 112.073 67.318C113.1 67.318 113.935 67.682 114.579 68.41C115.232 69.1287 115.559 69.9967 115.559 71.014C115.559 71.1913 115.545 71.3733 115.517 71.56H109.651ZM112.073 68.466C111.42 68.466 110.878 68.6527 110.449 69.026C110.02 69.39 109.754 69.88 109.651 70.496H114.327C114.224 69.8333 113.963 69.3293 113.543 68.984C113.123 68.6387 112.633 68.466 112.073 68.466ZM118.177 68.676C118.578 67.808 119.306 67.374 120.361 67.374V68.648C119.764 68.62 119.25 68.7787 118.821 69.124C118.392 69.4693 118.177 70.0247 118.177 70.79V74.5H116.959V67.5H118.177V68.676ZM126.453 67.5H127.769L124.969 74.5H123.541L120.741 67.5H122.057L124.255 73.198L126.453 67.5ZM129.415 66.226C129.182 66.226 128.986 66.1467 128.827 65.988C128.668 65.8293 128.589 65.638 128.589 65.414C128.589 65.19 128.668 64.9987 128.827 64.84C128.986 64.672 129.182 64.588 129.415 64.588C129.639 64.588 129.83 64.672 129.989 64.84C130.148 64.9987 130.227 65.19 130.227 65.414C130.227 65.638 130.148 65.8293 129.989 65.988C129.83 66.1467 129.639 66.226 129.415 66.226ZM128.799 74.5V67.5H130.017V74.5H128.799ZM132.729 71.56C132.851 72.1853 133.135 72.6707 133.583 73.016C134.041 73.3613 134.601 73.534 135.263 73.534C136.187 73.534 136.859 73.1933 137.279 72.512L138.315 73.1C137.634 74.1547 136.607 74.682 135.235 74.682C134.125 74.682 133.219 74.3367 132.519 73.646C131.829 72.946 131.483 72.064 131.483 71C131.483 69.9453 131.824 69.068 132.505 68.368C133.187 67.668 134.069 67.318 135.151 67.318C136.178 67.318 137.013 67.682 137.657 68.41C138.311 69.1287 138.637 69.9967 138.637 71.014C138.637 71.1913 138.623 71.3733 138.595 71.56H132.729ZM135.151 68.466C134.498 68.466 133.957 68.6527 133.527 69.026C133.098 69.39 132.832 69.88 132.729 70.496H137.405C137.303 69.8333 137.041 69.3293 136.621 68.984C136.201 68.6387 135.711 68.466 135.151 68.466ZM148.01 67.5H149.284L147.114 74.5H145.868L144.23 69.32L142.592 74.5H141.346L139.176 67.5H140.45L141.99 72.82L143.642 67.5H144.818L146.47 72.834L148.01 67.5ZM155.087 69.39C155.087 69.6607 155.223 69.88 155.493 70.048C155.764 70.2067 156.091 70.3373 156.473 70.44C156.856 70.5333 157.239 70.6453 157.621 70.776C158.004 70.8973 158.331 71.112 158.601 71.42C158.872 71.7187 159.007 72.106 159.007 72.582C159.007 73.2167 158.76 73.7253 158.265 74.108C157.78 74.4907 157.155 74.682 156.389 74.682C155.708 74.682 155.125 74.5327 154.639 74.234C154.154 73.9353 153.809 73.5387 153.603 73.044L154.653 72.442C154.765 72.778 154.975 73.044 155.283 73.24C155.591 73.436 155.96 73.534 156.389 73.534C156.791 73.534 157.122 73.4593 157.383 73.31C157.645 73.1513 157.775 72.9087 157.775 72.582C157.775 72.3113 157.64 72.0967 157.369 71.938C157.099 71.77 156.772 71.6393 156.389 71.546C156.007 71.4433 155.624 71.3267 155.241 71.196C154.859 71.0653 154.532 70.8507 154.261 70.552C153.991 70.2533 153.855 69.8707 153.855 69.404C153.855 68.7973 154.089 68.298 154.555 67.906C155.031 67.514 155.624 67.318 156.333 67.318C156.903 67.318 157.407 67.4487 157.845 67.71C158.293 67.962 158.629 68.3167 158.853 68.774L157.831 69.348C157.579 68.7507 157.08 68.452 156.333 68.452C155.988 68.452 155.694 68.536 155.451 68.704C155.209 68.8627 155.087 69.0913 155.087 69.39ZM161.112 71.56C161.233 72.1853 161.518 72.6707 161.966 73.016C162.423 73.3613 162.983 73.534 163.646 73.534C164.57 73.534 165.242 73.1933 165.662 72.512L166.698 73.1C166.017 74.1547 164.99 74.682 163.618 74.682C162.507 74.682 161.602 74.3367 160.902 73.646C160.211 72.946 159.866 72.064 159.866 71C159.866 69.9453 160.207 69.068 160.888 68.368C161.569 67.668 162.451 67.318 163.534 67.318C164.561 67.318 165.396 67.682 166.04 68.41C166.693 69.1287 167.02 69.9967 167.02 71.014C167.02 71.1913 167.006 71.3733 166.978 71.56H161.112ZM163.534 68.466C162.881 68.466 162.339 68.6527 161.91 69.026C161.481 69.39 161.215 69.88 161.112 70.496H165.788C165.685 69.8333 165.424 69.3293 165.004 68.984C164.584 68.6387 164.094 68.466 163.534 68.466ZM169.197 69.39C169.197 69.6607 169.332 69.88 169.603 70.048C169.873 70.2067 170.2 70.3373 170.583 70.44C170.965 70.5333 171.348 70.6453 171.731 70.776C172.113 70.8973 172.44 71.112 172.711 71.42C172.981 71.7187 173.117 72.106 173.117 72.582C173.117 73.2167 172.869 73.7253 172.375 74.108C171.889 74.4907 171.264 74.682 170.499 74.682C169.817 74.682 169.234 74.5327 168.749 74.234C168.263 73.9353 167.918 73.5387 167.713 73.044L168.763 72.442C168.875 72.778 169.085 73.044 169.393 73.24C169.701 73.436 170.069 73.534 170.499 73.534C170.9 73.534 171.231 73.4593 171.493 73.31C171.754 73.1513 171.885 72.9087 171.885 72.582C171.885 72.3113 171.749 72.0967 171.479 71.938C171.208 71.77 170.881 71.6393 170.499 71.546C170.116 71.4433 169.733 71.3267 169.351 71.196C168.968 71.0653 168.641 70.8507 168.371 70.552C168.1 70.2533 167.965 69.8707 167.965 69.404C167.965 68.7973 168.198 68.298 168.665 67.906C169.141 67.514 169.733 67.318 170.443 67.318C171.012 67.318 171.516 67.4487 171.955 67.71C172.403 67.962 172.739 68.3167 172.963 68.774L171.941 69.348C171.689 68.7507 171.189 68.452 170.443 68.452C170.097 68.452 169.803 68.536 169.561 68.704C169.318 68.8627 169.197 69.0913 169.197 69.39ZM175.171 69.39C175.171 69.6607 175.307 69.88 175.577 70.048C175.848 70.2067 176.175 70.3373 176.557 70.44C176.94 70.5333 177.323 70.6453 177.705 70.776C178.088 70.8973 178.415 71.112 178.685 71.42C178.956 71.7187 179.091 72.106 179.091 72.582C179.091 73.2167 178.844 73.7253 178.349 74.108C177.864 74.4907 177.239 74.682 176.473 74.682C175.792 74.682 175.209 74.5327 174.723 74.234C174.238 73.9353 173.893 73.5387 173.687 73.044L174.737 72.442C174.849 72.778 175.059 73.044 175.367 73.24C175.675 73.436 176.044 73.534 176.473 73.534C176.875 73.534 177.206 73.4593 177.467 73.31C177.729 73.1513 177.859 72.9087 177.859 72.582C177.859 72.3113 177.724 72.0967 177.453 71.938C177.183 71.77 176.856 71.6393 176.473 71.546C176.091 71.4433 175.708 71.3267 175.325 71.196C174.943 71.0653 174.616 70.8507 174.345 70.552C174.075 70.2533 173.939 69.8707 173.939 69.404C173.939 68.7973 174.173 68.298 174.639 67.906C175.115 67.514 175.708 67.318 176.417 67.318C176.987 67.318 177.491 67.4487 177.929 67.71C178.377 67.962 178.713 68.3167 178.937 68.774L177.915 69.348C177.663 68.7507 177.164 68.452 176.417 68.452C176.072 68.452 175.778 68.536 175.535 68.704C175.293 68.8627 175.171 69.0913 175.171 69.39ZM181.081 66.226C180.848 66.226 180.652 66.1467 180.493 65.988C180.334 65.8293 180.255 65.638 180.255 65.414C180.255 65.19 180.334 64.9987 180.493 64.84C180.652 64.672 180.848 64.588 181.081 64.588C181.305 64.588 181.496 64.672 181.655 64.84C181.814 64.9987 181.893 65.19 181.893 65.414C181.893 65.638 181.814 65.8293 181.655 65.988C181.496 66.1467 181.305 66.226 181.081 66.226ZM180.465 74.5V67.5H181.683V74.5H180.465ZM189.449 73.618C188.731 74.3273 187.858 74.682 186.831 74.682C185.805 74.682 184.932 74.3273 184.213 73.618C183.504 72.9087 183.149 72.036 183.149 71C183.149 69.964 183.504 69.0913 184.213 68.382C184.932 67.6727 185.805 67.318 186.831 67.318C187.858 67.318 188.731 67.6727 189.449 68.382C190.168 69.0913 190.527 69.964 190.527 71C190.527 72.036 190.168 72.9087 189.449 73.618ZM186.831 73.492C187.531 73.492 188.119 73.254 188.595 72.778C189.071 72.302 189.309 71.7093 189.309 71C189.309 70.2907 189.071 69.698 188.595 69.222C188.119 68.746 187.531 68.508 186.831 68.508C186.141 68.508 185.557 68.746 185.081 69.222C184.605 69.698 184.367 70.2907 184.367 71C184.367 71.7093 184.605 72.302 185.081 72.778C185.557 73.254 186.141 73.492 186.831 73.492ZM195.449 67.318C196.27 67.318 196.928 67.5793 197.423 68.102C197.918 68.6153 198.165 69.3153 198.165 70.202V74.5H196.947V70.272C196.947 69.7027 196.793 69.264 196.485 68.956C196.177 68.6387 195.752 68.48 195.211 68.48C194.604 68.48 194.114 68.6713 193.741 69.054C193.368 69.4273 193.181 70.006 193.181 70.79V74.5H191.963V67.5H193.181V68.508C193.676 67.7147 194.432 67.318 195.449 67.318ZM211.611 67.5H212.885L210.715 74.5H209.469L207.831 69.32L206.193 74.5H204.947L202.777 67.5H204.051L205.591 72.82L207.243 67.5H208.419L210.071 72.834L211.611 67.5ZM214.755 66.226C214.522 66.226 214.326 66.1467 214.167 65.988C214.008 65.8293 213.929 65.638 213.929 65.414C213.929 65.19 214.008 64.9987 214.167 64.84C214.326 64.672 214.522 64.588 214.755 64.588C214.979 64.588 215.17 64.672 215.329 64.84C215.488 64.9987 215.567 65.19 215.567 65.414C215.567 65.638 215.488 65.8293 215.329 65.988C215.17 66.1467 214.979 66.226 214.755 66.226ZM214.139 74.5V67.5H215.357V74.5H214.139ZM221.023 68.676H219.161V72.47C219.161 72.8153 219.226 73.0627 219.357 73.212C219.497 73.352 219.707 73.4267 219.987 73.436C220.267 73.436 220.612 73.4267 221.023 73.408V74.5C219.959 74.64 219.18 74.556 218.685 74.248C218.19 73.9307 217.943 73.338 217.943 72.47V68.676H216.557V67.5H217.943V65.904L219.161 65.54V67.5H221.023V68.676ZM225.951 67.318C226.772 67.318 227.43 67.5793 227.925 68.102C228.42 68.6153 228.667 69.3153 228.667 70.202V74.5H227.449V70.272C227.449 69.7027 227.295 69.264 226.987 68.956C226.679 68.6387 226.254 68.48 225.713 68.48C225.106 68.48 224.616 68.6713 224.243 69.054C223.87 69.4273 223.683 70.006 223.683 70.79V74.5H222.465V64.7H223.683V68.508C224.178 67.7147 224.934 67.318 225.951 67.318ZM238.753 67.5H240.055L237.199 74.934C236.901 75.7273 236.481 76.3293 235.939 76.74C235.407 77.16 234.791 77.3467 234.091 77.3V76.166C234.95 76.2313 235.58 75.7553 235.981 74.738L236.107 74.472L233.055 67.5H234.357L236.737 72.988L238.753 67.5ZM246.707 73.618C245.988 74.3273 245.116 74.682 244.089 74.682C243.062 74.682 242.19 74.3273 241.471 73.618C240.762 72.9087 240.407 72.036 240.407 71C240.407 69.964 240.762 69.0913 241.471 68.382C242.19 67.6727 243.062 67.318 244.089 67.318C245.116 67.318 245.988 67.6727 246.707 68.382C247.426 69.0913 247.785 69.964 247.785 71C247.785 72.036 247.426 72.9087 246.707 73.618ZM244.089 73.492C244.789 73.492 245.377 73.254 245.853 72.778C246.329 72.302 246.567 71.7093 246.567 71C246.567 70.2907 246.329 69.698 245.853 69.222C245.377 68.746 244.789 68.508 244.089 68.508C243.398 68.508 242.815 68.746 242.339 69.222C241.863 69.698 241.625 70.2907 241.625 71C241.625 71.7093 241.863 72.302 242.339 72.778C242.815 73.254 243.398 73.492 244.089 73.492ZM254.051 67.5H255.269V74.5H254.051V73.492C253.556 74.2853 252.8 74.682 251.783 74.682C250.962 74.682 250.304 74.4253 249.809 73.912C249.314 73.3893 249.067 72.6847 249.067 71.798V67.5H250.285V71.728C250.285 72.2973 250.439 72.7407 250.747 73.058C251.055 73.366 251.48 73.52 252.021 73.52C252.628 73.52 253.118 73.3333 253.491 72.96C253.864 72.5773 254.051 71.994 254.051 71.21V67.5ZM258.341 68.676C258.743 67.808 259.471 67.374 260.525 67.374V68.648C259.928 68.62 259.415 68.7787 258.985 69.124C258.556 69.4693 258.341 70.0247 258.341 70.79V74.5H257.123V67.5H258.341V68.676ZM269.081 67.318C270.061 67.318 270.896 67.6773 271.587 68.396C272.278 69.1053 272.623 69.9733 272.623 71C272.623 72.0267 272.278 72.8993 271.587 73.618C270.896 74.3273 270.061 74.682 269.081 74.682C267.924 74.682 267.042 74.22 266.435 73.296V77.3H265.217V67.5H266.435V68.704C267.042 67.78 267.924 67.318 269.081 67.318ZM268.927 73.506C269.627 73.506 270.215 73.268 270.691 72.792C271.167 72.3067 271.405 71.7093 271.405 71C271.405 70.2907 271.167 69.698 270.691 69.222C270.215 68.7367 269.627 68.494 268.927 68.494C268.218 68.494 267.625 68.7367 267.149 69.222C266.673 69.698 266.435 70.2907 266.435 71C266.435 71.7093 266.673 72.3067 267.149 72.792C267.625 73.268 268.218 73.506 268.927 73.506ZM279.872 67.5H281.09V74.5H279.872V73.296C279.266 74.22 278.384 74.682 277.226 74.682C276.246 74.682 275.411 74.3273 274.72 73.618C274.03 72.8993 273.684 72.0267 273.684 71C273.684 69.9733 274.03 69.1053 274.72 68.396C275.411 67.6773 276.246 67.318 277.226 67.318C278.384 67.318 279.266 67.78 279.872 68.704V67.5ZM277.38 73.506C278.09 73.506 278.682 73.268 279.158 72.792C279.634 72.3067 279.872 71.7093 279.872 71C279.872 70.2907 279.634 69.698 279.158 69.222C278.682 68.7367 278.09 68.494 277.38 68.494C276.68 68.494 276.092 68.7367 275.616 69.222C275.14 69.698 274.902 70.2907 274.902 71C274.902 71.7093 275.14 72.3067 275.616 72.792C276.092 73.268 276.68 73.506 277.38 73.506ZM288.732 64.7H289.95V74.5H288.732V73.296C288.125 74.22 287.243 74.682 286.086 74.682C285.106 74.682 284.27 74.3273 283.58 73.618C282.889 72.8993 282.544 72.0267 282.544 71C282.544 69.9733 282.889 69.1053 283.58 68.396C284.27 67.6773 285.106 67.318 286.086 67.318C287.243 67.318 288.125 67.78 288.732 68.704V64.7ZM286.24 73.506C286.949 73.506 287.542 73.268 288.018 72.792C288.494 72.3067 288.732 71.7093 288.732 71C288.732 70.2907 288.494 69.698 288.018 69.222C287.542 68.7367 286.949 68.494 286.24 68.494C285.54 68.494 284.952 68.7367 284.476 69.222C284 69.698 283.762 70.2907 283.762 71C283.762 71.7093 284 72.3067 284.476 72.792C284.952 73.268 285.54 73.506 286.24 73.506ZM297.591 64.7H298.809V74.5H297.591V73.296C296.984 74.22 296.102 74.682 294.945 74.682C293.965 74.682 293.13 74.3273 292.439 73.618C291.748 72.8993 291.403 72.0267 291.403 71C291.403 69.9733 291.748 69.1053 292.439 68.396C293.13 67.6773 293.965 67.318 294.945 67.318C296.102 67.318 296.984 67.78 297.591 68.704V64.7ZM295.099 73.506C295.808 73.506 296.401 73.268 296.877 72.792C297.353 72.3067 297.591 71.7093 297.591 71C297.591 70.2907 297.353 69.698 296.877 69.222C296.401 68.7367 295.808 68.494 295.099 68.494C294.399 68.494 293.811 68.7367 293.335 69.222C292.859 69.698 292.621 70.2907 292.621 71C292.621 71.7093 292.859 72.3067 293.335 72.792C293.811 73.268 294.399 73.506 295.099 73.506ZM305.54 67.5H306.842L303.986 74.934C303.688 75.7273 303.268 76.3293 302.726 76.74C302.194 77.16 301.578 77.3467 300.878 77.3V76.166C301.737 76.2313 302.367 75.7553 302.768 74.738L302.894 74.472L299.842 67.5H301.144L303.524 72.988L305.54 67.5Z" fill="white"/>
<g clip-path="url(#clip1_345_8967)">
<path d="M310.115 82.6694L310.229 82.9167C310.714 83.9198 311.477 84.7619 312.429 85.3421L312.605 85.4454C312.624 85.4559 312.64 85.4711 312.65 85.4897C312.661 85.5082 312.667 85.5293 312.667 85.5507C312.667 85.5722 312.661 85.5933 312.65 85.6118C312.64 85.6303 312.624 85.6456 312.605 85.6561C311.573 86.2364 310.744 87.1189 310.229 88.1847L310.115 88.4327C310.105 88.4549 310.089 88.4737 310.068 88.4868C310.048 88.5 310.024 88.507 310 88.507C309.976 88.507 309.952 88.5 309.931 88.4868C309.911 88.4737 309.895 88.4549 309.885 88.4327L309.771 88.1847C309.256 87.1189 308.426 86.2364 307.395 85.6561C307.376 85.6456 307.36 85.6303 307.349 85.6118C307.338 85.5933 307.333 85.5722 307.333 85.5507C307.333 85.5293 307.338 85.5082 307.349 85.4897C307.36 85.4711 307.376 85.4559 307.395 85.4454L307.571 85.3421C308.522 84.7619 309.286 83.9198 309.771 82.9167L309.885 82.6694C309.895 82.6472 309.911 82.6284 309.931 82.6153C309.952 82.6021 309.976 82.5951 310 82.5951C310.024 82.5951 310.048 82.6021 310.068 82.6153C310.089 82.6284 310.105 82.6472 310.115 82.6694ZM316.052 75.8201C316.929 77.8755 318.461 79.5835 320.409 80.6787C320.442 80.6971 320.469 80.7238 320.488 80.7562C320.507 80.7886 320.517 80.8255 320.517 80.8631C320.517 80.9006 320.507 80.9375 320.488 80.9699C320.469 81.0023 320.442 81.029 320.409 81.0474C318.461 82.1428 316.929 83.851 316.052 85.9067C316.035 85.9457 316.006 85.9789 315.97 86.0022C315.935 86.0254 315.893 86.0378 315.85 86.0378C315.808 86.0378 315.766 86.0254 315.73 86.0022C315.694 85.9789 315.666 85.9457 315.649 85.9067C314.771 83.851 313.239 82.1428 311.291 81.0474C311.258 81.029 311.231 81.0023 311.212 80.9699C311.193 80.9375 311.183 80.9006 311.183 80.8631C311.183 80.8255 311.193 80.7886 311.212 80.7562C311.231 80.7238 311.258 80.6971 311.291 80.6787C313.239 79.5835 314.771 77.8755 315.649 75.8201C315.666 75.781 315.694 75.7479 315.73 75.7246C315.766 75.7013 315.808 75.689 315.85 75.689C315.893 75.689 315.935 75.7013 315.97 75.7246C316.006 75.7479 316.035 75.781 316.052 75.8201Z" fill="#175CD3"/>
</g>
<path d="M315.067 17.4001L314 21.0001L312.933 17.4001L309.333 16.3334L312.933 15.2667L314 11.6667L315.067 15.2667L318.667 16.3334L315.067 17.4001ZM319.333 20.4667L322 19.0001L320.533 21.6667L322 24.3334L319.333 22.8667L316.667 24.3334L318.133 21.6667L316.667 19.0001L319.333 20.4667ZM314.667 21.6667L313.533 23.6667L314.667 25.6667L312.667 24.5334L310.667 25.6667L311.8 23.6667L310.667 21.6667L312.667 22.8001L314.667 21.6667Z" fill="#175CD3"/>
<path d="M123.067 1.40008L122 5.00008L120.933 1.40008L117.333 0.333415L120.933 -0.733252L122 -4.33325L123.067 -0.733252L126.667 0.333415L123.067 1.40008ZM127.333 4.46675L130 3.00008L128.533 5.66675L130 8.33342L127.333 6.86675L124.667 8.33342L126.133 5.66675L124.667 3.00008L127.333 4.46675ZM122.667 5.66675L121.533 7.66675L122.667 9.66675L120.667 8.53341L118.667 9.66675L119.8 7.66675L118.667 5.66675L120.667 6.80008L122.667 5.66675Z" fill="#175CD3"/>
<path d="M124.067 83.4001L123 87.0001L121.933 83.4001L118.333 82.3334L121.933 81.2667L123 77.6667L124.067 81.2667L127.667 82.3334L124.067 83.4001ZM128.333 86.4667L131 85.0001L129.533 87.6667L131 90.3334L128.333 88.8667L125.667 90.3334L127.133 87.6667L125.667 85.0001L128.333 86.4667ZM123.667 87.6667L122.533 89.6667L123.667 91.6667L121.667 90.5334L119.667 91.6667L120.8 89.6667L119.667 87.6667L121.667 88.8001L123.667 87.6667Z" fill="#175CD3"/>
</g>
<defs>
<linearGradient id="paint0_linear_345_8967" x1="343" y1="-6.1743e-05" x2="-6.48548" y2="34.7219" gradientUnits="userSpaceOnUse">
<stop stop-color="#154CB8"/>
<stop offset="1" stop-color="#003399"/>
</linearGradient>
<linearGradient id="paint1_linear_345_8967" x1="37.2914" y1="41.7834" x2="28.648" y2="41.9513" gradientUnits="userSpaceOnUse">
<stop stop-color="#154CB8"/>
<stop offset="1" stop-color="#003399"/>
</linearGradient>
<clipPath id="clip0_345_8967">
<rect width="343" height="100" rx="12" fill="white"/>
</clipPath>
<clipPath id="clip1_345_8967">
<rect width="16" height="16" fill="white" transform="translate(306 74)"/>
</clipPath>
</defs>
</svg>
