<svg width="300" height="300" viewBox="0 0 300 300" fill="none" xmlns="http://www.w3.org/2000/svg">
<path d="M300 229.44H0V229.59H300V229.44Z" fill="#EBEBEB"/>
<path d="M269.94 239.094H238.098V239.244H269.94V239.094Z" fill="#EBEBEB"/>
<path d="M198.732 237.216H163.536V237.366H198.732V237.216Z" fill="#EBEBEB"/>
<path d="M239.634 236.352H228.12V236.502H239.634V236.352Z" fill="#EBEBEB"/>
<path d="M86.1962 234.534H60.2822V234.684H86.1962V234.534Z" fill="#EBEBEB"/>
<path d="M56.9398 234.534H47.6758V234.684H56.9398V234.534Z" fill="#EBEBEB"/>
<path d="M111.402 237.066H78.8818V237.216H111.402V237.066Z" fill="#EBEBEB"/>
<path d="M142.2 202.68H26.3458C25.4382 202.678 24.5683 202.317 23.9271 201.674C23.2859 201.032 22.9258 200.162 22.9258 199.254V36.396C22.9337 35.4936 23.2973 34.6308 23.9376 33.9949C24.578 33.3591 25.4434 33.0015 26.3458 33H142.2C143.108 33 143.98 33.361 144.622 34.0035C145.265 34.646 145.626 35.5174 145.626 36.426V199.254C145.626 200.163 145.265 201.034 144.622 201.677C143.98 202.319 143.108 202.68 142.2 202.68ZM26.3458 33.12C25.478 33.1216 24.6463 33.4674 24.0332 34.0816C23.4201 34.6958 23.0758 35.5282 23.0758 36.396V199.254C23.0758 200.122 23.4201 200.954 24.0332 201.568C24.6463 202.183 25.478 202.528 26.3458 202.53H142.2C143.068 202.528 143.9 202.183 144.515 201.569C145.129 200.955 145.474 200.122 145.476 199.254V36.396C145.474 35.5276 145.129 34.6953 144.515 34.0813C143.9 33.4672 143.068 33.1216 142.2 33.12H26.3458Z" fill="#EBEBEB"/>
<path d="M271.986 202.68H156.126C155.218 202.678 154.348 202.317 153.705 201.675C153.063 201.033 152.702 200.162 152.7 199.254V36.396C152.71 35.4931 153.075 34.6302 153.716 33.9946C154.357 33.3589 155.223 33.0015 156.126 33H271.986C272.888 33.0031 273.751 33.3613 274.39 33.997C275.03 34.6327 275.392 35.4947 275.4 36.396V199.254C275.4 200.161 275.041 201.03 274.401 201.672C273.761 202.314 272.893 202.677 271.986 202.68ZM156.126 33.12C155.258 33.1216 154.425 33.4672 153.811 34.0813C153.197 34.6953 152.852 35.5276 152.85 36.396V199.254C152.852 200.122 153.197 200.955 153.811 201.569C154.425 202.183 155.258 202.528 156.126 202.53H271.986C272.855 202.528 273.687 202.183 274.301 201.569C274.915 200.955 275.261 200.122 275.262 199.254V36.396C275.261 35.5276 274.915 34.6953 274.301 34.0813C273.687 33.4672 272.855 33.1216 271.986 33.12H156.126Z" fill="#EBEBEB"/>
<path d="M160.026 224.364H166.332V149.346H160.026V224.364Z" fill="#F0F0F0"/>
<path d="M38.8442 229.362L163.908 229.362V224.364L38.8442 224.364V229.362Z" fill="#F0F0F0"/>
<path d="M160.026 149.346H36.4258V224.364H160.026V149.346Z" fill="#F5F5F5"/>
<path d="M161.514 149.346H168.03V144.618H161.514V149.346Z" fill="#E0E0E0"/>
<path d="M161.514 144.618H34.7339V149.346H161.514V144.618Z" fill="#EBEBEB"/>
<path d="M150.396 155.166H46.0498C43.4718 155.166 41.3818 157.256 41.3818 159.834V176.376C41.3818 178.954 43.4718 181.044 46.0498 181.044H150.396C152.974 181.044 155.064 178.954 155.064 176.376V159.834C155.064 157.256 152.974 155.166 150.396 155.166Z" fill="white"/>
<path d="M150.396 188.772H46.0498C43.4718 188.772 41.3818 190.862 41.3818 193.44V209.982C41.3818 212.56 43.4718 214.65 46.0498 214.65H150.396C152.974 214.65 155.064 212.56 155.064 209.982V193.44C155.064 190.862 152.974 188.772 150.396 188.772Z" fill="white"/>
<path d="M71.3578 157.932H125.094C125.68 157.932 126.156 157.457 126.156 156.87V155.448C126.156 154.861 125.68 154.386 125.094 154.386H71.3578C70.7712 154.386 70.2958 154.861 70.2958 155.448V156.87C70.2958 157.457 70.7712 157.932 71.3578 157.932Z" fill="#F5F5F5"/>
<path d="M71.3578 191.538H125.094C125.68 191.538 126.156 191.063 126.156 190.476V189.054C126.156 188.467 125.68 187.992 125.094 187.992H71.3578C70.7712 187.992 70.2958 188.467 70.2958 189.054V190.476C70.2958 191.063 70.7712 191.538 71.3578 191.538Z" fill="#F5F5F5"/>
<path d="M268.314 173.958H249.294V177.594H268.314V173.958Z" fill="#E6E6E6"/>
<path d="M234.72 229.44H238.23L238.23 105H234.72L234.72 229.44Z" fill="#E6E6E6"/>
<path d="M222.564 177.588H249.3V173.952H222.564V177.588Z" fill="#F5F5F5"/>
<path d="M268.314 207.438H249.294V211.074H268.314V207.438Z" fill="#E6E6E6"/>
<path d="M222.564 211.074H249.3V207.438H222.564V211.074Z" fill="#F5F5F5"/>
<path d="M268.314 106.992H249.294V110.628H268.314V106.992Z" fill="#E6E6E6"/>
<path d="M222.564 110.628H249.3V106.992H222.564V110.628Z" fill="#F5F5F5"/>
<path d="M268.314 140.472H249.294V144.108H268.314V140.472Z" fill="#E6E6E6"/>
<path d="M222.564 144.114H249.3V140.478H222.564V144.114Z" fill="#F5F5F5"/>
<path d="M261.456 229.44H264.966V105H261.456V229.44Z" fill="#E6E6E6"/>
<path d="M245.784 229.44H249.294L249.294 105H245.784L245.784 229.44Z" fill="#F5F5F5"/>
<path d="M222.564 229.44H226.074L226.074 105H222.564L222.564 229.44Z" fill="#F5F5F5"/>
<path d="M52.7339 134.184L211.254 134.184V50.022L52.7339 50.022V134.184Z" fill="#E0E0E0"/>
<path d="M48.7322 134.184L208.992 134.184V50.022L48.7322 50.022V134.184Z" fill="#F5F5F5"/>
<path d="M203.244 127.548V56.652L54.4681 56.652V127.548L203.244 127.548Z" fill="white"/>
<path d="M150 256.536C214.249 256.536 266.334 253.495 266.334 249.744C266.334 245.993 214.249 242.952 150 242.952C85.7505 242.952 33.666 245.993 33.666 249.744C33.666 253.495 85.7505 256.536 150 256.536Z" fill="#F5F5F5"/>
<path d="M232.692 158.532H66.3237C65.7943 158.53 65.287 158.319 64.9126 157.945C64.5383 157.571 64.3273 157.063 64.3257 156.534C64.3273 156.005 64.5383 155.497 64.9126 155.123C65.287 154.749 65.7943 154.538 66.3237 154.536H232.692C233.221 154.538 233.728 154.749 234.103 155.123C234.477 155.497 234.688 156.005 234.69 156.534C234.688 157.063 234.477 157.571 234.103 157.945C233.728 158.319 233.221 158.53 232.692 158.532Z" fill="#407BFF"/>
<path opacity="0.3" d="M232.692 158.532H193.746C193.216 158.53 192.709 158.319 192.335 157.945C191.96 157.571 191.749 157.063 191.748 156.534C191.749 156.005 191.96 155.497 192.335 155.123C192.709 154.749 193.216 154.538 193.746 154.536H232.692C233.221 154.538 233.728 154.749 234.103 155.123C234.477 155.497 234.688 156.005 234.69 156.534C234.688 157.063 234.477 157.571 234.103 157.945C233.728 158.319 233.221 158.53 232.692 158.532Z" fill="#263238"/>
<path d="M228.468 163.542H100.518V177.468H228.468V163.542Z" fill="#263238"/>
<path opacity="0.1" d="M228.468 163.542H100.518V177.468H228.468V163.542Z" fill="white"/>
<path d="M226.608 246.972H230.436L230.28 158.532H224.976L226.608 246.972Z" fill="#263238"/>
<path opacity="0.1" d="M226.608 246.972H230.436L230.28 158.532H224.976L226.608 246.972Z" fill="white"/>
<path d="M191.328 246.972H187.494L196.158 158.532H201.462L191.328 246.972Z" fill="#263238"/>
<path opacity="0.2" d="M191.328 246.972H187.494L196.158 158.532H201.462L191.328 246.972Z" fill="white"/>
<path d="M99.1857 246.972H103.014L102.858 158.532H97.5537L99.1857 246.972Z" fill="#263238"/>
<path opacity="0.1" d="M99.1857 246.972H103.014L102.858 158.532H97.5537L99.1857 246.972Z" fill="white"/>
<path d="M63.9058 246.972H60.0718L68.7358 158.532H74.0398L63.9058 246.972Z" fill="#263238"/>
<path opacity="0.2" d="M63.9058 246.972H60.0718L68.7358 158.532H74.0398L63.9058 246.972Z" fill="white"/>
<path d="M171.666 154.536H162.834L159.3 137.268H168.132L171.666 154.536Z" fill="#263238"/>
<path d="M183.384 150.978H145.068C144.77 150.981 144.474 150.923 144.2 150.806C143.926 150.689 143.679 150.517 143.475 150.3C143.271 150.083 143.114 149.825 143.014 149.545C142.915 149.264 142.874 148.965 142.896 148.668L144.36 124.41C144.405 123.788 144.681 123.206 145.134 122.779C145.588 122.351 146.185 122.109 146.808 122.1H185.13C185.428 122.098 185.723 122.157 185.996 122.274C186.27 122.391 186.517 122.563 186.721 122.78C186.925 122.997 187.082 123.254 187.182 123.534C187.282 123.815 187.322 124.113 187.302 124.41L185.838 148.668C185.791 149.29 185.514 149.872 185.06 150.3C184.605 150.727 184.008 150.969 183.384 150.978Z" fill="#263238"/>
<path d="M182.784 150.978H144.468C144.17 150.981 143.874 150.923 143.6 150.806C143.326 150.689 143.079 150.517 142.875 150.3C142.671 150.083 142.514 149.825 142.414 149.545C142.314 149.264 142.274 148.965 142.296 148.668L143.76 124.41C143.805 123.788 144.081 123.206 144.534 122.779C144.988 122.351 145.585 122.109 146.208 122.1H184.53C184.827 122.098 185.122 122.157 185.396 122.274C185.67 122.391 185.917 122.563 186.121 122.78C186.325 122.997 186.481 123.254 186.581 123.534C186.681 123.815 186.722 124.113 186.702 124.41L185.238 148.668C185.191 149.29 184.914 149.872 184.459 150.3C184.005 150.727 183.407 150.969 182.784 150.978Z" fill="#407BFF"/>
<path d="M144.462 149.778C144.329 149.779 144.197 149.753 144.074 149.701C143.951 149.65 143.84 149.574 143.748 149.478C143.658 149.379 143.588 149.262 143.544 149.135C143.5 149.008 143.481 148.874 143.49 148.74L144.954 124.482C144.976 124.162 145.117 123.861 145.349 123.64C145.581 123.418 145.887 123.29 146.208 123.282H184.53C184.664 123.28 184.797 123.306 184.92 123.358C185.043 123.41 185.154 123.488 185.246 123.586C185.337 123.683 185.407 123.799 185.452 123.926C185.496 124.052 185.513 124.187 185.502 124.32L184.038 148.578C184.017 148.899 183.876 149.2 183.644 149.422C183.412 149.644 183.105 149.771 182.784 149.778H144.462Z" fill="white"/>
<path opacity="0.2" d="M161.292 122.1L163.782 130.626L171.174 122.1H161.292Z" fill="black"/>
<path d="M101.73 101.4C101.79 101.862 102.078 102.21 102.384 102.186C102.69 102.162 102.882 101.766 102.822 101.304C102.762 100.842 102.474 100.494 102.174 100.518C101.874 100.542 101.676 100.95 101.73 101.4Z" fill="#263238"/>
<path d="M102.234 102.09C102.774 103.288 103.472 104.408 104.31 105.42C103.65 106.086 102.444 105.816 102.444 105.816L102.234 102.09Z" fill="#A02724"/>
<path d="M100.2 99.642C100.154 99.6505 100.108 99.6505 100.062 99.642C99.9955 99.6129 99.9427 99.5592 99.9148 99.4921C99.8868 99.425 99.8858 99.3498 99.912 99.282C100.068 98.8823 100.319 98.5266 100.643 98.2454C100.967 97.9642 101.354 97.7661 101.772 97.668C101.807 97.662 101.843 97.663 101.878 97.6709C101.912 97.6788 101.945 97.6935 101.974 97.7141C102.003 97.7348 102.028 97.7609 102.047 97.7911C102.066 97.8213 102.078 97.8549 102.084 97.89C102.096 97.9615 102.08 98.035 102.038 98.0946C101.997 98.1541 101.933 98.1948 101.862 98.208C101.535 98.2871 101.232 98.4456 100.981 98.6696C100.73 98.8936 100.538 99.1761 100.422 99.492C100.4 99.5331 100.368 99.5683 100.33 99.5944C100.291 99.6205 100.246 99.6369 100.2 99.642Z" fill="#263238"/>
<path d="M88.1341 108.642L91.7341 111.402L96.6481 115.164C96.3787 115.729 96.216 116.34 96.1681 116.964C95.9941 118.344 95.8201 119.364 98.8861 120.21C99.2118 120.288 99.5082 120.457 99.7401 120.699C99.972 120.94 100.13 121.243 100.194 121.572C100.314 122.388 99.8161 123.372 96.9841 123.858C94.2411 124.268 91.4389 123.791 88.9861 122.496C87.7861 121.896 87.7861 121.176 88.2901 119.958C89.8021 116.496 89.0701 112.08 88.1341 108.642Z" fill="#B55B52"/>
<path d="M84 121.05C84.6913 119.72 85.2616 118.33 85.704 116.898C85.704 116.898 94.824 116.4 97.836 117.3C100.848 118.2 102.72 122.1 102.72 122.1L84 121.05Z" fill="#407BFF"/>
<path d="M87.8157 127.836C87.5937 128.508 87.3477 129.33 87.1137 130.086L86.4357 132.426C86.0157 133.986 85.6077 135.552 85.2897 137.112C84.9512 138.637 84.6928 140.18 84.5157 141.732C84.3307 143.158 84.2865 144.599 84.3837 146.034C84.4191 146.641 84.5115 147.244 84.6597 147.834C84.6957 147.954 84.7257 148.086 84.7677 148.2L84.8877 148.524C84.8593 148.466 84.8273 148.41 84.7917 148.356C84.7305 148.268 84.6644 148.184 84.5937 148.104C84.5165 148.011 84.4277 147.929 84.3297 147.858C84.2097 147.774 84.1917 147.786 84.2157 147.816C84.3915 147.942 84.5806 148.049 84.7797 148.134C85.0497 148.254 85.3797 148.374 85.7097 148.488C86.3877 148.716 87.1377 148.926 87.9117 149.13C91.0077 149.91 94.3857 150.516 97.6797 151.218L97.5717 155.376C95.8122 155.611 94.042 155.757 92.2677 155.814C90.4674 155.879 88.6649 155.849 86.8677 155.724C85.9161 155.66 84.9686 155.544 84.0297 155.376C83.5377 155.286 83.0277 155.184 82.4877 155.034C81.8667 154.874 81.2636 154.651 80.6877 154.368C80.2615 154.163 79.859 153.911 79.4877 153.618C79.2248 153.409 78.9818 153.176 78.7617 152.922C78.6242 152.759 78.496 152.589 78.3777 152.412C78.3177 152.31 78.2517 152.208 78.1977 152.106L78.1197 151.962L77.7057 151.116C77.5797 150.834 77.4777 150.558 77.3697 150.276C76.9912 149.226 76.7178 148.14 76.5537 147.036C75.9537 142.866 76.4277 139.146 77.0517 135.528C77.3877 133.728 77.7837 131.928 78.2517 130.218C78.4917 129.348 78.7437 128.478 79.0137 127.62C79.2837 126.762 79.5717 125.934 79.9197 124.992L87.8157 127.836Z" fill="#B55B52"/>
<path d="M82.266 120.306C87.936 118.806 91.302 123.45 89.382 131.106C87.462 138.762 86.82 139.05 86.82 139.05L75.126 137.1C76.566 129.6 76.452 121.836 82.266 120.306Z" fill="#407BFF"/>
<path d="M100.584 149.556L99.7021 149.478C97.1941 149.478 96.7621 150.162 95.2201 151.596L94.6201 154.752C98.6701 156.822 100.842 154.548 100.848 154.548H104.598L103.278 151.548C103.048 151.006 102.676 150.535 102.203 150.185C101.729 149.834 101.17 149.617 100.584 149.556Z" fill="#B55B52"/>
<path d="M86.5858 102.672C87.6058 108.138 87.9238 111.39 91.0558 113.832C95.7598 117.498 102.24 114.012 102.876 108.324C103.446 103.206 101.676 95.124 96.0238 93.69C94.7633 93.3787 93.4447 93.39 92.1897 93.7228C90.9347 94.0557 89.7838 94.6994 88.8433 95.5945C87.9027 96.4896 87.2029 97.6072 86.8083 98.8442C86.4138 100.081 86.3372 101.398 86.5858 102.672Z" fill="#B55B52"/>
<path d="M97.416 104.58C101.316 104.268 100.176 100.158 98.97 99.3C100.8 98.604 102.06 95.7 100.302 93.708C101.334 91.014 98.382 87.768 93.204 88.254C89.424 88.602 89.004 90.6 89.004 90.6C89.004 90.6 84.474 90.126 82.59 93.864C80.982 97.068 82.932 98.778 82.932 98.778C82.932 98.778 79.548 99.762 80.484 104.178C81.48 108.942 85.14 107.838 85.14 107.838C85.14 107.838 84.318 112.206 89.268 112.266C93.546 112.32 93.6 109.116 93.6 109.116C93.6 109.116 99.144 108.6 97.416 104.58Z" fill="#263238"/>
<path d="M94.5122 104.898C94.9495 106.071 95.8041 107.04 96.9122 107.622C98.3402 108.354 99.4322 106.836 99.1802 105.276C98.9522 103.878 97.7342 102.084 96.2282 102C94.7222 101.916 93.9782 103.446 94.5122 104.898Z" fill="#B55B52"/>
<path d="M152.682 240.102L158.016 237.936L154.248 225.126L148.914 227.286L152.682 240.102Z" fill="#B55B52"/>
<path opacity="0.2" d="M150.744 233.502L156.132 231.522L154.248 225.126L148.914 227.286L150.744 233.502Z" fill="black"/>
<path d="M157.554 235.8L151.452 237.918C151.401 237.934 151.353 237.959 151.312 237.994C151.271 238.028 151.237 238.07 151.211 238.117C151.186 238.164 151.171 238.216 151.166 238.27C151.161 238.323 151.166 238.377 151.182 238.428L152.562 243.36C152.651 243.614 152.836 243.823 153.077 243.942C153.318 244.061 153.597 244.08 153.852 243.996C155.958 243.216 156.81 242.796 159.414 241.668C161.977 240.596 164.485 239.394 166.926 238.068C168.96 236.868 167.736 234.822 166.746 235.158C164.4 235.95 160.554 236.466 158.604 235.794C158.263 235.679 157.894 235.681 157.554 235.8Z" fill="#263238"/>
<path d="M109.842 166.2C109.842 166.2 150.156 169.8 151.2 181.398C153.3 204.996 156.522 227.748 156.522 227.748L148.32 230.748C148.32 230.748 138.282 204.828 138.414 186.348C126.786 183.066 96.2098 187.884 91.2118 178.914C86.7958 170.994 90.6718 165.306 90.6718 165.306L109.842 166.2Z" fill="#263238"/>
<path d="M147.708 232.614L157.92 229.164L157.476 224.514L145.962 228.222L147.708 232.614Z" fill="#407BFF"/>
<path d="M159.804 236.046C159.313 236.204 158.806 236.306 158.292 236.352C158.266 236.355 158.239 236.351 158.216 236.339C158.192 236.327 158.173 236.309 158.16 236.286C158.147 236.264 158.14 236.239 158.14 236.214C158.14 236.189 158.147 236.164 158.16 236.142C158.292 235.962 159.468 234.378 160.218 234.402C160.304 234.407 160.387 234.433 160.46 234.478C160.534 234.523 160.595 234.586 160.638 234.66C160.716 234.766 160.764 234.891 160.778 235.021C160.792 235.152 160.77 235.284 160.716 235.404C160.501 235.723 160.177 235.952 159.804 236.046ZM158.604 236.046C159.642 235.902 160.35 235.626 160.512 235.284C160.546 235.206 160.558 235.119 160.546 235.035C160.534 234.95 160.5 234.87 160.446 234.804C160.427 234.765 160.398 234.733 160.362 234.709C160.326 234.686 160.285 234.673 160.242 234.672C159.81 234.654 159.066 235.428 158.574 236.046H158.604Z" fill="#407BFF"/>
<path d="M158.322 236.346C158.3 236.352 158.277 236.352 158.256 236.346C158.234 236.342 158.213 236.333 158.195 236.32C158.177 236.306 158.163 236.288 158.154 236.268C158.154 236.202 157.464 234.684 157.824 233.964C157.87 233.872 157.937 233.792 158.019 233.729C158.101 233.667 158.197 233.624 158.298 233.604C158.408 233.567 158.528 233.569 158.637 233.609C158.746 233.65 158.838 233.726 158.898 233.826C159.228 234.378 158.814 235.788 158.388 236.298C158.371 236.32 158.348 236.337 158.322 236.346ZM158.322 233.886C158.271 233.903 158.224 233.931 158.183 233.967C158.143 234.003 158.111 234.047 158.088 234.096C157.872 234.522 158.136 235.434 158.334 235.944C158.664 235.38 158.904 234.33 158.688 233.97C158.646 233.904 158.574 233.826 158.382 233.868L158.322 233.886Z" fill="#407BFF"/>
<path d="M124.14 243.912L129.84 243.642L130.77 230.184L125.07 230.454L124.14 243.912Z" fill="#B55B52"/>
<path d="M129.972 242.67L123.516 242.466C123.463 242.462 123.409 242.468 123.358 242.485C123.307 242.502 123.259 242.529 123.219 242.564C123.178 242.599 123.145 242.642 123.12 242.69C123.096 242.738 123.082 242.79 123.078 242.844L122.604 247.938C122.599 248.073 122.621 248.208 122.669 248.335C122.716 248.462 122.789 248.578 122.881 248.676C122.974 248.775 123.085 248.854 123.208 248.91C123.332 248.966 123.465 248.996 123.6 249C125.85 249.03 126.924 248.934 129.762 249C131.508 249.054 134.946 249.312 137.34 249C139.734 248.688 139.368 246.342 138.324 246.252C135.858 246.054 132.552 244.35 130.974 243.024C130.691 242.795 130.337 242.67 129.972 242.67Z" fill="#263238"/>
<path d="M132 243.732C131.484 243.702 130.974 243.618 130.476 243.48C130.451 243.474 130.427 243.461 130.409 243.442C130.391 243.423 130.38 243.4 130.375 243.374C130.371 243.348 130.374 243.322 130.384 243.298C130.395 243.274 130.412 243.254 130.434 243.24C130.62 243.114 132.282 242.04 132.978 242.352C133.057 242.386 133.126 242.44 133.178 242.508C133.231 242.577 133.265 242.657 133.278 242.742C133.313 242.868 133.313 243.001 133.28 243.128C133.246 243.255 133.179 243.37 133.086 243.462C132.772 243.688 132.383 243.784 132 243.732ZM130.848 243.294C131.868 243.534 132.648 243.528 132.906 243.294C132.965 243.231 133.006 243.153 133.025 243.069C133.044 242.984 133.04 242.896 133.014 242.814C133.008 242.772 132.992 242.733 132.967 242.699C132.942 242.666 132.908 242.639 132.87 242.622C132.474 242.442 131.502 242.892 130.8 243.294H130.848Z" fill="#407BFF"/>
<path d="M130.482 243.486C130.46 243.491 130.438 243.491 130.416 243.486C130.397 243.474 130.381 243.457 130.369 243.437C130.358 243.417 130.351 243.395 130.35 243.372C130.35 243.306 130.272 241.65 130.866 241.11C130.944 241.034 131.04 240.979 131.145 240.949C131.249 240.92 131.36 240.917 131.466 240.942C131.581 240.948 131.69 240.993 131.776 241.07C131.862 241.146 131.92 241.249 131.94 241.362C132.048 241.992 131.154 243.162 130.572 243.486C130.543 243.498 130.511 243.498 130.482 243.486ZM131.34 241.2C131.286 241.196 131.232 241.204 131.182 241.223C131.131 241.241 131.085 241.27 131.046 241.308C130.692 241.626 130.614 242.574 130.614 243.108C131.124 242.7 131.724 241.806 131.652 241.392C131.652 241.314 131.592 241.224 131.4 241.194L131.34 241.2Z" fill="#407BFF"/>
<path opacity="0.2" d="M125.07 230.454L130.776 230.184L130.236 237.882L124.554 237.876L125.07 230.454Z" fill="black"/>
<path d="M96.4499 165.558C96.4499 165.558 139.89 172.2 139.2 182.202C137.958 200.202 131.922 235.38 131.922 235.38L123.366 235.5C123.366 235.5 121.344 199.416 124.566 186.264C113.88 186.264 83.7359 185.892 79.6259 180.402C75.0779 174.336 79.7519 164.802 79.7519 164.802L96.4499 165.558Z" fill="#263238"/>
<path d="M122.358 236.172L132.714 236.01L133.224 230.538L121.86 230.982L122.358 236.172Z" fill="#407BFF"/>
<path d="M104.1 119.7C100.602 119.016 84.8281 119.214 84.8281 119.214C83.2513 119.171 81.7157 119.721 80.5248 120.755C79.3338 121.789 78.5742 123.233 78.3961 124.8C77.8441 129.666 80.9341 140.538 81.0421 146.082C81.1741 152.892 79.8721 155.652 79.7401 164.82L109.842 166.2C109.842 147.762 109.038 132.498 108.312 125.178C108.054 122.604 107.598 120.378 104.1 119.7Z" fill="#407BFF"/>
<path d="M104.1 119.7C100.602 119.016 84.8281 119.214 84.8281 119.214C83.2513 119.171 81.7157 119.721 80.5248 120.755C79.3338 121.789 78.5742 123.233 78.3961 124.8C77.8441 129.666 80.9341 140.538 81.0421 146.082C81.1741 152.892 79.8721 155.652 79.7401 164.82L109.842 166.2C109.842 147.762 109.038 132.498 108.312 125.178C108.054 122.604 107.598 120.378 104.1 119.7Z" fill="url(#paint0_linear_183_3258)"/>
<path d="M108.222 125.508C109.164 128.748 110.112 132.078 111.09 135.33C112.068 138.582 113.07 141.852 114.198 144.93C114.474 145.716 114.798 146.448 115.062 147.204L115.524 148.266L115.584 148.398V148.464V148.5V148.458C115.48 148.273 115.351 148.103 115.2 147.954C114.996 147.756 114.918 147.738 114.9 147.738C115.034 147.859 115.188 147.954 115.356 148.02C115.65 148.162 115.952 148.284 116.262 148.386C116.94 148.62 117.702 148.83 118.476 149.04C121.614 149.838 125.04 150.45 128.376 151.164L128.268 155.322C126.477 155.564 124.675 155.71 122.868 155.76C121.04 155.83 119.209 155.796 117.384 155.658C116.414 155.589 115.448 155.464 114.492 155.286C113.988 155.19 113.466 155.07 112.902 154.908C112.233 154.721 111.589 154.455 110.982 154.116C110.499 153.839 110.055 153.498 109.662 153.102C109.362 152.793 109.104 152.446 108.894 152.07L108.69 151.692L108.012 150.408C107.616 149.568 107.184 148.722 106.812 147.888C106.074 146.202 105.426 144.534 104.778 142.86C104.13 141.186 103.578 139.512 103.02 137.832C101.91 134.454 100.908 131.112 100.02 127.632L108.222 125.508Z" fill="#B55B52"/>
<path d="M99.6718 122.166C103.788 117.966 109.05 120.258 111.312 127.842C113.574 135.426 113.166 135.978 113.166 135.978L102.108 140.268C99.4978 133.044 95.4598 126.444 99.6718 122.166Z" fill="#407BFF"/>
<path d="M131.316 149.556L130.434 149.478C127.926 149.478 127.5 150.162 125.958 151.596L125.358 154.752C129.408 156.822 131.58 154.548 131.58 154.548H135.336L134.01 151.548C133.781 151.005 133.41 150.534 132.936 150.183C132.462 149.833 131.902 149.616 131.316 149.556Z" fill="#B55B52"/>
<path d="M81.0601 188.46H119.508C120.353 188.46 121.038 187.775 121.038 186.93V184.458C121.038 183.613 120.353 182.928 119.508 182.928H81.0601C80.2151 182.928 79.5301 183.613 79.5301 184.458V186.93C79.5301 187.775 80.2151 188.46 81.0601 188.46Z" fill="#407BFF"/>
<path d="M81.2338 250.05H79.5298L81.4918 188.454H83.8498L81.2338 250.05Z" fill="#407BFF"/>
<path opacity="0.4" d="M81.2338 250.05H79.5298L81.4918 188.454H83.8498L81.2338 250.05Z" fill="white"/>
<path d="M96.9059 250.05H98.6099L96.6539 188.454H94.2959L96.9059 250.05Z" fill="#407BFF"/>
<path opacity="0.4" d="M96.9059 250.05H98.6099L96.6539 188.454H94.2959L96.9059 250.05Z" fill="white"/>
<path d="M103.662 250.05H101.958L103.92 188.454H106.278L103.662 250.05Z" fill="#407BFF"/>
<path opacity="0.4" d="M103.662 250.05H101.958L103.92 188.454H106.278L103.662 250.05Z" fill="white"/>
<path d="M119.334 250.05H121.038L119.082 188.454H116.724L119.334 250.05Z" fill="#407BFF"/>
<path opacity="0.4" d="M119.334 250.05H121.038L119.082 188.454H116.724L119.334 250.05Z" fill="white"/>
<g opacity="0.3">
<path d="M81.4922 188.454H83.8502L83.7362 191.07H81.4082L81.4922 188.454Z" fill="#407BFF"/>
<path d="M96.7324 191.07H94.4044L94.2964 188.454H96.6484L96.7324 191.07Z" fill="#407BFF"/>
<path d="M106.272 188.454L106.164 191.07H103.836L103.92 188.454H106.272Z" fill="#407BFF"/>
<path d="M119.166 191.07H116.832L116.724 188.454H119.082L119.166 191.07Z" fill="#407BFF"/>
</g>
<path d="M233.4 113.166H137.298C136.551 113.174 135.811 113.027 135.124 112.734C134.437 112.441 133.818 112.009 133.307 111.465C132.796 110.92 132.403 110.276 132.153 109.572C131.903 108.869 131.802 108.121 131.856 107.376L135.522 46.554C135.637 44.9957 136.332 43.537 137.469 42.4654C138.606 41.3937 140.104 40.7867 141.666 40.764H237.744C238.491 40.7562 239.231 40.9034 239.918 41.1963C240.605 41.4891 241.223 41.9213 241.735 42.4654C242.246 43.0095 242.639 43.6538 242.889 44.3576C243.139 45.0613 243.24 45.8092 243.186 46.554L239.514 107.4C239.395 108.949 238.702 110.399 237.572 111.465C236.441 112.531 234.954 113.138 233.4 113.166Z" fill="#407BFF"/>
<path d="M150.156 100.308L159.018 130.626L185.31 100.308H150.156Z" fill="#407BFF"/>
<path opacity="0.1" d="M228.714 88.692H174.858C174.439 88.6964 174.024 88.6139 173.639 88.4498C173.254 88.2857 172.907 88.0434 172.62 87.7384C172.333 87.4334 172.112 87.0722 171.972 86.6777C171.831 86.2831 171.774 85.8637 171.804 85.446L173.862 51.354C173.927 50.4804 174.316 49.6626 174.953 49.0617C175.591 48.4609 176.43 48.1206 177.306 48.108H231.162C231.582 48.099 231.999 48.1784 232.387 48.3409C232.774 48.5035 233.123 48.7456 233.411 49.0516C233.699 49.3576 233.92 49.7207 234.058 50.1173C234.197 50.5139 234.251 50.9353 234.216 51.354L232.158 85.446C232.094 86.3196 231.704 87.1374 231.067 87.7383C230.429 88.3391 229.59 88.6794 228.714 88.692Z" fill="white"/>
<path opacity="0.1" d="M199.902 103.398H146.04C145.622 103.402 145.207 103.318 144.823 103.154C144.438 102.989 144.092 102.747 143.806 102.442C143.519 102.137 143.299 101.776 143.159 101.382C143.019 100.988 142.962 100.569 142.992 100.152L145.05 66.06C145.114 65.1874 145.503 64.3704 146.139 63.7697C146.775 63.169 147.613 62.8281 148.488 62.814H202.35C202.77 62.8059 203.186 62.8859 203.573 63.0488C203.96 63.2117 204.308 63.454 204.595 63.7599C204.882 64.0658 205.102 64.4286 205.241 64.8248C205.379 65.221 205.433 65.6418 205.398 66.06L203.34 100.152C203.276 101.025 202.887 101.842 202.251 102.442C201.615 103.043 200.777 103.384 199.902 103.398Z" fill="white"/>
<g opacity="0.5">
<path d="M145.326 46.056C145.315 46.5167 145.132 46.9567 144.814 47.2898C144.495 47.6228 144.064 47.8247 143.604 47.856C143.385 47.8452 143.172 47.7885 142.976 47.6897C142.781 47.5908 142.609 47.452 142.471 47.2822C142.333 47.1125 142.232 46.9156 142.175 46.7043C142.118 46.4931 142.106 46.2722 142.14 46.056C142.154 45.5961 142.337 45.1576 142.655 44.8252C142.973 44.4927 143.403 44.2899 143.862 44.256C144.081 44.2668 144.294 44.3235 144.49 44.4223C144.685 44.5212 144.857 44.66 144.995 44.8298C145.133 44.9995 145.234 45.1964 145.291 45.4077C145.348 45.6189 145.36 45.8398 145.326 46.056Z" fill="white"/>
<path d="M151.2 46.056C151.188 46.5163 151.005 46.9556 150.686 47.2883C150.368 47.621 149.937 47.8234 149.478 47.856C149.259 47.846 149.045 47.7899 148.849 47.6914C148.653 47.5929 148.48 47.4542 148.341 47.2844C148.202 47.1145 148.101 46.9173 148.044 46.7057C147.986 46.494 147.974 46.2727 148.008 46.056C148.022 45.5961 148.205 45.1576 148.523 44.8252C148.841 44.4927 149.271 44.2899 149.73 44.256C149.949 44.2669 150.163 44.3236 150.358 44.4224C150.554 44.5212 150.726 44.6599 150.865 44.8295C151.003 44.9991 151.105 45.1959 151.163 45.4072C151.22 45.6185 151.233 45.8395 151.2 46.056Z" fill="white"/>
<path d="M157.116 46.056C157.105 46.5167 156.922 46.9567 156.604 47.2898C156.285 47.6228 155.854 47.8247 155.394 47.856C155.175 47.8452 154.962 47.7885 154.766 47.6897C154.571 47.5908 154.399 47.452 154.261 47.2822C154.123 47.1125 154.022 46.9156 153.965 46.7043C153.908 46.4931 153.896 46.2722 153.93 46.056C153.944 45.5961 154.127 45.1576 154.445 44.8252C154.763 44.4927 155.193 44.2899 155.652 44.256C155.871 44.2668 156.084 44.3235 156.28 44.4223C156.475 44.5212 156.647 44.66 156.785 44.8298C156.923 44.9995 157.024 45.1964 157.081 45.4077C157.138 45.6189 157.15 45.8398 157.116 46.056Z" fill="white"/>
</g>
<path opacity="0.3" d="M232.656 112.602H136.578C135.811 112.608 135.051 112.455 134.346 112.154C133.641 111.852 133.006 111.408 132.481 110.849C131.955 110.29 131.552 109.628 131.294 108.906C131.037 108.183 130.932 107.415 130.986 106.65L134.658 45.828C134.773 44.2315 135.483 42.7363 136.647 41.6377C137.812 40.539 139.345 39.9169 140.946 39.894H237C237.767 39.888 238.527 40.0406 239.232 40.3424C239.937 40.6441 240.572 41.0884 241.097 41.6474C241.622 42.2064 242.026 42.8679 242.283 43.5905C242.541 44.313 242.646 45.0809 242.592 45.846L238.926 106.668C238.809 108.261 238.102 109.753 236.942 110.851C235.781 111.949 234.253 112.573 232.656 112.602ZM140.946 40.2C139.419 40.2186 137.956 40.8099 136.844 41.8566C135.733 42.9034 135.056 44.3293 134.946 45.852L131.274 106.674C131.221 107.399 131.318 108.126 131.561 108.811C131.804 109.496 132.186 110.123 132.683 110.653C133.181 111.182 133.782 111.603 134.451 111.888C135.119 112.173 135.839 112.316 136.566 112.308H232.656C234.182 112.288 235.645 111.696 236.756 110.65C237.867 109.603 238.545 108.178 238.656 106.656L242.322 45.834C242.373 45.1073 242.274 44.3777 242.029 43.6916C241.783 43.0055 241.399 42.3778 240.898 41.8481C240.398 41.3185 239.793 40.8985 239.122 40.6148C238.451 40.3311 237.728 40.1899 237 40.2H140.946Z" fill="#263238"/>
<path d="M180.63 77.046C180.222 77.91 179.85 78.648 179.43 79.446C179.01 80.244 178.59 80.964 178.158 81.714C177.276 83.208 176.358 84.714 175.374 86.118C174.878 86.838 174.37 87.552 173.85 88.26C173.304 88.956 172.788 89.664 172.206 90.342C171.07 91.7472 169.846 93.078 168.54 94.326C168.21 94.65 167.85 94.926 167.502 95.268C167.156 95.5919 166.792 95.8944 166.41 96.174L165.258 97.044L164.904 97.29C164.747 97.3893 164.585 97.4795 164.418 97.56C164.088 97.7182 163.742 97.8389 163.386 97.92C162.681 98.0846 161.949 98.0902 161.243 97.9366C160.536 97.783 159.872 97.474 159.3 97.032C159.016 96.808 158.756 96.5546 158.526 96.276L158.364 96.06L158.286 95.952L158.256 95.904L158.148 95.712L157.716 94.932C157.584 94.68 157.494 94.44 157.386 94.194C157.008 93.2887 156.699 92.356 156.462 91.404C156.044 89.6692 155.751 87.9067 155.586 86.13C155.41 84.3998 155.334 82.6609 155.358 80.922C155.37 80.4286 155.559 79.9561 155.889 79.5895C156.22 79.2229 156.67 78.9864 157.16 78.9227C157.649 78.859 158.145 78.9722 158.559 79.242C158.972 79.5118 159.275 79.9203 159.414 80.394V80.466C160.209 83.524 161.193 86.5298 162.36 89.466C162.627 90.0872 162.938 90.6887 163.29 91.266C163.368 91.386 163.446 91.53 163.524 91.632L163.752 91.908L163.806 91.98L163.776 91.932L163.71 91.842C163.616 91.719 163.507 91.6082 163.386 91.512C163.146 91.3188 162.868 91.1797 162.57 91.104C162.271 91.0409 161.962 91.0409 161.664 91.104C161.508 91.1368 161.358 91.1871 161.214 91.254C161.136 91.254 161.07 91.332 160.998 91.368C160.926 91.404 160.818 91.494 160.896 91.428L161.646 90.696C161.898 90.468 162.144 90.192 162.39 89.928C162.636 89.664 162.888 89.406 163.128 89.124C165.106 86.7516 166.907 84.2368 168.516 81.6C169.338 80.262 170.148 78.9 170.916 77.52L172.074 75.444L173.172 73.416L173.232 73.308C173.752 72.3759 174.613 71.681 175.634 71.3685C176.655 71.0559 177.757 71.1499 178.711 71.6308C179.664 72.1118 180.394 72.9424 180.75 73.9492C181.105 74.956 181.058 76.0613 180.618 77.034L180.63 77.046Z" fill="#263238"/>
<path d="M155.922 80.658L153 78.984L156.144 75.774C157.065 76.4568 157.919 77.2263 158.694 78.072C158.876 78.2655 159.011 78.4991 159.087 78.7539C159.163 79.0088 159.178 79.2779 159.132 79.5397C159.085 79.8016 158.978 80.0489 158.818 80.2618C158.659 80.4747 158.452 80.6474 158.214 80.766C157.852 80.9341 157.454 81.0121 157.055 80.9933C156.656 80.9745 156.267 80.8594 155.922 80.658Z" fill="#AE7461"/>
<path d="M152.334 75.546L153.924 74.412C154.131 74.2617 154.388 74.1989 154.641 74.2371C154.894 74.2752 155.121 74.4114 155.274 74.616L156.144 75.774L153 78.984L152.01 76.728C151.92 76.5237 151.903 76.2947 151.962 76.0795C152.021 75.8643 152.153 75.6759 152.334 75.546Z" fill="#AE7461"/>
<path d="M174.336 74.358C174.574 73.574 175.024 72.8708 175.636 72.3256C176.248 71.7805 176.998 71.4146 177.804 71.268C178.969 71.0106 180.149 70.8302 181.338 70.728C184.917 70.5884 188.5 70.6525 192.072 70.92C193.944 71.046 195.858 71.31 197.382 71.562H197.436C198.243 71.6959 198.964 72.1444 199.441 72.8091C199.918 73.4738 200.112 74.3006 199.98 75.108C199.23 79.44 197.028 86.976 196.788 94.086C196.47 103.422 196.614 108.798 196.452 111.048L172.422 110.586C170.748 87.768 172.83 79.524 174.336 74.358Z" fill="white"/>
<path d="M198.078 71.208H198C196.392 70.944 194.4 70.662 192.402 70.53L191.334 70.47C190.284 74.814 184.026 82.122 182.13 93.198C181.398 83.94 180.834 74.262 181.908 70.488C180.21 70.5396 178.515 70.6818 176.832 70.914C175.942 71.1154 175.121 71.5491 174.452 72.1709C173.784 72.7927 173.293 73.5805 173.028 74.454C171.552 78.798 168.732 88.53 170.466 112.458H197.172C197.346 110.058 196.722 105.018 197.688 97.26C198.618 89.748 199.956 79.524 200.742 74.958C200.883 74.1079 200.682 73.2365 200.183 72.534C199.684 71.8315 198.927 71.3548 198.078 71.208Z" fill="#263238"/>
<path opacity="0.2" d="M181.56 111.21C181.52 111.212 181.48 111.198 181.45 111.171C181.42 111.144 181.401 111.106 181.398 111.066C180.834 104.316 181.89 94.626 181.902 94.524C181.904 94.5035 181.911 94.4836 181.921 94.4655C181.931 94.4474 181.944 94.4315 181.96 94.4186C181.976 94.4058 181.995 94.3963 182.015 94.3907C182.035 94.3851 182.056 94.3835 182.076 94.386C182.118 94.3906 182.157 94.4113 182.183 94.4438C182.21 94.4763 182.223 94.518 182.22 94.56C182.22 94.656 181.152 104.322 181.716 111.036C181.719 111.057 181.717 111.078 181.711 111.098C181.705 111.119 181.695 111.138 181.681 111.154C181.668 111.17 181.651 111.183 181.632 111.193C181.614 111.203 181.593 111.209 181.572 111.21H181.56Z" fill="white"/>
<path opacity="0.3" d="M197.136 80.706C196.146 85.194 196.674 91.41 197.736 97.08C198.522 90.714 199.596 82.452 200.382 77.34C199.284 76.608 197.922 77.124 197.136 80.706Z" fill="black"/>
<path d="M181.848 70.698C184.962 70.014 185.502 68.094 185.28 65.97C185.225 65.4394 185.139 64.9124 185.022 64.392L188.91 61.212L191.772 58.884C190.992 62.328 190.134 68.61 192.486 70.956C192.486 70.956 190.566 74.106 185.226 73.722C180.714 73.398 181.848 70.698 181.848 70.698Z" fill="#AE7461"/>
<path d="M186.582 72.93L185.718 73.746L188.478 74.784L188.118 73.734L186.582 72.93Z" fill="#E0E0E0"/>
<path d="M188.694 76.248C188.694 76.248 187.608 73.506 186.582 72.924C188.6 72.4428 190.448 71.4201 191.928 69.966L193.566 70.62C193.566 70.62 194.082 73.8 188.694 76.248Z" fill="#F5F5F5"/>
<path d="M185.07 72.714L185.718 73.746L182.814 73.998L183.396 73.08L185.07 72.714Z" fill="#E0E0E0"/>
<path d="M181.356 75.474C182.42 74.3405 183.677 73.4059 185.07 72.714C183.492 72.246 183.396 70.074 183.396 70.074L181.866 70.368C181.866 70.368 179.058 73.098 181.356 75.474Z" fill="#F5F5F5"/>
<path opacity="0.2" d="M185.022 64.386C185.139 64.9086 185.225 65.4374 185.28 65.97C186.732 65.706 188.676 64.17 188.88 62.7C188.949 62.2071 188.963 61.708 188.922 61.212L185.022 64.386Z" fill="black"/>
<path d="M180.3 48.684C178.908 50.394 179.04 56.58 181.986 56.652C184.932 56.724 182.832 45.564 180.3 48.684Z" fill="#263238"/>
<path d="M192.99 53.184C192.696 57.87 192.756 60.624 190.392 63.048C186.84 66.69 181.08 64.596 179.97 59.934C178.98 55.734 179.628 48.78 184.206 46.878C185.205 46.4502 186.299 46.2877 187.379 46.4061C188.46 46.5246 189.492 46.92 190.376 47.5541C191.259 48.1883 191.964 49.0397 192.422 50.0259C192.88 51.0122 193.075 52.1 192.99 53.184Z" fill="#AE7461"/>
<path d="M190.686 49.284C187.74 52.206 191.568 54.348 190.086 55.92C192.864 57.372 191.844 58.44 191.844 58.44C191.556 59.2389 191.556 60.1131 191.844 60.912C194.976 60.108 200.79 49.704 194.442 48.108C190.644 49.8 190.686 49.284 190.686 49.284Z" fill="#263238"/>
<path d="M191.892 51.384C189.102 51.816 185.592 50.484 183.414 49.356C181.236 48.228 180.918 50.358 181.722 51.006C180.324 51.054 178.554 49.95 178.992 47.484C179.394 45.234 182.34 43.104 186.534 45.006C189.504 46.35 193.164 44.58 194.592 46.134C196.02 47.688 193.752 51.09 191.892 51.384Z" fill="#263238"/>
<path d="M193.8 48.33C195.672 48.084 195.75 46.902 195.228 44.832C197.25 47.706 196.428 48.588 195.228 49.284C193.89 48.834 193.8 48.33 193.8 48.33Z" fill="#263238"/>
<path d="M194.25 56.778C193.835 57.6946 193.111 58.4359 192.204 58.872C191.046 59.394 190.458 58.326 190.77 57.072C191.052 55.938 191.97 54.306 193.17 54.318C194.37 54.33 194.772 55.62 194.25 56.778Z" fill="#AE7461"/>
<path d="M185.676 54.6C185.676 54.978 185.472 55.29 185.226 55.296C184.98 55.302 184.8 54.99 184.8 54.6C184.8 54.21 185.004 53.91 185.25 53.91C185.496 53.91 185.676 54.216 185.676 54.6Z" fill="#263238"/>
<path d="M181.38 54.636C181.38 55.02 181.176 55.326 180.924 55.332C180.672 55.338 180.474 55.026 180.48 54.642C180.486 54.258 180.678 53.952 180.93 53.952C181.182 53.952 181.38 54.258 181.38 54.636Z" fill="#263238"/>
<path d="M183 54.768C182.551 55.9366 181.946 57.0387 181.2 58.044C181.458 58.2256 181.753 58.3491 182.064 58.406C182.374 58.463 182.694 58.4521 183 58.374V54.768Z" fill="#7F3E3B"/>
<path d="M184.512 59.4C184.948 59.3512 185.368 59.2124 185.747 58.9924C186.127 58.7724 186.456 58.476 186.714 58.122C186.73 58.0973 186.735 58.0674 186.729 58.0387C186.723 58.01 186.706 57.9849 186.681 57.969C186.656 57.9531 186.626 57.9476 186.598 57.9538C186.569 57.96 186.544 57.9773 186.528 58.002C186.239 58.3793 185.867 58.6841 185.44 58.8924C185.013 59.1007 184.543 59.2067 184.068 59.202C184.053 59.202 184.039 59.205 184.025 59.2108C184.012 59.2166 184 59.225 183.99 59.2357C183.979 59.2464 183.972 59.259 183.967 59.2728C183.961 59.2866 183.959 59.3013 183.96 59.316C183.96 59.3307 183.963 59.3453 183.969 59.3588C183.975 59.3723 183.983 59.3845 183.994 59.3946C184.005 59.4047 184.017 59.4125 184.031 59.4176C184.045 59.4226 184.059 59.4248 184.074 59.424C184.23 59.4 184.374 59.4 184.512 59.4Z" fill="#263238"/>
<path d="M187.758 53.082C187.796 53.0799 187.831 53.0651 187.86 53.04C187.884 53.0229 187.904 53.001 187.919 52.9757C187.934 52.9504 187.944 52.9223 187.948 52.8931C187.952 52.8639 187.95 52.8341 187.942 52.8057C187.934 52.7773 187.92 52.7509 187.902 52.728C187.696 52.4439 187.425 52.213 187.112 52.0544C186.799 51.8958 186.453 51.814 186.102 51.816C186.073 51.8182 186.045 51.8263 186.019 51.8397C185.993 51.8531 185.97 51.8715 185.952 51.8939C185.933 51.9163 185.919 51.9422 185.911 51.9701C185.903 51.9979 185.9 52.0272 185.904 52.056C185.91 52.1159 185.939 52.1712 185.985 52.2104C186.03 52.2495 186.09 52.2694 186.15 52.266C186.428 52.2634 186.703 52.3287 186.951 52.4562C187.199 52.5837 187.412 52.7697 187.572 52.998C187.594 53.0259 187.622 53.048 187.655 53.0626C187.687 53.0773 187.722 53.0839 187.758 53.082Z" fill="#263238"/>
<path d="M179.64 53.268C179.675 53.2631 179.709 53.2496 179.738 53.2287C179.768 53.2078 179.792 53.1801 179.808 53.148C179.922 52.8883 180.097 52.6595 180.317 52.4801C180.537 52.3008 180.796 52.176 181.074 52.116C181.103 52.1133 181.132 52.1043 181.157 52.0898C181.183 52.0752 181.206 52.0554 181.223 52.0316C181.241 52.0078 181.253 51.9806 181.259 51.9517C181.266 51.9228 181.266 51.8929 181.26 51.864C181.249 51.8062 181.218 51.7544 181.171 51.7189C181.124 51.6833 181.066 51.6666 181.008 51.672C180.658 51.741 180.33 51.8924 180.05 52.1136C179.77 52.3348 179.547 52.6195 179.4 52.944C179.374 52.9975 179.371 53.0587 179.39 53.1146C179.409 53.1706 179.449 53.217 179.502 53.244C179.545 53.264 179.592 53.2723 179.64 53.268Z" fill="#263238"/>
<path d="M201.456 73.92C202.188 75.462 202.8 76.92 203.4 78.42C204 79.92 204.534 81.45 205.068 82.98C206.116 86.0983 206.961 89.2809 207.6 92.508C207.738 93.342 207.894 94.158 207.996 95.016L208.074 95.652L208.116 95.97V96.132V96.354C208.176 96.9746 208.176 97.5994 208.116 98.22C207.977 99.5779 207.51 100.881 206.754 102.018C206.046 103.059 205.115 103.93 204.03 104.568C203.126 105.099 202.152 105.503 201.138 105.768C200.235 106.015 199.311 106.18 198.378 106.26C196.618 106.426 194.844 106.356 193.104 106.05C192.632 105.971 192.202 105.73 191.888 105.369C191.574 105.007 191.395 104.548 191.382 104.069C191.369 103.591 191.523 103.123 191.818 102.745C192.112 102.368 192.529 102.104 192.996 102L193.212 101.952C193.812 101.814 194.598 101.646 195.27 101.466C195.942 101.286 196.626 101.076 197.262 100.866C198.372 100.51 199.402 99.9395 200.292 99.186C200.527 98.9679 200.706 98.6962 200.814 98.394C200.856 98.1821 200.856 97.9639 200.814 97.752C200.794 97.5903 200.763 97.43 200.724 97.272L200.508 96.294C200.37 95.61 200.172 94.902 199.992 94.206C199.62 92.796 199.2 91.386 198.72 89.97C198.24 88.554 197.748 87.144 197.226 85.734C196.704 84.324 196.152 82.914 195.594 81.534C195.036 80.154 194.448 78.702 193.89 77.388V77.328C193.441 76.3271 193.408 75.1889 193.799 74.1638C194.189 73.1387 194.971 72.3107 195.972 71.862C196.973 71.4133 198.111 71.3805 199.136 71.771C200.161 72.1614 200.989 72.9431 201.438 73.944L201.456 73.92Z" fill="#263238"/>
<path d="M191.208 103.728L188.562 105L193.134 106.626C193.134 106.626 196.182 105.654 194.706 103.962L193.884 103.704C192.564 103.272 191.916 103.32 191.208 103.728Z" fill="#AE7461"/>
<path d="M188.916 108.228L190.926 108.612C191.213 108.665 191.51 108.627 191.774 108.503C192.039 108.379 192.258 108.176 192.402 107.922L193.134 106.608L188.562 105L187.962 106.254C187.869 106.444 187.82 106.652 187.819 106.863C187.819 107.075 187.866 107.283 187.958 107.473C188.05 107.664 188.184 107.83 188.35 107.961C188.516 108.092 188.709 108.183 188.916 108.228Z" fill="#AE7461"/>
<defs>
<linearGradient id="paint0_linear_183_3258" x1="109.842" y1="119.187" x2="78.9383" y2="119.728" gradientUnits="userSpaceOnUse">
<stop stop-color="#1348B4"/>
<stop offset="1" stop-color="#012C80"/>
</linearGradient>
</defs>
</svg>
