<svg width="300" height="300" viewBox="0 0 300 300" fill="none" xmlns="http://www.w3.org/2000/svg">
<path d="M300 229.44H0V229.59H300V229.44Z" fill="#EBEBEB"/>
<path d="M269.94 239.094H250.068V239.244H269.94V239.094Z" fill="#EBEBEB"/>
<path d="M242.514 239.094H200.028V239.244H242.514V239.094Z" fill="#EBEBEB"/>
<path d="M176.598 233.526H165.084V233.676H176.598V233.526Z" fill="#EBEBEB"/>
<path d="M52.0501 234.534H31.4761V234.684H52.0501V234.534Z" fill="#EBEBEB"/>
<path d="M94.8001 234.534H57.3901V234.684H94.8001V234.534Z" fill="#EBEBEB"/>
<path d="M135.084 237.066H112.998V237.216H135.084V237.066Z" fill="#EBEBEB"/>
<path d="M142.2 202.68H26.3458C25.4382 202.678 24.5683 202.317 23.9271 201.674C23.2859 201.032 22.9258 200.162 22.9258 199.254V36.396C22.9337 35.4936 23.2973 34.6308 23.9376 33.9949C24.578 33.3591 25.4434 33.0015 26.3458 33H142.2C143.108 33 143.98 33.361 144.622 34.0035C145.265 34.646 145.626 35.5174 145.626 36.426V199.254C145.626 200.163 145.265 201.034 144.622 201.677C143.98 202.319 143.108 202.68 142.2 202.68ZM26.3458 33.12C25.478 33.1216 24.6463 33.4674 24.0332 34.0816C23.4201 34.6958 23.0758 35.5282 23.0758 36.396V199.254C23.0758 200.122 23.4201 200.954 24.0332 201.568C24.6463 202.183 25.478 202.528 26.3458 202.53H142.2C143.068 202.528 143.9 202.183 144.515 201.569C145.129 200.955 145.474 200.122 145.476 199.254V36.396C145.474 35.5276 145.129 34.6953 144.515 34.0813C143.9 33.4672 143.068 33.1216 142.2 33.12H26.3458Z" fill="#EBEBEB"/>
<path d="M271.986 202.68H156.126C155.218 202.678 154.348 202.317 153.705 201.675C153.063 201.033 152.702 200.162 152.7 199.254V36.396C152.71 35.4931 153.075 34.6302 153.716 33.9946C154.357 33.3589 155.223 33.0015 156.126 33H271.986C272.888 33.0031 273.751 33.3613 274.39 33.997C275.03 34.6327 275.392 35.4947 275.4 36.396V199.254C275.4 200.161 275.041 201.03 274.401 201.672C273.761 202.314 272.893 202.677 271.986 202.68ZM156.126 33.12C155.258 33.1216 154.425 33.4672 153.811 34.0813C153.197 34.6953 152.852 35.5276 152.85 36.396V199.254C152.852 200.122 153.197 200.955 153.811 201.569C154.425 202.183 155.258 202.528 156.126 202.53H271.986C272.855 202.528 273.687 202.183 274.301 201.569C274.915 200.955 275.261 200.122 275.262 199.254V36.396C275.261 35.5276 274.915 34.6953 274.301 34.0813C273.687 33.4672 272.855 33.1216 271.986 33.12H156.126Z" fill="#EBEBEB"/>
<path d="M95.244 53.922H37.23V213.942H95.244V53.922Z" fill="#F5F5F5"/>
<path d="M95.244 213.948H95.832L95.832 53.928H95.244L95.244 213.948Z" fill="#EBEBEB"/>
<path d="M89.6461 60.03H42.8281V207.84H89.6461V60.03Z" fill="white"/>
<path d="M120.114 148.644L256.968 148.644V46.962L120.114 46.962V148.644Z" fill="#E6E6E6"/>
<path d="M117.996 148.644L254.85 148.644V46.962L117.996 46.962V148.644Z" fill="#F5F5F5"/>
<path d="M251.046 144.378V51.234L121.794 51.234V144.378H251.046Z" fill="white"/>
<path d="M123.39 144.372V51.228H121.788V144.372H123.39Z" fill="#E6E6E6"/>
<path d="M119.562 124.476L253.272 124.476V118.74L119.562 118.74V124.476Z" fill="#F5F5F5"/>
<g opacity="0.4">
<path d="M126.666 42.468H113.748V75.15H126.666V42.468Z" fill="#E6E6E6"/>
<path d="M126.666 72.522H133.074V42.468H126.666V72.522Z" fill="#F5F5F5"/>
<path d="M145.992 42.468H133.074V75.15H145.992V42.468Z" fill="#E6E6E6"/>
<path d="M145.992 72.522H152.4V42.468H145.992V72.522Z" fill="#F5F5F5"/>
<path d="M165.318 42.468H152.4V75.15H165.318V42.468Z" fill="#E6E6E6"/>
<path d="M165.318 72.522H171.726V42.468H165.318V72.522Z" fill="#F5F5F5"/>
<path d="M184.644 42.468H171.726V75.15H184.644V42.468Z" fill="#E6E6E6"/>
<path d="M184.644 72.522H191.052V42.468H184.644V72.522Z" fill="#F5F5F5"/>
<path d="M203.97 42.468H191.052V75.15H203.97V42.468Z" fill="#E6E6E6"/>
<path d="M203.97 72.522H210.378V42.468H203.97V72.522Z" fill="#F5F5F5"/>
<path d="M223.296 42.468H210.378V75.15H223.296V42.468Z" fill="#E6E6E6"/>
<path d="M223.296 72.522H229.704V42.468H223.296V72.522Z" fill="#F5F5F5"/>
<path d="M242.622 42.468H229.704V75.15H242.622V42.468Z" fill="#E6E6E6"/>
<path d="M242.622 72.522H249.03V42.468H242.622V72.522Z" fill="#F5F5F5"/>
<path d="M261.948 42.468H249.03V75.15H261.948V42.468Z" fill="#E6E6E6"/>
</g>
<path d="M122.226 229.44H138.24V169.8H122.226V229.44Z" fill="#E6E6E6"/>
<path d="M124.896 229.44H122.232V224.07H127.692L124.896 229.44Z" fill="#F0F0F0"/>
<path d="M237.456 229.44H253.47V169.8H237.456V229.44Z" fill="#E6E6E6"/>
<path d="M122.232 227.376L239.778 227.376V169.8H122.232V227.376Z" fill="#F0F0F0"/>
<path d="M124.302 188.142H237.714V172.35H124.302V188.142Z" fill="#E6E6E6"/>
<path d="M153 177.258H209.034C211.632 177.258 214.122 175.308 215.91 171.858H146.112C147.9 175.308 150.384 177.258 153 177.258Z" fill="#F0F0F0"/>
<path d="M237.114 229.44H239.778V224.07H234.318L237.114 229.44Z" fill="#F0F0F0"/>
<path d="M124.302 206.484H237.714V190.692H124.302V206.484Z" fill="#E6E6E6"/>
<path d="M153 195.6H209.034C211.632 195.6 214.122 193.656 215.91 190.2H146.112C147.9 193.656 150.384 195.6 153 195.6Z" fill="#F0F0F0"/>
<path d="M124.302 224.826H237.714V209.034H124.302V224.826Z" fill="#E6E6E6"/>
<path d="M153 213.942H209.034C211.632 213.942 214.122 211.998 215.91 208.542H146.112C147.9 211.998 150.384 213.942 153 213.942Z" fill="#F0F0F0"/>
<path d="M150 256.536C214.249 256.536 266.334 253.495 266.334 249.744C266.334 245.993 214.249 242.952 150 242.952C85.7505 242.952 33.666 245.993 33.666 249.744C33.666 253.495 85.7505 256.536 150 256.536Z" fill="#F5F5F5"/>
<path d="M221.928 246.318H221.286C221.152 246.308 221.026 246.249 220.933 246.153C220.839 246.057 220.783 245.93 220.776 245.796L216.828 218.304H219.828L222.444 245.616C222.459 245.696 222.457 245.779 222.438 245.858C222.42 245.937 222.385 246.012 222.337 246.078C222.289 246.144 222.228 246.199 222.157 246.24C222.087 246.281 222.009 246.308 221.928 246.318Z" fill="#1771DF"/>
<path opacity="0.3" d="M221.928 246.318H221.286C221.152 246.308 221.026 246.249 220.933 246.153C220.839 246.057 220.783 245.93 220.776 245.796L216.828 218.304H219.828L222.444 245.616C222.459 245.696 222.457 245.779 222.438 245.858C222.42 245.937 222.385 246.012 222.337 246.078C222.289 246.144 222.228 246.199 222.157 246.24C222.087 246.281 222.009 246.308 221.928 246.318Z" fill="black"/>
<path d="M230.16 246.318H229.518C229.384 246.308 229.258 246.249 229.164 246.153C229.071 246.057 229.015 245.93 229.008 245.796L225.06 218.304H228.06L230.682 245.616C230.697 245.697 230.694 245.779 230.676 245.859C230.657 245.939 230.622 246.014 230.573 246.08C230.524 246.146 230.462 246.201 230.391 246.242C230.32 246.283 230.241 246.309 230.16 246.318Z" fill="#1771DF"/>
<path opacity="0.3" d="M230.16 246.318H229.518C229.384 246.308 229.258 246.249 229.164 246.153C229.071 246.057 229.015 245.93 229.008 245.796L225.06 218.304H228.06L230.682 245.616C230.697 245.697 230.694 245.779 230.676 245.859C230.657 245.939 230.622 246.014 230.573 246.08C230.524 246.146 230.462 246.201 230.391 246.242C230.32 246.283 230.241 246.309 230.16 246.318Z" fill="black"/>
<path d="M184.296 246.318H184.938C185.072 246.308 185.198 246.249 185.292 246.153C185.386 246.057 185.441 245.93 185.448 245.796L189.396 218.304H186.396L183.78 245.616C183.766 245.696 183.768 245.779 183.786 245.858C183.804 245.937 183.839 246.012 183.887 246.078C183.935 246.144 183.997 246.199 184.067 246.24C184.137 246.281 184.215 246.308 184.296 246.318Z" fill="#1771DF"/>
<path opacity="0.3" d="M184.296 246.318H184.938C185.072 246.308 185.198 246.249 185.292 246.153C185.386 246.057 185.441 245.93 185.448 245.796L189.396 218.304H186.396L183.78 245.616C183.766 245.696 183.768 245.779 183.786 245.858C183.804 245.937 183.839 246.012 183.887 246.078C183.935 246.144 183.997 246.199 184.067 246.24C184.137 246.281 184.215 246.308 184.296 246.318Z" fill="black"/>
<path d="M176.064 246.318H176.706C176.84 246.308 176.966 246.249 177.06 246.153C177.154 246.057 177.209 245.93 177.216 245.796L181.164 218.304H178.164L175.548 245.616C175.534 245.696 175.536 245.779 175.554 245.858C175.572 245.937 175.607 246.012 175.655 246.078C175.703 246.144 175.765 246.199 175.835 246.24C175.905 246.281 175.983 246.308 176.064 246.318Z" fill="#1771DF"/>
<path opacity="0.3" d="M176.064 246.318H176.706C176.84 246.308 176.966 246.249 177.06 246.153C177.154 246.057 177.209 245.93 177.216 245.796L181.164 218.304H178.164L175.548 245.616C175.534 245.696 175.536 245.779 175.554 245.858C175.572 245.937 175.607 246.012 175.655 246.078C175.703 246.144 175.765 246.199 175.835 246.24C175.905 246.281 175.983 246.308 176.064 246.318Z" fill="black"/>
<path d="M165.396 185.706H185.604C189.204 173.256 202.092 163.434 215.304 163.434H221.868C235.668 163.434 244.62 174.192 241.8 187.47C241.273 189.913 240.406 192.269 239.226 194.472L236.04 213.786C235.632 216.282 233.64 218.304 231.6 218.304H170.772C168.732 218.304 166.74 216.282 166.332 213.786L162.444 190.2C162.03 187.728 163.356 185.706 165.396 185.706Z" fill="#1771DF"/>
<path opacity="0.5" d="M165.396 185.706H185.604C189.204 173.256 202.092 163.434 215.304 163.434H221.868C235.668 163.434 244.62 174.192 241.8 187.47C241.273 189.913 240.406 192.269 239.226 194.472L236.04 213.786C235.632 216.282 233.64 218.304 231.6 218.304H170.772C168.732 218.304 166.74 216.282 166.332 213.786L162.444 190.2C162.03 187.728 163.356 185.706 165.396 185.706Z" fill="white"/>
<path d="M160.338 239.208L165.342 241.5C165.427 241.536 165.495 241.604 165.531 241.689C165.567 241.774 165.568 241.87 165.534 241.956L163.956 246.03C163.862 246.238 163.689 246.4 163.475 246.481C163.262 246.562 163.025 246.555 162.816 246.462C161.088 245.634 160.302 245.148 158.1 244.14C155.772 242.99 153.524 241.687 151.368 240.24C149.736 239.04 150.936 237.42 151.746 237.78C155.406 239.394 157.746 239.538 159.444 239.13C159.742 239.052 160.058 239.08 160.338 239.208Z" fill="#263238"/>
<path d="M195.828 177.858C195.828 177.858 163.83 178.254 163.332 190.866C162.624 208.998 159.948 239.1 159.948 239.1L165.348 241.5C165.348 241.5 174.804 211.296 175.14 197.136C184.14 194.904 207.282 197.136 210 189.78C211.332 185.954 211.685 181.855 211.026 177.858H195.828Z" fill="#1771DF"/>
<path opacity="0.2" d="M195.828 177.858C195.828 177.858 163.83 178.254 163.332 190.866C162.624 208.998 159.948 239.1 159.948 239.1L165.348 241.5C165.348 241.5 174.804 211.296 175.14 197.136C184.14 194.904 207.282 197.136 210 189.78C211.332 185.954 211.685 181.855 211.026 177.858H195.828Z" fill="black"/>
<path d="M202.638 144.672C202.356 145.836 202.074 146.886 201.756 147.978C201.438 149.07 201.108 150.132 200.76 151.2C200.058 153.336 199.284 155.46 198.396 157.56C197.506 159.707 196.474 161.791 195.306 163.8C194.692 164.862 194.015 165.886 193.278 166.866C192.466 167.951 191.529 168.938 190.488 169.806L190.398 169.884L190.206 170.028C189.6 170.424 188.909 170.67 188.19 170.748C187.738 170.803 187.28 170.803 186.828 170.748C186.199 170.671 185.581 170.522 184.986 170.304C184.063 169.971 183.167 169.57 182.304 169.104C180.764 168.248 179.275 167.302 177.846 166.272C176.454 165.27 175.11 164.232 173.802 163.152C172.494 162.072 171.24 160.968 169.998 159.78C169.679 159.471 169.484 159.056 169.447 158.614C169.411 158.171 169.536 157.73 169.799 157.373C170.063 157.016 170.447 156.766 170.881 156.67C171.315 156.574 171.768 156.639 172.158 156.852H172.188C173.604 157.638 175.032 158.472 176.466 159.252C177.9 160.032 179.316 160.818 180.738 161.55C182.16 162.282 183.588 162.978 184.938 163.542C185.557 163.806 186.197 164.019 186.852 164.178C187.046 164.236 187.249 164.262 187.452 164.256C187.494 164.256 187.452 164.256 187.326 164.256C187.02 164.291 186.728 164.4 186.474 164.574L186.186 164.79C186.777 164.215 187.298 163.572 187.74 162.876C188.266 162.085 188.749 161.266 189.186 160.422C190.106 158.611 190.929 156.752 191.652 154.854C192.39 152.922 193.08 150.942 193.722 148.938C194.364 146.934 194.964 144.876 195.522 142.938V142.866C195.777 141.936 196.387 141.143 197.222 140.659C198.056 140.175 199.048 140.039 199.982 140.28C200.916 140.521 201.717 141.12 202.213 141.948C202.709 142.775 202.859 143.765 202.632 144.702L202.638 144.672Z" fill="#263238"/>
<path d="M189.666 241.8H195.666C195.716 241.798 195.766 241.805 195.814 241.822C195.861 241.84 195.904 241.866 195.941 241.9C195.978 241.934 196.008 241.975 196.028 242.021C196.049 242.066 196.061 242.116 196.062 242.166L196.356 246.912C196.356 247.162 196.258 247.402 196.083 247.58C195.908 247.759 195.67 247.861 195.42 247.866C193.332 247.83 192.33 247.704 189.69 247.704C188.07 247.704 184.794 247.872 182.55 247.872C180.306 247.872 180.372 245.658 181.32 245.472C185.586 244.572 187.236 243.33 188.742 242.142C189.005 241.93 189.329 241.81 189.666 241.8Z" fill="#263238"/>
<path d="M204.45 177.858C204.45 177.858 175.428 180.306 176.142 192.912C176.922 206.712 189.666 241.812 189.666 241.812H195.534C195.534 241.812 190.512 209.67 188.742 195.612C196.926 195.612 215.898 197.148 218.622 189.774C219.954 185.948 220.305 181.849 219.642 177.852L204.45 177.858Z" fill="#1771DF"/>
<path d="M172.608 157.44C172.155 156.703 171.606 156.029 170.976 155.436C169.776 156.552 169.122 159.798 169.122 159.798L170.76 159.942C170.76 159.942 172.644 159.33 172.608 157.44Z" fill="#1771DF"/>
<path d="M166.584 154.524L164.718 153.714C164.475 153.609 164.203 153.596 163.952 153.676C163.7 153.757 163.486 153.926 163.35 154.152L162.462 155.616C162.339 155.822 162.288 156.063 162.315 156.301C162.342 156.54 162.446 156.763 162.612 156.936L165.174 159.606L169.446 159.432C169.687 159.424 169.922 159.351 170.126 159.221C170.329 159.091 170.495 158.909 170.604 158.694L171.096 157.728C171.251 157.437 171.293 157.1 171.214 156.78C171.136 156.46 170.942 156.18 170.67 155.994C169.284 155.082 166.584 154.524 166.584 154.524Z" fill="#AE7461"/>
<path d="M195.552 143.442C194.7 148.842 193.59 160.5 195.852 178.08L219.642 177.858C219.498 165.672 221.406 154.236 223.272 143.058C223.346 142.619 223.331 142.17 223.228 141.737C223.126 141.304 222.937 140.896 222.673 140.537C222.41 140.178 222.077 139.876 221.694 139.649C221.312 139.421 220.887 139.272 220.446 139.212C213.623 138.414 206.731 138.414 199.908 139.212C198.826 139.36 197.819 139.85 197.035 140.611C196.251 141.372 195.732 142.364 195.552 143.442Z" fill="#263238"/>
<path d="M223.488 141.54C224.19 143.274 224.748 144.936 225.324 146.652C225.9 148.368 226.392 150.09 226.866 151.836C227.34 153.582 227.754 155.364 228.066 157.182C228.429 159.038 228.672 160.916 228.792 162.804C228.828 163.29 228.834 163.794 228.84 164.298V165.066C228.831 165.854 228.625 166.628 228.24 167.316C227.984 167.763 227.646 168.158 227.244 168.48C227.057 168.63 226.856 168.763 226.644 168.876C226.452 168.982 226.251 169.07 226.044 169.14C225.48 169.35 224.882 169.455 224.28 169.452C223.568 169.436 222.862 169.325 222.18 169.122C221.182 168.822 220.21 168.438 219.276 167.976C218.406 167.544 217.59 167.094 216.792 166.626C213.69 164.774 210.746 162.668 207.99 160.332C207.643 160.048 207.413 159.646 207.343 159.203C207.273 158.76 207.368 158.307 207.61 157.93C207.852 157.552 208.224 157.277 208.656 157.155C209.088 157.034 209.549 157.076 209.952 157.272H209.994C213.096 158.748 216.252 160.272 219.324 161.538C220.092 161.85 220.854 162.138 221.604 162.396C222.269 162.64 222.953 162.827 223.65 162.954C223.926 163.002 224.172 162.996 224.142 162.954C223.979 162.939 223.816 162.968 223.668 163.038C223.573 163.074 223.481 163.116 223.392 163.164C223.277 163.225 223.169 163.298 223.068 163.38C222.831 163.565 222.627 163.791 222.468 164.046C222.288 164.345 222.181 164.682 222.156 165.03L222.126 164.484C222.09 164.112 222.06 163.746 222.006 163.362C221.506 160.109 220.756 156.9 219.762 153.762C218.802 150.54 217.698 147.252 216.576 144.126V144.096C216.266 143.195 216.318 142.209 216.722 141.346C217.126 140.482 217.849 139.81 218.739 139.47C219.63 139.131 220.617 139.151 221.493 139.526C222.369 139.901 223.065 140.601 223.434 141.48L223.488 141.54Z" fill="#263238"/>
<path d="M213.978 127.146L211.104 129.546L207.18 132.804C207.301 133.323 207.385 133.851 207.432 134.382C207.618 136.278 207.204 138.018 204.906 138.9C204.469 139.043 204.071 139.285 203.742 139.606C203.413 139.928 203.163 140.32 203.01 140.754C202.698 141.756 203.064 142.878 206.22 142.878C210.858 142.878 213.276 140.814 214.188 139.8C214.311 139.659 214.381 139.481 214.389 139.294C214.397 139.108 214.341 138.924 214.23 138.774C212.4 136.158 213.228 130.398 213.978 127.146Z" fill="#AE7461"/>
<path d="M206.106 141.846C206.308 142.079 206.446 142.36 206.508 142.662C206.746 142.339 207.041 142.063 207.378 141.846C207.777 142.034 208.132 142.304 208.418 142.639C208.705 142.974 208.917 143.367 209.04 143.79C208.166 143.611 207.324 143.299 206.544 142.866C206.029 143.151 205.462 143.327 204.876 143.382C204.912 142.344 206.106 141.846 206.106 141.846Z" fill="#1771DF"/>
<path d="M207.378 141.846C208.211 142.849 208.76 144.057 208.968 145.344C208.968 145.344 216.648 143.424 216.288 138.414C215.613 138.095 214.896 137.875 214.158 137.76C214.158 137.76 212.508 140.76 207.378 141.846Z" fill="#1771DF"/>
<path d="M206.106 141.846C205.266 142.857 204.685 144.058 204.414 145.344C204.414 145.344 200.478 141.744 204.312 138.456C204.974 138.246 205.656 138.103 206.346 138.03C206.346 138.03 203.796 140.1 206.106 141.846Z" fill="#1771DF"/>
<path opacity="0.2" d="M207.18 132.786C207.301 133.308 207.385 133.837 207.432 134.37C208.896 134.076 210.846 132.522 211.032 131.028C211.104 130.533 211.122 130.032 211.086 129.534L207.18 132.786Z" fill="black"/>
<path d="M202.98 116.814C199.38 119.376 201.384 125.382 204.468 123.084C207.552 120.786 205.92 114.726 202.98 116.814Z" fill="#263238"/>
<path d="M215.166 122.166C214.164 126.762 213.816 129.498 211.098 131.598C210.222 132.289 209.175 132.728 208.068 132.867C206.961 133.006 205.837 132.84 204.817 132.387C203.798 131.933 202.922 131.21 202.284 130.295C201.646 129.379 201.271 128.307 201.198 127.194C200.838 122.91 202.536 116.106 207.372 114.804C208.413 114.494 209.517 114.463 210.574 114.714C211.631 114.966 212.603 115.491 213.393 116.237C214.182 116.983 214.762 117.923 215.073 118.964C215.384 120.005 215.416 121.109 215.166 122.166Z" fill="#AE7461"/>
<path d="M213.036 118.752C210.486 118.05 203.91 119.724 201.576 117.234C199.074 114.564 202.722 113.262 203.802 114.192C202.44 112.632 202.944 110.964 204.876 111.114C206.286 111.222 206.73 112.782 206.73 112.782C206.73 112.782 206.496 110.052 208.92 110.244C211.116 110.412 211.122 113.376 211.122 113.376C211.122 113.376 216.366 111.894 218.118 116.898C221.418 116.826 221.346 123.774 214.704 126.246C212.01 124.914 211.884 120.174 213.036 118.752Z" fill="#263238"/>
<path d="M217.41 117.9C217.237 117.911 217.067 117.853 216.936 117.74C216.804 117.627 216.722 117.468 216.706 117.295C216.691 117.123 216.743 116.951 216.852 116.816C216.961 116.682 217.118 116.595 217.29 116.574C217.47 116.46 217.608 116.289 217.68 116.088C217.777 115.896 217.833 115.686 217.845 115.471C217.858 115.257 217.826 115.042 217.752 114.84C217.702 114.76 217.669 114.67 217.656 114.576C217.643 114.482 217.651 114.387 217.678 114.296C217.705 114.205 217.751 114.121 217.813 114.05C217.875 113.978 217.952 113.92 218.038 113.881C218.124 113.841 218.217 113.821 218.312 113.82C218.407 113.819 218.501 113.839 218.587 113.878C218.674 113.916 218.751 113.973 218.814 114.043C218.877 114.114 218.924 114.198 218.952 114.288C219.115 114.69 219.187 115.122 219.162 115.555C219.137 115.988 219.016 116.41 218.808 116.79C218.691 117.059 218.513 117.298 218.29 117.488C218.066 117.678 217.802 117.815 217.518 117.888C217.483 117.897 217.446 117.901 217.41 117.9Z" fill="#263238"/>
<path d="M215.916 126.432C215.292 127.242 214.394 127.797 213.39 127.992C212.088 128.226 211.692 127.026 212.268 125.868C212.784 124.818 214.068 123.438 215.268 123.738C216.468 124.038 216.684 125.4 215.916 126.432Z" fill="#AE7461"/>
<path d="M207.288 122.586C207.228 122.964 206.982 123.246 206.736 123.216C206.49 123.186 206.334 122.856 206.388 122.478C206.442 122.1 206.694 121.818 206.946 121.878C207.198 121.938 207.342 122.208 207.288 122.586Z" fill="#263238"/>
<path d="M203.004 122.076C202.944 122.454 202.698 122.736 202.452 122.676C202.206 122.616 202.05 122.316 202.104 121.938C202.158 121.56 202.41 121.278 202.662 121.308C202.914 121.338 203.064 121.698 203.004 122.076Z" fill="#263238"/>
<path d="M204.312 122.226C203.835 123.2 203.23 124.106 202.512 124.92C202.725 125.09 202.972 125.211 203.236 125.274C203.501 125.337 203.776 125.341 204.042 125.286L204.312 122.226Z" fill="#7F3E3B"/>
<path d="M205.8 127.23C206.246 127.236 206.688 127.152 207.101 126.983C207.513 126.814 207.887 126.563 208.2 126.246C208.215 126.223 208.221 126.196 208.217 126.169C208.214 126.142 208.201 126.117 208.18 126.099C208.16 126.081 208.134 126.071 208.107 126.07C208.08 126.07 208.053 126.079 208.032 126.096C207.69 126.435 207.274 126.69 206.818 126.843C206.361 126.996 205.875 127.042 205.398 126.978C205.369 126.976 205.34 126.985 205.317 127.002C205.294 127.02 205.278 127.045 205.272 127.074C205.271 127.089 205.272 127.104 205.276 127.119C205.28 127.133 205.287 127.147 205.297 127.158C205.306 127.17 205.318 127.18 205.331 127.187C205.345 127.194 205.359 127.199 205.374 127.2C205.516 127.218 205.658 127.228 205.8 127.23Z" fill="#263238"/>
<path d="M209.01 120.408C209.046 120.401 209.079 120.384 209.106 120.36C209.127 120.339 209.144 120.315 209.156 120.287C209.167 120.26 209.173 120.231 209.173 120.201C209.173 120.171 209.167 120.142 209.156 120.115C209.144 120.087 209.127 120.063 209.106 120.042C208.878 119.773 208.588 119.564 208.26 119.435C207.933 119.305 207.578 119.258 207.228 119.298C207.199 119.303 207.171 119.313 207.146 119.329C207.121 119.344 207.099 119.365 207.082 119.388C207.064 119.412 207.052 119.44 207.045 119.468C207.038 119.497 207.037 119.527 207.042 119.556C207.047 119.585 207.057 119.613 207.073 119.638C207.088 119.663 207.108 119.685 207.132 119.702C207.156 119.72 207.184 119.732 207.212 119.739C207.241 119.746 207.271 119.747 207.3 119.742C207.576 119.715 207.855 119.756 208.112 119.86C208.369 119.965 208.597 120.13 208.776 120.342C208.804 120.375 208.842 120.398 208.883 120.41C208.925 120.422 208.969 120.421 209.01 120.408Z" fill="#263238"/>
<path d="M201.474 120.162C201.509 120.172 201.546 120.173 201.581 120.166C201.616 120.158 201.65 120.143 201.678 120.12C201.893 119.929 202.15 119.79 202.428 119.715C202.706 119.64 202.998 119.631 203.28 119.688C203.337 119.703 203.398 119.695 203.449 119.666C203.501 119.637 203.539 119.589 203.556 119.532C203.564 119.504 203.567 119.474 203.563 119.445C203.56 119.415 203.55 119.387 203.536 119.361C203.521 119.336 203.502 119.313 203.479 119.295C203.455 119.277 203.428 119.264 203.4 119.256C203.048 119.18 202.684 119.188 202.336 119.278C201.988 119.369 201.666 119.54 201.396 119.778C201.351 119.815 201.322 119.869 201.316 119.928C201.311 119.986 201.329 120.045 201.366 120.09C201.394 120.125 201.431 120.15 201.474 120.162Z" fill="#263238"/>
<path d="M209.286 154.164L206.658 152.532C206.471 152.415 206.263 152.337 206.045 152.301C205.827 152.266 205.605 152.274 205.391 152.325C205.176 152.377 204.974 152.47 204.796 152.601C204.618 152.731 204.468 152.895 204.354 153.084L204.048 153.6C203.865 153.901 203.783 154.252 203.813 154.602C203.843 154.953 203.985 155.285 204.216 155.55L206.016 157.632C206.016 157.632 207.594 161.31 209.424 160.338L210.816 157.938L209.286 154.164Z" fill="#AE7461"/>
<path d="M211.992 158.868C211.632 157.997 211.165 157.175 210.6 156.42C209.28 157.548 208.2 161.148 208.2 161.148L209.814 161.496C210.401 161.331 210.924 160.991 211.313 160.522C211.702 160.052 211.939 159.475 211.992 158.868Z" fill="#1771DF"/>
<path d="M232.098 185.706H200.946C198.906 185.706 197.586 187.728 197.994 190.224L201.882 213.786C202.296 216.282 204.282 218.304 206.328 218.304H228.24L232.098 185.706Z" fill="#1771DF"/>
<path opacity="0.5" d="M232.098 185.706H200.946C198.906 185.706 197.586 187.728 197.994 190.224L201.882 213.786C202.296 216.282 204.282 218.304 206.328 218.304H228.24L232.098 185.706Z" fill="white"/>
<path d="M88.3682 248.34H89.2682C89.4273 248.34 89.5799 248.277 89.6925 248.164C89.805 248.052 89.8682 247.899 89.8682 247.74L94.8002 173.4H91.0862L87.7862 247.656C87.7743 247.74 87.7804 247.826 87.804 247.907C87.8276 247.989 87.8683 248.064 87.9233 248.129C87.9783 248.194 88.0464 248.246 88.1231 248.282C88.1998 248.319 88.2833 248.338 88.3682 248.34Z" fill="#1771DF"/>
<path opacity="0.3" d="M88.3682 248.34H89.2682C89.4273 248.34 89.5799 248.277 89.6925 248.164C89.805 248.052 89.8682 247.899 89.8682 247.74L94.8002 173.4H91.0862L87.7862 247.656C87.7743 247.74 87.7804 247.826 87.804 247.907C87.8276 247.989 87.8683 248.064 87.9233 248.129C87.9783 248.194 88.0464 248.246 88.1231 248.282C88.1998 248.319 88.2833 248.338 88.3682 248.34Z" fill="white"/>
<path d="M78.168 248.34H79.068C79.2271 248.34 79.3797 248.277 79.4923 248.164C79.6048 248.052 79.668 247.899 79.668 247.74L84.6 173.4H80.88L77.586 247.656C77.5741 247.74 77.5802 247.826 77.6038 247.907C77.6274 247.989 77.6681 248.064 77.7231 248.129C77.7781 248.194 77.8462 248.246 77.9229 248.282C77.9996 248.319 78.0831 248.338 78.168 248.34Z" fill="#1771DF"/>
<path opacity="0.3" d="M78.168 248.34H79.068C79.2271 248.34 79.3797 248.277 79.4923 248.164C79.6048 248.052 79.668 247.899 79.668 247.74L84.6 173.4H80.88L77.586 247.656C77.5741 247.74 77.5802 247.826 77.6038 247.907C77.6274 247.989 77.6681 248.064 77.7231 248.129C77.7781 248.194 77.8462 248.246 77.9229 248.282C77.9996 248.319 78.0831 248.338 78.168 248.34Z" fill="white"/>
<path d="M203.958 248.34H203.058C202.899 248.34 202.746 248.277 202.634 248.164C202.521 248.052 202.458 247.899 202.458 247.74L197.526 173.4H201.24L204.54 247.656C204.552 247.74 204.546 247.826 204.522 247.907C204.498 247.989 204.458 248.064 204.403 248.129C204.348 248.194 204.28 248.246 204.203 248.282C204.126 248.319 204.043 248.338 203.958 248.34Z" fill="#1771DF"/>
<path opacity="0.3" d="M203.958 248.34H203.058C202.899 248.34 202.746 248.277 202.634 248.164C202.521 248.052 202.458 247.899 202.458 247.74L197.526 173.4H201.24L204.54 247.656C204.552 247.74 204.546 247.826 204.522 247.907C204.498 247.989 204.458 248.064 204.403 248.129C204.348 248.194 204.28 248.246 204.203 248.282C204.126 248.319 204.043 248.338 203.958 248.34Z" fill="white"/>
<path d="M214.158 248.34H213.258C213.099 248.34 212.946 248.277 212.834 248.164C212.721 248.052 212.658 247.899 212.658 247.74L207.726 173.4H211.446L214.74 247.656C214.752 247.74 214.746 247.826 214.722 247.907C214.699 247.989 214.658 248.064 214.603 248.129C214.548 248.194 214.48 248.246 214.403 248.282C214.326 248.319 214.243 248.338 214.158 248.34Z" fill="#1771DF"/>
<path opacity="0.3" d="M214.158 248.34H213.258C213.099 248.34 212.946 248.277 212.834 248.164C212.721 248.052 212.658 247.899 212.658 247.74L207.726 173.4H211.446L214.74 247.656C214.752 247.74 214.746 247.826 214.722 247.907C214.699 247.989 214.658 248.064 214.603 248.129C214.548 248.194 214.48 248.246 214.403 248.282C214.326 248.319 214.243 248.338 214.158 248.34Z" fill="white"/>
<path d="M218.448 171.888H73.668V173.418H218.448V171.888Z" fill="#1771DF"/>
<path d="M71.2561 148.2L69.8881 158.262C69.4561 161.61 69.0061 164.97 68.6881 168.27C68.6461 168.684 68.6161 169.086 68.5801 169.47L68.5321 170.07C68.542 169.97 68.542 169.87 68.5321 169.77C68.5207 169.674 68.4986 169.579 68.4661 169.488C68.4416 169.416 68.4115 169.346 68.3761 169.278C68.3522 169.23 68.3241 169.183 68.2921 169.14C68.1841 169.002 68.1721 169.02 68.2021 169.05C68.2634 169.115 68.3318 169.174 68.4061 169.224C68.6586 169.397 68.9233 169.551 69.1981 169.686C70.6261 170.339 72.1 170.886 73.6081 171.324C76.7521 172.278 80.0581 173.124 83.3221 173.91L82.9501 176.772C79.4606 176.667 75.9834 176.308 72.5461 175.698C70.7249 175.392 68.9354 174.92 67.2001 174.288C66.6902 174.091 66.195 173.859 65.7181 173.592C65.4237 173.424 65.1428 173.234 64.8781 173.022C64.511 172.731 64.1895 172.388 63.9241 172.002C63.733 171.717 63.5797 171.408 63.4681 171.084C63.4067 170.887 63.3586 170.687 63.3241 170.484C63.3021 170.285 63.2901 170.084 63.2881 169.884V169.218C63.2881 168.774 63.2881 168.33 63.3241 167.892C63.4681 164.388 63.7861 160.968 64.1581 157.548C64.5301 154.128 64.9621 150.738 65.4961 147.348L71.2561 148.2Z" fill="#7F3E3B"/>
<path d="M90.8462 177L88.6442 179.01C88.3923 179.239 88.078 179.387 87.7413 179.436C87.4046 179.486 87.0609 179.433 86.7541 179.286L84.3241 178.116C84.3241 178.116 80.7241 177.966 80.2021 175.764L81.1381 174.054L86.7241 173.454C87.2975 173.392 87.8751 173.521 88.3681 173.82L90.6721 175.23C90.817 175.322 90.939 175.445 91.0289 175.591C91.1189 175.737 91.1743 175.902 91.1911 176.073C91.2079 176.243 91.1855 176.415 91.1258 176.576C91.066 176.737 90.9704 176.882 90.8462 177Z" fill="#7F3E3B"/>
<path d="M77.6699 127.536C78.2699 130.992 78.7259 137.298 76.2539 139.536C76.2539 139.536 82.2539 142.692 86.2319 148.2C90.4319 144.852 86.9219 139.854 86.9219 139.854C83.1179 138.828 83.3219 135.99 84.0479 133.344L77.6699 127.536Z" fill="#7F3E3B"/>
<path d="M88.9439 141.954C88.9439 141.954 88.6259 139.026 87.0299 137.58C85.6919 136.38 78.6299 137.04 76.4279 137.286C76.2234 137.311 76.0283 137.386 75.8606 137.506C75.6929 137.625 75.5578 137.785 75.4679 137.97L73.8599 141.33L88.9439 141.954Z" fill="url(#paint0_linear_204_3628)"/>
<path opacity="0.8" d="M88.9439 141.954C88.9439 141.954 88.6259 139.026 87.0299 137.58C85.6919 136.38 78.6299 137.04 76.4279 137.286C76.2234 137.311 76.0283 137.386 75.8606 137.506C75.6929 137.625 75.5578 137.785 75.4679 137.97L73.8599 141.33L88.9439 141.954Z" fill="white"/>
<path d="M69.4381 140.4C65.0941 141.816 64.1581 147.642 64.5541 152.172L73.3201 157.572C73.3201 157.572 75.4501 150.972 75.4321 147.42C75.4141 143.664 72.3901 139.452 69.4381 140.4Z" fill="url(#paint1_linear_204_3628)"/>
<path d="M71.136 156.258C71.0255 156.26 70.9156 156.241 70.8127 156.201C70.7097 156.161 70.6157 156.101 70.536 156.024C70.5003 155.985 70.4681 155.943 70.44 155.898C70.407 155.854 70.3807 155.806 70.362 155.754C70.3424 155.705 70.3264 155.655 70.314 155.604C70.3081 155.552 70.3081 155.5 70.314 155.448C70.3114 155.337 70.3313 155.227 70.3726 155.123C70.4138 155.02 70.4755 154.927 70.554 154.848C70.7098 154.701 70.9159 154.619 71.13 154.619C71.3441 154.619 71.5501 154.701 71.706 154.848C71.7845 154.927 71.8462 155.02 71.8874 155.123C71.9287 155.227 71.9486 155.337 71.946 155.448C71.9519 155.5 71.9519 155.552 71.946 155.604C71.9367 155.656 71.9205 155.706 71.898 155.754C71.8813 155.805 71.8571 155.854 71.826 155.898L71.724 156.024C71.6465 156.1 71.5546 156.16 71.4536 156.2C71.3526 156.241 71.2446 156.26 71.136 156.258Z" fill="white"/>
<path d="M69.4499 155.706C69.3008 155.649 69.1718 155.548 69.079 155.418C68.9862 155.288 68.9337 155.134 68.9279 154.974C68.8104 155.081 68.6639 155.15 68.5069 155.173C68.35 155.197 68.1896 155.174 68.0459 155.106C67.9025 155.039 67.7815 154.932 67.6974 154.798C67.6133 154.664 67.5698 154.508 67.5719 154.35C67.4485 154.45 67.298 154.511 67.1398 154.525C66.9816 154.538 66.8229 154.505 66.6839 154.428C66.5446 154.354 66.4301 154.24 66.3544 154.102C66.2787 153.963 66.2452 153.805 66.2579 153.648C66.128 153.739 65.9742 153.791 65.8154 153.796C65.6566 153.802 65.4997 153.761 65.3639 153.678C65.18 153.566 65.0477 153.386 64.996 153.177C64.9443 152.968 64.9774 152.747 65.0879 152.562C65.201 152.378 65.3822 152.245 65.5923 152.194C65.8023 152.142 66.0242 152.175 66.2099 152.286C66.3373 152.366 66.4407 152.48 66.5093 152.614C66.5779 152.748 66.6092 152.898 66.5999 153.048C66.7225 152.96 66.8675 152.908 67.0182 152.899C67.1688 152.889 67.3192 152.922 67.4519 152.994C67.5847 153.066 67.6953 153.172 67.7715 153.302C67.8476 153.433 67.8866 153.581 67.8839 153.732C68.0015 153.638 68.143 153.579 68.2924 153.561C68.4419 153.543 68.5934 153.567 68.7299 153.63C68.8665 153.693 68.983 153.792 69.0667 153.917C69.1503 154.042 69.1978 154.188 69.2039 154.338C69.3171 154.239 69.4551 154.173 69.6031 154.146C69.7511 154.12 69.9035 154.134 70.0439 154.188C70.244 154.268 70.4042 154.424 70.4896 154.622C70.5751 154.82 70.5788 155.043 70.4999 155.244C70.4406 155.396 70.3367 155.527 70.2018 155.619C70.0669 155.711 69.9073 155.76 69.7439 155.76C69.6436 155.759 69.5441 155.741 69.4499 155.706Z" fill="white"/>
<path d="M64.554 153C64.5001 153.006 64.4458 153.006 64.392 153C64.3401 152.991 64.2896 152.975 64.242 152.952C64.1906 152.935 64.1421 152.911 64.098 152.88L63.978 152.778C63.9391 152.742 63.9049 152.702 63.876 152.658C63.876 152.61 63.822 152.562 63.798 152.514C63.7793 152.465 63.7632 152.415 63.75 152.364C63.747 152.31 63.747 152.256 63.75 152.202C63.7468 152.15 63.7468 152.098 63.75 152.046C63.7632 151.993 63.7792 151.941 63.798 151.89C63.8177 151.841 63.844 151.794 63.876 151.752C63.9063 151.707 63.9404 151.665 63.978 151.626L64.098 151.524C64.1434 151.495 64.1917 151.471 64.242 151.452L64.392 151.404C64.5228 151.38 64.6574 151.388 64.7847 151.427C64.912 151.465 65.0282 151.534 65.124 151.626C65.1615 151.665 65.1956 151.707 65.226 151.752C65.2555 151.796 65.2816 151.842 65.304 151.89C65.3235 151.94 65.3376 151.993 65.346 152.046C65.3522 152.098 65.3522 152.15 65.346 152.202C65.3519 152.256 65.3519 152.31 65.346 152.364C65.3376 152.415 65.3235 152.466 65.304 152.514C65.304 152.562 65.256 152.61 65.226 152.658C65.1971 152.702 65.1628 152.742 65.124 152.778C64.9696 152.923 64.7654 153.002 64.554 153Z" fill="white"/>
<path d="M97.0619 148.878C96.6959 153.87 95.5859 162.27 92.8619 176.418L69.3779 175.722C69.9779 167.052 69.0599 160.59 66.9359 145.416C66.8454 144.759 66.888 144.091 67.0612 143.452C67.2344 142.812 67.5345 142.214 67.9438 141.693C68.3531 141.171 68.8631 140.738 69.4434 140.418C70.0238 140.098 70.6626 139.898 71.3219 139.83C72.8279 139.674 74.5439 139.548 76.2659 139.512C79.8249 139.365 83.3899 139.471 86.9339 139.83C88.0739 139.968 89.2559 140.154 90.3839 140.346C92.3589 140.682 94.1377 141.743 95.3725 143.321C96.6074 144.899 97.2097 146.88 97.0619 148.878Z" fill="url(#paint2_linear_204_3628)"/>
<path d="M89.8202 121.2C89.8742 121.662 90.1682 122.01 90.4682 121.968C90.7682 121.926 90.9722 121.53 90.9182 121.068C90.8642 120.606 90.5702 120.258 90.2702 120.294C89.9702 120.33 89.7662 120.72 89.8202 121.2Z" fill="#263238"/>
<path d="M90.1382 120.324L91.2122 119.868C91.2122 119.868 90.7442 120.804 90.1382 120.324Z" fill="#263238"/>
<path d="M90 121.902C90.5389 122.909 91.2131 123.838 92.004 124.662C91.7887 124.86 91.5326 125.008 91.2537 125.096C90.9748 125.184 90.68 125.21 90.39 125.172L90 121.902Z" fill="#630F0F"/>
<path d="M89.874 117.126C89.8977 117.084 89.9101 117.036 89.9101 116.988C89.9101 116.94 89.8977 116.892 89.874 116.85C89.8417 116.785 89.7853 116.736 89.7168 116.712C89.6483 116.689 89.5733 116.693 89.508 116.724C89.11 116.901 88.7605 117.171 88.489 117.511C88.2174 117.852 88.0319 118.253 87.948 118.68C87.943 118.716 87.945 118.752 87.9541 118.786C87.9632 118.821 87.9791 118.854 88.0008 118.882C88.0226 118.911 88.0499 118.934 88.081 118.952C88.1121 118.97 88.1464 118.982 88.182 118.986C88.2175 118.991 88.2537 118.989 88.2884 118.98C88.3231 118.971 88.3556 118.955 88.3841 118.933C88.4126 118.911 88.4364 118.884 88.4543 118.853C88.4721 118.822 88.4836 118.788 88.488 118.752C88.561 118.415 88.7127 118.1 88.9306 117.833C89.1486 117.567 89.4266 117.355 89.742 117.216C89.7954 117.203 89.8423 117.171 89.874 117.126Z" fill="#263238"/>
<path d="M73.8358 121.08C74.8678 126.726 75.1858 129.138 78.4078 131.718C83.2558 135.594 89.9698 133.092 90.6478 127.248C91.2478 121.986 89.4478 113.634 83.6278 112.038C82.3415 111.68 80.985 111.657 79.6872 111.971C78.3894 112.285 77.1933 112.925 76.2124 113.831C75.2314 114.736 74.4982 115.878 74.0823 117.147C73.6664 118.415 73.5815 119.769 73.8358 121.08Z" fill="#7F3E3B"/>
<path d="M86.2801 122.664C87.2281 125.766 89.4961 133.266 84.4801 134.94C80.5621 136.248 68.2801 137.292 66.8701 130.098C65.4121 122.664 72.0421 117.366 72.0421 117.366C72.0421 117.366 66.7861 113.058 70.1521 108.366C74.4901 102.318 84.8821 105.738 87.9601 110.01C90.9661 114.168 86.2801 122.664 86.2801 122.664Z" fill="#263238"/>
<path d="M76.8 135.972C74.5371 135.97 72.2959 135.529 70.2 134.676C67.416 133.476 65.79 131.622 65.496 129.312C64.512 121.47 71.808 117.162 71.886 117.12L72.174 117.618C72.102 117.66 65.136 121.782 66.072 129.24C66.408 131.886 68.628 133.368 70.434 134.142C73.998 135.678 78.6 135.666 79.716 134.85L80.058 135.318C79.494 135.744 78.27 135.972 76.8 135.972Z" fill="#263238"/>
<path d="M69.7859 116.244C69.7199 117.246 68.8919 118.644 72.3659 119.142C75.8399 119.64 80.6759 119.61 81.6719 118.776C82.6679 117.942 83.6399 115.938 81.5639 116.118C79.4879 116.298 69.8999 114.528 69.7859 116.244Z" fill="url(#paint3_linear_204_3628)"/>
<path d="M84.3781 123.546C84.9451 124.594 85.9022 125.377 87.0421 125.724C88.5541 126.168 89.3341 124.818 88.9321 123.378C88.5661 122.082 87.3361 120.288 85.8121 120.474C84.2881 120.66 83.7001 122.256 84.3781 123.546Z" fill="#7F3E3B"/>
<path d="M120.984 242.136L126.552 242.028L123.858 228.132L118.29 228.234L120.984 242.136Z" fill="#7F3E3B"/>
<path d="M125.16 236.082C126.63 241.632 132.048 247.482 132.048 247.482L124.32 245.514L120.942 240.714L121.542 239.442L125.16 236.082Z" fill="#7F3E3B"/>
<path d="M119.67 238.662C119.654 239.312 119.692 239.962 119.784 240.606C120.114 242.898 121.122 249.006 121.122 249.006H121.65C121.411 247.147 121.269 245.276 121.224 243.402C121.296 241.896 122.268 244.56 123.444 246.072C124.62 247.584 126.738 248.958 130.164 249.072C134.172 249.198 135.774 249.03 134.49 248.028C133.206 247.026 130.47 246.378 130.47 246.378C128.263 245.433 126.384 243.857 125.07 241.848C123.773 240.043 122.069 238.569 120.096 237.546C119.76 237.564 119.694 238.2 119.67 238.662Z" fill="#263238"/>
<path d="M140.706 223.254L147.81 223.476L139.86 211.656L134.94 215.862L140.706 223.254Z" fill="#7F3E3B"/>
<path d="M142.392 218.238C147.558 220.638 155.826 220.17 155.826 220.17L149.106 225.57L143.34 225.138L142.74 223.86L142.392 218.238Z" fill="#7F3E3B"/>
<path d="M141.3 224.364C141.765 224.816 142.267 225.23 142.8 225.6C144.684 226.914 149.778 230.28 149.778 230.28L150.102 229.866C148.585 228.776 147.125 227.608 145.728 226.368C144.66 225.276 147.222 226.338 149.058 226.446C150.894 226.554 153.21 225.846 155.4 223.206C157.974 220.14 158.832 218.766 157.308 219.09C155.784 219.414 153.612 221.118 153.612 221.118C151.572 222.21 149.235 222.618 146.946 222.282C144.819 222.066 142.673 222.398 140.712 223.248C140.55 223.548 140.952 224.016 141.3 224.364Z" fill="#263238"/>
<path d="M84.6602 176.01C84.6602 176.01 122.676 170.4 126.6 180.132C133.452 197.088 143.118 216.516 143.118 216.516L138.45 220.38C138.45 220.38 121.872 205.032 115.98 187.98C108.936 190.26 86.5262 197.58 78.3182 197.58C69.5522 197.58 65.9702 190.11 69.1382 177.696C69.2769 177.164 69.5874 176.693 70.0213 176.355C70.4553 176.018 70.9885 175.833 71.5382 175.83C77.1002 175.884 84.6602 176.01 84.6602 176.01Z" fill="#263238"/>
<path d="M88.3018 180.96C88.3018 180.96 119.502 180.024 119.772 191.076C120.204 209.358 125.358 235.554 125.358 235.554L119.664 236.082C119.664 236.082 110.358 215.244 107.898 197.4C96.7858 198.12 86.5378 197.622 78.3298 197.622C69.1318 197.622 68.3698 187.524 77.3218 175.734C82.7998 175.722 88.3018 180.96 88.3018 180.96Z" fill="#263238"/>
<path d="M69.0538 174.33L68.3998 176.4C68.3098 176.562 68.4958 176.73 68.7718 176.742L92.9398 177.456C93.1498 177.456 93.3298 177.366 93.3478 177.234L93.6238 175.14C93.6238 174.99 93.4618 174.864 93.2278 174.858L69.4498 174.15C69.3738 174.142 69.2968 174.154 69.2271 174.186C69.1575 174.217 69.0976 174.267 69.0538 174.33Z" fill="white"/>
<path d="M72.1678 177.084H71.5318C71.4058 177.084 71.3098 177.012 71.3218 176.934L71.6998 174.21C71.6998 174.132 71.8258 174.072 71.9518 174.072H72.5878C72.7138 174.072 72.8098 174.144 72.7978 174.222L72.4198 176.94C72.4078 177.03 72.2938 177.09 72.1678 177.084Z" fill="#263238"/>
<path d="M91.1341 177.654H90.4981C90.3721 177.654 90.2761 177.582 90.2881 177.504L90.6721 174.78C90.6721 174.702 90.7921 174.642 90.9181 174.642H91.5541C91.6861 174.642 91.7761 174.714 91.7701 174.792L91.3861 177.516C91.3741 177.6 91.2661 177.654 91.1341 177.654Z" fill="#263238"/>
<path d="M81.6542 177.366H81.0182C80.8862 177.366 80.7962 177.294 80.8082 177.216L81.1862 174.492C81.1862 174.414 81.3122 174.354 81.4382 174.354H82.0742C82.2002 174.354 82.2962 174.426 82.2842 174.504L81.9062 177.228C81.8942 177.312 81.7802 177.372 81.6542 177.366Z" fill="#263238"/>
<path d="M110.598 150.966H125.772C125.885 150.966 125.996 150.993 126.097 151.043C126.198 151.094 126.286 151.167 126.354 151.257C126.422 151.347 126.468 151.452 126.489 151.562C126.51 151.673 126.505 151.787 126.474 151.896L120.798 171.366C120.755 171.517 120.664 171.65 120.538 171.744C120.412 171.838 120.259 171.889 120.102 171.888H104.922C104.809 171.889 104.697 171.864 104.596 171.813C104.494 171.763 104.406 171.69 104.338 171.599C104.271 171.509 104.225 171.404 104.206 171.292C104.186 171.181 104.193 171.066 104.226 170.958L109.896 151.488C109.94 151.336 110.033 151.204 110.16 151.109C110.286 151.015 110.44 150.965 110.598 150.966Z" fill="url(#paint4_linear_204_3628)"/>
<path d="M110.874 151.68L125.628 152.028L119.802 170.394L105.048 170.04L110.874 151.68Z" fill="#E0E0E0"/>
<path d="M110.412 151.5L125.166 151.56L119.7 170.034L104.946 169.974L110.412 151.5Z" fill="white"/>
<path d="M97.1039 151.884C97.1039 152.484 97.1939 153.192 97.2419 153.858C97.2899 154.524 97.3799 155.22 97.4699 155.898C97.6379 157.254 97.8619 158.59 98.1419 159.906C98.4111 161.189 98.768 162.452 99.2099 163.686C99.4319 164.286 99.6779 164.886 99.9419 165.414C100.074 165.69 100.218 165.948 100.362 166.212L100.584 166.578C100.859 166.829 101.184 167.019 101.538 167.136C102.1 167.354 102.677 167.528 103.266 167.658C104.591 167.938 105.931 168.138 107.28 168.258C110.052 168.528 112.95 168.66 115.782 168.72L116.07 171.594C113.121 172.179 110.129 172.518 107.124 172.608C105.563 172.656 104.001 172.592 102.45 172.416C101.6 172.312 100.759 172.141 99.9359 171.906C98.8832 171.627 97.9042 171.121 97.0679 170.424C96.7878 170.182 96.5344 169.91 96.3119 169.614L95.9279 169.074C95.6819 168.714 95.4419 168.354 95.2379 167.988C94.8103 167.274 94.4314 166.533 94.1039 165.768C93.4633 164.301 92.9455 162.784 92.5559 161.232C92.1674 159.723 91.8689 158.192 91.6619 156.648C91.5599 155.886 91.4819 155.118 91.4159 154.344C91.3499 153.57 91.3079 152.832 91.2959 151.944L97.1039 151.884Z" fill="#7F3E3B"/>
<path d="M95.1299 143.034C98.9099 146.592 97.9979 155.862 97.9979 155.862L90.7619 157.128C90.7619 157.128 86.2919 150.48 87.8639 147.696C89.4959 144.792 93.0899 141.108 95.1299 143.034Z" fill="url(#paint5_linear_204_3628)"/>
<path d="M97.9982 156.678C97.8872 156.68 97.777 156.66 97.674 156.618C97.5709 156.577 97.4772 156.516 97.3982 156.438C97.3595 156.4 97.3253 156.358 97.2962 156.312C97.2686 156.268 97.2445 156.222 97.2242 156.174C97.2119 156.117 97.2039 156.059 97.2002 156C97.197 155.948 97.197 155.896 97.2002 155.844C97.1964 155.733 97.2152 155.623 97.2555 155.52C97.2957 155.417 97.3565 155.323 97.4342 155.244C97.4734 155.207 97.5156 155.173 97.5602 155.142C97.6028 155.112 97.6492 155.088 97.6982 155.07C97.7483 155.049 97.8006 155.032 97.8542 155.022C97.9721 154.999 98.0936 155.002 98.2101 155.032C98.3266 155.061 98.4351 155.116 98.5279 155.192C98.6208 155.268 98.6957 155.364 98.7472 155.473C98.7988 155.581 98.8257 155.7 98.8262 155.82C98.8324 155.872 98.8324 155.924 98.8262 155.976C98.8166 156.03 98.8004 156.082 98.7782 156.132C98.7603 156.181 98.736 156.227 98.7062 156.27C98.677 156.316 98.6428 156.358 98.6042 156.396C98.5285 156.483 98.4355 156.553 98.3311 156.601C98.2267 156.65 98.1133 156.676 97.9982 156.678Z" fill="white"/>
<path d="M91.4219 157.11C91.4036 156.894 91.4717 156.68 91.6112 156.515C91.7507 156.35 91.9503 156.246 92.1659 156.228C92.3161 156.214 92.4673 156.243 92.602 156.311C92.7368 156.378 92.8497 156.483 92.9279 156.612C92.9763 156.469 93.0628 156.342 93.178 156.245C93.2933 156.148 93.4329 156.084 93.5819 156.06C93.7316 156.04 93.884 156.061 94.0226 156.121C94.1611 156.182 94.2805 156.279 94.3679 156.402C94.402 156.256 94.4762 156.122 94.5823 156.016C94.6883 155.91 94.8219 155.836 94.9679 155.802C95.116 155.771 95.2698 155.782 95.4119 155.834C95.554 155.886 95.6787 155.977 95.7719 156.096C95.8072 155.951 95.8819 155.818 95.9877 155.712C96.0936 155.606 96.2265 155.531 96.3719 155.496C96.4767 155.468 96.586 155.462 96.6934 155.477C96.8007 155.493 96.9039 155.529 96.9968 155.585C97.0897 155.641 97.1704 155.715 97.2341 155.803C97.2979 155.891 97.3434 155.99 97.3679 156.096C97.3947 156.201 97.4005 156.31 97.3848 156.417C97.3691 156.524 97.3322 156.627 97.2764 156.72C97.2205 156.812 97.1468 156.893 97.0595 156.957C96.9722 157.021 96.8731 157.067 96.7679 157.092C96.6147 157.131 96.4534 157.126 96.3033 157.076C96.1532 157.026 96.0208 156.933 95.9219 156.81C95.8881 156.965 95.81 157.107 95.6971 157.219C95.5843 157.331 95.4414 157.408 95.2859 157.44C95.1302 157.469 94.9694 157.453 94.8227 157.393C94.6759 157.334 94.5493 157.233 94.4579 157.104C94.4182 157.258 94.3339 157.398 94.2154 157.505C94.097 157.611 93.9496 157.681 93.7919 157.704C93.6347 157.727 93.4744 157.703 93.3305 157.636C93.1866 157.569 93.0655 157.461 92.9819 157.326C92.9305 157.476 92.8369 157.608 92.7124 157.706C92.5878 157.804 92.4376 157.863 92.2799 157.878H92.2139C92.0101 157.871 91.8162 157.789 91.6699 157.647C91.5235 157.505 91.4351 157.313 91.4219 157.11Z" fill="white"/>
<path d="M90.7621 157.944C90.7083 157.95 90.654 157.95 90.6001 157.944L90.4501 157.896C90.4004 157.876 90.3523 157.852 90.3061 157.824L90.1861 157.722C90.1458 157.686 90.1114 157.643 90.0841 157.596C90.0546 157.552 90.0285 157.506 90.0061 157.458C89.9866 157.408 89.9725 157.355 89.9641 157.302C89.9579 157.25 89.9579 157.198 89.9641 157.146C89.9582 157.092 89.9582 157.038 89.9641 156.984C89.9725 156.933 89.9866 156.882 90.0061 156.834C90.0061 156.786 90.0541 156.738 90.0841 156.69C90.113 156.646 90.1473 156.606 90.1861 156.57L90.3061 156.468C90.351 156.438 90.3993 156.414 90.4501 156.396C90.4978 156.373 90.5482 156.357 90.6001 156.348C90.731 156.321 90.8664 156.328 90.9942 156.366C91.122 156.405 91.2382 156.475 91.3321 156.57C91.371 156.606 91.4052 156.646 91.4341 156.69C91.4641 156.738 91.4881 156.786 91.5121 156.834C91.5309 156.883 91.5469 156.933 91.5601 156.984C91.5631 157.038 91.5631 157.092 91.5601 157.146C91.5633 157.198 91.5633 157.25 91.5601 157.302C91.5469 157.355 91.5309 157.407 91.5121 157.458C91.4897 157.506 91.4637 157.552 91.4341 157.596C91.4053 157.642 91.3711 157.684 91.3321 157.722C91.1778 157.867 90.9736 157.946 90.7621 157.944Z" fill="white"/>
<path d="M122.52 165.732L120.012 165.564C119.387 165.52 118.766 165.687 118.248 166.038L113.646 169.128L113.61 171.078C115.086 172.794 118.35 171.258 118.35 171.258L121.38 171.156C121.621 171.15 121.855 171.071 122.051 170.93C122.247 170.788 122.396 170.591 122.478 170.364L123.576 167.364C123.644 167.187 123.67 166.997 123.651 166.808C123.631 166.619 123.567 166.438 123.464 166.278C123.361 166.119 123.222 165.987 123.058 165.892C122.894 165.797 122.709 165.742 122.52 165.732Z" fill="#7F3E3B"/>
<path d="M70.5538 251.046H71.2318C71.3724 251.032 71.5036 250.969 71.6024 250.868C71.7012 250.767 71.7612 250.635 71.7718 250.494L75.9718 221.43H72.7978L70.0318 250.302C70.0155 250.385 70.0161 250.471 70.0337 250.554C70.0513 250.637 70.0855 250.716 70.1343 250.785C70.183 250.855 70.2453 250.914 70.3174 250.958C70.3895 251.003 70.4699 251.033 70.5538 251.046Z" fill="url(#paint6_linear_204_3628)"/>
<path opacity="0.3" d="M70.5538 251.046H71.2318C71.3724 251.032 71.5036 250.969 71.6024 250.868C71.7012 250.767 71.7612 250.635 71.7718 250.494L75.9718 221.43H72.7978L70.0318 250.302C70.0155 250.385 70.0161 250.471 70.0337 250.554C70.0513 250.637 70.0855 250.716 70.1343 250.785C70.183 250.855 70.2453 250.914 70.3174 250.958C70.3895 251.003 70.4699 251.033 70.5538 251.046Z" fill="black"/>
<path d="M61.8541 251.046H62.5321C62.6727 251.032 62.8039 250.969 62.9027 250.868C63.0015 250.767 63.0615 250.635 63.0721 250.494L67.2721 221.43H64.0981L61.3321 250.302C61.3158 250.385 61.3164 250.471 61.334 250.554C61.3516 250.637 61.3858 250.716 61.4346 250.785C61.4833 250.855 61.5456 250.914 61.6177 250.958C61.6898 251.003 61.7702 251.033 61.8541 251.046Z" fill="url(#paint7_linear_204_3628)"/>
<path opacity="0.3" d="M61.8541 251.046H62.5321C62.6727 251.032 62.8039 250.969 62.9027 250.868C63.0015 250.767 63.0615 250.635 63.0721 250.494L67.2721 221.43H64.0981L61.3321 250.302C61.3158 250.385 61.3164 250.471 61.334 250.554C61.3516 250.637 61.3858 250.716 61.4346 250.785C61.4833 250.855 61.5456 250.914 61.6177 250.958C61.6898 251.003 61.7702 251.033 61.8541 251.046Z" fill="black"/>
<path d="M110.334 251.046H109.65C109.511 251.031 109.381 250.967 109.283 250.867C109.186 250.766 109.126 250.634 109.116 250.494L104.916 221.43H108.084L110.85 250.302C110.866 250.385 110.866 250.47 110.849 250.553C110.832 250.636 110.798 250.714 110.75 250.783C110.702 250.853 110.64 250.912 110.569 250.957C110.497 251.002 110.417 251.032 110.334 251.046Z" fill="url(#paint8_linear_204_3628)"/>
<path opacity="0.3" d="M110.334 251.046H109.65C109.511 251.031 109.381 250.967 109.283 250.867C109.186 250.766 109.126 250.634 109.116 250.494L104.916 221.43H108.084L110.85 250.302C110.866 250.385 110.866 250.47 110.849 250.553C110.832 250.636 110.798 250.714 110.75 250.783C110.702 250.853 110.64 250.912 110.569 250.957C110.497 251.002 110.417 251.032 110.334 251.046Z" fill="black"/>
<path d="M119.034 251.046H118.35C118.211 251.031 118.081 250.967 117.983 250.867C117.886 250.766 117.827 250.634 117.816 250.494L113.616 221.43H116.784L119.55 250.302C119.567 250.385 119.566 250.47 119.549 250.553C119.532 250.636 119.498 250.714 119.45 250.783C119.402 250.853 119.34 250.912 119.269 250.957C119.197 251.002 119.118 251.032 119.034 251.046Z" fill="url(#paint9_linear_204_3628)"/>
<path opacity="0.3" d="M119.034 251.046H118.35C118.211 251.031 118.081 250.967 117.983 250.867C117.886 250.766 117.827 250.634 117.816 250.494L113.616 221.43H116.784L119.55 250.302C119.567 250.385 119.566 250.47 119.549 250.553C119.532 250.636 119.498 250.714 119.45 250.783C119.402 250.853 119.34 250.912 119.269 250.957C119.197 251.002 119.118 251.032 119.034 251.046Z" fill="black"/>
<path d="M130.308 186.978H108.948C105.156 173.814 91.548 163.434 77.556 163.434H70.62C56.004 163.434 46.572 174.834 49.548 188.838C50.1115 191.419 51.026 193.91 52.266 196.242L55.638 216.642C56.07 219.276 58.176 221.412 60.33 221.412H124.626C126.78 221.412 128.886 219.276 129.318 216.642L133.428 191.73C133.866 189.114 132.468 186.978 130.308 186.978Z" fill="url(#paint10_linear_204_3628)"/>
<path opacity="0.5" d="M130.308 186.978H108.948C105.156 173.814 91.548 163.434 77.556 163.434H70.62C56.004 163.434 46.572 174.834 49.548 188.838C50.1115 191.419 51.026 193.91 52.266 196.242L55.638 216.642C56.07 219.276 58.176 221.412 60.33 221.412H124.626C126.78 221.412 128.886 219.276 129.318 216.642L133.428 191.73C133.866 189.114 132.468 186.978 130.308 186.978Z" fill="white"/>
<path d="M127.524 91.29H122.622V91.89H127.524V91.29Z" fill="#1771DF"/>
<path d="M104.592 98.358H103.992V95.4C103.994 94.3078 104.429 93.2609 105.202 92.4892C105.974 91.7175 107.022 91.284 108.114 91.284H119.052V91.884H108.114C107.181 91.884 106.286 92.2542 105.626 92.9134C104.966 93.5726 104.594 94.4669 104.592 95.4V98.358Z" fill="#1771DF"/>
<path d="M108.114 93.39H162.816C163.351 93.39 163.864 93.6024 164.242 93.9805C164.62 94.3585 164.832 94.8713 164.832 95.406V116.856C164.832 117.392 164.619 117.907 164.24 118.286C163.861 118.665 163.347 118.878 162.81 118.878H108.114C107.578 118.878 107.064 118.665 106.685 118.286C106.305 117.907 106.092 117.392 106.092 116.856V95.4C106.093 95.1353 106.146 94.8732 106.248 94.629C106.35 94.3847 106.499 94.1629 106.687 93.9762C106.875 93.7896 107.097 93.6417 107.342 93.5412C107.587 93.4406 107.85 93.3892 108.114 93.39Z" fill="#1771DF"/>
<path d="M160.23 107.49H110.7C110.341 107.49 109.996 107.347 109.741 107.093C109.487 106.839 109.344 106.494 109.344 106.134C109.344 105.774 109.487 105.429 109.741 105.175C109.996 104.921 110.341 104.778 110.7 104.778H160.23C160.59 104.778 160.935 104.921 161.189 105.175C161.443 105.429 161.586 105.774 161.586 106.134C161.586 106.494 161.443 106.839 161.189 107.093C160.935 107.347 160.59 107.49 160.23 107.49Z" fill="white"/>
<path d="M149.628 113.124H110.7C110.341 113.124 109.996 112.981 109.741 112.727C109.487 112.473 109.344 112.128 109.344 111.768C109.343 111.589 109.377 111.411 109.444 111.245C109.511 111.079 109.611 110.929 109.737 110.801C109.863 110.674 110.013 110.573 110.179 110.504C110.344 110.435 110.521 110.4 110.7 110.4H149.628C149.988 110.4 150.333 110.543 150.587 110.797C150.841 111.051 150.984 111.396 150.984 111.756C150.986 111.935 150.952 112.113 150.885 112.279C150.817 112.445 150.717 112.595 150.591 112.723C150.465 112.85 150.315 112.951 150.15 113.02C149.985 113.089 149.807 113.124 149.628 113.124Z" fill="white"/>
<path d="M127.404 101.856H110.7C110.341 101.856 109.996 101.713 109.741 101.459C109.487 101.205 109.344 100.86 109.344 100.5C109.344 100.14 109.487 99.7955 109.741 99.5412C109.996 99.2869 110.341 99.144 110.7 99.144H127.404C127.764 99.144 128.109 99.2869 128.363 99.5412C128.617 99.7955 128.76 100.14 128.76 100.5C128.76 100.86 128.617 101.205 128.363 101.459C128.109 101.713 127.764 101.856 127.404 101.856Z" fill="white"/>
<path d="M149.544 101.856H132.84C132.481 101.856 132.136 101.713 131.882 101.459C131.627 101.205 131.484 100.86 131.484 100.5C131.484 100.14 131.627 99.7955 131.882 99.5412C132.136 99.2869 132.481 99.144 132.84 99.144H149.544C149.904 99.144 150.249 99.2869 150.503 99.5412C150.758 99.7955 150.9 100.14 150.9 100.5C150.9 100.86 150.758 101.205 150.503 101.459C150.249 101.713 149.904 101.856 149.544 101.856Z" fill="white"/>
<path d="M109.344 117.252V123.75C109.344 124.029 109.422 124.302 109.568 124.539C109.715 124.776 109.924 124.967 110.173 125.092C110.423 125.216 110.701 125.269 110.979 125.244C111.256 125.219 111.521 125.117 111.744 124.95L121.704 117.246L109.344 117.252Z" fill="#1771DF"/>
<path d="M193.686 61.2H138.984C138.719 61.2 138.456 61.2523 138.211 61.3539C137.965 61.4555 137.742 61.6045 137.555 61.7922C137.367 61.98 137.218 62.2029 137.116 62.4482C137.015 62.6935 136.962 62.9565 136.962 63.222V84.672C136.962 85.2083 137.175 85.7226 137.555 86.1018C137.934 86.481 138.448 86.694 138.984 86.694H182.184L190.02 92.754C190.243 92.9211 190.508 93.0229 190.786 93.0479C191.063 93.073 191.342 93.0202 191.591 92.8956C191.84 92.7711 192.05 92.5796 192.196 92.3426C192.343 92.1056 192.42 91.8326 192.42 91.554V86.682H193.65C194.187 86.682 194.701 86.469 195.08 86.0898C195.459 85.7106 195.672 85.1963 195.672 84.66V63.222C195.672 62.6919 195.464 62.183 195.093 61.8048C194.722 61.4266 194.216 61.2094 193.686 61.2Z" fill="white"/>
<path d="M190.95 93.372C190.551 93.3694 190.163 93.2367 189.846 92.994L182.094 86.994H138.984C138.369 86.9924 137.779 86.7473 137.344 86.3122C136.909 85.877 136.664 85.2873 136.662 84.672V63.222C136.664 62.6067 136.909 62.017 137.344 61.5818C137.779 61.1467 138.369 60.9016 138.984 60.9H193.686C194.301 60.9016 194.891 61.1467 195.326 61.5818C195.761 62.017 196.007 62.6067 196.008 63.222V84.672C196.007 85.2873 195.761 85.877 195.326 86.3122C194.891 86.7473 194.301 86.9924 193.686 86.994H192.756V91.566C192.756 92.0434 192.566 92.5012 192.229 92.8388C191.891 93.1764 191.434 93.366 190.956 93.366L190.95 93.372ZM138.984 61.5C138.528 61.5016 138.091 61.6835 137.768 62.0061C137.446 62.3287 137.264 62.7658 137.262 63.222V84.672C137.264 85.1282 137.446 85.5653 137.768 85.8879C138.091 86.2105 138.528 86.3924 138.984 86.394H182.304L190.2 92.514C190.377 92.6541 190.591 92.7413 190.815 92.7656C191.04 92.7898 191.267 92.7501 191.47 92.6511C191.673 92.552 191.844 92.3976 191.963 92.2057C192.083 92.0137 192.145 91.792 192.144 91.566V86.4H193.674C194.13 86.3984 194.567 86.2165 194.89 85.8939C195.213 85.5713 195.395 85.1342 195.396 84.678V63.222C195.395 62.7658 195.213 62.3287 194.89 62.0061C194.567 61.6835 194.13 61.5016 193.674 61.5H138.984Z" fill="#1771DF"/>
<path d="M165.168 75.306H191.1C191.278 75.306 191.454 75.2709 191.619 75.2028C191.783 75.1346 191.933 75.0348 192.059 74.9088C192.185 74.7829 192.285 74.6334 192.353 74.4689C192.421 74.3044 192.456 74.1281 192.456 73.95C192.453 73.5919 192.309 73.2494 192.055 72.9968C191.801 72.7441 191.458 72.6016 191.1 72.6H165.168C164.808 72.6016 164.463 72.7458 164.209 73.001C163.955 73.2563 163.812 73.6018 163.812 73.962C163.815 74.3195 163.959 74.6614 164.213 74.9131C164.467 75.1648 164.81 75.306 165.168 75.306Z" fill="#1771DF"/>
<path d="M147.06 75.306H159.9C160.078 75.306 160.255 75.2709 160.419 75.2028C160.584 75.1346 160.733 75.0348 160.859 74.9088C160.985 74.7829 161.085 74.6334 161.153 74.4689C161.221 74.3044 161.256 74.1281 161.256 73.95C161.253 73.5919 161.109 73.2494 160.855 72.9968C160.601 72.7441 160.258 72.6016 159.9 72.6H147.06C146.7 72.6016 146.355 72.7458 146.101 73.001C145.847 73.2563 145.704 73.6018 145.704 73.962C145.707 74.3195 145.852 74.6614 146.105 74.9131C146.359 75.1648 146.703 75.306 147.06 75.306Z" fill="#1771DF"/>
<path d="M152.166 80.94H191.1C191.849 80.94 192.456 80.3329 192.456 79.584C192.456 78.8351 191.849 78.228 191.1 78.228H152.166C151.417 78.228 150.81 78.8351 150.81 79.584C150.81 80.3329 151.417 80.94 152.166 80.94Z" fill="#1771DF"/>
<path d="M141.6 69.672H191.1C191.46 69.672 191.805 69.5291 192.059 69.2748C192.313 69.0205 192.456 68.6756 192.456 68.316C192.456 67.9558 192.313 67.6103 192.059 67.355C191.805 67.0998 191.46 66.9556 191.1 66.954H141.6C141.24 66.9556 140.895 67.0998 140.641 67.355C140.387 67.6103 140.244 67.9558 140.244 68.316C140.244 68.6756 140.387 69.0205 140.641 69.2748C140.896 69.5291 141.241 69.672 141.6 69.672Z" fill="#1771DF"/>
<defs>
<linearGradient id="paint0_linear_204_3628" x1="88.9439" y1="136.883" x2="74.2351" y2="138.024" gradientUnits="userSpaceOnUse">
<stop stop-color="#1348B4"/>
<stop offset="1" stop-color="#012C80"/>
</linearGradient>
<linearGradient id="paint1_linear_204_3628" x1="75.4322" y1="140.265" x2="64.6829" y2="140.442" gradientUnits="userSpaceOnUse">
<stop stop-color="#1348B4"/>
<stop offset="1" stop-color="#012C80"/>
</linearGradient>
<linearGradient id="paint2_linear_204_3628" x1="97.0838" y1="139.448" x2="67.4769" y2="140.079" gradientUnits="userSpaceOnUse">
<stop stop-color="#1348B4"/>
<stop offset="1" stop-color="#012C80"/>
</linearGradient>
<linearGradient id="paint3_linear_204_3628" x1="82.7917" y1="115.489" x2="69.9979" y2="116.591" gradientUnits="userSpaceOnUse">
<stop stop-color="#1348B4"/>
<stop offset="1" stop-color="#012C80"/>
</linearGradient>
<linearGradient id="paint4_linear_204_3628" x1="126.501" y1="150.966" x2="104.636" y2="151.574" gradientUnits="userSpaceOnUse">
<stop stop-color="#1348B4"/>
<stop offset="1" stop-color="#012C80"/>
</linearGradient>
<linearGradient id="paint5_linear_204_3628" x1="98.0945" y1="142.5" x2="87.7333" y2="142.695" gradientUnits="userSpaceOnUse">
<stop stop-color="#1348B4"/>
<stop offset="1" stop-color="#012C80"/>
</linearGradient>
<linearGradient id="paint6_linear_204_3628" x1="75.9718" y1="221.43" x2="70.1333" y2="221.461" gradientUnits="userSpaceOnUse">
<stop stop-color="#1348B4"/>
<stop offset="1" stop-color="#012C80"/>
</linearGradient>
<linearGradient id="paint7_linear_204_3628" x1="67.2721" y1="221.43" x2="61.4336" y2="221.461" gradientUnits="userSpaceOnUse">
<stop stop-color="#1348B4"/>
<stop offset="1" stop-color="#012C80"/>
</linearGradient>
<linearGradient id="paint8_linear_204_3628" x1="110.862" y1="221.43" x2="105.029" y2="221.461" gradientUnits="userSpaceOnUse">
<stop stop-color="#1348B4"/>
<stop offset="1" stop-color="#012C80"/>
</linearGradient>
<linearGradient id="paint9_linear_204_3628" x1="119.562" y1="221.43" x2="113.729" y2="221.461" gradientUnits="userSpaceOnUse">
<stop stop-color="#1348B4"/>
<stop offset="1" stop-color="#012C80"/>
</linearGradient>
<linearGradient id="paint10_linear_204_3628" x1="133.508" y1="163.434" x2="50.7252" y2="166.583" gradientUnits="userSpaceOnUse">
<stop stop-color="#1348B4"/>
<stop offset="1" stop-color="#012C80"/>
</linearGradient>
</defs>
</svg>
