<svg width="101" height="100" viewBox="0 0 101 100" fill="none" xmlns="http://www.w3.org/2000/svg">
<g clip-path="url(#clip0_393_18808)">
<path d="M100.5 76.48H0.5V76.53H100.5V76.48Z" fill="#E0E0E0"/>
<path d="M76.366 78.324H69.486V78.374H76.366V78.324Z" fill="#E0E0E0"/>
<path d="M84.46 78.1819H80.588V78.2319H84.46V78.1819Z" fill="#E0E0E0"/>
<path d="M49.968 78.3H44.832V78.35H49.968V78.3Z" fill="#E0E0E0"/>
<path d="M53.678 79.01H50.17V79.06H53.678V79.01Z" fill="#E0E0E0"/>
<path d="M29.4341 77.7939H18.8361V77.8439H29.4341V77.7939Z" fill="#E0E0E0"/>
<path d="M47.9 67.56H9.28197C8.97944 67.5595 8.68948 67.4389 8.47574 67.2248C8.26201 67.0107 8.14197 66.7205 8.14197 66.418V12.132C8.1446 11.8312 8.26581 11.5436 8.47926 11.3316C8.69271 11.1197 8.98116 11.0005 9.28197 11H47.9C48.2028 11 48.4933 11.1203 48.7075 11.3345C48.9216 11.5487 49.042 11.8391 49.042 12.142V66.418C49.042 66.7209 48.9216 67.0114 48.7075 67.2255C48.4933 67.4397 48.2028 67.56 47.9 67.56ZM9.28197 11.04C8.9927 11.0405 8.71546 11.1558 8.5111 11.3605C8.30674 11.5653 8.19197 11.8427 8.19197 12.132V66.418C8.19197 66.7073 8.30674 66.9847 8.5111 67.1895C8.71546 67.3942 8.9927 67.5095 9.28197 67.51H47.9C48.1894 67.5095 48.4669 67.3943 48.6715 67.1896C48.8762 66.9849 48.9914 66.7075 48.992 66.418V12.132C48.9914 11.8425 48.8762 11.5651 48.6715 11.3604C48.4669 11.1557 48.1894 11.0405 47.9 11.04H9.28197Z" fill="#E0E0E0"/>
<path d="M91.162 67.56H52.542C52.2393 67.5595 51.9491 67.439 51.7351 67.2249C51.521 67.0109 51.4006 66.7207 51.4 66.418V12.132C51.4032 11.831 51.5248 11.5434 51.7386 11.3315C51.9524 11.1196 52.241 11.0005 52.542 11H91.162C91.4625 11.001 91.7504 11.1204 91.9634 11.3323C92.1765 11.5442 92.2974 11.8316 92.3 12.132V66.418C92.3 66.7202 92.1803 67.0101 91.967 67.2241C91.7537 67.4382 91.4642 67.5589 91.162 67.56ZM52.542 11.04C52.2526 11.0405 51.9751 11.1557 51.7704 11.3604C51.5658 11.5651 51.4506 11.8425 51.45 12.132V66.418C51.4506 66.7075 51.5658 66.9849 51.7704 67.1896C51.9751 67.3943 52.2526 67.5095 52.542 67.51H91.162C91.4515 67.5095 91.7289 67.3943 91.9336 67.1896C92.1383 66.9849 92.2535 66.7075 92.254 66.418V12.132C92.2535 11.8425 92.1383 11.5651 91.9336 11.3604C91.7289 11.1557 91.4515 11.0405 91.162 11.04H52.542Z" fill="#E0E0E0"/>
<path d="M87.306 15.854H57.166V41.766H87.306V15.854Z" fill="#E0E0E0"/>
<path d="M87.9759 15.854H57.8359V41.766H87.9759V15.854Z" fill="#F0F0F0"/>
<path d="M86.774 40.5501V17.0701H59.038V40.5501H86.774Z" fill="#FAFAFA"/>
<path d="M77.91 40.5501V17.0701H76.098V40.5501H77.91Z" fill="#E0E0E0"/>
<path d="M68.3781 40.5501V17.0701H66.566V40.5501H68.3781Z" fill="#E0E0E0"/>
<path d="M78.548 41.3201V16.1641H76.736V41.3201H78.548Z" fill="#F0F0F0"/>
<path d="M69.014 41.322V16.166H67.202V41.322H69.014Z" fill="#F0F0F0"/>
<path d="M86.774 40.5481V17.0681H86.268V40.5481H86.774Z" fill="#E0E0E0"/>
<path d="M35.968 36.3179C35.968 36.3179 32.3 29.9999 37.39 24.9619C37.39 24.9619 38.718 25.8279 38.698 26.9919C38.678 28.1559 37.274 28.4499 37.576 29.4219C37.878 30.3939 39.2 31.3439 38.332 32.1479C37.464 32.9519 38.472 33.6639 38.414 34.6479C38.356 35.6319 35.968 36.3179 35.968 36.3179Z" fill="#E0E0E0"/>
<path d="M36.544 37.3519C36.544 37.3519 38.032 30.1959 31.616 27.0239C31.616 27.0239 30.628 28.2639 31.016 29.3619C31.404 30.4599 32.826 30.2959 32.846 31.3139C32.866 32.3319 31.912 33.6519 32.988 34.1399C34.064 34.6279 33.334 35.6239 33.7 36.5399C34.066 37.4559 36.544 37.3519 36.544 37.3519Z" fill="#E6E6E6"/>
<path d="M33.278 35.5339C33.278 35.5339 33.342 41.7119 35.812 41.7119C38.282 41.7119 38.344 35.5339 38.344 35.5339H33.278Z" fill="#F0F0F0"/>
<path d="M18.438 39.3879C18.438 39.3879 18.576 41.7119 23.85 41.7119C29.124 41.7119 29.264 39.3879 29.264 39.3879H18.438Z" fill="#E6E6E6"/>
<path d="M74.0401 53.3999H71.256C70.9092 53.3999 70.6281 53.6811 70.6281 54.0279V58.6319C70.6281 58.9787 70.9092 59.2599 71.256 59.2599H74.0401C74.3869 59.2599 74.668 58.9787 74.668 58.6319V54.0279C74.668 53.6811 74.3869 53.3999 74.0401 53.3999Z" fill="#F0F0F0"/>
<path d="M81.424 55.3159H79.55C79.317 55.3159 79.1281 55.5049 79.1281 55.7379V58.8379C79.1281 59.071 79.317 59.2599 79.55 59.2599H81.424C81.6571 59.2599 81.8461 59.071 81.8461 58.8379V55.7379C81.8461 55.5049 81.6571 55.3159 81.424 55.3159Z" fill="#E6E6E6"/>
<path d="M81.704 54.9341H79.2701C79.1916 54.9341 79.1281 54.9977 79.1281 55.0761V55.2361C79.1281 55.3145 79.1916 55.3781 79.2701 55.3781H81.704C81.7825 55.3781 81.8461 55.3145 81.8461 55.2361V55.0761C81.8461 54.9977 81.7825 54.9341 81.704 54.9341Z" fill="#F0F0F0"/>
<path d="M64.184 56C64.184 56 64.284 59.26 68.102 59.26C71.92 59.26 72.022 56 72.022 56H64.184Z" fill="#E6E6E6"/>
<path d="M54.6879 51.6941H60.4659V50.5541H54.6879V51.6941Z" fill="#E0E0E0"/>
<path d="M89.1919 50.5559H60.4659V51.6959H89.1919V50.5559Z" fill="#F0F0F0"/>
<path d="M54.6879 60.3999H60.4659V59.2599H54.6879V60.3999Z" fill="#E0E0E0"/>
<path d="M89.1919 59.26H60.4659V60.4H89.1919V59.26Z" fill="#F0F0F0"/>
<path d="M56.77 51.6941H55.704V76.4781H56.77V51.6941Z" fill="#E0E0E0"/>
<path d="M61.5319 51.6941H60.4659V76.4781H61.5319V51.6941Z" fill="#F0F0F0"/>
<path d="M85.4961 51.6941H84.4301V76.4781H85.4961V51.6941Z" fill="#E0E0E0"/>
<path d="M89.192 51.6941H88.126V76.4781H89.192V51.6941Z" fill="#F0F0F0"/>
<path d="M18.438 43.1621H12.974V74.9801H18.438V43.1621Z" fill="#E6E6E6"/>
<path d="M40.968 74.978H14.024V76.48H40.968V74.978Z" fill="#E6E6E6"/>
<path d="M18.438 74.978H42.016L42.016 43.16H18.438L18.438 74.978Z" fill="#F0F0F0"/>
<path d="M20.586 62.9561H39.868V55.1841H20.586V62.9561Z" fill="#E6E6E6"/>
<path d="M20.586 72.144H39.868V64.372H20.586V72.144Z" fill="#E6E6E6"/>
<path d="M32.392 56.036H28.062C27.9211 56.0354 27.7861 55.9792 27.6864 55.8796C27.5868 55.7799 27.5306 55.6449 27.53 55.504C27.53 55.3627 27.586 55.2272 27.6857 55.1271C27.7854 55.027 27.9208 54.9705 28.062 54.97H32.392C32.5333 54.9705 32.6686 55.027 32.7683 55.1271C32.868 55.2272 32.924 55.3627 32.924 55.504C32.9235 55.6449 32.8673 55.7799 32.7676 55.8796C32.668 55.9792 32.533 56.0354 32.392 56.036Z" fill="#F0F0F0"/>
<path d="M20.586 53.7661H39.868V45.9941H20.586V53.7661Z" fill="#E6E6E6"/>
<path d="M32.392 46.848H28.062C27.9208 46.8475 27.7854 46.791 27.6857 46.6909C27.586 46.5908 27.53 46.4553 27.53 46.314C27.5306 46.1731 27.5868 46.038 27.6864 45.9384C27.7861 45.8387 27.9211 45.7825 28.062 45.782H32.392C32.533 45.7825 32.668 45.8387 32.7676 45.9384C32.8673 46.038 32.9235 46.1731 32.924 46.314C32.924 46.4553 32.868 46.5908 32.7683 46.6909C32.6686 46.791 32.5333 46.8475 32.392 46.848Z" fill="#F0F0F0"/>
<path d="M32.392 65.224H28.062C27.9211 65.2234 27.7861 65.1672 27.6864 65.0676C27.5868 64.9679 27.5306 64.8329 27.53 64.692C27.53 64.5507 27.586 64.4152 27.6857 64.3151C27.7854 64.215 27.9208 64.1585 28.062 64.158H32.392C32.5333 64.1585 32.6686 64.215 32.7683 64.3151C32.868 64.4152 32.924 64.5507 32.924 64.692C32.9235 64.8329 32.8673 64.9679 32.7676 65.0676C32.668 65.1672 32.533 65.2234 32.392 65.224Z" fill="#F0F0F0"/>
<path d="M42.744 41.7119H18.438V43.1619H42.744V41.7119Z" fill="#E6E6E6"/>
<path d="M12.21 43.1599H18.438V41.7099H12.21V43.1599Z" fill="#E0E0E0"/>
<path d="M24.528 17.0701H15.688V26.7781H24.528V17.0701Z" fill="#E6E6E6"/>
<path d="M25.486 17.0701H16.354V26.7781H25.486V17.0701Z" fill="#F0F0F0"/>
<path d="M24.72 26.012V17.834H17.118V26.012H24.72Z" fill="#FAFAFA"/>
<path d="M22.8781 24.0299V19.8159H18.9621V24.0299H22.8781Z" fill="#F0F0F0"/>
<path d="M33.848 14.2041H27.144V21.4061H33.848V14.2041Z" fill="#E6E6E6"/>
<path d="M34.56 14.2041H27.786V21.4061H34.56V14.2041Z" fill="#F0F0F0"/>
<path d="M33.9919 20.838V14.772H28.3539V20.838H33.9919Z" fill="#FAFAFA"/>
<path d="M31.172 16.27L29.63 18.942H32.714L31.172 16.27Z" fill="#F0F0F0"/>
<path d="M50.5 85.5119C71.9165 85.5119 89.2781 84.4983 89.2781 83.2479C89.2781 81.9975 71.9165 80.9839 50.5 80.9839C29.0835 80.9839 11.722 81.9975 11.722 83.2479C11.722 84.4983 29.0835 85.5119 50.5 85.5119Z" fill="#F5F5F5"/>
<path d="M84.4601 29.1641H64.8401C63.8051 29.1641 62.9661 30.0031 62.9661 31.0381V36.3741C62.9661 37.409 63.8051 38.2481 64.8401 38.2481H84.4601C85.495 38.2481 86.3341 37.409 86.3341 36.3741V31.0381C86.3341 30.0031 85.495 29.1641 84.4601 29.1641Z" fill="#407BFF"/>
<path d="M80.5681 30.696H65.2421C65.0609 30.696 64.9141 30.8429 64.9141 31.024V31.384C64.9141 31.5652 65.0609 31.712 65.2421 31.712H80.5681C80.7492 31.712 80.8961 31.5652 80.8961 31.384V31.024C80.8961 30.8429 80.7492 30.696 80.5681 30.696Z" fill="#407BFF"/>
<path d="M75.7141 33.144H65.2421C65.0609 33.144 64.9141 33.2909 64.9141 33.472V33.832C64.9141 34.0132 65.0609 34.16 65.2421 34.16H75.7141C75.8952 34.16 76.0421 34.0132 76.0421 33.832V33.472C76.0421 33.2909 75.8952 33.144 75.7141 33.144Z" fill="#407BFF"/>
<path d="M72.9061 35.592H65.2421C65.0609 35.592 64.9141 35.7389 64.9141 35.92V36.28C64.9141 36.4612 65.0609 36.608 65.2421 36.608H72.9061C73.0872 36.608 73.2341 36.4612 73.2341 36.28V35.92C73.2341 35.7389 73.0872 35.592 72.9061 35.592Z" fill="#407BFF"/>
<path d="M82.404 35.592H74.74C74.5588 35.592 74.412 35.7389 74.412 35.92V36.28C74.412 36.4612 74.5588 36.608 74.74 36.608H82.404C82.5851 36.608 82.732 36.4612 82.732 36.28V35.92C82.732 35.7389 82.5851 35.592 82.404 35.592Z" fill="#407BFF"/>
<g opacity="0.5">
<path d="M80.5681 30.696H65.2421C65.0609 30.696 64.9141 30.8429 64.9141 31.024V31.384C64.9141 31.5652 65.0609 31.712 65.2421 31.712H80.5681C80.7492 31.712 80.8961 31.5652 80.8961 31.384V31.024C80.8961 30.8429 80.7492 30.696 80.5681 30.696Z" fill="white"/>
<path d="M75.7141 33.144H65.2421C65.0609 33.144 64.9141 33.2909 64.9141 33.472V33.832C64.9141 34.0132 65.0609 34.16 65.2421 34.16H75.7141C75.8952 34.16 76.0421 34.0132 76.0421 33.832V33.472C76.0421 33.2909 75.8952 33.144 75.7141 33.144Z" fill="white"/>
<path d="M72.9061 35.592H65.2421C65.0609 35.592 64.9141 35.7389 64.9141 35.92V36.28C64.9141 36.4612 65.0609 36.608 65.2421 36.608H72.9061C73.0872 36.608 73.2341 36.4612 73.2341 36.28V35.92C73.2341 35.7389 73.0872 35.592 72.9061 35.592Z" fill="white"/>
<path d="M82.4041 35.592H74.7401C74.559 35.592 74.4121 35.7389 74.4121 35.92V36.28C74.4121 36.4612 74.559 36.608 74.7401 36.608H82.4041C82.5853 36.608 82.7321 36.4612 82.7321 36.28V35.92C82.7321 35.7389 82.5853 35.592 82.4041 35.592Z" fill="white"/>
</g>
<path d="M68.7441 27.0461H46.4741C44.9564 27.0461 43.7261 28.2765 43.7261 29.7941V37.6181C43.7261 39.1358 44.9564 40.3661 46.4741 40.3661H68.7441C70.2618 40.3661 71.4921 39.1358 71.4921 37.6181V29.7941C71.4921 28.2765 70.2618 27.0461 68.7441 27.0461Z" fill="#407BFF"/>
<path d="M69.532 29.292H47.064C46.7978 29.292 46.582 29.5078 46.582 29.774V30.3C46.582 30.5662 46.7978 30.782 47.064 30.782H69.532C69.7982 30.782 70.014 30.5662 70.014 30.3V29.774C70.014 29.5078 69.7982 29.292 69.532 29.292Z" fill="#407BFF"/>
<path d="M62.414 32.8821H47.064C46.7978 32.8821 46.582 33.0979 46.582 33.3641V33.8901C46.582 34.1563 46.7978 34.3721 47.064 34.3721H62.414C62.6802 34.3721 62.896 34.1563 62.896 33.8901V33.3641C62.896 33.0979 62.6802 32.8821 62.414 32.8821Z" fill="#407BFF"/>
<path d="M58.298 36.4722H47.064C46.7978 36.4722 46.582 36.688 46.582 36.9542V37.4802C46.582 37.7464 46.7978 37.9622 47.064 37.9622H58.298C58.5642 37.9622 58.78 37.7464 58.78 37.4802V36.9542C58.78 36.688 58.5642 36.4722 58.298 36.4722Z" fill="#407BFF"/>
<path d="M70.3501 36.4722H60.9901C60.7239 36.4722 60.5081 36.688 60.5081 36.9542V37.4802C60.5081 37.7464 60.7239 37.9622 60.9901 37.9622H70.3501C70.6163 37.9622 70.8321 37.7464 70.8321 37.4802V36.9542C70.8321 36.688 70.6163 36.4722 70.3501 36.4722Z" fill="#407BFF"/>
<g opacity="0.5">
<path d="M69.532 29.292H47.064C46.7978 29.292 46.582 29.5078 46.582 29.774V30.3C46.582 30.5662 46.7978 30.782 47.064 30.782H69.532C69.7982 30.782 70.014 30.5662 70.014 30.3V29.774C70.014 29.5078 69.7982 29.292 69.532 29.292Z" fill="white"/>
<path d="M62.414 32.8821H47.064C46.7978 32.8821 46.582 33.0979 46.582 33.3641V33.8901C46.582 34.1563 46.7978 34.3721 47.064 34.3721H62.414C62.6802 34.3721 62.896 34.1563 62.896 33.8901V33.3641C62.896 33.0979 62.6802 32.8821 62.414 32.8821Z" fill="white"/>
<path d="M58.298 36.4719H47.064C46.7978 36.4719 46.582 36.6877 46.582 36.9539V37.4799C46.582 37.7461 46.7978 37.9619 47.064 37.9619H58.298C58.5642 37.9619 58.78 37.7461 58.78 37.4799V36.9539C58.78 36.6877 58.5642 36.4719 58.298 36.4719Z" fill="white"/>
<path d="M70.3501 36.4719H60.9901C60.7239 36.4719 60.5081 36.6877 60.5081 36.9539V37.4799C60.5081 37.7461 60.7239 37.9619 60.9901 37.9619H70.3501C70.6163 37.9619 70.8321 37.7461 70.8321 37.4799V36.9539C70.8321 36.6877 70.6163 36.4719 70.3501 36.4719Z" fill="white"/>
</g>
<path d="M54.8981 42.78H44.1721C43.4629 42.78 42.8881 43.3549 42.8881 44.064V60.132C42.8881 60.8412 43.4629 61.416 44.1721 61.416H54.8981C55.6072 61.416 56.1821 60.8412 56.1821 60.132V44.064C56.1821 43.3549 55.6072 42.78 54.8981 42.78Z" fill="#407BFF"/>
<path opacity="0.4" d="M54.8981 42.78H44.1721C43.4629 42.78 42.8881 43.3549 42.8881 44.064V60.132C42.8881 60.8412 43.4629 61.416 44.1721 61.416H54.8981C55.6072 61.416 56.1821 60.8412 56.1821 60.132V44.064C56.1821 43.3549 55.6072 42.78 54.8981 42.78Z" fill="black"/>
<path d="M54.406 44.7241H44.662C44.5317 44.7241 44.426 44.8298 44.426 44.9601V45.3141C44.426 45.4445 44.5317 45.5501 44.662 45.5501H54.406C54.5364 45.5501 54.642 45.4445 54.642 45.3141V44.9601C54.642 44.8298 54.5364 44.7241 54.406 44.7241Z" fill="#FAFAFA"/>
<path d="M51.304 46.7122H44.662C44.5317 46.7122 44.426 46.8178 44.426 46.9482V47.3022C44.426 47.4325 44.5317 47.5382 44.662 47.5382H51.304C51.4344 47.5382 51.54 47.4325 51.54 47.3022V46.9482C51.54 46.8178 51.4344 46.7122 51.304 46.7122Z" fill="#FAFAFA"/>
<path d="M54.406 48.7021H44.662C44.5317 48.7021 44.426 48.8078 44.426 48.9382V49.2922C44.426 49.4225 44.5317 49.5281 44.662 49.5281H54.406C54.5364 49.5281 54.642 49.4225 54.642 49.2922V48.9382C54.642 48.8078 54.5364 48.7021 54.406 48.7021Z" fill="#FAFAFA"/>
<path d="M48.284 50.6899H44.662C44.5317 50.6899 44.426 50.7956 44.426 50.9259V51.2799C44.426 51.4103 44.5317 51.5159 44.662 51.5159H48.284C48.4144 51.5159 48.52 51.4103 48.52 51.2799V50.9259C48.52 50.7956 48.4144 50.6899 48.284 50.6899Z" fill="#FAFAFA"/>
<path d="M53.352 50.6899H49.73C49.5997 50.6899 49.494 50.7956 49.494 50.9259V51.2799C49.494 51.4103 49.5997 51.5159 49.73 51.5159H53.352C53.4824 51.5159 53.588 51.4103 53.588 51.2799V50.9259C53.588 50.7956 53.4824 50.6899 53.352 50.6899Z" fill="#FAFAFA"/>
<path d="M54.406 52.6802H44.662C44.5317 52.6802 44.426 52.7858 44.426 52.9162V53.2702C44.426 53.4005 44.5317 53.5062 44.662 53.5062H54.406C54.5364 53.5062 54.642 53.4005 54.642 53.2702V52.9162C54.642 52.7858 54.5364 52.6802 54.406 52.6802Z" fill="#FAFAFA"/>
<path d="M54.406 54.668H44.662C44.5317 54.668 44.426 54.7736 44.426 54.904V55.258C44.426 55.3883 44.5317 55.494 44.662 55.494H54.406C54.5364 55.494 54.642 55.3883 54.642 55.258V54.904C54.642 54.7736 54.5364 54.668 54.406 54.668Z" fill="#FAFAFA"/>
<path d="M52.678 56.658H44.662C44.5317 56.658 44.426 56.7636 44.426 56.894V57.248C44.426 57.3783 44.5317 57.484 44.662 57.484H52.678C52.8084 57.484 52.914 57.3783 52.914 57.248V56.894C52.914 56.7636 52.8084 56.658 52.678 56.658Z" fill="#FAFAFA"/>
<path d="M48.402 58.646H44.662C44.5317 58.646 44.426 58.7517 44.426 58.882V59.236C44.426 59.3663 44.5317 59.472 44.662 59.472H48.402C48.5324 59.472 48.638 59.3663 48.638 59.236V58.882C48.638 58.7517 48.5324 58.646 48.402 58.646Z" fill="#FAFAFA"/>
<path d="M57.8 42.666H42.922L49.5 47.9L59.586 51.7V44.448C59.5849 43.975 59.3963 43.5218 59.0615 43.1877C58.7267 42.8536 58.273 42.666 57.8 42.666Z" fill="#407BFF"/>
<path opacity="0.4" d="M57.8 42.666H42.922L49.5 47.9L59.586 51.7V44.448C59.5849 43.975 59.3963 43.5218 59.0615 43.1877C58.7267 42.8536 58.273 42.666 57.8 42.666Z" fill="black"/>
<path d="M57.15 45.3621H46.264C46.1005 45.3621 45.968 45.4946 45.968 45.6581V46.2101C45.968 46.3735 46.1005 46.5061 46.264 46.5061H57.15C57.3135 46.5061 57.446 46.3735 57.446 46.2101V45.6581C57.446 45.4946 57.3135 45.3621 57.15 45.3621Z" fill="#FAFAFA"/>
<path d="M83.53 56.834V46.37C83.53 45.568 82.8799 44.918 82.078 44.918H63.908C63.1061 44.918 62.456 45.568 62.456 46.37V56.834C62.456 57.6359 63.1061 58.286 63.908 58.286H82.078C82.8799 58.286 83.53 57.6359 83.53 56.834Z" fill="#407BFF"/>
<path d="M86.848 53.518V43.0541C86.848 42.2521 86.1979 41.6021 85.396 41.6021H67.226C66.4241 41.6021 65.774 42.2521 65.774 43.0541V53.518C65.774 54.32 66.4241 54.97 67.226 54.97H85.396C86.1979 54.97 86.848 54.32 86.848 53.518Z" fill="#407BFF"/>
<path opacity="0.5" d="M86.848 53.518V43.0541C86.848 42.2521 86.1979 41.6021 85.396 41.6021H67.226C66.4241 41.6021 65.774 42.2521 65.774 43.0541V53.518C65.774 54.32 66.4241 54.97 67.226 54.97H85.396C86.1979 54.97 86.848 54.32 86.848 53.518Z" fill="white"/>
<path d="M85.004 49.932V43.49C85.004 43.1332 84.7148 42.844 84.358 42.844H78.42C78.0633 42.844 77.774 43.1332 77.774 43.49V49.932C77.774 50.2888 78.0633 50.578 78.42 50.578H84.358C84.7148 50.578 85.004 50.2888 85.004 49.932Z" fill="#407BFF"/>
<path opacity="0.7" d="M85.004 49.932V43.49C85.004 43.1332 84.7148 42.844 84.358 42.844H78.42C78.0633 42.844 77.774 43.1332 77.774 43.49V49.932C77.774 50.2888 78.0633 50.578 78.42 50.578H84.358C84.7148 50.578 85.004 50.2888 85.004 49.932Z" fill="white"/>
<path d="M76.6421 53.048V48.112C76.6421 47.838 76.42 47.616 76.1461 47.616H71.5961C71.3222 47.616 71.1001 47.838 71.1001 48.112V53.048C71.1001 53.3219 71.3222 53.544 71.5961 53.544H76.1461C76.42 53.544 76.6421 53.3219 76.6421 53.048Z" fill="#407BFF"/>
<path opacity="0.3" d="M76.6421 53.048V48.112C76.6421 47.838 76.42 47.616 76.1461 47.616H71.5961C71.3222 47.616 71.1001 47.838 71.1001 48.112V53.048C71.1001 53.3219 71.3222 53.544 71.5961 53.544H76.1461C76.42 53.544 76.6421 53.3219 76.6421 53.048Z" fill="white"/>
<path d="M73.87 21.7521V19.0861C73.87 18.2709 73.2092 17.6101 72.394 17.6101L23.568 17.6101C22.7528 17.6101 22.092 18.2709 22.092 19.0861V21.7521C22.092 22.5673 22.7528 23.2281 23.568 23.2281L72.394 23.2281C73.2092 23.2281 73.87 22.5673 73.87 21.7521Z" fill="#407BFF"/>
<path opacity="0.5" d="M73.87 21.7521V19.0861C73.87 18.2709 73.2092 17.6101 72.394 17.6101L23.568 17.6101C22.7528 17.6101 22.092 18.2709 22.092 19.0861V21.7521C22.092 22.5673 22.7528 23.2281 23.568 23.2281L72.394 23.2281C73.2092 23.2281 73.87 22.5673 73.87 21.7521Z" fill="white"/>
<path d="M64.6321 24.1681V22.2341H50.5821V24.1681H64.6321Z" fill="#407BFF"/>
<path opacity="0.5" d="M64.6321 24.1681V22.2341H50.5821V24.1681H64.6321Z" fill="white"/>
<path d="M78.9081 13.4521V10.7861C78.9081 9.97089 78.2473 9.31006 77.4321 9.31006L28.6061 9.31006C27.7909 9.31006 27.1301 9.97089 27.1301 10.7861V13.4521C27.1301 14.2672 27.7909 14.9281 28.6061 14.9281L77.4321 14.9281C78.2473 14.9281 78.9081 14.2672 78.9081 13.4521Z" fill="#407BFF"/>
<path d="M26.5721 38.852C26.3961 39.252 26.2021 39.684 26.0321 40.106C25.8621 40.528 25.6861 40.962 25.5321 41.394C25.2161 42.2362 24.9627 43.1005 24.7741 43.98L24.7161 44.3L24.6961 44.42C24.6961 44.454 24.6961 44.498 24.6841 44.538C24.6765 44.7327 24.6805 44.9278 24.6961 45.122C24.7341 45.544 24.8021 45.996 24.8961 46.448C25.0641 47.354 25.2781 48.288 25.4961 49.208L24.4701 49.608C23.9918 48.7362 23.5845 47.8272 23.2521 46.89C23.0769 46.4022 22.9353 45.9031 22.8281 45.396C22.768 45.1155 22.7305 44.8306 22.7161 44.544C22.7161 44.464 22.7161 44.388 22.7161 44.302C22.7161 44.216 22.7161 44.12 22.7301 44.064L22.7701 43.664C22.8298 43.1489 22.9213 42.6379 23.0441 42.134C23.1561 41.634 23.3001 41.148 23.4441 40.668C23.5881 40.188 23.7681 39.716 23.9581 39.252C24.0521 39.02 24.1581 38.79 24.2501 38.56C24.3421 38.33 24.4501 38.11 24.5781 37.864L26.5721 38.852Z" fill="#E4897B"/>
<path d="M25.442 48.938L26.222 49.7L24.52 50.5C24.52 50.5 24.108 49.778 24.394 49.126L25.442 48.938Z" fill="#E4897B"/>
<path d="M26.852 50.834L25.414 51.4219L24.522 50.492L26.222 49.7L26.852 50.834Z" fill="#E4897B"/>
<path opacity="0.4" d="M55.982 50.014C53.1522 49.6963 50.4801 48.5467 48.3035 46.7106C46.127 44.8744 44.5437 42.4342 43.7538 39.6983C42.9639 36.9625 43.0029 34.0539 43.8658 31.3402C44.7288 28.6265 46.3769 26.2296 48.6019 24.4524C50.8269 22.6753 53.5288 21.5977 56.3661 21.356C59.2035 21.1142 62.0488 21.7191 64.5423 23.0942C67.0359 24.4692 69.0658 26.5528 70.3755 29.0813C71.6851 31.6099 72.2156 34.47 71.9 37.3C71.6903 39.1803 71.1121 41.0009 70.1985 42.6576C69.2849 44.3143 68.0538 45.7748 66.5755 46.9555C65.0973 48.1362 63.4008 49.0141 61.5831 49.5389C59.7654 50.0637 57.8621 50.2251 55.982 50.014Z" fill="#FAFAFA"/>
<path opacity="0.4" d="M66.458 24.3579L44.558 41.8559C44.466 41.6559 44.376 41.4559 44.292 41.2559C43.743 39.95 43.3918 38.5694 43.25 37.1599L62.166 22.0459C63.719 22.5639 65.171 23.3461 66.458 24.3579Z" fill="#FAFAFA"/>
<path opacity="0.4" d="M71.512 32.0239L50.922 48.4739C48.966 47.4542 47.2709 45.998 45.968 44.2179L68.45 26.2539C69.8992 27.9173 70.9468 29.8914 71.512 32.0239Z" fill="#FAFAFA"/>
<path d="M41.378 30.2L41.188 30.136C41.5171 29.165 41.9306 28.2248 42.424 27.326L42.598 27.422C42.1111 28.3107 41.7029 29.2402 41.378 30.2ZM43.806 25.532L43.644 25.414C45.2876 23.1916 47.4387 21.3943 49.918 20.172L50.008 20.352C47.5569 21.5617 45.4305 23.3398 43.806 25.538V25.532ZM65.724 20.626C65.0704 20.2755 64.3943 19.9688 63.7 19.708L63.772 19.52C64.4731 19.7869 65.1559 20.0996 65.816 20.456L65.724 20.626Z" fill="#407BFF"/>
<path opacity="0.3" d="M41.378 30.2L41.188 30.136C41.5171 29.165 41.9306 28.2248 42.424 27.326L42.598 27.422C42.1111 28.3107 41.7029 29.2402 41.378 30.2ZM43.806 25.532L43.644 25.414C45.2876 23.1916 47.4387 21.3943 49.918 20.172L50.008 20.352C47.5569 21.5617 45.4305 23.3398 43.806 25.538V25.532ZM65.724 20.626C65.0704 20.2755 64.3943 19.9688 63.7 19.708L63.772 19.52C64.4731 19.7869 65.1559 20.0996 65.816 20.456L65.724 20.626Z" fill="black"/>
<path d="M72.474 28.348C70.6221 24.507 67.3631 21.5261 63.3727 20.023C59.3823 18.5199 54.9666 18.6101 51.0408 20.2748C47.1151 21.9394 43.9805 25.051 42.2869 28.9643C40.5933 32.8776 40.4705 37.2926 41.944 41.294C40.608 41.762 39.288 42.264 37.976 42.782C36.084 43.5326 34.2094 44.3166 32.352 45.134C30.496 45.956 28.648 46.794 26.818 47.67C25.9 48.1 24.994 48.554 24.08 48.994C23.6045 49.1983 23.1738 49.4939 22.812 49.864C22.6163 50.0689 22.4439 50.295 22.298 50.538C22.12 50.8254 21.9853 51.1374 21.898 51.464C21.7475 52.0525 21.8126 52.6755 22.0815 53.2202C22.3504 53.765 22.8053 54.1955 23.364 54.434C23.6743 54.5641 24.0016 54.649 24.336 54.686C24.6185 54.718 24.9036 54.718 25.186 54.686C25.6993 54.6237 26.1953 54.4613 26.646 54.208C27.552 53.75 28.464 53.308 29.364 52.838C31.164 51.92 32.964 50.962 34.742 49.99C36.52 49.018 38.3 48 40.036 46.956C41.236 46.23 42.448 45.488 43.636 44.712C45.9173 48.3133 49.4966 50.8989 53.6323 51.9331C57.768 52.9673 62.1431 52.3707 65.8509 50.267C69.5588 48.1633 72.3152 44.7137 73.5489 40.6331C74.7827 36.5525 74.3992 32.1536 72.478 28.348H72.474ZM63.382 47.454C61.0578 48.6012 58.4455 49.0335 55.8756 48.6962C53.3056 48.3589 50.8934 47.2671 48.9439 45.559C46.9944 43.8508 45.5952 41.6029 44.9232 39.0995C44.2512 36.5961 44.3366 33.9497 45.1686 31.4949C46.0006 29.0401 47.5418 26.887 49.5973 25.3081C51.6529 23.7291 54.1305 22.7951 56.7168 22.6242C59.3032 22.4533 61.8821 23.0531 64.1276 24.3478C66.3731 25.6425 68.1842 27.574 69.332 29.898C70.0943 31.4414 70.5451 33.1198 70.6586 34.8374C70.7721 36.555 70.5461 38.2782 69.9936 39.9085C69.4411 41.5387 68.5728 43.0442 67.4384 44.3389C66.304 45.6336 64.9256 46.6921 63.382 47.454Z" fill="#407BFF"/>
<path opacity="0.3" d="M72.474 28.348C70.6221 24.507 67.3631 21.5261 63.3727 20.023C59.3823 18.5199 54.9666 18.6101 51.0408 20.2748C47.1151 21.9394 43.9805 25.051 42.2869 28.9643C40.5933 32.8776 40.4705 37.2926 41.944 41.294C40.608 41.762 39.288 42.264 37.976 42.782C36.084 43.5326 34.2094 44.3166 32.352 45.134C30.496 45.956 28.648 46.794 26.818 47.67C25.9 48.1 24.994 48.554 24.08 48.994C23.6045 49.1983 23.1738 49.4939 22.812 49.864C22.6163 50.0689 22.4439 50.295 22.298 50.538C22.12 50.8254 21.9853 51.1374 21.898 51.464C21.7475 52.0525 21.8126 52.6755 22.0815 53.2202C22.3504 53.765 22.8053 54.1955 23.364 54.434C23.6743 54.5641 24.0016 54.649 24.336 54.686C24.6185 54.718 24.9036 54.718 25.186 54.686C25.6993 54.6237 26.1953 54.4613 26.646 54.208C27.552 53.75 28.464 53.308 29.364 52.838C31.164 51.92 32.964 50.962 34.742 49.99C36.52 49.018 38.3 48 40.036 46.956C41.236 46.23 42.448 45.488 43.636 44.712C45.9173 48.3133 49.4966 50.8989 53.6323 51.9331C57.768 52.9673 62.1431 52.3707 65.8509 50.267C69.5588 48.1633 72.3152 44.7137 73.5489 40.6331C74.7827 36.5525 74.3992 32.1536 72.478 28.348H72.474ZM63.382 47.454C61.0578 48.6012 58.4455 49.0335 55.8756 48.6962C53.3056 48.3589 50.8934 47.2671 48.9439 45.559C46.9944 43.8508 45.5952 41.6029 44.9232 39.0995C44.2512 36.5961 44.3366 33.9497 45.1686 31.4949C46.0006 29.0401 47.5418 26.887 49.5973 25.3081C51.6529 23.7291 54.1305 22.7951 56.7168 22.6242C59.3032 22.4533 61.8821 23.0531 64.1276 24.3478C66.3731 25.6425 68.1842 27.574 69.332 29.898C70.0943 31.4414 70.5451 33.1198 70.6586 34.8374C70.7721 36.555 70.5461 38.2782 69.9936 39.9085C69.4411 41.5387 68.5728 43.0442 67.4384 44.3389C66.304 45.6336 64.9256 46.6921 63.382 47.454Z" fill="black"/>
<path d="M32.1 31.7101C32.1 31.8281 32.162 31.9241 32.24 31.9241C32.318 31.9241 32.38 31.8281 32.38 31.7101C32.38 31.5921 32.318 31.4961 32.24 31.4961C32.162 31.4961 32.1 31.6001 32.1 31.7101Z" fill="#263238"/>
<path d="M32.156 31.9241C32.2976 32.2863 32.488 32.6275 32.722 32.9381C32.6411 32.996 32.5485 33.0354 32.4507 33.0537C32.353 33.072 32.2524 33.0688 32.156 33.0441V31.9241Z" fill="#DE5753"/>
<path d="M31.686 31.052C31.6749 31.052 31.6639 31.0495 31.6538 31.0447C31.6438 31.0398 31.6349 31.0328 31.628 31.024C31.6176 31.0088 31.6134 30.9901 31.6164 30.9718C31.6194 30.9536 31.6293 30.9372 31.644 30.926C31.7321 30.8592 31.835 30.8147 31.944 30.7962C32.053 30.7778 32.1649 30.786 32.27 30.82C32.2795 30.8226 32.2883 30.8271 32.2958 30.8333C32.3034 30.8395 32.3096 30.8472 32.3141 30.8559C32.3185 30.8647 32.321 30.8742 32.3215 30.884C32.322 30.8938 32.3205 30.9036 32.317 30.9127C32.3134 30.9218 32.308 30.9301 32.3011 30.9371C32.2942 30.944 32.2859 30.9494 32.2768 30.9529C32.2676 30.9564 32.2579 30.958 32.2481 30.9575C32.2383 30.957 32.2288 30.9544 32.22 30.95C32.1365 30.9244 32.048 30.9192 31.9621 30.9349C31.8761 30.9505 31.7951 30.9866 31.726 31.04C31.7142 31.0479 31.7002 31.0521 31.686 31.052Z" fill="#263238"/>
<path d="M28.06 32.6001C28.26 33.6741 28.48 35.6441 27.728 36.3621C27.728 36.3621 28.022 37.4521 30.02 37.4521C32.22 37.4521 31.068 36.3621 31.068 36.3621C29.868 36.0741 29.902 35.1861 30.11 34.3501L28.06 32.6001Z" fill="#E4897B"/>
<path d="M26.8301 36.9279C27.0681 36.5579 26.6681 35.6599 26.6681 35.6599C26.6681 35.6599 30.2041 34.7699 31.6501 36.1359C31.9501 36.4179 31.6181 36.8339 31.6181 36.8339L26.8301 36.9279Z" fill="#407BFF"/>
<path opacity="0.1" d="M26.8301 36.9279C27.0681 36.5579 26.6681 35.6599 26.6681 35.6599C26.6681 35.6599 30.2041 34.7699 31.6501 36.1359C31.9501 36.4179 31.6181 36.8339 31.6181 36.8339L26.8301 36.9279Z" fill="black"/>
<path d="M20.98 77.734C20.794 77.734 20.496 77.424 20.408 77.308C20.4042 77.3023 20.4022 77.2957 20.4022 77.289C20.4022 77.2822 20.4042 77.2756 20.408 77.27C20.4113 77.2644 20.4159 77.2597 20.4216 77.2566C20.4272 77.2534 20.4336 77.2518 20.44 77.252C20.462 77.252 20.952 77.296 21.086 77.47C21.1006 77.4883 21.111 77.5097 21.1165 77.5324C21.1221 77.5552 21.1226 77.579 21.118 77.602C21.1163 77.6317 21.1053 77.6602 21.0867 77.6835C21.0681 77.7068 21.0427 77.7237 21.014 77.732L20.98 77.734ZM20.516 77.334C20.662 77.502 20.896 77.692 20.996 77.668C20.996 77.668 21.036 77.658 21.048 77.594C21.0507 77.5806 21.0502 77.5668 21.0468 77.5537C21.0433 77.5405 21.0369 77.5283 21.028 77.518C20.8799 77.4057 20.7016 77.3403 20.516 77.33V77.334Z" fill="#407BFF"/>
<path d="M20.538 77.3299C20.5021 77.3335 20.4659 77.3335 20.43 77.3299C20.4237 77.3294 20.4176 77.3271 20.4126 77.3232C20.4077 77.3192 20.4039 77.3139 20.402 77.3079C20.3992 77.3023 20.3977 77.2962 20.3977 77.2899C20.3977 77.2837 20.3992 77.2775 20.402 77.2719C20.416 77.2599 20.71 76.9539 20.932 76.9539C20.9585 76.9533 20.9849 76.9583 21.0094 76.9687C21.0339 76.979 21.0559 76.9944 21.074 77.0139C21.0939 77.0306 21.1075 77.0535 21.1126 77.079C21.1177 77.1044 21.114 77.1309 21.102 77.1539C21.044 77.2659 20.738 77.3299 20.538 77.3299ZM20.512 77.2599C20.712 77.2599 21.002 77.1979 21.05 77.1099C21.05 77.1099 21.064 77.0839 21.032 77.0519C21.0203 77.0393 21.0061 77.0293 20.9902 77.0227C20.9743 77.0162 20.9572 77.0132 20.94 77.0139C20.776 77.0515 20.627 77.1372 20.512 77.2599Z" fill="#407BFF"/>
<path d="M34.178 82.274C34.0265 82.2729 33.8752 82.2589 33.726 82.232C33.7186 82.2306 33.712 82.2266 33.7072 82.2207C33.7025 82.2149 33.6999 82.2075 33.7 82.2C33.6989 82.1931 33.6998 82.186 33.7027 82.1796C33.7055 82.1732 33.7102 82.1678 33.716 82.164C33.738 82.152 34.25 81.858 34.496 81.926C34.5189 81.9311 34.5404 81.9409 34.5593 81.9546C34.5782 81.9684 34.5941 81.9859 34.606 82.006C34.6217 82.0282 34.6301 82.0548 34.6301 82.082C34.6301 82.1092 34.6217 82.1357 34.606 82.158C34.548 82.248 34.366 82.274 34.178 82.274ZM33.84 82.18C34.112 82.22 34.484 82.218 34.552 82.122C34.562 82.11 34.57 82.088 34.552 82.046C34.5368 82.0211 34.5124 82.0031 34.484 81.996C34.328 81.956 34.018 82.088 33.84 82.18Z" fill="#407BFF"/>
<path d="M33.734 82.234C33.7275 82.2358 33.7205 82.2358 33.714 82.234C33.7085 82.2304 33.7041 82.2252 33.7016 82.2192C33.6991 82.2131 33.6986 82.2064 33.7 82.1999C33.7136 81.9918 33.7935 81.7934 33.928 81.634C33.9552 81.6105 33.9872 81.5931 34.0217 81.5831C34.0562 81.5731 34.0925 81.5707 34.128 81.576C34.224 81.576 34.252 81.6339 34.258 81.6719C34.284 81.8379 33.934 82.1559 33.756 82.2359L33.734 82.234ZM34.092 81.634C34.048 81.6336 34.0054 81.6493 33.972 81.678C33.8589 81.8043 33.7889 81.9632 33.772 82.132C33.952 82.022 34.192 81.7739 34.172 81.6739C34.172 81.6739 34.172 81.64 34.104 81.634H34.092Z" fill="#407BFF"/>
<path d="M32.118 82.1979H33.588L33.734 78.7959H32.264L32.118 82.1979Z" fill="#E4897B"/>
<path d="M19.0281 76.3579L20.2561 77.1619L22.9681 74.8719L21.7381 74.0659L19.0281 76.3579Z" fill="#E4897B"/>
<path d="M20.458 77.0859L19.182 76.0399C19.1595 76.0214 19.1312 76.0112 19.102 76.0112C19.0729 76.0112 19.0446 76.0214 19.022 76.0399L17.97 76.8659C17.9446 76.8861 17.9241 76.9118 17.91 76.9411C17.8959 76.9703 17.8885 77.0024 17.8885 77.0349C17.8885 77.0674 17.8959 77.0994 17.91 77.1287C17.9241 77.158 17.9446 77.1837 17.97 77.2039C18.422 77.5619 18.66 77.7139 19.222 78.1739C19.568 78.4559 20.422 79.3199 20.904 79.7099C21.386 80.0999 21.828 79.6799 21.668 79.4779C20.95 78.5679 20.668 77.7899 20.586 77.3079C20.5719 77.2208 20.5263 77.1418 20.458 77.0859Z" fill="#263238"/>
<path d="M33.578 82.0281H31.978C31.9488 82.0282 31.9205 82.0381 31.8977 82.0562C31.8748 82.0744 31.8587 82.0997 31.852 82.1281L31.562 83.4341C31.5547 83.4657 31.5547 83.4986 31.562 83.5303C31.5693 83.5619 31.5837 83.5915 31.6042 83.6167C31.6246 83.642 31.6505 83.6622 31.6799 83.676C31.7093 83.6897 31.7415 83.6966 31.774 83.6961C32.352 83.6861 33.188 83.6521 33.916 83.6521C34.766 83.6521 35.502 83.6981 36.498 83.6981C37.098 83.6981 37.27 83.0881 37.016 83.0341C35.868 82.7821 34.928 82.7561 33.936 82.1421C33.8295 82.0716 33.7056 82.0321 33.578 82.0281Z" fill="#263238"/>
<path d="M24.832 36.8C23.558 37.4 22.832 41.42 22.832 41.42L25.946 42.662C26.4018 41.549 26.7703 40.4022 27.048 39.232C27.476 37.38 26.136 36.18 24.832 36.8Z" fill="#263238"/>
<path d="M26.484 39.066C25.714 39.846 25.362 41.374 25.208 42.368L25.954 42.666C26.3969 41.5846 26.7579 40.4715 27.034 39.336C26.968 38.912 26.804 38.742 26.484 39.066Z" fill="#203048"/>
<path d="M33.328 36.7719C33.328 36.7719 34.892 38.5399 33.416 49.4719H25.558C25.504 48.2719 26.262 42.3819 25.098 36.6979C25.9664 36.5296 26.845 36.4187 27.728 36.3659C28.8404 36.2999 29.9557 36.2999 31.068 36.3659C31.8307 36.4427 32.5863 36.5784 33.328 36.7719Z" fill="#263238"/>
<path d="M34.046 41.0159L32.722 38.7339C32.4665 39.7986 32.3621 40.894 32.412 41.9879C32.448 42.7719 33.166 45.6759 33.812 46.0999C33.9835 44.4108 34.0616 42.7136 34.046 41.0159Z" fill="#203048"/>
<path d="M34.23 38.334C34.43 39.306 34.63 40.302 34.844 41.278C35.058 42.254 35.28 43.234 35.538 44.18C35.604 44.414 35.666 44.654 35.738 44.878L35.792 45.05L35.818 45.136V45.126C35.804 45.108 35.788 45.106 35.8 45.126C35.8822 45.2158 35.9873 45.2814 36.104 45.316C36.2931 45.3863 36.4878 45.4405 36.686 45.478C37.6316 45.6278 38.589 45.6901 39.546 45.664L39.736 46.752C39.468 46.838 39.218 46.9 38.954 46.962C38.69 47.024 38.43 47.076 38.164 47.116C37.6137 47.2076 37.0557 47.2451 36.498 47.228C36.1881 47.2196 35.8798 47.1794 35.578 47.108C35.1943 47.0241 34.8338 46.8568 34.522 46.618C34.3184 46.4536 34.1503 46.2494 34.028 46.018C33.996 45.958 33.968 45.89 33.942 45.832L33.906 45.738L33.832 45.538C33.73 45.284 33.646 45.034 33.554 44.784C33.216 43.784 32.934 42.774 32.686 41.766C32.438 40.758 32.224 39.752 32.046 38.718L34.23 38.334Z" fill="#E4897B"/>
<path d="M31.366 37.8439C30.952 39.1859 32.63 43.1879 32.63 43.1879L35.972 42.3479C35.972 42.3479 35.844 40.2679 35.082 38.6179C33.934 36.1299 31.862 36.2339 31.366 37.8439Z" fill="#263238"/>
<path d="M39.518 45.6641L41.182 45.6221L40.382 47.3541C40.382 47.3541 39.704 47.4441 39.148 46.5301L38.562 45.8301L39.236 45.6961C39.3288 45.6765 39.4232 45.6658 39.518 45.6641Z" fill="#E4897B"/>
<path d="M42.2321 45.9441L41.2801 47.3801L40.3821 47.3541L41.1821 45.6221L42.2321 45.9441Z" fill="#E4897B"/>
<path d="M33.734 78.7959L33.658 80.5499H32.188L32.264 78.7959H33.734Z" fill="#CE6F64"/>
<path d="M21.7381 74.0659L22.9681 74.8719L21.5681 76.0519L20.3401 75.2479L21.7381 74.0659Z" fill="#CE6F64"/>
<path d="M28.152 31.4559C28.24 32.9099 28.218 33.7679 28.952 34.5139C30.056 35.6399 31.854 34.9739 32.202 33.5139C32.516 32.2059 32.32 30.0459 30.896 29.4659C30.5818 29.3391 30.2406 29.2942 29.9042 29.3354C29.5679 29.3766 29.2476 29.5026 28.9733 29.7015C28.699 29.9004 28.4797 30.1658 28.3361 30.4727C28.1924 30.7795 28.1291 31.1179 28.152 31.4559Z" fill="#E4897B"/>
<path d="M26.44 31.2C26.802 32.526 27.654 34.054 28.756 34.152C30.124 34.272 30.742 32.858 30.922 31.398C31.742 30.836 31.312 30.218 32.134 30.14C33.19 30.04 32.852 28.108 31.462 27.798C31.462 27.798 31.928 28.668 30.95 28.228C30.0199 27.786 28.9866 27.6069 27.962 27.71C27.962 27.71 29.21 28.334 27.99 28.612C26.77 28.89 26.406 29.642 26.968 30.096C26.968 30.098 26.202 30.328 26.44 31.2Z" fill="#263238"/>
<path d="M30.0881 31.6981C30.1149 32.0595 30.2605 32.4019 30.5021 32.6721C30.8221 33.0261 31.1561 32.8061 31.2121 32.3761C31.2641 31.9901 31.1581 31.3401 30.7661 31.1441C30.3741 30.9481 30.0621 31.2621 30.0881 31.6981Z" fill="#E4897B"/>
<path d="M30.628 49.472C30.628 49.472 32.06 59.842 30.932 63.998C29.144 70.578 22.308 76.132 22.308 76.132L19.99 74.612C19.99 74.612 25.812 69.922 26.524 64.412C27.164 59.466 25.558 53.484 25.558 49.47L30.628 49.472Z" fill="#407BFF"/>
<path opacity="0.1" d="M30.628 49.472C30.628 49.472 32.06 59.842 30.932 63.998C29.144 70.578 22.308 76.132 22.308 76.132L19.99 74.612C19.99 74.612 25.812 69.922 26.524 64.412C27.164 59.466 25.558 53.484 25.558 49.47L30.628 49.472Z" fill="black"/>
<path d="M31.2201 55.4C30.8388 54.9632 30.4192 54.5616 29.9661 54.2C30.2101 57.566 30.4101 62.552 30.1881 66.094C30.4866 65.4149 30.7352 64.7151 30.9321 64C31.4821 61.97 31.4241 58.464 31.2201 55.4Z" fill="#407BFF"/>
<path opacity="0.3" d="M31.2201 55.4C30.8388 54.9632 30.4192 54.5616 29.9661 54.2C30.2101 57.566 30.4101 62.552 30.1881 66.094C30.4866 65.4149 30.7352 64.7151 30.9321 64C31.4821 61.97 31.4241 58.464 31.2201 55.4Z" fill="black"/>
<path d="M23.242 75.6141C23.252 75.6141 22.344 76.2141 22.344 76.2141L19.812 74.5541L20.612 73.8921L23.242 75.6141Z" fill="#407BFF"/>
<path opacity="0.3" d="M23.242 75.6141C23.252 75.6141 22.344 76.2141 22.344 76.2141L19.812 74.5541L20.612 73.8921L23.242 75.6141Z" fill="black"/>
<path d="M33.416 49.4719C33.416 49.4719 35.628 58.8519 35.784 63.3339C35.96 68.3579 34.206 80.2099 34.206 80.2099H31.716C31.716 80.2099 31.41 68.2659 31.3 63.6899C31.178 58.6999 28.25 49.4719 28.25 49.4719H33.416Z" fill="#407BFF"/>
<path opacity="0.1" d="M33.416 49.4719C33.416 49.4719 35.628 58.8519 35.784 63.3339C35.96 68.3579 34.206 80.2099 34.206 80.2099H31.716C31.716 80.2099 31.41 68.2659 31.3 63.6899C31.178 58.6999 28.25 49.4719 28.25 49.4719H33.416Z" fill="black"/>
<path d="M34.6841 79.22C34.6961 79.22 34.5441 80.252 34.5441 80.252H31.5161L31.4341 79.33L34.6841 79.22Z" fill="#407BFF"/>
<path opacity="0.3" d="M34.6841 79.22C34.6961 79.22 34.5441 80.252 34.5441 80.252H31.5161L31.4341 79.33L34.6841 79.22Z" fill="black"/>
<path d="M71.7 40.458C71.87 40.618 72.004 40.754 72.144 40.906C72.284 41.058 72.416 41.206 72.544 41.36C72.804 41.666 73.048 41.988 73.284 42.312C73.7553 42.9619 74.1746 43.6481 74.538 44.364L74.612 44.51C74.6481 44.5807 74.6782 44.6543 74.702 44.73C74.7503 44.8764 74.7799 45.0282 74.79 45.182C74.803 45.4532 74.7657 45.7244 74.68 45.982C74.5339 46.4099 74.3168 46.8101 74.038 47.166C73.5354 47.8114 72.9427 48.3813 72.278 48.858L71.78 48.286C72.014 48.012 72.258 47.718 72.476 47.424C72.6978 47.1391 72.8983 46.8383 73.076 46.524C73.2419 46.2497 73.3647 45.9516 73.44 45.64C73.4658 45.5285 73.4706 45.4132 73.454 45.3C73.4468 45.2619 73.4347 45.2249 73.418 45.19C73.4105 45.1747 73.4018 45.16 73.392 45.146L73.328 45.038C72.9423 44.4091 72.5237 43.8009 72.074 43.216C71.852 42.922 71.614 42.64 71.374 42.362C71.256 42.222 71.134 42.086 71.012 41.95C70.89 41.814 70.758 41.678 70.652 41.572L71.7 40.458Z" fill="#E4897B"/>
<path d="M71.9719 48.118L70.4779 47.874L71.2599 49.182C71.2599 49.182 72.2219 49.148 72.4959 48.582L71.9719 48.118Z" fill="#E4897B"/>
<path d="M69.3739 48.478L70.0859 49.54L71.2599 49.182L70.4779 47.874L69.3739 48.478Z" fill="#E4897B"/>
<path d="M71.9 82.2561C71.7984 82.2649 71.6971 82.2372 71.614 82.1781C71.5889 82.1545 71.5704 82.1247 71.5603 82.0918C71.5501 82.0588 71.5486 82.0238 71.556 81.9901C71.5574 81.9687 71.5647 81.948 71.5771 81.9304C71.5894 81.9128 71.6063 81.8988 71.626 81.8901C71.8 81.8121 72.256 82.1041 72.308 82.1381C72.3139 82.1418 72.3185 82.1473 72.321 82.1538C72.3236 82.1603 72.3239 82.1674 72.322 82.1741C72.3212 82.181 72.3183 82.1874 72.3136 82.1924C72.3089 82.1975 72.3028 82.2009 72.296 82.2021C72.1665 82.235 72.0336 82.2531 71.9 82.2561ZM71.7 81.9461C71.6854 81.9439 71.6706 81.9439 71.656 81.9461C71.6472 81.9502 71.6397 81.9567 71.6344 81.9649C71.6291 81.973 71.6262 81.9824 71.626 81.9921C71.6207 82.0145 71.6212 82.0378 71.6275 82.0598C71.6338 82.0819 71.6457 82.102 71.662 82.1181C71.738 82.1861 71.934 82.1961 72.196 82.1441C72.0459 82.045 71.8771 81.9776 71.7 81.9461Z" fill="#407BFF"/>
<path d="M72.3 82.2H72.282C72.14 82.118 71.866 81.8 71.9 81.626C71.9065 81.5986 71.9217 81.574 71.9433 81.556C71.9649 81.5379 71.9919 81.5274 72.02 81.526C72.047 81.5221 72.0745 81.5244 72.1005 81.5327C72.1265 81.5411 72.1503 81.5552 72.17 81.574C72.334 81.718 72.336 82.15 72.336 82.174C72.3356 82.1801 72.3338 82.186 72.3306 82.1912C72.3275 82.1964 72.3232 82.2008 72.318 82.204L72.3 82.2ZM72.044 81.6H72.028C71.984 81.6 71.974 81.624 71.97 81.642C71.95 81.744 72.12 81.988 72.262 82.102C72.2655 81.9342 72.2173 81.7695 72.124 81.63C72.112 81.6188 72.0978 81.6104 72.0823 81.6052C72.0667 81.6 72.0503 81.5983 72.034 81.6H72.044Z" fill="#407BFF"/>
<path d="M65.0839 82.256C64.9562 82.2682 64.8283 82.2357 64.7219 82.164C64.6979 82.1427 64.6794 82.116 64.6679 82.0861C64.6565 82.0561 64.6523 82.0239 64.6559 81.992C64.6572 81.9726 64.6634 81.9538 64.6739 81.9373C64.6844 81.9209 64.6988 81.9074 64.7159 81.898C64.9019 81.794 65.4979 82.098 65.5659 82.136C65.5722 82.1401 65.5771 82.1458 65.5803 82.1525C65.5835 82.1592 65.5847 82.1666 65.5839 82.174C65.5828 82.181 65.5794 82.1875 65.5744 82.1925C65.5694 82.1975 65.5629 82.2009 65.5559 82.202C65.4007 82.235 65.2426 82.2531 65.0839 82.256ZM64.8179 81.946C64.795 81.9445 64.7722 81.9493 64.7519 81.96C64.7447 81.9634 64.7387 81.9688 64.7344 81.9755C64.7302 81.9823 64.7279 81.9901 64.7279 81.998C64.7249 82.0188 64.7269 82.0401 64.7339 82.06C64.7408 82.0798 64.7525 82.0977 64.7679 82.112C64.8599 82.194 65.1059 82.208 65.4379 82.152C65.2443 82.0489 65.0347 81.9793 64.8179 81.946Z" fill="#407BFF"/>
<path d="M65.5499 82.1999H65.5339C65.3559 82.1199 65.0019 81.7999 65.0299 81.6259C65.0299 81.5859 65.0659 81.5359 65.1639 81.5259C65.1997 81.5221 65.2359 81.5256 65.2703 81.5363C65.3047 81.5469 65.3365 81.5645 65.3639 81.5879C65.5519 81.7439 65.5879 82.1479 65.5879 82.1659C65.5887 82.172 65.5878 82.1782 65.5853 82.1839C65.5828 82.1895 65.5789 82.1944 65.5739 82.1979C65.5663 82.2012 65.5579 82.2019 65.5499 82.1999ZM65.1919 81.5999H65.1699C65.1059 81.5999 65.1019 81.6319 65.0999 81.6399C65.0839 81.7419 65.3239 81.9959 65.4999 82.1059C65.4825 81.935 65.4127 81.7736 65.2999 81.6439C65.2695 81.6181 65.2317 81.6026 65.1919 81.5999Z" fill="#407BFF"/>
<path d="M67.9139 35.8601C67.8559 36.7641 67.6999 38.6001 68.3939 39.1081C68.3939 39.1081 68.2679 40.0341 66.6299 40.2501C64.8299 40.4841 65.6519 39.4681 65.6519 39.4681C66.6059 39.1041 66.4839 38.3781 66.2239 37.7141L67.9139 35.8601Z" fill="#E4897B"/>
<path d="M64.1879 34.262C64.178 34.262 64.1682 34.2599 64.1592 34.2557C64.1503 34.2516 64.1423 34.2455 64.1359 34.238C64.0787 34.1702 64.0064 34.1167 63.9247 34.082C63.8431 34.0472 63.7544 34.0322 63.6659 34.038C63.6565 34.0397 63.6469 34.0395 63.6377 34.0374C63.6284 34.0352 63.6197 34.0312 63.612 34.0256C63.6043 34.02 63.5979 34.0129 63.593 34.0047C63.5882 33.9965 63.5851 33.9874 63.5839 33.978C63.5816 33.9592 63.5869 33.9402 63.5985 33.9253C63.6101 33.9103 63.6271 33.9005 63.6459 33.898C63.7588 33.8885 63.8724 33.9064 63.9769 33.9503C64.0813 33.9942 64.1737 34.0627 64.2459 34.15C64.2546 34.1604 64.2601 34.1731 64.2619 34.1865C64.2637 34.2 64.2616 34.2136 64.256 34.226C64.2503 34.2383 64.2413 34.2488 64.23 34.2562C64.2187 34.2637 64.2054 34.2677 64.1919 34.268L64.1879 34.262Z" fill="#263238"/>
<path d="M63.8759 35.1479C63.805 35.4348 63.6953 35.7107 63.5499 35.9679C63.6167 36.0039 63.6905 36.0247 63.7662 36.0288C63.842 36.033 63.9176 36.0204 63.9879 35.9919L63.8759 35.1479Z" fill="#DE5753"/>
<path d="M63.9559 34.9281C63.9719 35.0481 63.9219 35.1521 63.8439 35.1641C63.7659 35.1761 63.6879 35.0841 63.6739 34.9641C63.6599 34.8441 63.7079 34.7401 63.7859 34.7301C63.8639 34.7201 63.9419 34.8001 63.9559 34.9281Z" fill="#263238"/>
<path d="M63.8219 34.732L63.5239 34.686C63.5239 34.686 63.6999 34.892 63.8219 34.732Z" fill="#263238"/>
<path d="M67.1979 82.168H65.6979L65.5979 78.698H67.0979L67.1979 82.168Z" fill="#E4897B"/>
<path d="M74.008 82.168H72.508L72.026 78.698H73.526L74.008 82.168Z" fill="#E4897B"/>
<path d="M72.416 82H74.1C74.1287 81.9997 74.1565 82.01 74.1782 82.0287C74.1999 82.0475 74.2141 82.0736 74.218 82.102L74.418 83.436C74.4216 83.4696 74.4181 83.5037 74.4077 83.5359C74.3973 83.568 74.3802 83.5977 74.3576 83.6228C74.3349 83.6479 74.3072 83.6679 74.2762 83.6816C74.2453 83.6952 74.2118 83.7022 74.178 83.702C73.592 83.692 73.308 83.658 72.568 83.658C72.112 83.658 71.446 83.704 70.818 83.704C70.19 83.704 70.156 83.082 70.418 83.026C71.592 82.774 71.778 82.426 72.172 82.092C72.2407 82.0349 72.3266 82.0026 72.416 82Z" fill="#263238"/>
<path d="M65.6479 82H67.3299C67.3589 81.9997 67.387 82.0098 67.409 82.0286C67.4311 82.0473 67.4456 82.0734 67.4499 82.102L67.6499 83.436C67.6536 83.4696 67.6501 83.5037 67.6397 83.5359C67.6293 83.568 67.6122 83.5977 67.5895 83.6228C67.5669 83.6479 67.5392 83.6679 67.5082 83.6816C67.4773 83.6953 67.4438 83.7022 67.4099 83.702C66.8239 83.692 66.5399 83.658 65.7999 83.658C65.3439 83.658 64.3999 83.704 63.7719 83.704C63.1439 83.704 63.1099 83.082 63.3719 83.026C64.5459 82.774 65.0079 82.426 65.4039 82.092C65.4727 82.0349 65.5586 82.0026 65.6479 82Z" fill="#263238"/>
<path d="M65.5979 78.698L65.6499 80.488H67.1499L67.0979 78.698H65.5979Z" fill="#CE6F64"/>
<path d="M73.526 78.698H72.026L72.276 80.488H73.774L73.526 78.698Z" fill="#CE6F64"/>
<path d="M67.9339 33.9879C68.0359 35.4719 68.1099 36.0979 67.4659 36.9519C66.4959 38.2339 64.6519 38.0359 64.1079 36.6119C63.6179 35.3299 63.5339 33.1199 64.8979 32.3439C65.198 32.172 65.537 32.0795 65.8828 32.0753C66.2287 32.0712 66.5698 32.1554 66.8739 32.3201C67.1781 32.4848 67.4351 32.7244 67.6206 33.0163C67.8061 33.3082 67.914 33.6427 67.9339 33.9879Z" fill="#E4897B"/>
<path d="M68.7979 35.366C69.6299 35.83 70.2479 34.686 70.2479 34.686C70.2479 34.686 68.7559 34.848 68.8899 33.96C69.0659 32.782 68.2219 31.35 66.1059 31.534C65.9879 31.544 65.8759 31.558 65.7659 31.576C65.5444 31.471 65.2939 31.4439 65.055 31.4991C64.8162 31.5543 64.6029 31.6885 64.4499 31.88C63.8499 31.93 63.0399 32.646 63.5899 33.592C63.6285 33.4833 63.6883 33.3834 63.7659 33.298C63.8119 33.852 64.2959 34.732 64.8999 34.79C65.0299 35.548 64.5259 36.426 64.6999 37.218C64.9579 38.36 66.8839 38.618 66.8839 38.618C66.8175 38.4754 66.7928 38.3169 66.8126 38.1609C66.8324 38.0048 66.896 37.8575 66.9959 37.736C68.3039 38.336 69.1659 37.75 69.1659 37.75C68.2739 37.418 68.5439 36.826 68.5439 36.826C68.8519 36.9628 69.2009 36.9748 69.5176 36.8596C69.8342 36.7443 70.0939 36.5108 70.2419 36.208C69.9456 36.2221 69.6516 36.1501 69.3953 36.0007C69.1391 35.8512 68.9316 35.6308 68.7979 35.366Z" fill="#263238"/>
<path d="M65.422 35.0181C65.4255 35.1605 65.4008 35.3022 65.3493 35.4351C65.2978 35.5679 65.2205 35.6893 65.122 35.7921C64.858 36.0661 64.534 35.8741 64.446 35.5241C64.368 35.2081 64.412 34.6861 64.756 34.5421C64.8317 34.5124 64.9136 34.502 64.9943 34.512C65.0751 34.522 65.152 34.552 65.2182 34.5993C65.2844 34.6466 65.3377 34.7097 65.3733 34.7828C65.4089 34.856 65.4256 34.9368 65.422 35.0181Z" fill="#E4897B"/>
<path d="M66.668 48.8441C66.668 48.8441 67.048 58.7161 67.952 64.5121C68.68 69.1961 71.914 80.1401 71.914 80.1401H73.958C73.958 80.1401 72.272 69.5701 71.902 64.9401C70.966 53.2221 73.396 50.7061 71.102 48.2661L66.668 48.8441Z" fill="#263238"/>
<path d="M68.376 51.9659C68.376 51.9659 67.452 51.8059 66.912 53.5659C67.112 56.8999 67.454 61.3239 67.952 64.5119C68.062 65.2219 68.23 66.0779 68.436 67.0159C68.046 61.3839 68.376 51.9659 68.376 51.9659Z" fill="#161F33"/>
<path d="M65.074 49.052C65.074 49.052 63.39 59.974 63.488 64.544C63.59 69.298 65.332 80.144 65.332 80.144H67.358C67.358 80.144 67.038 69.58 67.216 64.912C67.416 59.822 69.494 48.478 69.494 48.478L65.074 49.052Z" fill="#263238"/>
<path d="M74.254 80.236H71.536L71.324 79.324L74.234 79.344L74.254 80.236Z" fill="#407BFF"/>
<path opacity="0.2" d="M74.254 80.236H71.536L71.324 79.324L74.234 79.344L74.254 80.236Z" fill="black"/>
<path d="M70.9999 39.11C71.7819 39.186 72.9699 41.408 72.9699 41.408L70.9959 42.922C70.9959 42.922 69.3619 41.488 69.5559 40.682C69.7579 39.844 70.2499 39.04 70.9999 39.11Z" fill="#407BFF"/>
<path opacity="0.1" d="M70.9999 39.11C71.7819 39.186 72.9699 41.408 72.9699 41.408L70.9959 42.922C70.9959 42.922 69.3619 41.488 69.5559 40.682C69.7579 39.844 70.2499 39.04 70.9999 39.11Z" fill="black"/>
<path d="M70.41 40.0661C70.2106 40.0124 70.0042 39.9895 69.798 39.9981C69.693 40.2168 69.6119 40.4461 69.556 40.6821C69.356 41.4821 70.996 42.9221 70.996 42.9221L71.142 42.8101L70.41 40.0661Z" fill="#407BFF"/>
<path opacity="0.3" d="M70.41 40.0661C70.2106 40.0124 70.0042 39.9895 69.798 39.9981C69.693 40.2168 69.6119 40.4461 69.556 40.6821C69.356 41.4821 70.996 42.9221 70.996 42.9221L71.142 42.8101L70.41 40.0661Z" fill="black"/>
<path d="M64.404 42.2001C63.834 43.6421 63.234 45.1081 62.756 46.5541C62.724 46.6461 62.698 46.7341 62.67 46.8241L62.602 47.0461C62.5834 47.1115 62.5834 47.1807 62.602 47.2461C62.7148 47.4961 62.894 47.7105 63.12 47.8661C63.7179 48.2951 64.3695 48.6441 65.058 48.9041L64.878 49.6401C64.031 49.5284 63.2119 49.2613 62.462 48.8521C62.0004 48.6055 61.6245 48.2248 61.384 47.7601C61.2458 47.4631 61.1978 47.1321 61.246 46.8081C61.2505 46.7684 61.2572 46.729 61.2659 46.6901L61.286 46.6061L61.32 46.4541C61.344 46.3521 61.368 46.2541 61.394 46.1541C61.594 45.3541 61.85 44.5941 62.12 43.8401C62.39 43.0861 62.672 42.3421 62.99 41.6001L64.404 42.2001Z" fill="#E4897B"/>
<path d="M63.19 40.176C63.19 40.176 62.514 40.518 65.074 49.052L71.11 48.264C70.686 45.82 70.486 44.306 71 39.11C70.1344 39.048 69.2656 39.048 68.4 39.11C67.4785 39.1635 66.5621 39.2839 65.658 39.47C64.5 39.728 63.19 40.176 63.19 40.176Z" fill="#407BFF"/>
<path opacity="0.1" d="M63.19 40.176C63.19 40.176 62.514 40.518 65.074 49.052L71.11 48.264C70.686 45.82 70.486 44.306 71 39.11C70.1344 39.048 69.2656 39.048 68.4 39.11C67.4785 39.1635 66.5621 39.2839 65.658 39.47C64.5 39.728 63.19 40.176 63.19 40.176Z" fill="black"/>
<path d="M71.154 47.898L71.5 48.4C71.526 48.44 71.482 48.488 71.414 48.498L65.084 49.326C65.03 49.326 64.98 49.312 64.972 49.278L64.848 48.744C64.838 48.708 64.882 48.67 64.942 48.662L71.054 47.862C71.0723 47.859 71.0911 47.8608 71.1086 47.8671C71.1261 47.8734 71.1417 47.884 71.154 47.898Z" fill="#407BFF"/>
<path opacity="0.2" d="M71.154 47.898L71.5 48.4C71.526 48.44 71.482 48.488 71.414 48.498L65.084 49.326C65.03 49.326 64.98 49.312 64.972 49.278L64.848 48.744C64.838 48.708 64.882 48.67 64.942 48.662L71.054 47.862C71.0723 47.859 71.0911 47.8608 71.1086 47.8671C71.1261 47.8734 71.1417 47.884 71.154 47.898Z" fill="black"/>
<path d="M70.4219 48.6879L70.5859 48.6659C70.6179 48.6659 70.6399 48.6419 70.6359 48.6219L70.4679 47.9299C70.4616 47.9181 70.4513 47.9089 70.4389 47.9038C70.4265 47.8987 70.4127 47.898 70.3999 47.9019L70.2359 47.9219C70.2019 47.9219 70.1799 47.9459 70.1859 47.9679L70.3539 48.6579C70.3579 48.6799 70.3899 48.6919 70.4219 48.6879Z" fill="#263238"/>
<path d="M66.454 49.2L66.618 49.178C66.65 49.178 66.674 49.154 66.668 49.134L66.5 48.442C66.4934 48.4303 66.4832 48.4211 66.471 48.4157C66.4587 48.4103 66.445 48.409 66.432 48.412L66.268 48.434C66.236 48.434 66.212 48.458 66.218 48.478L66.386 49.17C66.39 49.2 66.422 49.212 66.454 49.2Z" fill="#263238"/>
<path d="M63.4719 43.0721C63.6379 43.8441 63.8719 44.8221 64.2139 46.0601L64.2879 42.9221L63.4719 43.0721Z" fill="#407BFF"/>
<path opacity="0.3" d="M63.4719 43.0721C63.6379 43.8441 63.8719 44.8221 64.2139 46.0601L64.2879 42.9221L63.4719 43.0721Z" fill="black"/>
<path d="M63.1899 40.176C62.4399 40.478 61.7899 43.044 61.7899 43.044L64.3699 44.3C64.3699 44.3 65.6159 41.162 65.0579 40.55C64.4999 39.938 64.0539 39.83 63.1899 40.176Z" fill="#407BFF"/>
<path opacity="0.1" d="M63.1899 40.176C62.4399 40.478 61.7899 43.044 61.7899 43.044L64.3699 44.3C64.3699 44.3 65.6159 41.162 65.0579 40.55C64.4999 39.938 64.0539 39.83 63.1899 40.176Z" fill="black"/>
<path d="M67.7039 80.236H64.9859L64.7739 79.324L67.7999 79.344L67.7039 80.236Z" fill="#407BFF"/>
<path opacity="0.2" d="M67.7039 80.236H64.9859L64.7739 79.324L67.7999 79.344L67.7039 80.236Z" fill="black"/>
<path d="M65.1 48.6562L64.882 48.5662C64.8284 48.5444 64.77 48.5371 64.7127 48.5452C64.6554 48.5533 64.6013 48.5763 64.5558 48.6121C64.5103 48.6478 64.4751 48.695 64.4537 48.7487C64.4323 48.8025 64.4255 48.8609 64.434 48.9182L64.592 49.9602C64.5996 50.0123 64.6186 50.0621 64.6478 50.106C64.677 50.1499 64.7156 50.1868 64.7607 50.2139C64.8059 50.2411 64.8565 50.2579 64.909 50.2631C64.9614 50.2684 65.0143 50.2619 65.064 50.2442C65.1433 50.2153 65.2175 50.1742 65.284 50.1222C65.3563 50.0622 65.4135 49.986 65.451 49.8999C65.4886 49.8137 65.5053 49.72 65.5 49.6262L65.478 49.1942C65.4742 49.0774 65.4364 48.9643 65.3692 48.8688C65.3021 48.7732 65.2085 48.6993 65.1 48.6562Z" fill="#E4897B"/>
</g>
<defs>
<clipPath id="clip0_393_18808">
<rect width="100" height="100" fill="white" transform="translate(0.5)"/>
</clipPath>
</defs>
</svg>
