<svg width="65" height="64" viewBox="0 0 65 64" fill="none" xmlns="http://www.w3.org/2000/svg">
<rect x="0.5" width="64" height="64" rx="32" fill="#F2F4F7"/>
<path d="M37.1008 41.3529C38.0326 40.4355 37.5298 38.3283 36.0076 35.8941C36.5608 35.8077 37.078 35.6757 37.4692 35.4735C38.8768 34.7469 39.8272 33.4227 40.5466 32.0529C41.32 30.5835 41.839 28.9683 42.8482 27.6303C43.0186 27.4041 43.189 27.2013 43.3588 27.0105C45.5362 27.2715 47.2744 27.7395 47.2744 27.7395L47.9386 26.0517C47.1003 25.7508 46.2407 25.5128 45.367 25.3395C45.9022 25.0353 46.2514 24.9405 46.2514 24.9405L45.622 23.2389C44.6128 23.6655 43.7938 24.2949 43.108 25.0485C40.5448 24.9051 37.9636 25.4157 35.9272 26.9949C34.396 28.1829 33.3616 29.8299 32.3884 31.4775C31.5261 30.6313 30.6078 29.8441 29.6398 29.1213C29.8234 28.8195 30.0202 28.5483 30.232 28.3389C31.5118 27.0789 33.2002 26.2731 34.3078 24.8313C36.6358 21.8037 34.933 17.0577 33.0178 14.6001C32.6746 14.9307 32.107 15.4125 31.6798 15.7929C33.7156 17.8779 35.1394 21.5283 33.544 24.2559C32.6524 25.7805 31.0048 26.7369 29.8528 28.0467C29.6536 28.2741 29.4754 28.5621 29.314 28.8801C26.3014 26.7195 23.5366 25.8501 22.441 26.9289C22.3322 27.0402 22.2426 27.1687 22.1758 27.3093L22.1716 27.3051L22.1422 27.3909C22.1014 27.4839 22.0642 27.5805 22.039 27.6861L14.5 49.4001L36.4972 41.7093L36.4912 41.7033C36.7276 41.6271 36.9358 41.5149 37.1008 41.3529ZM18.8758 46.5993L17.0398 45.7437L18.2788 42.1737L23.9614 44.8209L18.8758 46.5993ZM29.0464 43.0431L19.519 38.6037L20.758 35.0343L27.8776 38.6079C23.6278 35.8419 21.997 31.4637 21.997 31.4637L22.4206 30.2439C23.1736 32.1489 24.8302 34.5213 27.1066 36.7605C29.4022 39.0201 31.8352 40.6569 33.7798 41.3883L29.0464 43.0431ZM32.7058 31.7991C33.7006 30.3729 34.726 28.9335 36.1516 27.9093C37.5088 26.9337 39.712 26.7555 41.8006 26.8725C41.095 28.1049 40.5736 29.4723 40.1056 30.7857C39.5398 32.3757 38.7814 34.0245 37.3354 34.9995C36.9454 35.2623 36.3988 35.4543 35.815 35.5965C35.0128 34.3671 33.9604 33.0675 32.7058 31.7991Z" fill="#32D583"/>
<path d="M27.1197 26C27.7209 26 25.9185 24.2 26.2197 22.6214C27.3741 22.5326 30.0129 23.0528 28.4769 20.9432C30.2145 21.2492 31.1145 19.952 29.4741 18.7226C30.0201 18.761 30.8685 17.7314 30.2595 17.6012C28.3083 17.1878 27.5445 18.2432 28.7829 19.7654C27.4809 19.523 26.4195 20.1284 27.3975 21.488C23.6379 21.0194 25.7769 26 27.1197 26ZM40.0269 24.4004C40.5903 24.146 39.6345 22.4654 39.3237 22.0358C41.7015 21.7814 41.6115 21.0728 40.1205 19.5548C44.1741 19.691 40.2459 17.387 40.7967 16.475C41.2737 15.6842 42.7371 16.5134 42.6015 16.073C42.1443 14.6 37.8075 15.596 40.5519 18.3464C38.1567 18.3932 37.9269 19.1762 39.7119 20.7992C36.6027 20.8334 39.1395 24.8 40.0269 24.4004ZM50.3181 30.335C49.3689 30.6008 49.2225 30.5012 49.3491 31.4462C47.1567 30.437 44.8371 29.0336 46.2447 32.7518C43.7547 31.2692 43.8789 32.5676 43.4133 34.7042C42.8073 34.232 41.9463 32.9876 41.9463 32.9876L41.0343 33.7622C41.0343 33.7622 42.7053 36.119 43.5303 35.9852C44.2557 35.8682 44.6505 34.4972 44.6907 33.2888C47.0007 34.2638 48.1065 34.394 47.0499 31.5428C48.8967 32.5802 51.1611 33.4952 50.3181 30.335ZM16.9293 19.6622L18.6261 21.3596L16.9293 23.0564L15.2319 21.3596L16.9293 19.6622ZM20.9943 26.7188L19.2963 28.4156L17.5989 26.7176L19.2969 25.0202L20.9943 26.7188ZM23.6319 17L25.3287 18.6968L23.6313 20.3948L21.9345 18.6968L23.6319 17ZM42.1065 40.6904L40.4085 38.993L42.1053 37.295L43.8033 38.9924L42.1065 40.6904ZM38.3229 46.5116L36.6261 44.8148L38.3229 43.1174L40.0203 44.8148L38.3229 46.5116ZM45.7677 47.852L44.0697 46.1546L45.7659 44.4566L47.4639 46.154L45.7677 47.852ZM47.4645 40.1216L45.7677 38.4242L47.4645 36.7274L49.1613 38.4242L47.4645 40.1216ZM44.6319 18.8L46.3287 20.4968L44.6313 22.1942L42.9345 20.4968L44.6319 18.8Z" fill="#32D583"/>
</svg>
