<svg width="212" height="185" viewBox="0 0 212 185" fill="none" xmlns="http://www.w3.org/2000/svg">
<g clip-path="url(#clip0_180_3160)">
<path fill-rule="evenodd" clip-rule="evenodd" d="M7.70047 78.2634C7.70047 78.2634 106.301 104.243 113.081 0C113.081 0 123.149 33.6792 111.65 66.977C111.282 67.8753 103.169 87.4334 90.2076 100.412C72.7689 116.886 44.6739 129.339 0 131.412C0 131.412 21.0121 112.238 7.70047 78.2634ZM53.789 15.2469C65.7392 15.2472 75.4261 24.9343 75.4261 36.8843C75.4261 48.834 65.7392 58.5211 53.789 58.5211C41.8392 58.5211 32.1521 48.834 32.1521 36.8843C32.1521 24.9343 41.8392 15.2469 53.789 15.2469Z" fill="white"/>
<path fill-rule="evenodd" clip-rule="evenodd" d="M111.65 66.977C109.735 72.5218 107.225 78.0562 103.967 83.4229C126.343 151.239 203.71 130.869 203.71 130.869C190.4 164.843 211.412 184.017 211.412 184.017C120.334 179.791 98.1176 132.444 94.7468 95.7801C93.3211 97.355 91.8084 98.9 90.2075 100.412C103.169 87.4337 111.282 67.8756 111.65 66.9773V66.977ZM157.623 67.8526C145.673 67.8526 135.986 77.5397 135.986 89.4894C135.986 101.439 145.673 111.127 157.623 111.127C169.573 111.127 179.26 101.439 179.26 89.4894C179.26 77.5397 169.573 67.8526 157.623 67.8526Z" fill="white"/>
</g>
<defs>
<clipPath id="clip0_180_3160">
<rect width="211.412" height="184.017" fill="white"/>
</clipPath>
</defs>
</svg>
